<?xml version="1.0" encoding="UTF-8"?><svg xmlns="http://www.w3.org/2000/svg" xmlns:xlink="http://www.w3.org/1999/xlink" viewBox="0 0 74.59 33.85"><defs><style>.cls-1{isolation:isolate;}.cls-2,.cls-3,.cls-4,.cls-5,.cls-6{mix-blend-mode:multiply;}.cls-7{fill:url(#_ÂÁ_Ï_ÌÌ_È_ËÂÌÚ_1935);}.cls-7,.cls-8,.cls-3,.cls-9,.cls-10,.cls-11,.cls-6{stroke:#000;stroke-miterlimit:10;}.cls-7,.cls-4{opacity:.51;}.cls-7,.cls-9,.cls-10,.cls-11{mix-blend-mode:screen;}.cls-8{fill:url(#_ÂÁ_Ï_ÌÌ_È_ËÂÌÚ_1947);}.cls-12{opacity:.64;}.cls-13{opacity:.56;}.cls-14{opacity:.31;}.cls-3{opacity:.22;}.cls-3,.cls-6{fill:#d19676;}.cls-4{fill:url(#_ÂÁ_Ï_ÌÌ_È_ËÂÌÚ_1932);}.cls-5{fill:url(#_ÂÁ_Ï_ÌÌ_È_ËÂÌÚ_1960);opacity:.24;}.cls-9{fill:url(#_ÂÁ_Ï_ÌÌ_È_ËÂÌÚ_2092);}.cls-10{fill:url(#_ÂÁ_Ï_ÌÌ_È_ËÂÌÚ_1982);}.cls-11{fill:url(#_ÂÁ_Ï_ÌÌ_È_ËÂÌÚ_1963);opacity:.58;}.cls-6{opacity:.49;}</style><linearGradient id="_ÂÁ_Ï_ÌÌ_È_ËÂÌÚ_1947" x1="37.3" y1="36.82" x2="37.3" y2="-.82" gradientUnits="userSpaceOnUse"><stop offset=".08" stop-color="#aa3c00"/><stop offset=".15" stop-color="#b94d0f"/><stop offset=".36" stop-color="#eb823e"/><stop offset=".46" stop-color="#ff9751"/><stop offset=".81" stop-color="#ffc780"/><stop offset="1" stop-color="#ffdc95"/></linearGradient><linearGradient id="_ÂÁ_Ï_ÌÌ_È_ËÂÌÚ_1963" x1="14.42" y1="39.85" x2="53.88" y2="-8.89" gradientUnits="userSpaceOnUse"><stop offset=".28" stop-color="#000"/><stop offset="1" stop-color="#ff9751"/></linearGradient><linearGradient id="_ÂÁ_Ï_ÌÌ_È_ËÂÌÚ_2092" x1="13.89" y1="39.42" x2="53.35" y2="-9.32" gradientUnits="userSpaceOnUse"><stop offset="0" stop-color="#000"/><stop offset="1" stop-color="#ff3b00"/></linearGradient><linearGradient id="_ÂÁ_Ï_ÌÌ_È_ËÂÌÚ_1932" x1="55.05" y1="-1.32" x2="19.68" y2="34.05" gradientUnits="userSpaceOnUse"><stop offset="0" stop-color="#fff"/><stop offset=".35" stop-color="#dfb7a1"/><stop offset=".8" stop-color="#b95f2e"/><stop offset="1" stop-color="#aa3c00"/></linearGradient><linearGradient id="_ÂÁ_Ï_ÌÌ_È_ËÂÌÚ_1935" x1="1.36" y1="16.52" x2="73.44" y2="16.52" gradientUnits="userSpaceOnUse"><stop offset="0" stop-color="#000"/><stop offset=".53" stop-color="#f8934f"/><stop offset="1" stop-color="#000"/></linearGradient><linearGradient id="_ÂÁ_Ï_ÌÌ_È_ËÂÌÚ_1960" x1="37.3" y1="36.82" x2="37.3" y2="-.82" gradientUnits="userSpaceOnUse"><stop offset="0" stop-color="#fff"/><stop offset=".31" stop-color="#dfb7a1"/><stop offset=".72" stop-color="#b95f2e"/><stop offset=".89" stop-color="#aa3c00"/></linearGradient><linearGradient id="_ÂÁ_Ï_ÌÌ_È_ËÂÌÚ_1982" x1="34.9" y1="11.81" x2="73.44" y2="11.81" gradientUnits="userSpaceOnUse"><stop offset=".08" stop-color="#000"/><stop offset=".17" stop-color="#050301"/><stop offset=".28" stop-color="#140c06"/><stop offset=".41" stop-color="#2d1a0e"/><stop offset=".54" stop-color="#502f19"/><stop offset=".68" stop-color="#7d4a27"/><stop offset=".83" stop-color="#b46b39"/><stop offset=".98" stop-color="#f4904d"/><stop offset="1" stop-color="#ff9751"/></linearGradient></defs><g class="cls-1"><g id="Layer_2"><g id="_ÎÓÈ_2"><path class="cls-8" d="M74.08,12.17s0-.07,0-.12c-.02-.76-.32-1.49-.81-2.07-.85-1.02-2.61-2.74-5.86-4.54C61.92,2.4,52.23-.44,35.52.8,17.66,2.13,8.89,4.94,4.62,7.46c-1.31.77-2.2,1.52-2.8,2.18-.69.77-1.1,1.77-1.19,2.8,0,.1-.02.19-.02.28-.04.86-.23,5.4,0,7.34,0,.04.01.08.02.12,0,.06.01.12.02.18.15.77.64,1.43,1.28,1.94,4.1,3.25,12.44,10.99,35.42,11.04,22.59.05,32.89-9.19,35.53-11.85.64-.64,1.13-1.4,1.2-2.23.03-1.04,0-7.1,0-7.1Z"/><path class="cls-11" d="M73.27,9.98c-.85-1.02-2.61-2.74-5.86-4.55C61.92,2.4,52.23-.44,35.52.8,17.66,2.13,8.89,4.94,4.62,7.46c-1.31.77-2.2,1.52-2.8,2.18-.69.77-1.1,1.77-1.19,2.8-.11,2.9,24.68,19.38,57.62,8.52,10.05-3.63,15.88-7.89,15.78-9.37-.1-.59-.37-1.15-.76-1.62Z"/><path class="cls-9" d="M1.93,12.02c4.1,3.25,12.44,10.99,35.42,11.04,22.59.05,32.86-9.23,35.53-11.85.88-.86.49-1.11.39-1.23-.85-1.02-2.61-2.74-5.86-4.55C61.92,2.4,52.23-.44,35.52.8,17.66,2.13,8.89,4.94,4.62,7.46c-1.31.77-2.2,1.52-2.8,2.18-.03.04-.06.07-.09.11-.56.67-.49,1.71.19,2.26,0,0,0,0,.01,0Z"/><path class="cls-4" d="M.61,12.73c-.04.86-.23,5.4,0,7.34,0,.04.01.08.02.12,0,.06.01.12.02.18.15.77.64,1.43,1.28,1.94,4.1,3.25,12.44,10.99,35.42,11.04,22.59.05,32.89-9.19,35.53-11.85.64-.64,1.13-1.4,1.2-2.23,0-.28.01-.85.01-1.56.3,6.92-25.93,15.64-27.33,11.94-1.4-3.7,11.49-8.68,11.49-8.68C25.31,31.82.52,15.35.63,12.44c0,.1-.02.19-.02.28Z"/><path class="cls-7" d="M72.88,11.21c.87-.85.5-1.1.39-1.23-.09.13-.21.28-.39.46-2.67,2.62-12.94,11.9-35.53,11.85-22.97-.05-31.32-7.79-35.42-11.04-.28-.22-.45-.52-.53-.84-.14.58.04,1.21.52,1.59,4.11,3.26,12.46,11,35.43,11.05,22.59.05,32.86-9.23,35.53-11.85Z"/><path class="cls-5" d="M.61,20.07s.01.08.02.12c0,.06.01.12.02.18.15.77.64,1.43,1.28,1.94,4.1,3.25,12.44,10.99,35.42,11.04,22.59.05,32.89-9.19,35.53-11.85.64-.64,1.13-1.4,1.2-2.23.01-.36.01-1.23.01-2.25-.01,3.71-1.32,1.42-4.1,4.45-2.81,3.06-12.83,9.06-17.36,7.15-4.53-1.91-5.87,1.02-9.06,1.28-3.19.26-6.64-3.96-10.6-.38-3.96,3.57-7.79-4.47-10.6-2.43-2.81,2.04-6.7,3.12-8.04-.89-1.34-4.02-6.51-1.28-8.04-4.21-1.53-2.94-5.36-.85-5.74-5.06,0-.09-.03-.18-.05-.27,0,1.28.01,2.58.11,3.41Z"/><path class="cls-3" d="M73.44,15.23c.12-.91-3.97,2.76-3.28,3.29.69.53,2.8.49,3.28-3.29Z"/><path class="cls-3" d="M5.69,22.89c.54-.27-4.37-2.51-4.12-1.66.25.85,1.84,2.77,4.12,1.66Z"/><path class="cls-3" d="M26.53,28.2c.51-.31-3.16-1.03-3.12-.43.04.6.99,1.73,3.12.43Z"/><path class="cls-3" d="M69.43,18.3c.7-.12.66-.88-.38-.38-1.04.5-.52.53.38.38Z"/><path class="cls-3" d="M11.76,25.86c.78.33,1.28-.52-.1-.66-1.38-.13-.9.24.1.66Z"/><path class="cls-3" d="M28.43,27.84c.83-.16.78-1.15-.45-.49-1.23.65-.61.7.45.49Z"/><path class="cls-3" d="M46.82,31.95c2-1.12-1.21-1.88-1.31-.89-.1.99-.51,1.91,1.31.89Z"/><path class="cls-3" d="M44.42,31.85c-.76-.11-1.05-.83-.26-.83s1.53,1.02.26.83Z"/><path class="cls-3" d="M40.76,26.3c-.76-.11-1.05-.83-.26-.83s1.53,1.02.26.83Z"/><path class="cls-3" d="M71.5,21.94c-.76-.11-1.05-.83-.26-.83s1.53,1.02.26.83Z"/><path class="cls-3" d="M36.82,31.09c-1.2-.05-.59-1.42,0-1.13.59.29.69,1.16,0,1.13Z"/><path class="cls-3" d="M42.68,27.07c-1.2-.05-.59-1.42,0-1.13.59.29.69,1.16,0,1.13Z"/><path class="cls-3" d="M64.29,23.3c-2.02-.09-1-2.39,0-1.9,1,.48,1.15,1.95,0,1.9Z"/><path class="cls-3" d="M7.69,22.55c-1.2-.05-.59-1.42,0-1.13s.69,1.16,0,1.13Z"/><path class="cls-3" d="M35.45,29.96c-.44.05-.62-.55-.16-.65.47-.09.78.58.16.65Z"/><path class="cls-3" d="M62.12,23.62c-.44.05-.62-.55-.16-.65.47-.09.78.58.16.65Z"/><g class="cls-12"><path class="cls-6" d="M31.84,6.65c-.25-.36,3.59-.3,3.15.21-.44.51-2.09,1.3-3.15-.21Z"/><path class="cls-6" d="M68.15,11.78c-.54-.3,4.37-2.79,4.12-1.84-.25.95-1.84,3.07-4.12,1.84Z"/><path class="cls-6" d="M55.15,7.54c-.51-.34,3.16-1.14,3.12-.48-.04.66-.99,1.91-3.12.48Z"/><path class="cls-6" d="M31.22,6.05c-.7-.14-.66-.97.38-.42,1.04.56.52.59-.38.42Z"/><path class="cls-6" d="M60.88,10.56c-.83-.18-.78-1.27.45-.54,1.23.73.61.77-.45.54Z"/><path class="cls-6" d="M57.95,5.31c-.83-.18-.78-1.27.45-.54,1.23.73.61.77-.45.54Z"/><path class="cls-6" d="M52.59,5.23c-.51-.34,3.16-1.14,3.12-.48-.04.66-.99,1.91-3.12.48Z"/><path class="cls-6" d="M55.39,3c-.83-.18-.78-1.27.45-.54s.61.77-.45.54Z"/><path class="cls-6" d="M26.81,16.26c-2-1.24,1.21-2.09,1.31-.99.1,1.1.51,2.12-1.31.99Z"/><path class="cls-6" d="M29.2,16.16c.76-.13,1.05-.92.26-.92s-1.53,1.13-.26.92Z"/><path class="cls-6" d="M11.17,15.79c.76-.13,1.05-.92.26-.92s-1.53,1.13-.26.92Z"/><path class="cls-6" d="M42.93,12.5c.76-.13,1.05-.92.26-.92s-1.53,1.13-.26.92Z"/><path class="cls-6" d="M38.17,5.59c.76-.13,1.05-.92.26-.92s-1.53,1.13-.26.92Z"/><path class="cls-6" d="M52.84,15.76c1.2-.06.59-1.57,0-1.25-.59.32-.69,1.29,0,1.25Z"/><path class="cls-6" d="M41,13.34c1.2-.06.59-1.57,0-1.25-.59.32-.69,1.29,0,1.25Z"/><path class="cls-6" d="M19.29,11c2.02-.1,1-2.64,0-2.11-1,.54-1.15,2.16,0,2.11Z"/><path class="cls-6" d="M68,10.63c1.2-.06.59-1.57,0-1.25-.59.32-.69,1.29,0,1.25Z"/><path class="cls-6" d="M54.21,14.51c.44.06.62-.61.16-.72-.47-.1-.78.64-.16.72Z"/><path class="cls-6" d="M20.46,5.6c1.2-.06.59-1.57,0-1.25-.59.32-.69,1.29,0,1.25Z"/><path class="cls-6" d="M21.83,4.35c.44.06.62-.61.16-.72-.47-.1-.78.64-.16.72Z"/><path class="cls-6" d="M21.46,11.36c.44.06.62-.61.16-.72-.47-.1-.78.64-.16.72Z"/></g><g class="cls-14"><path class="cls-3" d="M28.64,9.88c-.19-.32,1.82-.27,1.67,0-.14.27-1.46.36-1.67,0Z"/><path class="cls-3" d="M28.65,9.89c.23.33,1.42.26,1.64.01-.21-.17-1.45-.2-1.64-.01Z"/><path class="cls-3" d="M27.56,9.07c.09.16.97.18,1.16,0s-1.36-.35-1.16,0Z"/><path class="cls-3" d="M28.68,9.1c-.22-.11-.96-.17-1.11-.02.11.14.86.17,1.11.02Z"/><path class="cls-3" d="M29.77,8.7c.11.19.79.18.86-.07.08-.25-1-.16-.86.07Z"/><path class="cls-3" d="M30.6,8.69c-.14-.11-.64-.07-.8.05.15.13.65.13.8-.05Z"/><g class="cls-2"><path class="cls-3" d="M21.82,7.65c-.09-.32.91-.27.84,0s-.73.36-.84,0Z"/><path class="cls-3" d="M21.82,7.66c.12.33.71.26.82.01-.1-.17-.72-.2-.82-.01Z"/></g><g class="cls-2"><path class="cls-3" d="M20.23,4.57c.04.15.44.18.52,0,.08-.18-.61-.34-.52,0Z"/><path class="cls-3" d="M20.73,4.6c-.1-.11-.43-.17-.5-.02.05.13.39.16.5.02Z"/></g><g class="cls-2"><path class="cls-3" d="M32.31,7.24c.04.15.44.18.52,0,.08-.18-.61-.34-.52,0Z"/><path class="cls-3" d="M32.81,7.28c-.1-.11-.43-.17-.5-.02.05.13.39.16.5.02Z"/></g><g class="cls-2"><path class="cls-3" d="M35.26,11.54c.04.15.44.18.52,0,.08-.18-.61-.34-.52,0Z"/><path class="cls-3" d="M35.76,11.57c-.1-.11-.43-.17-.5-.02.05.13.39.16.5.02Z"/></g><g class="cls-2"><path class="cls-3" d="M25.08,12.32c.04.15.44.18.52,0,.08-.18-.61-.34-.52,0Z"/><path class="cls-3" d="M25.58,12.35c-.1-.11-.43-.17-.5-.02.05.13.39.16.5.02Z"/></g><g class="cls-2"><path class="cls-3" d="M23.13,13.47c.04.15.44.18.52,0,.08-.18-.61-.34-.52,0Z"/><path class="cls-3" d="M23.63,13.5c-.1-.11-.43-.17-.5-.02.05.13.39.16.5.02Z"/></g><g class="cls-2"><path class="cls-3" d="M18.67,7.57c.04.15.44.18.52,0,.08-.18-.61-.34-.52,0Z"/><path class="cls-3" d="M19.17,7.6c-.1-.11-.43-.17-.5-.02.05.13.39.16.5.02Z"/></g><g class="cls-2"><path class="cls-3" d="M12.38,9.13c.04.15.44.18.52,0,.08-.18-.61-.34-.52,0Z"/><path class="cls-3" d="M12.89,9.16c-.1-.11-.43-.17-.5-.02.05.13.39.16.5.02Z"/></g><g class="cls-2"><path class="cls-3" d="M10.42,9.98c.04.15.44.18.52,0,.08-.18-.61-.34-.52,0Z"/><path class="cls-3" d="M10.92,10.01c-.1-.11-.43-.17-.5-.02.05.13.39.16.5.02Z"/></g><g class="cls-2"><path class="cls-3" d="M14.82,12.53c.04.15.44.18.52,0,.08-.18-.61-.34-.52,0Z"/><path class="cls-3" d="M15.32,12.56c-.1-.11-.43-.17-.5-.02.05.13.39.16.5.02Z"/></g><g class="cls-2"><path class="cls-3" d="M20.94,5.27c.11.19.79.18.86-.07.08-.25-1-.16-.86.07Z"/><path class="cls-3" d="M21.77,5.26c-.14-.1-.64-.07-.8.05.15.13.65.13.8-.05Z"/></g><g class="cls-2"><path class="cls-3" d="M13.03,11.8c-.19-.32,1.82-.27,1.67,0-.14.27-1.46.36-1.67,0Z"/><path class="cls-3" d="M13.04,11.81c.23.33,1.42.26,1.64.01-.21-.17-1.45-.2-1.64-.01Z"/></g><g class="cls-2"><path class="cls-3" d="M11.13,7.75c.09.16.97.18,1.16,0,.19-.18-1.36-.35-1.16,0Z"/><path class="cls-3" d="M12.24,7.78c-.22-.11-.96-.17-1.11-.02.11.14.86.17,1.11.02Z"/></g><g class="cls-2"><path class="cls-3" d="M12.61,7.08c.11.19.79.18.86-.07.08-.25-1-.16-.86.07Z"/><path class="cls-3" d="M13.44,7.06c-.14-.11-.64-.07-.8.05.15.13.65.13.8-.05Z"/></g><g class="cls-2"><path class="cls-3" d="M20.09,9.03c-.12-.3,1.21-.26,1.11,0s-.97.34-1.11,0Z"/><path class="cls-3" d="M20.1,9.05c.15.31.95.25,1.09.01-.14-.17-.96-.19-1.09-.01Z"/></g><g class="cls-2"><path class="cls-3" d="M32.56,12.36c.09.16.97.18,1.16,0,.19-.18-1.36-.35-1.16,0Z"/><path class="cls-3" d="M33.68,12.39c-.22-.11-.96-.17-1.11-.02.11.14.86.17,1.11.02Z"/></g><g class="cls-2"><path class="cls-3" d="M34.06,11.13c.11.19.79.18.86-.07.08-.25-1-.16-.86.07Z"/><path class="cls-3" d="M34.89,11.11c-.14-.1-.64-.07-.8.05.15.13.65.13.8-.05Z"/></g><g class="cls-2"><path class="cls-3" d="M22.07,9.65c-.19-.32,1.82-.27,1.67,0-.14.27-1.46.36-1.67,0Z"/><path class="cls-3" d="M22.08,9.66c.23.33,1.42.26,1.64.01-.21-.17-1.45-.2-1.64-.01Z"/></g><g class="cls-2"><path class="cls-3" d="M25.2,4.73c.09.16.97.18,1.16,0,.19-.18-1.36-.35-1.16,0Z"/><path class="cls-3" d="M26.32,4.76c-.22-.11-.96-.17-1.11-.02.11.14.86.17,1.11.02Z"/></g><g class="cls-2"><path class="cls-3" d="M26.71,5.45c.11.19.79.18.86-.07.08-.25-1-.16-.86.07Z"/><path class="cls-3" d="M27.53,5.44c-.14-.11-.64-.07-.8.05.15.13.65.13.8-.05Z"/></g><g class="cls-13"><path class="cls-3" d="M28.64,9.88c-.19-.32,1.82-.27,1.67,0-.14.27-1.46.36-1.67,0Z"/><path class="cls-3" d="M28.65,9.89c.23.33,1.42.26,1.64.01-.21-.17-1.45-.2-1.64-.01Z"/><path class="cls-3" d="M27.56,9.07c.09.16.97.18,1.16,0s-1.36-.35-1.16,0Z"/><path class="cls-3" d="M28.68,9.1c-.22-.11-.96-.17-1.11-.02.11.14.86.17,1.11.02Z"/><path class="cls-3" d="M29.77,8.7c.11.19.79.18.86-.07.08-.25-1-.16-.86.07Z"/><path class="cls-3" d="M30.6,8.69c-.14-.11-.64-.07-.8.05.15.13.65.13.8-.05Z"/><g class="cls-2"><path class="cls-3" d="M21.82,7.65c-.09-.32.91-.27.84,0s-.73.36-.84,0Z"/><path class="cls-3" d="M21.82,7.66c.12.33.71.26.82.01-.1-.17-.72-.2-.82-.01Z"/></g><g class="cls-2"><path class="cls-3" d="M20.23,4.57c.04.15.44.18.52,0,.08-.18-.61-.34-.52,0Z"/><path class="cls-3" d="M20.73,4.6c-.1-.11-.43-.17-.5-.02.05.13.39.16.5.02Z"/></g><g class="cls-2"><path class="cls-3" d="M32.31,7.24c.04.15.44.18.52,0,.08-.18-.61-.34-.52,0Z"/><path class="cls-3" d="M32.81,7.28c-.1-.11-.43-.17-.5-.02.05.13.39.16.5.02Z"/></g><g class="cls-2"><path class="cls-3" d="M35.26,11.54c.04.15.44.18.52,0,.08-.18-.61-.34-.52,0Z"/><path class="cls-3" d="M35.76,11.57c-.1-.11-.43-.17-.5-.02.05.13.39.16.5.02Z"/></g><g class="cls-2"><path class="cls-3" d="M25.08,12.32c.04.15.44.18.52,0,.08-.18-.61-.34-.52,0Z"/><path class="cls-3" d="M25.58,12.35c-.1-.11-.43-.17-.5-.02.05.13.39.16.5.02Z"/></g><g class="cls-2"><path class="cls-3" d="M23.13,13.47c.04.15.44.18.52,0,.08-.18-.61-.34-.52,0Z"/><path class="cls-3" d="M23.63,13.5c-.1-.11-.43-.17-.5-.02.05.13.39.16.5.02Z"/></g><g class="cls-2"><path class="cls-3" d="M18.67,7.57c.04.15.44.18.52,0,.08-.18-.61-.34-.52,0Z"/><path class="cls-3" d="M19.17,7.6c-.1-.11-.43-.17-.5-.02.05.13.39.16.5.02Z"/></g><g class="cls-2"><path class="cls-3" d="M12.38,9.13c.04.15.44.18.52,0,.08-.18-.61-.34-.52,0Z"/><path class="cls-3" d="M12.89,9.16c-.1-.11-.43-.17-.5-.02.05.13.39.16.5.02Z"/></g><g class="cls-2"><path class="cls-3" d="M10.42,9.98c.04.15.44.18.52,0,.08-.18-.61-.34-.52,0Z"/><path class="cls-3" d="M10.92,10.01c-.1-.11-.43-.17-.5-.02.05.13.39.16.5.02Z"/></g><g class="cls-2"><path class="cls-3" d="M14.82,12.53c.04.15.44.18.52,0,.08-.18-.61-.34-.52,0Z"/><path class="cls-3" d="M15.32,12.56c-.1-.11-.43-.17-.5-.02.05.13.39.16.5.02Z"/></g><g class="cls-2"><path class="cls-3" d="M20.94,5.27c.11.19.79.18.86-.07.08-.25-1-.16-.86.07Z"/><path class="cls-3" d="M21.77,5.26c-.14-.1-.64-.07-.8.05.15.13.65.13.8-.05Z"/></g><g class="cls-2"><path class="cls-3" d="M13.03,11.8c-.19-.32,1.82-.27,1.67,0-.14.27-1.46.36-1.67,0Z"/><path class="cls-3" d="M13.04,11.81c.23.33,1.42.26,1.64.01-.21-.17-1.45-.2-1.64-.01Z"/></g><g class="cls-2"><path class="cls-3" d="M11.13,7.75c.09.16.97.18,1.16,0,.19-.18-1.36-.35-1.16,0Z"/><path class="cls-3" d="M12.24,7.78c-.22-.11-.96-.17-1.11-.02.11.14.86.17,1.11.02Z"/></g><g class="cls-2"><path class="cls-3" d="M12.61,7.08c.11.19.79.18.86-.07.08-.25-1-.16-.86.07Z"/><path class="cls-3" d="M13.44,7.06c-.14-.11-.64-.07-.8.05.15.13.65.13.8-.05Z"/></g><g class="cls-2"><path class="cls-3" d="M20.09,9.03c-.12-.3,1.21-.26,1.11,0s-.97.34-1.11,0Z"/><path class="cls-3" d="M20.1,9.05c.15.31.95.25,1.09.01-.14-.17-.96-.19-1.09-.01Z"/></g><g class="cls-2"><path class="cls-3" d="M32.56,12.36c.09.16.97.18,1.16,0,.19-.18-1.36-.35-1.16,0Z"/><path class="cls-3" d="M33.68,12.39c-.22-.11-.96-.17-1.11-.02.11.14.86.17,1.11.02Z"/></g><g class="cls-2"><path class="cls-3" d="M34.06,11.13c.11.19.79.18.86-.07.08-.25-1-.16-.86.07Z"/><path class="cls-3" d="M34.89,11.11c-.14-.1-.64-.07-.8.05.15.13.65.13.8-.05Z"/></g><g class="cls-2"><path class="cls-3" d="M22.07,9.65c-.19-.32,1.82-.27,1.67,0-.14.27-1.46.36-1.67,0Z"/><path class="cls-3" d="M22.08,9.66c.23.33,1.42.26,1.64.01-.21-.17-1.45-.2-1.64-.01Z"/></g><g class="cls-2"><path class="cls-3" d="M55.14,5.71c-.09-.32.91-.27.84,0s-.73.36-.84,0Z"/><path class="cls-3" d="M55.15,5.73c.12.33.71.26.82.01-.1-.17-.72-.2-.82-.01Z"/></g><g class="cls-2"><path class="cls-3" d="M53.55,2.63c.04.15.44.18.52,0,.08-.18-.61-.34-.52,0Z"/><path class="cls-3" d="M54.05,2.66c-.1-.11-.43-.17-.5-.02.05.13.39.16.5.02Z"/></g><g class="cls-2"><path class="cls-3" d="M52,5.64c.04.15.44.18.52,0,.08-.18-.61-.34-.52,0Z"/><path class="cls-3" d="M52.5,5.67c-.1-.11-.43-.17-.5-.02.05.13.39.16.5.02Z"/></g><g class="cls-2"><path class="cls-3" d="M54.27,3.34c.11.19.79.18.86-.07s-1-.16-.86.07Z"/><path class="cls-3" d="M55.1,3.33c-.14-.1-.64-.07-.8.05.15.13.65.13.8-.05Z"/></g><g class="cls-2"><path class="cls-3" d="M3.17,11.56c-.12-.3,1.21-.26,1.11,0s-.97.34-1.11,0Z"/><path class="cls-3" d="M3.18,11.57c.15.31.95.25,1.09.01-.14-.17-.96-.19-1.09-.01Z"/></g><g class="cls-2"><path class="cls-3" d="M5.14,12.17c-.19-.32,1.82-.27,1.67,0-.14.27-1.46.36-1.67,0Z"/><path class="cls-3" d="M5.15,12.19c.23.33,1.42.26,1.64.01-.21-.17-1.45-.2-1.64-.01Z"/></g><g class="cls-2"><path class="cls-3" d="M55.14,5.71c-.09-.32.91-.27.84,0s-.73.36-.84,0Z"/><path class="cls-3" d="M55.15,5.73c.12.33.71.26.82.01-.1-.17-.72-.2-.82-.01Z"/></g><g class="cls-2"><path class="cls-3" d="M53.55,2.63c.04.15.44.18.52,0,.08-.18-.61-.34-.52,0Z"/><path class="cls-3" d="M54.05,2.66c-.1-.11-.43-.17-.5-.02.05.13.39.16.5.02Z"/></g><g class="cls-2"><path class="cls-3" d="M52,5.64c.04.15.44.18.52,0,.08-.18-.61-.34-.52,0Z"/><path class="cls-3" d="M52.5,5.67c-.1-.11-.43-.17-.5-.02.05.13.39.16.5.02Z"/></g><g class="cls-2"><path class="cls-3" d="M54.27,3.34c.11.19.79.18.86-.07s-1-.16-.86.07Z"/><path class="cls-3" d="M55.1,3.33c-.14-.1-.64-.07-.8.05.15.13.65.13.8-.05Z"/></g><path class="cls-6" d="M47.56,19.63c-.83-.18-.78-1.27.45-.54,1.23.73.61.77-.45.54Z"/><g class="cls-2"><path class="cls-3" d="M45.72,19.27c.04.15.44.18.52,0,.08-.18-.61-.34-.52,0Z"/><path class="cls-3" d="M46.22,19.3c-.1-.11-.43-.17-.5-.02.05.13.39.16.5.02Z"/></g><g class="cls-2"><path class="cls-3" d="M46.44,19.97c.11.19.79.18.86-.07.08-.25-1-.16-.86.07Z"/><path class="cls-3" d="M47.27,19.96c-.14-.11-.64-.07-.8.05.15.13.65.13.8-.05Z"/></g><g class="cls-2"><path class="cls-3" d="M45.72,19.27c.04.15.44.18.52,0,.08-.18-.61-.34-.52,0Z"/><path class="cls-3" d="M46.22,19.3c-.1-.11-.43-.17-.5-.02.05.13.39.16.5.02Z"/></g><g class="cls-2"><path class="cls-3" d="M46.44,19.97c.11.19.79.18.86-.07.08-.25-1-.16-.86.07Z"/><path class="cls-3" d="M47.27,19.96c-.14-.11-.64-.07-.8.05.15.13.65.13.8-.05Z"/></g><g class="cls-2"><path class="cls-3" d="M3.17,11.56c-.12-.3,1.21-.26,1.11,0s-.97.34-1.11,0Z"/><path class="cls-3" d="M3.18,11.57c.15.31.95.25,1.09.01-.14-.17-.96-.19-1.09-.01Z"/></g><g class="cls-2"><path class="cls-3" d="M5.14,12.17c-.19-.32,1.82-.27,1.67,0-.14.27-1.46.36-1.67,0Z"/><path class="cls-3" d="M5.15,12.19c.23.33,1.42.26,1.64.01-.21-.17-1.45-.2-1.64-.01Z"/></g><g class="cls-2"><path class="cls-3" d="M25.2,4.73c.09.16.97.18,1.16,0,.19-.18-1.36-.35-1.16,0Z"/><path class="cls-3" d="M26.32,4.76c-.22-.11-.96-.17-1.11-.02.11.14.86.17,1.11.02Z"/></g><g class="cls-2"><path class="cls-3" d="M26.71,5.45c.11.19.79.18.86-.07.08-.25-1-.16-.86.07Z"/><path class="cls-3" d="M27.53,5.44c-.14-.11-.64-.07-.8.05.15.13.65.13.8-.05Z"/></g></g><path class="cls-3" d="M46.65,15.36c-.19-.32,1.82-.27,1.67,0-.14.27-1.46.36-1.67,0Z"/><path class="cls-3" d="M46.67,15.38c.23.33,1.42.26,1.64.01-.21-.17-1.45-.2-1.64-.01Z"/><path class="cls-3" d="M45.58,14.55c.09.16.97.18,1.16,0,.19-.18-1.36-.35-1.16,0Z"/><path class="cls-3" d="M46.69,14.59c-.22-.11-.96-.17-1.11-.02.11.14.86.17,1.11.02Z"/><path class="cls-3" d="M47.78,14.19c.11.19.79.18.86-.07s-1-.16-.86.07Z"/><path class="cls-3" d="M48.61,14.18c-.14-.1-.64-.07-.8.05.15.13.65.13.8-.05Z"/><g class="cls-2"><path class="cls-3" d="M39.83,13.13c-.09-.32.91-.27.84,0-.07.27-.73.36-.84,0Z"/><path class="cls-3" d="M39.84,13.15c.12.33.71.26.82.01-.1-.17-.72-.2-.82-.01Z"/></g><g class="cls-2"><path class="cls-3" d="M38.24,10.05c.04.15.44.18.52,0,.08-.18-.61-.34-.52,0Z"/><path class="cls-3" d="M38.74,10.08c-.1-.11-.43-.17-.5-.02.05.13.39.16.5.02Z"/></g><g class="cls-2"><path class="cls-3" d="M50.32,12.73c.04.15.44.18.52,0,.08-.18-.61-.34-.52,0Z"/><path class="cls-3" d="M50.83,12.76c-.1-.11-.43-.17-.5-.02.05.13.39.16.5.02Z"/></g><g class="cls-2"><path class="cls-3" d="M53.27,17.03c.04.15.44.18.52,0,.08-.18-.61-.34-.52,0Z"/><path class="cls-3" d="M53.78,17.06c-.1-.11-.43-.17-.5-.02.05.13.39.16.5.02Z"/></g><g class="cls-2"><path class="cls-3" d="M43.09,17.8c.04.15.44.18.52,0,.08-.18-.61-.34-.52,0Z"/><path class="cls-3" d="M43.59,17.84c-.1-.11-.43-.17-.5-.02.05.13.39.16.5.02Z"/></g><g class="cls-2"><path class="cls-3" d="M41.14,18.96c.04.15.44.18.52,0,.08-.18-.61-.34-.52,0Z"/><path class="cls-3" d="M41.64,18.99c-.1-.11-.43-.17-.5-.02.05.13.39.16.5.02Z"/></g><g class="cls-2"><path class="cls-3" d="M36.69,13.06c.04.15.44.18.52,0,.08-.18-.61-.34-.52,0Z"/><path class="cls-3" d="M37.19,13.09c-.1-.11-.43-.17-.5-.02.05.13.39.16.5.02Z"/></g><g class="cls-2"><path class="cls-3" d="M30.4,14.61c.04.15.44.18.52,0,.08-.18-.61-.34-.52,0Z"/><path class="cls-3" d="M30.9,14.64c-.1-.11-.43-.17-.5-.02.05.13.39.16.5.02Z"/></g><g class="cls-2"><path class="cls-3" d="M28.43,15.46c.04.15.44.18.52,0,.08-.18-.61-.34-.52,0Z"/><path class="cls-3" d="M28.94,15.49c-.1-.11-.43-.17-.5-.02.05.13.39.16.5.02Z"/></g><g class="cls-2"><path class="cls-3" d="M32.83,18.01c.04.15.44.18.52,0,.08-.18-.61-.34-.52,0Z"/><path class="cls-3" d="M33.34,18.04c-.1-.11-.43-.17-.5-.02.05.13.39.16.5.02Z"/></g><g class="cls-2"><path class="cls-3" d="M38.96,10.76c.11.19.79.18.86-.07s-1-.16-.86.07Z"/><path class="cls-3" d="M39.79,10.75c-.14-.11-.64-.07-.8.05.15.13.65.13.8-.05Z"/></g><g class="cls-2"><path class="cls-3" d="M31.04,17.28c-.19-.32,1.82-.27,1.67,0-.14.27-1.46.36-1.67,0Z"/><path class="cls-3" d="M31.05,17.3c.23.33,1.42.26,1.64.01-.21-.17-1.45-.2-1.64-.01Z"/></g><g class="cls-2"><path class="cls-3" d="M29.14,13.23c.09.16.97.18,1.16,0,.19-.18-1.36-.35-1.16,0Z"/><path class="cls-3" d="M30.26,13.27c-.22-.11-.96-.17-1.11-.02.11.14.86.17,1.11.02Z"/></g><g class="cls-2"><path class="cls-3" d="M30.63,12.56c.11.19.79.18.86-.07.08-.25-1-.16-.86.07Z"/><path class="cls-3" d="M31.46,12.55c-.14-.11-.64-.07-.8.05.15.13.65.13.8-.05Z"/></g><g class="cls-2"><path class="cls-3" d="M38.11,14.52c-.12-.3,1.21-.26,1.11,0s-.97.34-1.11,0Z"/><path class="cls-3" d="M38.12,14.53c.15.31.95.25,1.09.01-.14-.17-.96-.19-1.09-.01Z"/></g><g class="cls-2"><path class="cls-3" d="M50.58,17.84c.09.16.97.18,1.16,0,.19-.18-1.36-.35-1.16,0Z"/><path class="cls-3" d="M51.69,17.88c-.22-.11-.96-.17-1.11-.02.11.14.86.17,1.11.02Z"/></g><g class="cls-2"><path class="cls-3" d="M52.07,16.61c.11.19.79.18.86-.07s-1-.16-.86.07Z"/><path class="cls-3" d="M52.9,16.6c-.14-.11-.64-.07-.8.05.15.13.65.13.8-.05Z"/></g><g class="cls-2"><path class="cls-3" d="M40.08,15.13c-.19-.32,1.82-.27,1.67,0s-1.46.36-1.67,0Z"/><path class="cls-3" d="M40.1,15.15c.23.33,1.42.26,1.64.01-.21-.17-1.45-.2-1.64-.01Z"/></g><g class="cls-2"><path class="cls-3" d="M43.22,10.22c.09.16.97.18,1.16,0,.19-.18-1.36-.35-1.16,0Z"/><path class="cls-3" d="M44.33,10.25c-.22-.11-.96-.17-1.11-.02.11.14.86.17,1.11.02Z"/></g><g class="cls-2"><path class="cls-3" d="M44.72,10.93c.11.19.79.18.86-.07s-1-.16-.86.07Z"/><path class="cls-3" d="M45.55,10.92c-.14-.1-.64-.07-.8.05.15.13.65.13.8-.05Z"/></g><g class="cls-13"><path class="cls-3" d="M46.65,15.36c-.19-.32,1.82-.27,1.67,0-.14.27-1.46.36-1.67,0Z"/><path class="cls-3" d="M46.67,15.38c.23.33,1.42.26,1.64.01-.21-.17-1.45-.2-1.64-.01Z"/><path class="cls-3" d="M45.58,14.55c.09.16.97.18,1.16,0,.19-.18-1.36-.35-1.16,0Z"/><path class="cls-3" d="M46.69,14.59c-.22-.11-.96-.17-1.11-.02.11.14.86.17,1.11.02Z"/><path class="cls-3" d="M47.78,14.19c.11.19.79.18.86-.07s-1-.16-.86.07Z"/><path class="cls-3" d="M48.61,14.18c-.14-.1-.64-.07-.8.05.15.13.65.13.8-.05Z"/><g class="cls-2"><path class="cls-3" d="M39.83,13.13c-.09-.32.91-.27.84,0-.07.27-.73.36-.84,0Z"/><path class="cls-3" d="M39.84,13.15c.12.33.71.26.82.01-.1-.17-.72-.2-.82-.01Z"/></g><g class="cls-2"><path class="cls-3" d="M38.24,10.05c.04.15.44.18.52,0,.08-.18-.61-.34-.52,0Z"/><path class="cls-3" d="M38.74,10.08c-.1-.11-.43-.17-.5-.02.05.13.39.16.5.02Z"/></g><g class="cls-2"><path class="cls-3" d="M50.32,12.73c.04.15.44.18.52,0,.08-.18-.61-.34-.52,0Z"/><path class="cls-3" d="M50.83,12.76c-.1-.11-.43-.17-.5-.02.05.13.39.16.5.02Z"/></g><g class="cls-2"><path class="cls-3" d="M53.27,17.03c.04.15.44.18.52,0,.08-.18-.61-.34-.52,0Z"/><path class="cls-3" d="M53.78,17.06c-.1-.11-.43-.17-.5-.02.05.13.39.16.5.02Z"/></g><g class="cls-2"><path class="cls-3" d="M43.09,17.8c.04.15.44.18.52,0,.08-.18-.61-.34-.52,0Z"/><path class="cls-3" d="M43.59,17.84c-.1-.11-.43-.17-.5-.02.05.13.39.16.5.02Z"/></g><g class="cls-2"><path class="cls-3" d="M41.14,18.96c.04.15.44.18.52,0,.08-.18-.61-.34-.52,0Z"/><path class="cls-3" d="M41.64,18.99c-.1-.11-.43-.17-.5-.02.05.13.39.16.5.02Z"/></g><g class="cls-2"><path class="cls-3" d="M36.69,13.06c.04.15.44.18.52,0,.08-.18-.61-.34-.52,0Z"/><path class="cls-3" d="M37.19,13.09c-.1-.11-.43-.17-.5-.02.05.13.39.16.5.02Z"/></g><g class="cls-2"><path class="cls-3" d="M30.4,14.61c.04.15.44.18.52,0,.08-.18-.61-.34-.52,0Z"/><path class="cls-3" d="M30.9,14.64c-.1-.11-.43-.17-.5-.02.05.13.39.16.5.02Z"/></g><g class="cls-2"><path class="cls-3" d="M28.43,15.46c.04.15.44.18.52,0,.08-.18-.61-.34-.52,0Z"/><path class="cls-3" d="M28.94,15.49c-.1-.11-.43-.17-.5-.02.05.13.39.16.5.02Z"/></g><g class="cls-2"><path class="cls-3" d="M32.83,18.01c.04.15.44.18.52,0,.08-.18-.61-.34-.52,0Z"/><path class="cls-3" d="M33.34,18.04c-.1-.11-.43-.17-.5-.02.05.13.39.16.5.02Z"/></g><g class="cls-2"><path class="cls-3" d="M38.96,10.76c.11.19.79.18.86-.07s-1-.16-.86.07Z"/><path class="cls-3" d="M39.79,10.75c-.14-.11-.64-.07-.8.05.15.13.65.13.8-.05Z"/></g><g class="cls-2"><path class="cls-3" d="M31.04,17.28c-.19-.32,1.82-.27,1.67,0-.14.27-1.46.36-1.67,0Z"/><path class="cls-3" d="M31.05,17.3c.23.33,1.42.26,1.64.01-.21-.17-1.45-.2-1.64-.01Z"/></g><g class="cls-2"><path class="cls-3" d="M29.14,13.23c.09.16.97.18,1.16,0,.19-.18-1.36-.35-1.16,0Z"/><path class="cls-3" d="M30.26,13.27c-.22-.11-.96-.17-1.11-.02.11.14.86.17,1.11.02Z"/></g><g class="cls-2"><path class="cls-3" d="M30.63,12.56c.11.19.79.18.86-.07.08-.25-1-.16-.86.07Z"/><path class="cls-3" d="M31.46,12.55c-.14-.11-.64-.07-.8.05.15.13.65.13.8-.05Z"/></g><g class="cls-2"><path class="cls-3" d="M38.11,14.52c-.12-.3,1.21-.26,1.11,0s-.97.34-1.11,0Z"/><path class="cls-3" d="M38.12,14.53c.15.31.95.25,1.09.01-.14-.17-.96-.19-1.09-.01Z"/></g><g class="cls-2"><path class="cls-3" d="M50.58,17.84c.09.16.97.18,1.16,0,.19-.18-1.36-.35-1.16,0Z"/><path class="cls-3" d="M51.69,17.88c-.22-.11-.96-.17-1.11-.02.11.14.86.17,1.11.02Z"/></g><g class="cls-2"><path class="cls-3" d="M52.07,16.61c.11.19.79.18.86-.07s-1-.16-.86.07Z"/><path class="cls-3" d="M52.9,16.6c-.14-.11-.64-.07-.8.05.15.13.65.13.8-.05Z"/></g><g class="cls-2"><path class="cls-3" d="M40.08,15.13c-.19-.32,1.82-.27,1.67,0s-1.46.36-1.67,0Z"/><path class="cls-3" d="M40.1,15.15c.23.33,1.42.26,1.64.01-.21-.17-1.45-.2-1.64-.01Z"/></g><g class="cls-2"><path class="cls-3" d="M43.22,10.22c.09.16.97.18,1.16,0,.19-.18-1.36-.35-1.16,0Z"/><path class="cls-3" d="M44.33,10.25c-.22-.11-.96-.17-1.11-.02.11.14.86.17,1.11.02Z"/></g><g class="cls-2"><path class="cls-3" d="M44.72,10.93c.11.19.79.18.86-.07s-1-.16-.86.07Z"/><path class="cls-3" d="M45.55,10.92c-.14-.1-.64-.07-.8.05.15.13.65.13.8-.05Z"/></g></g><path class="cls-3" d="M47.85,6.69c-.19-.32,1.82-.27,1.67,0s-1.46.36-1.67,0Z"/><path class="cls-3" d="M47.86,6.7c.23.33,1.42.26,1.64.01-.21-.17-1.45-.2-1.64-.01Z"/><path class="cls-3" d="M46.78,5.88c.09.16.97.18,1.16,0,.19-.18-1.36-.35-1.16,0Z"/><path class="cls-3" d="M47.89,5.91c-.22-.11-.96-.17-1.11-.02.11.14.86.17,1.11.02Z"/><path class="cls-3" d="M48.98,5.51c.11.19.79.18.86-.07.08-.25-1-.16-.86.07Z"/><path class="cls-3" d="M49.81,5.5c-.14-.11-.64-.07-.8.05.15.13.65.13.8-.05Z"/><g class="cls-2"><path class="cls-3" d="M41.03,4.46c-.09-.32.91-.27.84,0s-.73.36-.84,0Z"/><path class="cls-3" d="M41.04,4.48c.12.33.71.26.82.01-.1-.17-.72-.2-.82-.01Z"/></g><g class="cls-2"><path class="cls-3" d="M39.56,1.98c.04.15.44.18.52,0,.08-.18-.61-.34-.52,0Z"/><path class="cls-3" d="M40.06,2.02c-.1-.11-.43-.17-.5-.02.05.13.39.16.5.02Z"/></g><g class="cls-2"><path class="cls-3" d="M51.52,4.06c.04.15.44.18.52,0,.08-.18-.61-.34-.52,0Z"/><path class="cls-3" d="M52.03,4.09c-.1-.11-.43-.17-.5-.02.05.13.39.16.5.02Z"/></g><g class="cls-2"><path class="cls-3" d="M54.47,8.35c.04.15.44.18.52,0,.08-.18-.61-.34-.52,0Z"/><path class="cls-3" d="M54.97,8.38c-.1-.11-.43-.17-.5-.02.05.13.39.16.5.02Z"/></g><g class="cls-2"><path class="cls-3" d="M44.29,9.13c.04.15.44.18.52,0,.08-.18-.61-.34-.52,0Z"/><path class="cls-3" d="M44.79,9.16c-.1-.11-.43-.17-.5-.02.05.13.39.16.5.02Z"/></g><g class="cls-2"><path class="cls-3" d="M42.34,10.28c.04.15.44.18.52,0,.08-.18-.61-.34-.52,0Z"/><path class="cls-3" d="M42.84,10.31c-.1-.11-.43-.17-.5-.02.05.13.39.16.5.02Z"/></g><g class="cls-2"><path class="cls-3" d="M37.88,4.38c.04.15.44.18.52,0,.08-.18-.61-.34-.52,0Z"/><path class="cls-3" d="M38.39,4.42c-.1-.11-.43-.17-.5-.02.05.13.39.16.5.02Z"/></g><g class="cls-2"><path class="cls-3" d="M31.6,5.94c.04.15.44.18.52,0,.08-.18-.61-.34-.52,0Z"/><path class="cls-3" d="M32.1,5.97c-.1-.11-.43-.17-.5-.02.05.13.39.16.5.02Z"/></g><g class="cls-2"><path class="cls-3" d="M29.63,6.79c.04.15.44.18.52,0,.08-.18-.61-.34-.52,0Z"/><path class="cls-3" d="M30.14,6.82c-.1-.11-.43-.17-.5-.02.05.13.39.16.5.02Z"/></g><g class="cls-2"><path class="cls-3" d="M34.03,9.34c.04.15.44.18.52,0,.08-.18-.61-.34-.52,0Z"/><path class="cls-3" d="M34.53,9.37c-.1-.11-.43-.17-.5-.02.05.13.39.16.5.02Z"/></g><g class="cls-2"><path class="cls-3" d="M40.27,2.69c.11.19.78.18.86-.07.08-.25-1-.16-.86.07Z"/><path class="cls-3" d="M41.1,2.68c-.14-.11-.64-.07-.8.05.15.13.65.13.8-.05Z"/></g><g class="cls-2"><path class="cls-3" d="M32.24,8.61c-.19-.32,1.82-.27,1.67,0-.14.27-1.46.36-1.67,0Z"/><path class="cls-3" d="M32.25,8.63c.23.33,1.42.26,1.64.01-.21-.17-1.45-.2-1.64-.01Z"/></g><g class="cls-2"><path class="cls-3" d="M30.34,4.56c.09.16.97.18,1.16,0s-1.36-.35-1.16,0Z"/><path class="cls-3" d="M31.45,4.59c-.22-.11-.96-.17-1.11-.02.11.14.86.17,1.11.02Z"/></g><g class="cls-2"><path class="cls-3" d="M31.83,3.89c.11.19.79.18.86-.07s-1-.16-.86.07Z"/><path class="cls-3" d="M32.65,3.88c-.14-.1-.64-.07-.8.05.15.13.65.13.8-.05Z"/></g><g class="cls-2"><path class="cls-3" d="M39.31,5.84c-.12-.3,1.21-.26,1.11,0-.1.26-.97.34-1.11,0Z"/><path class="cls-3" d="M39.32,5.86c.15.31.95.25,1.09.01-.14-.17-.96-.19-1.09-.01Z"/></g><g class="cls-2"><path class="cls-3" d="M51.77,9.17c.09.16.97.18,1.16,0,.19-.18-1.36-.35-1.16,0Z"/><path class="cls-3" d="M52.89,9.2c-.22-.11-.96-.17-1.11-.02.11.14.86.17,1.11.02Z"/></g><g class="cls-2"><path class="cls-3" d="M53.27,7.94c.11.19.79.18.86-.07.08-.25-1-.16-.86.07Z"/><path class="cls-3" d="M54.1,7.92c-.14-.1-.64-.07-.8.05.15.13.65.13.8-.05Z"/></g><g class="cls-2"><path class="cls-3" d="M41.28,6.46c-.19-.32,1.82-.27,1.67,0-.14.27-1.46.36-1.67,0Z"/><path class="cls-3" d="M41.29,6.47c.23.33,1.42.26,1.64.01-.21-.17-1.45-.2-1.64-.01Z"/></g><g class="cls-2"><path class="cls-3" d="M44.53,2.15c.09.16.97.18,1.16,0,.19-.18-1.36-.35-1.16,0Z"/><path class="cls-3" d="M45.65,2.18c-.22-.11-.96-.17-1.11-.02.11.14.86.17,1.11.02Z"/></g><g class="cls-2"><path class="cls-3" d="M46.04,2.87c.11.19.78.18.86-.07s-1-.16-.86.07Z"/><path class="cls-3" d="M46.86,2.86c-.14-.11-.64-.07-.8.05.15.13.65.13.8-.05Z"/></g><g class="cls-13"><path class="cls-3" d="M47.85,6.69c-.19-.32,1.82-.27,1.67,0s-1.46.36-1.67,0Z"/><path class="cls-3" d="M47.86,6.7c.23.33,1.42.26,1.64.01-.21-.17-1.45-.2-1.64-.01Z"/><path class="cls-3" d="M46.78,5.88c.09.16.97.18,1.16,0,.19-.18-1.36-.35-1.16,0Z"/><path class="cls-3" d="M47.89,5.91c-.22-.11-.96-.17-1.11-.02.11.14.86.17,1.11.02Z"/><path class="cls-3" d="M48.98,5.51c.11.19.79.18.86-.07.08-.25-1-.16-.86.07Z"/><path class="cls-3" d="M49.81,5.5c-.14-.11-.64-.07-.8.05.15.13.65.13.8-.05Z"/><g class="cls-2"><path class="cls-3" d="M41.03,4.46c-.09-.32.91-.27.84,0s-.73.36-.84,0Z"/><path class="cls-3" d="M41.04,4.48c.12.33.71.26.82.01-.1-.17-.72-.2-.82-.01Z"/></g><g class="cls-2"><path class="cls-3" d="M39.56,1.98c.04.15.44.18.52,0,.08-.18-.61-.34-.52,0Z"/><path class="cls-3" d="M40.06,2.02c-.1-.11-.43-.17-.5-.02.05.13.39.16.5.02Z"/></g><g class="cls-2"><path class="cls-3" d="M51.52,4.06c.04.15.44.18.52,0,.08-.18-.61-.34-.52,0Z"/><path class="cls-3" d="M52.03,4.09c-.1-.11-.43-.17-.5-.02.05.13.39.16.5.02Z"/></g><g class="cls-2"><path class="cls-3" d="M54.47,8.35c.04.15.44.18.52,0,.08-.18-.61-.34-.52,0Z"/><path class="cls-3" d="M54.97,8.38c-.1-.11-.43-.17-.5-.02.05.13.39.16.5.02Z"/></g><g class="cls-2"><path class="cls-3" d="M44.29,9.13c.04.15.44.18.52,0,.08-.18-.61-.34-.52,0Z"/><path class="cls-3" d="M44.79,9.16c-.1-.11-.43-.17-.5-.02.05.13.39.16.5.02Z"/></g><g class="cls-2"><path class="cls-3" d="M42.34,10.28c.04.15.44.18.52,0,.08-.18-.61-.34-.52,0Z"/><path class="cls-3" d="M42.84,10.31c-.1-.11-.43-.17-.5-.02.05.13.39.16.5.02Z"/></g><g class="cls-2"><path class="cls-3" d="M37.88,4.38c.04.15.44.18.52,0,.08-.18-.61-.34-.52,0Z"/><path class="cls-3" d="M38.39,4.42c-.1-.11-.43-.17-.5-.02.05.13.39.16.5.02Z"/></g><g class="cls-2"><path class="cls-3" d="M31.6,5.94c.04.15.44.18.52,0,.08-.18-.61-.34-.52,0Z"/><path class="cls-3" d="M32.1,5.97c-.1-.11-.43-.17-.5-.02.05.13.39.16.5.02Z"/></g><g class="cls-2"><path class="cls-3" d="M29.63,6.79c.04.15.44.18.52,0,.08-.18-.61-.34-.52,0Z"/><path class="cls-3" d="M30.14,6.82c-.1-.11-.43-.17-.5-.02.05.13.39.16.5.02Z"/></g><g class="cls-2"><path class="cls-3" d="M34.03,9.34c.04.15.44.18.52,0,.08-.18-.61-.34-.52,0Z"/><path class="cls-3" d="M34.53,9.37c-.1-.11-.43-.17-.5-.02.05.13.39.16.5.02Z"/></g><g class="cls-2"><path class="cls-3" d="M40.27,2.69c.11.19.78.18.86-.07.08-.25-1-.16-.86.07Z"/><path class="cls-3" d="M41.1,2.68c-.14-.11-.64-.07-.8.05.15.13.65.13.8-.05Z"/></g><g class="cls-2"><path class="cls-3" d="M32.24,8.61c-.19-.32,1.82-.27,1.67,0-.14.27-1.46.36-1.67,0Z"/><path class="cls-3" d="M32.25,8.63c.23.33,1.42.26,1.64.01-.21-.17-1.45-.2-1.64-.01Z"/></g><g class="cls-2"><path class="cls-3" d="M30.34,4.56c.09.16.97.18,1.16,0s-1.36-.35-1.16,0Z"/><path class="cls-3" d="M31.45,4.59c-.22-.11-.96-.17-1.11-.02.11.14.86.17,1.11.02Z"/></g><g class="cls-2"><path class="cls-3" d="M31.83,3.89c.11.19.79.18.86-.07s-1-.16-.86.07Z"/><path class="cls-3" d="M32.65,3.88c-.14-.1-.64-.07-.8.05.15.13.65.13.8-.05Z"/></g><g class="cls-2"><path class="cls-3" d="M39.31,5.84c-.12-.3,1.21-.26,1.11,0-.1.26-.97.34-1.11,0Z"/><path class="cls-3" d="M39.32,5.86c.15.31.95.25,1.09.01-.14-.17-.96-.19-1.09-.01Z"/></g><g class="cls-2"><path class="cls-3" d="M51.77,9.17c.09.16.97.18,1.16,0,.19-.18-1.36-.35-1.16,0Z"/><path class="cls-3" d="M52.89,9.2c-.22-.11-.96-.17-1.11-.02.11.14.86.17,1.11.02Z"/></g><g class="cls-2"><path class="cls-3" d="M53.27,7.94c.11.19.79.18.86-.07.08-.25-1-.16-.86.07Z"/><path class="cls-3" d="M54.1,7.92c-.14-.1-.64-.07-.8.05.15.13.65.13.8-.05Z"/></g><g class="cls-2"><path class="cls-3" d="M41.28,6.46c-.19-.32,1.82-.27,1.67,0-.14.27-1.46.36-1.67,0Z"/><path class="cls-3" d="M41.29,6.47c.23.33,1.42.26,1.64.01-.21-.17-1.45-.2-1.64-.01Z"/></g><g class="cls-2"><path class="cls-3" d="M44.53,2.15c.09.16.97.18,1.16,0,.19-.18-1.36-.35-1.16,0Z"/><path class="cls-3" d="M45.65,2.18c-.22-.11-.96-.17-1.11-.02.11.14.86.17,1.11.02Z"/></g><g class="cls-2"><path class="cls-3" d="M46.04,2.87c.11.19.78.18.86-.07s-1-.16-.86.07Z"/><path class="cls-3" d="M46.86,2.86c-.14-.11-.64-.07-.8.05.15.13.65.13.8-.05Z"/></g></g><path class="cls-3" d="M62.39,12.08c-.19-.32,1.82-.27,1.67,0-.14.27-1.46.36-1.67,0Z"/><path class="cls-3" d="M62.4,12.1c.23.33,1.42.26,1.64.01-.21-.17-1.45-.2-1.64-.01Z"/><path class="cls-3" d="M61.32,11.27c.09.16.97.18,1.16,0,.19-.18-1.36-.35-1.16,0Z"/><path class="cls-3" d="M62.43,11.31c-.22-.11-.96-.17-1.11-.02.11.14.86.17,1.11.02Z"/><path class="cls-3" d="M63.52,10.91c.11.19.79.18.86-.07.08-.25-1-.16-.86.07Z"/><path class="cls-3" d="M64.35,10.9c-.14-.1-.64-.07-.8.05.15.13.65.13.8-.05Z"/><g class="cls-2"><path class="cls-3" d="M58.34,10.48c-.09-.32.91-.27.84,0s-.73.36-.84,0Z"/><path class="cls-3" d="M58.34,10.49c.12.33.71.26.82.01-.1-.17-.72-.2-.82-.01Z"/></g><g class="cls-2"><path class="cls-3" d="M56.75,7.39c.04.15.44.18.52,0,.08-.18-.61-.34-.52,0Z"/><path class="cls-3" d="M57.25,7.43c-.1-.11-.43-.17-.5-.02.05.13.39.16.5.02Z"/></g><g class="cls-2"><path class="cls-3" d="M63.28,9.8c.04.15.44.18.52,0,.08-.18-.61-.34-.52,0Z"/><path class="cls-3" d="M63.79,9.83c-.1-.11-.43-.17-.5-.02.05.13.39.16.5.02Z"/></g><g class="cls-2"><path class="cls-3" d="M66.23,14.09c.04.15.44.18.52,0,.08-.18-.61-.34-.52,0Z"/><path class="cls-3" d="M66.74,14.13c-.1-.11-.43-.17-.5-.02.05.13.39.16.5.02Z"/></g><g class="cls-2"><path class="cls-3" d="M61.6,15.15c.04.15.44.18.52,0,.08-.18-.61-.34-.52,0Z"/><path class="cls-3" d="M62.1,15.18c-.1-.11-.43-.17-.5-.02.05.13.39.16.5.02Z"/></g><g class="cls-2"><path class="cls-3" d="M59.65,16.3c.04.15.44.18.52,0,.08-.18-.61-.34-.52,0Z"/><path class="cls-3" d="M60.15,16.33c-.1-.11-.43-.17-.5-.02.05.13.39.16.5.02Z"/></g><g class="cls-2"><path class="cls-3" d="M55.19,10.4c.04.15.44.18.52,0,.08-.18-.61-.34-.52,0Z"/><path class="cls-3" d="M55.7,10.43c-.1-.11-.43-.17-.5-.02.05.13.39.16.5.02Z"/></g><g class="cls-2"><path class="cls-3" d="M48.9,11.95c.04.15.44.18.52,0,.08-.18-.61-.34-.52,0Z"/><path class="cls-3" d="M49.41,11.99c-.1-.11-.43-.17-.5-.02.05.13.39.16.5.02Z"/></g><g class="cls-2"><path class="cls-3" d="M46.94,12.8c.04.15.44.18.52,0,.08-.18-.61-.34-.52,0Z"/><path class="cls-3" d="M47.44,12.84c-.1-.11-.43-.17-.5-.02.05.13.39.16.5.02Z"/></g><g class="cls-2"><path class="cls-3" d="M51.34,15.35c.04.15.44.18.52,0,.08-.18-.61-.34-.52,0Z"/><path class="cls-3" d="M51.84,15.39c-.1-.11-.43-.17-.5-.02.05.13.39.16.5.02Z"/></g><g class="cls-2"><path class="cls-3" d="M57.46,8.1c.11.19.79.18.86-.07.08-.25-1-.16-.86.07Z"/><path class="cls-3" d="M58.29,8.09c-.14-.1-.64-.07-.8.05.15.13.65.13.8-.05Z"/></g><g class="cls-2"><path class="cls-3" d="M49.55,14.63c-.19-.32,1.82-.27,1.67,0-.14.27-1.46.36-1.67,0Z"/><path class="cls-3" d="M49.56,14.64c.23.33,1.42.26,1.64.01-.21-.17-1.45-.2-1.64-.01Z"/></g><g class="cls-2"><path class="cls-3" d="M47.65,10.58c.09.16.97.18,1.16,0,.19-.18-1.36-.35-1.16,0Z"/><path class="cls-3" d="M48.76,10.61c-.22-.11-.96-.17-1.11-.02.11.14.86.17,1.11.02Z"/></g><g class="cls-2"><path class="cls-3" d="M49.13,9.9c.11.19.79.18.86-.07.08-.25-1-.16-.86.07Z"/><path class="cls-3" d="M49.96,9.89c-.14-.1-.64-.07-.8.05.15.13.65.13.8-.05Z"/></g><g class="cls-2"><path class="cls-3" d="M56.61,11.86c-.12-.3,1.21-.26,1.11,0s-.97.34-1.11,0Z"/><path class="cls-3" d="M56.62,11.87c.15.31.95.25,1.09.01-.14-.17-.96-.19-1.09-.01Z"/></g><g class="cls-2"><path class="cls-3" d="M63.54,14.91c.09.16.97.18,1.16,0,.19-.18-1.36-.35-1.16,0Z"/><path class="cls-3" d="M64.65,14.95c-.22-.11-.96-.17-1.11-.02.11.14.86.17,1.11.02Z"/></g><g class="cls-2"><path class="cls-3" d="M65.03,13.68c.11.19.79.18.86-.07.08-.25-1-.16-.86.07Z"/><path class="cls-3" d="M65.86,13.67c-.14-.1-.64-.07-.8.05.15.13.65.13.8-.05Z"/></g><g class="cls-2"><path class="cls-3" d="M58.59,12.48c-.19-.32,1.82-.27,1.67,0-.14.27-1.46.36-1.67,0Z"/><path class="cls-3" d="M58.6,12.49c.23.33,1.42.26,1.64.01-.21-.17-1.45-.2-1.64-.01Z"/></g><g class="cls-2"><path class="cls-3" d="M61.72,7.56c.09.16.97.18,1.16,0,.19-.18-1.36-.35-1.16,0Z"/><path class="cls-3" d="M62.84,7.59c-.22-.11-.96-.17-1.11-.02.11.14.86.17,1.11.02Z"/></g><g class="cls-2"><path class="cls-3" d="M63.23,8.28c.11.19.79.18.86-.07.08-.25-1-.16-.86.07Z"/><path class="cls-3" d="M64.05,8.26c-.14-.11-.64-.07-.8.05.15.13.65.13.8-.05Z"/></g><g class="cls-13"><path class="cls-3" d="M62.39,12.08c-.19-.32,1.82-.27,1.67,0-.14.27-1.46.36-1.67,0Z"/><path class="cls-3" d="M62.4,12.1c.23.33,1.42.26,1.64.01-.21-.17-1.45-.2-1.64-.01Z"/><path class="cls-3" d="M61.32,11.27c.09.16.97.18,1.16,0,.19-.18-1.36-.35-1.16,0Z"/><path class="cls-3" d="M62.43,11.31c-.22-.11-.96-.17-1.11-.02.11.14.86.17,1.11.02Z"/><path class="cls-3" d="M63.52,10.91c.11.19.79.18.86-.07.08-.25-1-.16-.86.07Z"/><path class="cls-3" d="M64.35,10.9c-.14-.1-.64-.07-.8.05.15.13.65.13.8-.05Z"/><g class="cls-2"><path class="cls-3" d="M58.34,10.48c-.09-.32.91-.27.84,0s-.73.36-.84,0Z"/><path class="cls-3" d="M58.34,10.49c.12.33.71.26.82.01-.1-.17-.72-.2-.82-.01Z"/></g><g class="cls-2"><path class="cls-3" d="M56.75,7.39c.04.15.44.18.52,0,.08-.18-.61-.34-.52,0Z"/><path class="cls-3" d="M57.25,7.43c-.1-.11-.43-.17-.5-.02.05.13.39.16.5.02Z"/></g><g class="cls-2"><path class="cls-3" d="M63.28,9.8c.04.15.44.18.52,0,.08-.18-.61-.34-.52,0Z"/><path class="cls-3" d="M63.79,9.83c-.1-.11-.43-.17-.5-.02.05.13.39.16.5.02Z"/></g><g class="cls-2"><path class="cls-3" d="M66.23,14.09c.04.15.44.18.52,0,.08-.18-.61-.34-.52,0Z"/><path class="cls-3" d="M66.74,14.13c-.1-.11-.43-.17-.5-.02.05.13.39.16.5.02Z"/></g><g class="cls-2"><path class="cls-3" d="M61.6,15.15c.04.15.44.18.52,0,.08-.18-.61-.34-.52,0Z"/><path class="cls-3" d="M62.1,15.18c-.1-.11-.43-.17-.5-.02.05.13.39.16.5.02Z"/></g><g class="cls-2"><path class="cls-3" d="M59.65,16.3c.04.15.44.18.52,0,.08-.18-.61-.34-.52,0Z"/><path class="cls-3" d="M60.15,16.33c-.1-.11-.43-.17-.5-.02.05.13.39.16.5.02Z"/></g><g class="cls-2"><path class="cls-3" d="M55.19,10.4c.04.15.44.18.52,0,.08-.18-.61-.34-.52,0Z"/><path class="cls-3" d="M55.7,10.43c-.1-.11-.43-.17-.5-.02.05.13.39.16.5.02Z"/></g><g class="cls-2"><path class="cls-3" d="M48.9,11.95c.04.15.44.18.52,0,.08-.18-.61-.34-.52,0Z"/><path class="cls-3" d="M49.41,11.99c-.1-.11-.43-.17-.5-.02.05.13.39.16.5.02Z"/></g><g class="cls-2"><path class="cls-3" d="M46.94,12.8c.04.15.44.18.52,0,.08-.18-.61-.34-.52,0Z"/><path class="cls-3" d="M47.44,12.84c-.1-.11-.43-.17-.5-.02.05.13.39.16.5.02Z"/></g><g class="cls-2"><path class="cls-3" d="M51.34,15.35c.04.15.44.18.52,0,.08-.18-.61-.34-.52,0Z"/><path class="cls-3" d="M51.84,15.39c-.1-.11-.43-.17-.5-.02.05.13.39.16.5.02Z"/></g><g class="cls-2"><path class="cls-3" d="M57.46,8.1c.11.19.79.18.86-.07.08-.25-1-.16-.86.07Z"/><path class="cls-3" d="M58.29,8.09c-.14-.1-.64-.07-.8.05.15.13.65.13.8-.05Z"/></g><g class="cls-2"><path class="cls-3" d="M49.55,14.63c-.19-.32,1.82-.27,1.67,0-.14.27-1.46.36-1.67,0Z"/><path class="cls-3" d="M49.56,14.64c.23.33,1.42.26,1.64.01-.21-.17-1.45-.2-1.64-.01Z"/></g><g class="cls-2"><path class="cls-3" d="M47.65,10.58c.09.16.97.18,1.16,0,.19-.18-1.36-.35-1.16,0Z"/><path class="cls-3" d="M48.76,10.61c-.22-.11-.96-.17-1.11-.02.11.14.86.17,1.11.02Z"/></g><g class="cls-2"><path class="cls-3" d="M49.13,9.9c.11.19.79.18.86-.07.08-.25-1-.16-.86.07Z"/><path class="cls-3" d="M49.96,9.89c-.14-.1-.64-.07-.8.05.15.13.65.13.8-.05Z"/></g><g class="cls-2"><path class="cls-3" d="M56.61,11.86c-.12-.3,1.21-.26,1.11,0s-.97.34-1.11,0Z"/><path class="cls-3" d="M56.62,11.87c.15.31.95.25,1.09.01-.14-.17-.96-.19-1.09-.01Z"/></g><g class="cls-2"><path class="cls-3" d="M63.54,14.91c.09.16.97.18,1.16,0,.19-.18-1.36-.35-1.16,0Z"/><path class="cls-3" d="M64.65,14.95c-.22-.11-.96-.17-1.11-.02.11.14.86.17,1.11.02Z"/></g><g class="cls-2"><path class="cls-3" d="M65.03,13.68c.11.19.79.18.86-.07.08-.25-1-.16-.86.07Z"/><path class="cls-3" d="M65.86,13.67c-.14-.1-.64-.07-.8.05.15.13.65.13.8-.05Z"/></g><g class="cls-2"><path class="cls-3" d="M38.22,19.83c.04.15.44.18.52,0,.08-.18-.61-.34-.52,0Z"/><path class="cls-3" d="M38.73,19.87c-.1-.11-.43-.17-.5-.02.05.13.39.16.5.02Z"/></g><g class="cls-2"><path class="cls-3" d="M33.58,20.88c.04.15.44.18.52,0,.08-.18-.61-.34-.52,0Z"/><path class="cls-3" d="M34.09,20.92c-.1-.11-.43-.17-.5-.02.05.13.39.16.5.02Z"/></g><g class="cls-2"><path class="cls-3" d="M35.53,20.65c.09.16.97.18,1.16,0,.19-.18-1.36-.35-1.16,0Z"/><path class="cls-3" d="M36.64,20.69c-.22-.11-.96-.17-1.11-.02.11.14.86.17,1.11.02Z"/></g><g class="cls-2"><path class="cls-3" d="M37.02,19.42c.11.19.79.18.86-.07s-1-.16-.86.07Z"/><path class="cls-3" d="M37.85,19.41c-.14-.11-.64-.07-.8.05.15.13.65.13.8-.05Z"/></g><g class="cls-2"><path class="cls-3" d="M38.22,19.83c.04.15.44.18.52,0,.08-.18-.61-.34-.52,0Z"/><path class="cls-3" d="M38.73,19.87c-.1-.11-.43-.17-.5-.02.05.13.39.16.5.02Z"/></g><g class="cls-2"><path class="cls-3" d="M33.58,20.88c.04.15.44.18.52,0,.08-.18-.61-.34-.52,0Z"/><path class="cls-3" d="M34.09,20.92c-.1-.11-.43-.17-.5-.02.05.13.39.16.5.02Z"/></g><g class="cls-2"><path class="cls-3" d="M35.53,20.65c.09.16.97.18,1.16,0,.19-.18-1.36-.35-1.16,0Z"/><path class="cls-3" d="M36.64,20.69c-.22-.11-.96-.17-1.11-.02.11.14.86.17,1.11.02Z"/></g><g class="cls-2"><path class="cls-3" d="M37.02,19.42c.11.19.79.18.86-.07s-1-.16-.86.07Z"/><path class="cls-3" d="M37.85,19.41c-.14-.11-.64-.07-.8.05.15.13.65.13.8-.05Z"/></g><g class="cls-2"><path class="cls-3" d="M58.59,12.48c-.19-.32,1.82-.27,1.67,0-.14.27-1.46.36-1.67,0Z"/><path class="cls-3" d="M58.6,12.49c.23.33,1.42.26,1.64.01-.21-.17-1.45-.2-1.64-.01Z"/></g><g class="cls-2"><path class="cls-3" d="M61.72,7.56c.09.16.97.18,1.16,0,.19-.18-1.36-.35-1.16,0Z"/><path class="cls-3" d="M62.84,7.59c-.22-.11-.96-.17-1.11-.02.11.14.86.17,1.11.02Z"/></g><g class="cls-2"><path class="cls-3" d="M63.23,8.28c.11.19.79.18.86-.07.08-.25-1-.16-.86.07Z"/><path class="cls-3" d="M64.05,8.26c-.14-.11-.64-.07-.8.05.15.13.65.13.8-.05Z"/></g><path class="cls-3" d="M66.47,12.2c.09.16.97.18,1.16,0,.19-.18-1.36-.35-1.16,0Z"/><path class="cls-3" d="M67.59,12.24c-.22-.11-.96-.17-1.11-.02.11.14.86.17,1.11.02Z"/><path class="cls-3" d="M68.67,11.84c.11.19.79.18.86-.07.08-.25-1-.16-.86.07Z"/><path class="cls-3" d="M69.5,11.82c-.14-.1-.64-.07-.8.05.15.13.65.13.8-.05Z"/><g class="cls-2"><path class="cls-3" d="M71.22,10.38c.04.15.44.18.52,0,.08-.18-.61-.34-.52,0Z"/><path class="cls-3" d="M71.72,10.41c-.1-.11-.43-.17-.5-.02.05.13.39.16.5.02Z"/></g><g class="cls-2"><path class="cls-3" d="M66.88,8.49c.09.16.97.18,1.16,0,.19-.18-1.36-.35-1.16,0Z"/><path class="cls-3" d="M67.99,8.52c-.22-.11-.96-.17-1.11-.02.11.14.86.17,1.11.02Z"/></g><g class="cls-2"><path class="cls-3" d="M68.38,9.21c.11.19.79.18.86-.07.08-.25-1-.16-.86.07Z"/><path class="cls-3" d="M69.21,9.19c-.14-.1-.64-.07-.8.05.15.13.65.13.8-.05Z"/></g><path class="cls-3" d="M66.47,12.2c.09.16.97.18,1.16,0,.19-.18-1.36-.35-1.16,0Z"/><path class="cls-3" d="M67.59,12.24c-.22-.11-.96-.17-1.11-.02.11.14.86.17,1.11.02Z"/><path class="cls-3" d="M68.67,11.84c.11.19.79.18.86-.07.08-.25-1-.16-.86.07Z"/><path class="cls-3" d="M69.5,11.82c-.14-.1-.64-.07-.8.05.15.13.65.13.8-.05Z"/><g class="cls-2"><path class="cls-3" d="M71.22,10.38c.04.15.44.18.52,0,.08-.18-.61-.34-.52,0Z"/><path class="cls-3" d="M71.72,10.41c-.1-.11-.43-.17-.5-.02.05.13.39.16.5.02Z"/></g><g class="cls-2"><path class="cls-3" d="M66.88,8.49c.09.16.97.18,1.16,0,.19-.18-1.36-.35-1.16,0Z"/><path class="cls-3" d="M67.99,8.52c-.22-.11-.96-.17-1.11-.02.11.14.86.17,1.11.02Z"/></g><g class="cls-2"><path class="cls-3" d="M68.38,9.21c.11.19.79.18.86-.07.08-.25-1-.16-.86.07Z"/><path class="cls-3" d="M69.21,9.19c-.14-.1-.64-.07-.8.05.15.13.65.13.8-.05Z"/></g></g><path class="cls-3" d="M25.88,20.15c-.19-.32,1.82-.27,1.67,0-.14.27-1.46.36-1.67,0Z"/><path class="cls-3" d="M25.89,20.17c.23.33,1.42.26,1.64.01-.21-.17-1.45-.2-1.64-.01Z"/><path class="cls-3" d="M24.81,19.34c.09.16.97.18,1.16,0,.19-.18-1.36-.35-1.16,0Z"/><path class="cls-3" d="M25.92,19.38c-.22-.11-.96-.17-1.11-.02.11.14.86.17,1.11.02Z"/><path class="cls-3" d="M27.01,18.98c.11.19.79.18.86-.07s-1-.16-.86.07Z"/><path class="cls-3" d="M27.84,18.97c-.14-.1-.64-.07-.8.05.15.13.65.13.8-.05Z"/><g class="cls-2"><path class="cls-3" d="M21.26,16.73c-.09-.32.91-.27.84,0s-.73.36-.84,0Z"/><path class="cls-3" d="M21.26,16.74c.12.33.71.26.82.01-.1-.17-.72-.2-.82-.01Z"/></g><g class="cls-2"><path class="cls-3" d="M17.47,14.84c.04.15.44.18.52,0,.08-.18-.61-.34-.52,0Z"/><path class="cls-3" d="M17.97,14.87c-.1-.11-.43-.17-.5-.02.05.13.39.16.5.02Z"/></g><g class="cls-2"><path class="cls-3" d="M29.55,17.52c.04.15.44.18.52,0,.08-.18-.61-.34-.52,0Z"/><path class="cls-3" d="M30.05,17.55c-.1-.11-.43-.17-.5-.02.05.13.39.16.5.02Z"/></g><g class="cls-2"><path class="cls-3" d="M58.13,17.26c.04.15.44.18.52,0,.08-.18-.61-.34-.52,0Z"/><path class="cls-3" d="M58.64,17.29c-.1-.11-.43-.17-.5-.02.05.13.39.16.5.02Z"/></g><g class="cls-2"><path class="cls-3" d="M38.11,17.29c.04.15.44.18.52,0,.08-.18-.61-.34-.52,0Z"/><path class="cls-3" d="M38.61,17.32c-.1-.11-.43-.17-.5-.02.05.13.39.16.5.02Z"/></g><g class="cls-2"><path class="cls-3" d="M36.16,18.44c.04.15.44.18.52,0,.08-.18-.61-.34-.52,0Z"/><path class="cls-3" d="M36.66,18.47c-.1-.11-.43-.17-.5-.02.05.13.39.16.5.02Z"/></g><g class="cls-2"><path class="cls-3" d="M18.11,16.65c.04.15.44.18.52,0,.08-.18-.61-.34-.52,0Z"/><path class="cls-3" d="M18.62,16.68c-.1-.11-.43-.17-.5-.02.05.13.39.16.5.02Z"/></g><g class="cls-2"><path class="cls-3" d="M8.75,11.35c.04.15.44.18.52,0,.08-.18-.61-.34-.52,0Z"/><path class="cls-3" d="M9.25,11.38c-.1-.11-.43-.17-.5-.02.05.13.39.16.5.02Z"/></g><g class="cls-2"><path class="cls-3" d="M7.77,10.8c.04.15.44.18.52,0,.08-.18-.61-.34-.52,0Z"/><path class="cls-3" d="M8.27,10.83c-.1-.11-.43-.17-.5-.02.05.13.39.16.5.02Z"/></g><g class="cls-2"><path class="cls-3" d="M11.18,14.75c.04.15.44.18.52,0,.08-.18-.61-.34-.52,0Z"/><path class="cls-3" d="M11.68,14.78c-.1-.11-.43-.17-.5-.02.05.13.39.16.5.02Z"/></g><g class="cls-2"><path class="cls-3" d="M18.19,15.55c.11.19.79.18.86-.07s-1-.16-.86.07Z"/><path class="cls-3" d="M19.01,15.54c-.14-.1-.64-.07-.8.05.15.13.65.13.8-.05Z"/></g><g class="cls-2"><path class="cls-3" d="M9.39,14.02c-.19-.32,1.82-.27,1.67,0-.14.27-1.46.36-1.67,0Z"/><path class="cls-3" d="M9.4,14.03c.23.33,1.42.26,1.64.01-.21-.17-1.45-.2-1.64-.01Z"/></g><g class="cls-2"><path class="cls-3" d="M7.49,9.97c.09.16.97.18,1.16,0,.19-.18-1.36-.35-1.16,0Z"/><path class="cls-3" d="M8.61,10c-.22-.11-.96-.17-1.11-.02.11.14.86.17,1.11.02Z"/></g><g class="cls-2"><path class="cls-3" d="M8.98,9.3c.11.19.79.18.86-.07.08-.25-1-.16-.86.07Z"/><path class="cls-3" d="M9.8,9.28c-.14-.11-.64-.07-.8.05.15.13.65.13.8-.05Z"/></g><g class="cls-2"><path class="cls-3" d="M19.53,18.11c-.12-.3,1.21-.26,1.11,0-.1.26-.97.34-1.11,0Z"/><path class="cls-3" d="M19.54,18.12c.15.31.95.25,1.09.01-.14-.17-.96-.19-1.09-.01Z"/></g><g class="cls-2"><path class="cls-3" d="M55.44,18.08c.09.16.97.18,1.16,0,.19-.18-1.36-.35-1.16,0Z"/><path class="cls-3" d="M56.55,18.11c-.22-.11-.96-.17-1.11-.02.11.14.86.17,1.11.02Z"/></g><g class="cls-2"><path class="cls-3" d="M56.93,16.84c.11.19.78.18.86-.07.08-.25-1-.16-.86.07Z"/><path class="cls-3" d="M57.76,16.83c-.14-.11-.64-.07-.8.05.15.13.65.13.8-.05Z"/></g><g class="cls-2"><path class="cls-3" d="M21.51,18.72c-.19-.32,1.82-.27,1.67,0-.14.27-1.46.36-1.67,0Z"/><path class="cls-3" d="M21.52,18.74c.23.33,1.42.26,1.64.01-.21-.17-1.45-.2-1.64-.01Z"/></g><g class="cls-2"><path class="cls-3" d="M22.44,15.01c.09.16.97.18,1.16,0,.19-.18-1.36-.35-1.16,0Z"/><path class="cls-3" d="M23.56,15.04c-.22-.11-.96-.17-1.11-.02.11.14.86.17,1.11.02Z"/></g><g class="cls-2"><path class="cls-3" d="M23.95,15.73c.11.19.79.18.86-.07s-1-.16-.86.07Z"/><path class="cls-3" d="M24.78,15.71c-.14-.1-.64-.07-.8.05.15.13.65.13.8-.05Z"/></g><g class="cls-13"><path class="cls-3" d="M25.88,20.15c-.19-.32,1.82-.27,1.67,0-.14.27-1.46.36-1.67,0Z"/><path class="cls-3" d="M25.89,20.17c.23.33,1.42.26,1.64.01-.21-.17-1.45-.2-1.64-.01Z"/><path class="cls-3" d="M24.81,19.34c.09.16.97.18,1.16,0,.19-.18-1.36-.35-1.16,0Z"/><path class="cls-3" d="M25.92,19.38c-.22-.11-.96-.17-1.11-.02.11.14.86.17,1.11.02Z"/><path class="cls-3" d="M27.01,18.98c.11.19.79.18.86-.07s-1-.16-.86.07Z"/><path class="cls-3" d="M27.84,18.97c-.14-.1-.64-.07-.8.05.15.13.65.13.8-.05Z"/><path class="cls-3" d="M63.76,6.48c-.19-.32,1.82-.27,1.67,0-.14.27-1.46.36-1.67,0Z"/><path class="cls-3" d="M63.78,6.5c.23.33,1.42.26,1.64.01-.21-.17-1.45-.2-1.64-.01Z"/><path class="cls-3" d="M62.69,5.67c.09.16.97.18,1.16,0s-1.36-.35-1.16,0Z"/><path class="cls-3" d="M63.8,5.71c-.22-.11-.96-.17-1.11-.02.11.14.86.17,1.11.02Z"/><path class="cls-3" d="M64.89,5.31c.11.19.79.18.86-.07.08-.25-1-.16-.86.07Z"/><path class="cls-3" d="M65.72,5.3c-.14-.1-.64-.07-.8.05.15.13.65.13.8-.05Z"/><path class="cls-3" d="M63.76,6.48c-.19-.32,1.82-.27,1.67,0-.14.27-1.46.36-1.67,0Z"/><path class="cls-3" d="M63.78,6.5c.23.33,1.42.26,1.64.01-.21-.17-1.45-.2-1.64-.01Z"/><path class="cls-3" d="M62.69,5.67c.09.16.97.18,1.16,0s-1.36-.35-1.16,0Z"/><path class="cls-3" d="M63.8,5.71c-.22-.11-.96-.17-1.11-.02.11.14.86.17,1.11.02Z"/><path class="cls-3" d="M64.89,5.31c.11.19.79.18.86-.07.08-.25-1-.16-.86.07Z"/><path class="cls-3" d="M65.72,5.3c-.14-.1-.64-.07-.8.05.15.13.65.13.8-.05Z"/><g class="cls-2"><path class="cls-3" d="M21.26,16.73c-.09-.32.91-.27.84,0s-.73.36-.84,0Z"/><path class="cls-3" d="M21.26,16.74c.12.33.71.26.82.01-.1-.17-.72-.2-.82-.01Z"/></g><g class="cls-2"><path class="cls-3" d="M17.47,14.84c.04.15.44.18.52,0,.08-.18-.61-.34-.52,0Z"/><path class="cls-3" d="M17.97,14.87c-.1-.11-.43-.17-.5-.02.05.13.39.16.5.02Z"/></g><g class="cls-2"><path class="cls-3" d="M29.55,17.52c.04.15.44.18.52,0,.08-.18-.61-.34-.52,0Z"/><path class="cls-3" d="M30.05,17.55c-.1-.11-.43-.17-.5-.02.05.13.39.16.5.02Z"/></g><g class="cls-2"><path class="cls-3" d="M58.13,17.26c.04.15.44.18.52,0,.08-.18-.61-.34-.52,0Z"/><path class="cls-3" d="M58.64,17.29c-.1-.11-.43-.17-.5-.02.05.13.39.16.5.02Z"/></g><g class="cls-2"><path class="cls-3" d="M38.11,17.29c.04.15.44.18.52,0,.08-.18-.61-.34-.52,0Z"/><path class="cls-3" d="M38.61,17.32c-.1-.11-.43-.17-.5-.02.05.13.39.16.5.02Z"/></g><g class="cls-2"><path class="cls-3" d="M36.16,18.44c.04.15.44.18.52,0,.08-.18-.61-.34-.52,0Z"/><path class="cls-3" d="M36.66,18.47c-.1-.11-.43-.17-.5-.02.05.13.39.16.5.02Z"/></g><g class="cls-2"><path class="cls-3" d="M18.11,16.65c.04.15.44.18.52,0,.08-.18-.61-.34-.52,0Z"/><path class="cls-3" d="M18.62,16.68c-.1-.11-.43-.17-.5-.02.05.13.39.16.5.02Z"/></g><g class="cls-2"><path class="cls-3" d="M8.75,11.35c.04.15.44.18.52,0,.08-.18-.61-.34-.52,0Z"/><path class="cls-3" d="M9.25,11.38c-.1-.11-.43-.17-.5-.02.05.13.39.16.5.02Z"/></g><g class="cls-2"><path class="cls-3" d="M7.77,10.8c.04.15.44.18.52,0,.08-.18-.61-.34-.52,0Z"/><path class="cls-3" d="M8.27,10.83c-.1-.11-.43-.17-.5-.02.05.13.39.16.5.02Z"/></g><g class="cls-2"><path class="cls-3" d="M11.18,14.75c.04.15.44.18.52,0,.08-.18-.61-.34-.52,0Z"/><path class="cls-3" d="M11.68,14.78c-.1-.11-.43-.17-.5-.02.05.13.39.16.5.02Z"/></g><g class="cls-2"><path class="cls-3" d="M18.19,15.55c.11.19.79.18.86-.07s-1-.16-.86.07Z"/><path class="cls-3" d="M19.01,15.54c-.14-.1-.64-.07-.8.05.15.13.65.13.8-.05Z"/></g><g class="cls-2"><path class="cls-3" d="M9.39,14.02c-.19-.32,1.82-.27,1.67,0-.14.27-1.46.36-1.67,0Z"/><path class="cls-3" d="M9.4,14.03c.23.33,1.42.26,1.64.01-.21-.17-1.45-.2-1.64-.01Z"/></g><g class="cls-2"><path class="cls-3" d="M7.49,9.97c.09.16.97.18,1.16,0,.19-.18-1.36-.35-1.16,0Z"/><path class="cls-3" d="M8.61,10c-.22-.11-.96-.17-1.11-.02.11.14.86.17,1.11.02Z"/></g><g class="cls-2"><path class="cls-3" d="M8.98,9.3c.11.19.79.18.86-.07.08-.25-1-.16-.86.07Z"/><path class="cls-3" d="M9.8,9.28c-.14-.11-.64-.07-.8.05.15.13.65.13.8-.05Z"/></g><g class="cls-2"><path class="cls-3" d="M19.53,18.11c-.12-.3,1.21-.26,1.11,0-.1.26-.97.34-1.11,0Z"/><path class="cls-3" d="M19.54,18.12c.15.31.95.25,1.09.01-.14-.17-.96-.19-1.09-.01Z"/></g><g class="cls-2"><path class="cls-3" d="M55.44,18.08c.09.16.97.18,1.16,0,.19-.18-1.36-.35-1.16,0Z"/><path class="cls-3" d="M56.55,18.11c-.22-.11-.96-.17-1.11-.02.11.14.86.17,1.11.02Z"/></g><g class="cls-2"><path class="cls-3" d="M56.93,16.84c.11.19.78.18.86-.07.08-.25-1-.16-.86.07Z"/><path class="cls-3" d="M57.76,16.83c-.14-.11-.64-.07-.8.05.15.13.65.13.8-.05Z"/></g><g class="cls-2"><path class="cls-3" d="M21.51,18.72c-.19-.32,1.82-.27,1.67,0-.14.27-1.46.36-1.67,0Z"/><path class="cls-3" d="M21.52,18.74c.23.33,1.42.26,1.64.01-.21-.17-1.45-.2-1.64-.01Z"/></g><g class="cls-2"><path class="cls-3" d="M22.44,15.01c.09.16.97.18,1.16,0,.19-.18-1.36-.35-1.16,0Z"/><path class="cls-3" d="M23.56,15.04c-.22-.11-.96-.17-1.11-.02.11.14.86.17,1.11.02Z"/></g><g class="cls-2"><path class="cls-3" d="M23.95,15.73c.11.19.79.18.86-.07s-1-.16-.86.07Z"/><path class="cls-3" d="M24.78,15.71c-.14-.1-.64-.07-.8.05.15.13.65.13.8-.05Z"/></g></g></g><path class="cls-10" d="M72.88,11.21c.88-.86.49-1.11.39-1.23-.85-1.02-2.61-2.74-5.86-4.55-4.18-2.31-10.8-4.51-21.1-4.88,21.93,1.36,22.96,21.65-11.41,22.46.8.02,1.61.04,2.45.04,22.59.05,32.86-9.23,35.53-11.85Z"/></g></g></g></svg>