<?xml version="1.0" encoding="UTF-8"?><svg xmlns="http://www.w3.org/2000/svg" xmlns:xlink="http://www.w3.org/1999/xlink" viewBox="0 0 59.28 35.05"><defs><style>.cls-1{fill:url(#radial-gradient);}.cls-1,.cls-2,.cls-3,.cls-4,.cls-5,.cls-6,.cls-7,.cls-8,.cls-9,.cls-10,.cls-11,.cls-12,.cls-13,.cls-14,.cls-15,.cls-16,.cls-17,.cls-18,.cls-19,.cls-20,.cls-21,.cls-22,.cls-23,.cls-24,.cls-25,.cls-26,.cls-27,.cls-28,.cls-29,.cls-30,.cls-31,.cls-32,.cls-33,.cls-34,.cls-35,.cls-36,.cls-37,.cls-38,.cls-39,.cls-40,.cls-41,.cls-42,.cls-43,.cls-44,.cls-45,.cls-46,.cls-47,.cls-48,.cls-49,.cls-50,.cls-51,.cls-52,.cls-53,.cls-54,.cls-55,.cls-56,.cls-57,.cls-58,.cls-59,.cls-60,.cls-61,.cls-62,.cls-63,.cls-64,.cls-65,.cls-66,.cls-67,.cls-68,.cls-69,.cls-70,.cls-71,.cls-72,.cls-73,.cls-74,.cls-75,.cls-76,.cls-77,.cls-78,.cls-79,.cls-80,.cls-81,.cls-82,.cls-83,.cls-84,.cls-85,.cls-86,.cls-87,.cls-88,.cls-89,.cls-90,.cls-91,.cls-92,.cls-93,.cls-94,.cls-95,.cls-96,.cls-97,.cls-98,.cls-99,.cls-100,.cls-101,.cls-102,.cls-103,.cls-104,.cls-105,.cls-106,.cls-107,.cls-108,.cls-109,.cls-110,.cls-111,.cls-112,.cls-113,.cls-114,.cls-115,.cls-116,.cls-117,.cls-118,.cls-119,.cls-120,.cls-121,.cls-122,.cls-123,.cls-124,.cls-125{fill-rule:evenodd;}.cls-2{fill:url(#radial-gradient-2);}.cls-2,.cls-3,.cls-4{mix-blend-mode:screen;}.cls-2,.cls-3,.cls-4,.cls-6,.cls-7,.cls-8,.cls-9,.cls-10,.cls-11,.cls-12,.cls-13,.cls-14,.cls-15,.cls-16,.cls-17,.cls-18,.cls-19,.cls-20,.cls-21,.cls-22,.cls-23,.cls-24,.cls-25,.cls-26,.cls-27,.cls-28,.cls-29,.cls-30,.cls-31,.cls-32,.cls-33,.cls-34,.cls-35,.cls-36,.cls-37,.cls-38,.cls-39,.cls-40,.cls-41,.cls-42,.cls-43,.cls-44,.cls-45,.cls-46,.cls-47,.cls-48,.cls-49,.cls-50,.cls-51,.cls-52,.cls-53,.cls-54,.cls-55,.cls-56,.cls-57,.cls-58,.cls-59,.cls-60,.cls-61,.cls-62,.cls-63,.cls-64,.cls-65,.cls-66,.cls-67,.cls-68,.cls-69,.cls-70,.cls-71,.cls-72,.cls-73,.cls-74,.cls-75,.cls-76,.cls-77,.cls-78,.cls-79,.cls-80,.cls-81,.cls-82,.cls-83,.cls-84,.cls-85,.cls-86,.cls-87,.cls-88,.cls-89,.cls-90,.cls-91,.cls-92,.cls-93,.cls-94,.cls-95,.cls-96,.cls-97,.cls-98,.cls-99,.cls-100,.cls-101,.cls-126,.cls-105,.cls-106,.cls-107,.cls-108,.cls-109,.cls-110,.cls-111,.cls-112,.cls-113,.cls-114,.cls-115,.cls-116,.cls-117,.cls-118,.cls-119,.cls-120,.cls-121,.cls-122,.cls-125{opacity:.5;}.cls-3{fill:url(#radial-gradient-3);}.cls-4{fill:url(#radial-gradient-4);}.cls-127,.cls-5{opacity:.3;}.cls-127,.cls-102,.cls-103{mix-blend-mode:multiply;}.cls-5{fill:url(#linear-gradient-34);}.cls-6{fill:url(#linear-gradient-43);}.cls-7{fill:url(#linear-gradient-41);}.cls-8{fill:url(#linear-gradient-40);}.cls-9{fill:url(#linear-gradient-42);}.cls-10{fill:url(#linear-gradient-46);}.cls-11{fill:url(#linear-gradient-44);}.cls-12{fill:url(#linear-gradient-47);}.cls-13{fill:url(#linear-gradient-45);}.cls-14{fill:url(#linear-gradient-48);}.cls-15{fill:url(#linear-gradient-49);}.cls-16{fill:url(#linear-gradient-37);}.cls-17{fill:url(#linear-gradient-27);}.cls-18{fill:url(#linear-gradient-24);}.cls-19{fill:url(#linear-gradient-39);}.cls-20{fill:url(#linear-gradient-31);}.cls-21{fill:url(#linear-gradient-16);}.cls-22{fill:url(#linear-gradient-15);}.cls-23{fill:url(#linear-gradient-26);}.cls-24{fill:url(#linear-gradient-29);}.cls-25{fill:url(#linear-gradient-22);}.cls-26{fill:url(#linear-gradient-23);}.cls-27{fill:url(#linear-gradient-17);}.cls-28{fill:url(#linear-gradient-35);}.cls-29{fill:url(#linear-gradient-18);}.cls-30{fill:url(#linear-gradient-30);}.cls-31{fill:url(#linear-gradient-36);}.cls-32{fill:url(#linear-gradient-38);}.cls-33{fill:url(#linear-gradient-28);}.cls-34{fill:url(#linear-gradient-25);}.cls-35{fill:url(#linear-gradient-20);}.cls-36{fill:url(#linear-gradient-32);}.cls-37{fill:url(#linear-gradient-19);}.cls-38{fill:url(#linear-gradient-14);}.cls-39{fill:url(#linear-gradient-21);}.cls-40{fill:url(#linear-gradient-11);}.cls-41{fill:url(#linear-gradient-12);}.cls-42{fill:url(#linear-gradient-13);}.cls-43{fill:url(#linear-gradient-10);}.cls-44{fill:url(#linear-gradient-80);}.cls-45{fill:url(#linear-gradient-82);}.cls-46{fill:url(#linear-gradient-81);}.cls-47{fill:url(#linear-gradient-88);}.cls-48{fill:url(#linear-gradient-87);}.cls-49{fill:url(#linear-gradient-89);}.cls-50{fill:url(#linear-gradient-86);}.cls-51{fill:url(#linear-gradient-83);}.cls-52{fill:url(#linear-gradient-85);}.cls-53{fill:url(#linear-gradient-84);}.cls-54{fill:url(#linear-gradient-67);}.cls-55{fill:url(#linear-gradient-68);}.cls-56{fill:url(#linear-gradient-69);}.cls-57{fill:url(#linear-gradient-59);}.cls-58{fill:url(#linear-gradient-58);}.cls-59{fill:url(#linear-gradient-57);}.cls-60{fill:url(#linear-gradient-63);}.cls-61{fill:url(#linear-gradient-65);}.cls-62{fill:url(#linear-gradient-64);}.cls-63{fill:url(#linear-gradient-66);}.cls-64{fill:url(#linear-gradient-61);}.cls-65{fill:url(#linear-gradient-60);}.cls-66{fill:url(#linear-gradient-62);}.cls-67{fill:url(#linear-gradient-54);}.cls-68{fill:url(#linear-gradient-53);}.cls-69{fill:url(#linear-gradient-56);}.cls-70{fill:url(#linear-gradient-55);}.cls-71{fill:url(#linear-gradient-50);}.cls-72{fill:url(#linear-gradient-52);}.cls-73{fill:url(#linear-gradient-51);}.cls-74{fill:url(#linear-gradient-79);}.cls-75{fill:url(#linear-gradient-78);}.cls-76{fill:url(#linear-gradient-72);}.cls-77{fill:url(#linear-gradient-75);}.cls-78{fill:url(#linear-gradient-77);}.cls-79{fill:url(#linear-gradient-74);}.cls-80{fill:url(#linear-gradient-76);}.cls-81{fill:url(#linear-gradient-71);}.cls-82{fill:url(#linear-gradient-73);}.cls-83{fill:url(#linear-gradient-70);}.cls-84{fill:url(#linear-gradient-99);}.cls-85{fill:url(#linear-gradient-91);}.cls-86{fill:url(#linear-gradient-96);}.cls-87{fill:url(#linear-gradient-97);}.cls-88{fill:url(#linear-gradient-98);}.cls-89{fill:url(#linear-gradient-90);}.cls-90{fill:url(#linear-gradient-92);}.cls-91{fill:url(#linear-gradient-94);}.cls-92{fill:url(#linear-gradient-93);}.cls-93{fill:url(#linear-gradient-95);}.cls-128{isolation:isolate;}.cls-94{fill:url(#linear-gradient-7);}.cls-95{fill:url(#linear-gradient-8);}.cls-96{fill:url(#linear-gradient-5);}.cls-97{fill:url(#linear-gradient-6);}.cls-98{fill:url(#linear-gradient-9);}.cls-99{fill:url(#linear-gradient-4);}.cls-100{fill:url(#linear-gradient-3);}.cls-101{fill:url(#linear-gradient-2);}.cls-102{fill:url(#radial-gradient-6);opacity:.1;}.cls-103{fill:url(#radial-gradient-5);}.cls-103,.cls-129{opacity:.35;}.cls-104{fill:url(#linear-gradient-33);}.cls-105{fill:url(#linear-gradient-111);}.cls-106{fill:url(#linear-gradient-114);}.cls-107{fill:url(#linear-gradient-116);}.cls-108{fill:url(#linear-gradient-117);}.cls-109{fill:url(#linear-gradient-112);}.cls-110{fill:url(#linear-gradient-113);}.cls-111{fill:url(#linear-gradient-110);}.cls-112{fill:url(#linear-gradient-115);}.cls-113{fill:url(#linear-gradient-105);}.cls-114{fill:url(#linear-gradient-106);}.cls-115{fill:url(#linear-gradient-109);}.cls-116{fill:url(#linear-gradient-100);}.cls-117{fill:url(#linear-gradient-104);}.cls-118{fill:url(#linear-gradient-103);}.cls-119{fill:url(#linear-gradient-102);}.cls-120{fill:url(#linear-gradient-101);}.cls-121{fill:url(#linear-gradient-107);}.cls-122{fill:url(#linear-gradient-108);}.cls-123{fill:url(#radial-gradient-7);opacity:.2;}.cls-124{fill:url(#radial-gradient-8);}.cls-125{fill:url(#linear-gradient);}</style><radialGradient id="radial-gradient" cx="19.96" cy="29.91" fx="19.96" fy="29.91" r="36.24" gradientTransform="translate(.7 -9.53) scale(1 .92)" gradientUnits="userSpaceOnUse"><stop offset="0" stop-color="#db9a55"/><stop offset="1" stop-color="#8c3708"/></radialGradient><linearGradient id="linear-gradient" x1="8.4" y1="27.12" x2="7.89" y2="26.61" gradientUnits="userSpaceOnUse"><stop offset="0" stop-color="#de8a47"/><stop offset="1" stop-color="#6e2b08"/></linearGradient><linearGradient id="linear-gradient-2" x1="8.7" y1="29.51" x2="8.29" y2="29.09" xlink:href="#linear-gradient"/><linearGradient id="linear-gradient-3" x1="35.69" y1="31.7" x2="35.14" y2="31.15" xlink:href="#linear-gradient"/><linearGradient id="linear-gradient-4" x1="23.95" y1="31.21" x2="23.55" y2="30.81" xlink:href="#linear-gradient"/><linearGradient id="linear-gradient-5" x1="47.96" y1="30.42" x2="47.32" y2="29.79" xlink:href="#linear-gradient"/><linearGradient id="linear-gradient-6" x1="47.12" y1="28.43" x2="46.77" y2="28.08" xlink:href="#linear-gradient"/><linearGradient id="linear-gradient-7" x1="55.58" y1="22.92" x2="55.15" y2="22.49" xlink:href="#linear-gradient"/><linearGradient id="linear-gradient-8" x1="50.09" y1="26.44" x2="49.76" y2="26.11" xlink:href="#linear-gradient"/><linearGradient id="linear-gradient-9" x1="46.26" y1="31.74" x2="45.87" y2="31.36" xlink:href="#linear-gradient"/><linearGradient id="linear-gradient-10" x1="43.96" y1="29.23" x2="43.36" y2="28.63" xlink:href="#linear-gradient"/><linearGradient id="linear-gradient-11" x1="51.1" y1="28.56" x2="50.69" y2="28.15" xlink:href="#linear-gradient"/><linearGradient id="linear-gradient-12" x1="20.38" y1="30.8" x2="19.51" y2="29.93" xlink:href="#linear-gradient"/><linearGradient id="linear-gradient-13" x1="25.84" y1="32.42" x2="25.37" y2="31.94" xlink:href="#linear-gradient"/><linearGradient id="linear-gradient-14" x1="22.7" y1="32.99" x2="22.25" y2="32.54" xlink:href="#linear-gradient"/><linearGradient id="linear-gradient-15" x1="17.69" y1="31.31" x2="17.24" y2="30.85" xlink:href="#linear-gradient"/><linearGradient id="linear-gradient-16" x1="15.94" y1="29.44" x2="15.56" y2="29.06" xlink:href="#linear-gradient"/><linearGradient id="linear-gradient-17" x1="14.84" y1="32.12" x2="14.53" y2="31.81" xlink:href="#linear-gradient"/><linearGradient id="linear-gradient-18" x1="12.24" y1="31.25" x2="11.78" y2="30.8" xlink:href="#linear-gradient"/><linearGradient id="linear-gradient-19" x1="44.2" y1="31.16" x2="43.87" y2="30.84" xlink:href="#linear-gradient"/><linearGradient id="linear-gradient-20" x1="42.15" y1="31.02" x2="41.69" y2="30.55" xlink:href="#linear-gradient"/><linearGradient id="linear-gradient-21" x1="39.23" y1="30.68" x2="38.91" y2="30.36" xlink:href="#linear-gradient"/><linearGradient id="linear-gradient-22" x1="29.62" y1="33.67" x2="28.79" y2="32.84" xlink:href="#linear-gradient"/><linearGradient id="linear-gradient-23" x1="24.8" y1="33.98" x2="24.53" y2="33.71" xlink:href="#linear-gradient"/><linearGradient id="linear-gradient-24" x1="31.61" y1="32.36" x2="31.14" y2="31.89" xlink:href="#linear-gradient"/><linearGradient id="linear-gradient-25" x1="32.31" y1="30.8" x2="32.07" y2="30.56" xlink:href="#linear-gradient"/><linearGradient id="linear-gradient-26" x1="28.44" y1="31.4" x2="28.24" y2="31.2" xlink:href="#linear-gradient"/><linearGradient id="linear-gradient-27" x1="12.4" y1="28.93" x2="12.01" y2="28.54" xlink:href="#linear-gradient"/><linearGradient id="linear-gradient-28" x1="53.84" y1="25.92" x2="53.37" y2="25.46" xlink:href="#linear-gradient"/><linearGradient id="linear-gradient-29" x1="34.15" y1="33.81" x2="33.71" y2="33.37" xlink:href="#linear-gradient"/><linearGradient id="linear-gradient-30" x1="38.25" y1="33.35" x2="37.78" y2="32.89" xlink:href="#linear-gradient"/><linearGradient id="linear-gradient-31" x1="5.75" y1="25.65" x2="5.31" y2="25.22" xlink:href="#linear-gradient"/><linearGradient id="linear-gradient-32" x1="20.34" y1="32.83" x2="19.95" y2="32.45" xlink:href="#linear-gradient"/><radialGradient id="radial-gradient-2" cx="23.58" cy="22.07" fx="23.58" fy="22.07" r="40.66" gradientTransform="translate(.7 -9.53) scale(1 .92)" gradientUnits="userSpaceOnUse"><stop offset="0" stop-color="#f29f6b"/><stop offset="0" stop-color="#f19e6a"/><stop offset=".11" stop-color="#be7c58"/><stop offset=".21" stop-color="#925e48"/><stop offset=".32" stop-color="#6c443a"/><stop offset=".44" stop-color="#4e2f2e"/><stop offset=".56" stop-color="#361f26"/><stop offset=".69" stop-color="#25131f"/><stop offset=".83" stop-color="#1b0d1c"/><stop offset="1" stop-color="#180b1b"/></radialGradient><radialGradient id="radial-gradient-3" cx="18.77" cy="35.39" fx="18.77" fy="35.39" r="34.63" xlink:href="#radial-gradient-2"/><radialGradient id="radial-gradient-4" cx="22.73" cy="14.87" fx="22.73" fy="14.87" r="60.31" gradientTransform="translate(.7 -9.53) scale(1 .92)" gradientUnits="userSpaceOnUse"><stop offset="0" stop-color="#fcd5bd"/><stop offset=".46" stop-color="#947973"/><stop offset="1" stop-color="#180b1b"/></radialGradient><radialGradient id="radial-gradient-5" cx="25.25" cy="-2.15" fx="25.25" fy="-2.15" r="56.73" gradientTransform="translate(.7 -9.53) scale(1 .92)" gradientUnits="userSpaceOnUse"><stop offset=".86" stop-color="#f2f2f2"/><stop offset=".86" stop-color="#efeeee"/><stop offset=".87" stop-color="#e7e5e4"/><stop offset=".88" stop-color="#d9d5d3"/><stop offset=".88" stop-color="#c6bebb"/><stop offset=".89" stop-color="#ada19c"/><stop offset=".89" stop-color="#8f7d75"/><stop offset=".9" stop-color="#6b5349"/><stop offset=".9" stop-color="#4f3125"/></radialGradient><linearGradient id="linear-gradient-33" x1="12.48" y1="29.07" x2="45.7" y2="1.31" gradientUnits="userSpaceOnUse"><stop offset="0" stop-color="#ebc7a7"/><stop offset="1" stop-color="#cf9c72"/></linearGradient><linearGradient id="linear-gradient-34" x1="4.94" y1="16.76" x2="4.34" y2="16.16" xlink:href="#linear-gradient"/><linearGradient id="linear-gradient-35" x1="21.88" y1="13.9" x2="20.93" y2="12.95" xlink:href="#linear-gradient"/><linearGradient id="linear-gradient-36" x1="7.29" y1="23.54" x2="6.58" y2="22.83" xlink:href="#linear-gradient"/><linearGradient id="linear-gradient-37" x1="30.59" y1="28.26" x2="29.77" y2="27.43" xlink:href="#linear-gradient"/><linearGradient id="linear-gradient-38" x1="29.37" y1="26.57" x2="28.3" y2="25.5" xlink:href="#linear-gradient"/><linearGradient id="linear-gradient-39" x1="23.23" y1="27.53" x2="22.49" y2="26.79" xlink:href="#linear-gradient"/><linearGradient id="linear-gradient-40" x1="22.43" y1="20.92" x2="21.5" y2="19.99" xlink:href="#linear-gradient"/><linearGradient id="linear-gradient-41" x1="20.44" y1="19.44" x2="19.81" y2="18.81" xlink:href="#linear-gradient"/><linearGradient id="linear-gradient-42" x1="17.05" y1="23.59" x2="16.2" y2="22.74" xlink:href="#linear-gradient"/><linearGradient id="linear-gradient-43" x1="9.93" y1="24.06" x2="8.88" y2="23.01" xlink:href="#linear-gradient"/><linearGradient id="linear-gradient-44" x1="7.1" y1="7.44" x2="6.29" y2="6.63" xlink:href="#linear-gradient"/><linearGradient id="linear-gradient-45" x1="11.86" y1="15.89" x2="11.01" y2="15.04" xlink:href="#linear-gradient"/><linearGradient id="linear-gradient-46" x1="12.95" y1="13.76" x2="12.19" y2="13" xlink:href="#linear-gradient"/><linearGradient id="linear-gradient-47" x1="3.61" y1="18.87" x2="2.71" y2="17.97" xlink:href="#linear-gradient"/><linearGradient id="linear-gradient-48" x1="2.67" y1="15.96" x2="1.46" y2="14.75" xlink:href="#linear-gradient"/><linearGradient id="linear-gradient-49" x1="3.59" y1="13.09" x2="2.43" y2="11.93" xlink:href="#linear-gradient"/><linearGradient id="linear-gradient-50" x1="6.34" y1="11.16" x2="5.41" y2="10.23" xlink:href="#linear-gradient"/><linearGradient id="linear-gradient-51" x1="7.96" y1="9.33" x2="7.46" y2="8.83" xlink:href="#linear-gradient"/><linearGradient id="linear-gradient-52" x1="27.1" y1="27.65" x2="26.12" y2="26.66" xlink:href="#linear-gradient"/><linearGradient id="linear-gradient-53" x1="12.5" y1="26.06" x2="11.65" y2="25.21" xlink:href="#linear-gradient"/><linearGradient id="linear-gradient-54" x1="5.77" y1="20.88" x2="4.69" y2="19.8" xlink:href="#linear-gradient"/><linearGradient id="linear-gradient-55" x1="9.01" y1="12.81" x2="8.33" y2="12.12" xlink:href="#linear-gradient"/><linearGradient id="linear-gradient-56" x1="33.62" y1="24.02" x2="32.47" y2="22.87" xlink:href="#linear-gradient"/><linearGradient id="linear-gradient-57" x1="24.37" y1="16.55" x2="23.3" y2="15.48" xlink:href="#linear-gradient"/><linearGradient id="linear-gradient-58" x1="14.66" y1="9.1" x2="13.92" y2="8.36" xlink:href="#linear-gradient"/><linearGradient id="linear-gradient-59" x1="10.83" y1="7.02" x2="9.78" y2="5.97" xlink:href="#linear-gradient"/><linearGradient id="linear-gradient-60" x1="37.84" y1="26.26" x2="37.04" y2="25.46" xlink:href="#linear-gradient"/><linearGradient id="linear-gradient-61" x1="33.69" y1="20.35" x2="33.23" y2="19.89" xlink:href="#linear-gradient"/><linearGradient id="linear-gradient-62" x1="30.73" y1="18.6" x2="29.95" y2="17.82" xlink:href="#linear-gradient"/><linearGradient id="linear-gradient-63" x1="11.95" y1="20.59" x2="11.2" y2="19.84" xlink:href="#linear-gradient"/><linearGradient id="linear-gradient-64" x1="13.19" y1="17.66" x2="12.6" y2="17.07" xlink:href="#linear-gradient"/><linearGradient id="linear-gradient-65" x1="9.34" y1="18.28" x2="8.87" y2="17.81" xlink:href="#linear-gradient"/><linearGradient id="linear-gradient-66" x1="29.21" y1="21.02" x2="28.56" y2="20.36" xlink:href="#linear-gradient"/><linearGradient id="linear-gradient-67" x1="33.95" y1="16.49" x2="33.03" y2="15.57" xlink:href="#linear-gradient"/><linearGradient id="linear-gradient-68" x1="24.19" y1="12.74" x2="23.5" y2="12.04" xlink:href="#linear-gradient"/><linearGradient id="linear-gradient-69" x1="40.07" y1="21.33" x2="39.42" y2="20.68" xlink:href="#linear-gradient"/><linearGradient id="linear-gradient-70" x1="43.86" y1="21.2" x2="42.81" y2="20.15" xlink:href="#linear-gradient"/><linearGradient id="linear-gradient-71" x1="43.28" y1="23.02" x2="42.63" y2="22.38" xlink:href="#linear-gradient"/><linearGradient id="linear-gradient-72" x1="34.31" y1="27.7" x2="33.37" y2="26.76" xlink:href="#linear-gradient"/><linearGradient id="linear-gradient-73" x1="29.2" y1="12.59" x2="28.07" y2="11.47" xlink:href="#linear-gradient"/><linearGradient id="linear-gradient-74" x1="25.25" y1="23.05" x2="24.65" y2="22.45" xlink:href="#linear-gradient"/><linearGradient id="linear-gradient-75" x1="33.5" y1="2.29" x2="32.58" y2="1.37" xlink:href="#linear-gradient"/><linearGradient id="linear-gradient-76" x1="36.16" y1="7.81" x2="35.08" y2="6.73" xlink:href="#linear-gradient"/><linearGradient id="linear-gradient-77" x1="39.8" y1="8.16" x2="39.12" y2="7.49" xlink:href="#linear-gradient"/><linearGradient id="linear-gradient-78" x1="38.69" y1="6.08" x2="37.77" y2="5.17" xlink:href="#linear-gradient"/><linearGradient id="linear-gradient-79" x1="29.28" y1="2.23" x2="28.37" y2="1.33" xlink:href="#linear-gradient"/><linearGradient id="linear-gradient-80" x1="44.17" y1="9.78" x2="43.59" y2="9.2" xlink:href="#linear-gradient"/><linearGradient id="linear-gradient-81" x1="46.18" y1="7.26" x2="45.15" y2="6.23" xlink:href="#linear-gradient"/><linearGradient id="linear-gradient-82" x1="39.71" y1="13.73" x2="38.7" y2="12.71" xlink:href="#linear-gradient"/><linearGradient id="linear-gradient-83" x1="47" y1="12.16" x2="46.13" y2="11.28" xlink:href="#linear-gradient"/><linearGradient id="linear-gradient-84" x1="22.27" y1="24.81" x2="21.16" y2="23.69" xlink:href="#linear-gradient"/><linearGradient id="linear-gradient-85" x1="53.83" y1="15.83" x2="53.03" y2="15.02" xlink:href="#linear-gradient"/><linearGradient id="linear-gradient-86" x1="50.9" y1="16.21" x2="49.97" y2="15.27" xlink:href="#linear-gradient"/><linearGradient id="linear-gradient-87" x1="44.95" y1="12.95" x2="44.07" y2="12.06" xlink:href="#linear-gradient"/><linearGradient id="linear-gradient-88" x1="41.25" y1="10.97" x2="40.42" y2="10.13" xlink:href="#linear-gradient"/><linearGradient id="linear-gradient-89" x1="24.41" y1="3.84" x2="23.41" y2="2.84" xlink:href="#linear-gradient"/><linearGradient id="linear-gradient-90" x1="31.15" y1="8.66" x2="30.69" y2="8.2" xlink:href="#linear-gradient"/><linearGradient id="linear-gradient-91" x1="34.06" y1="10.33" x2="33.29" y2="9.56" xlink:href="#linear-gradient"/><linearGradient id="linear-gradient-92" x1="34.02" y1="12.06" x2="33.08" y2="11.12" xlink:href="#linear-gradient"/><linearGradient id="linear-gradient-93" x1="15" y1="5.68" x2="14.2" y2="4.87" xlink:href="#linear-gradient"/><linearGradient id="linear-gradient-94" x1="17.86" y1="7.16" x2="16.8" y2="6.1" xlink:href="#linear-gradient"/><linearGradient id="linear-gradient-95" x1="18.9" y1="5.15" x2="18.1" y2="4.35" xlink:href="#linear-gradient"/><linearGradient id="linear-gradient-96" x1="51.29" y1="11.52" x2="50.58" y2="10.81" xlink:href="#linear-gradient"/><linearGradient id="linear-gradient-97" x1="55.51" y1="12.1" x2="54.42" y2="11.02" xlink:href="#linear-gradient"/><linearGradient id="linear-gradient-98" x1="22.41" y1="10.07" x2="21.7" y2="9.35" xlink:href="#linear-gradient"/><linearGradient id="linear-gradient-99" x1="56.44" y1="14.56" x2="55.55" y2="13.67" xlink:href="#linear-gradient"/><linearGradient id="linear-gradient-100" x1="52.84" y1="9.41" x2="52.03" y2="8.6" xlink:href="#linear-gradient"/><linearGradient id="linear-gradient-101" x1="54.03" y1="7.68" x2="53.39" y2="7.04" xlink:href="#linear-gradient"/><linearGradient id="linear-gradient-102" x1="50.79" y1="7.58" x2="50.26" y2="7.04" xlink:href="#linear-gradient"/><linearGradient id="linear-gradient-103" x1="38.53" y1="2.13" x2="37.68" y2="1.28" xlink:href="#linear-gradient"/><linearGradient id="linear-gradient-104" x1="46.04" y1="4.42" x2="45.24" y2="3.62" xlink:href="#linear-gradient"/><linearGradient id="linear-gradient-105" x1="17.19" y1="12.69" x2="16.34" y2="11.84" xlink:href="#linear-gradient"/><linearGradient id="linear-gradient-106" x1="18.51" y1="14.46" x2="17.92" y2="13.87" xlink:href="#linear-gradient"/><linearGradient id="linear-gradient-107" x1="20.22" y1="2.7" x2="19.23" y2="1.71" xlink:href="#linear-gradient"/><linearGradient id="linear-gradient-108" x1="47.97" y1="21.13" x2="47.33" y2="20.48" xlink:href="#linear-gradient"/><linearGradient id="linear-gradient-109" x1="51.77" y1="21" x2="50.71" y2="19.95" xlink:href="#linear-gradient"/><linearGradient id="linear-gradient-110" x1="51.18" y1="22.82" x2="50.54" y2="22.18" xlink:href="#linear-gradient"/><linearGradient id="linear-gradient-111" x1="40.42" y1="3.31" x2="39.62" y2="2.5" xlink:href="#linear-gradient"/><linearGradient id="linear-gradient-112" x1="31.41" y1="5.14" x2="30.82" y2="4.55" xlink:href="#linear-gradient"/><linearGradient id="linear-gradient-113" x1="25.3" y1="7.73" x2="24.16" y2="6.58" xlink:href="#linear-gradient"/><linearGradient id="linear-gradient-114" x1="43.04" y1="15.98" x2="42.23" y2="15.17" xlink:href="#linear-gradient"/><linearGradient id="linear-gradient-115" x1="43.95" y1="18.81" x2="43.11" y2="17.97" xlink:href="#linear-gradient"/><linearGradient id="linear-gradient-116" x1="45.89" y1="17.46" x2="44.83" y2="16.4" xlink:href="#linear-gradient"/><linearGradient id="linear-gradient-117" x1="46.93" y1="15.45" x2="46.13" y2="14.65" xlink:href="#linear-gradient"/><radialGradient id="radial-gradient-6" cx="17.25" cy="32.02" fx="17.25" fy="32.02" r="48.62" gradientTransform="translate(2.49 -3.78) scale(1.01 .96)" gradientUnits="userSpaceOnUse"><stop offset="0" stop-color="#e3b698"/><stop offset=".77" stop-color="#bd6829"/></radialGradient><radialGradient id="radial-gradient-7" cx="12.72" cy="36.15" fx="12.72" fy="36.15" r="55.29" gradientTransform="translate(2.49 -3.78) scale(1.01 .96)" gradientUnits="userSpaceOnUse"><stop offset="0" stop-color="#d19462"/><stop offset=".57" stop-color="#b57b53"/><stop offset="1" stop-color="#9e6747"/></radialGradient><radialGradient id="radial-gradient-8" cx="11.37" cy="31.59" fx="11.37" fy="31.59" r="86.76" gradientUnits="userSpaceOnUse"><stop offset="0" stop-color="#ff8e52"/><stop offset="1" stop-color="#442121"/></radialGradient></defs><g class="cls-128"><g id="Layer_2"><g id="Layer_1-2"><path class="cls-1" d="M29.64,35.05c-5.82,0-11.52-.71-16.03-2.3-2.15-.76-3.91-1.8-5.53-2.88-1.59-1.07-3.04-2.17-4.14-3.39C1.06,23.27.02,19.41.02,15.23h59.25c0,4.18-1.21,8.51-3.7,11.36-4.48,5.12-14.57,8.47-25.92,8.47h0Z"/><g class="cls-129"><path class="cls-125" d="M7.81,26.69c-.13.15-.11.29.06.41.18.12.46.09.59-.05.13-.15.06-.34-.1-.48-.16-.15-.42-.02-.56.13h0Z"/><path class="cls-101" d="M8.81,29.22c.07.13-.03.25-.22.3-.19.05-.37-.04-.43-.16-.06-.13.08-.27.26-.3.17-.02.32.02.39.16h0Z"/><path class="cls-100" d="M35.53,31.14c-.24-.05-.43,0-.54.17-.11.17.01.37.25.42.24.05.48-.06.63-.22.15-.16-.11-.32-.35-.37h0Z"/><path class="cls-99" d="M24.04,31.1c.07-.12.02-.27-.15-.32-.17-.05-.37.01-.44.14-.07.12,0,.28.18.32.18.04.33-.01.4-.14h0Z"/><path class="cls-96" d="M47.54,30.39c-.26-.04-.39-.16-.38-.36.02-.19.27-.33.53-.29.26.04.4.23.43.44.03.21-.32.25-.58.21h0Z"/><path class="cls-97" d="M47.19,28.35c.06-.1.02-.22-.12-.26-.14-.05-.33,0-.39.1-.06.1.02.19.14.27.12.08.31,0,.37-.11h0Z"/><path class="cls-94" d="M55.64,22.57c-.12-.1-.33-.14-.48-.06-.16.08-.18.23-.06.33.12.1.36.13.5.04.15-.09.16-.21.04-.31h0Z"/><path class="cls-95" d="M50.15,26.16c-.08-.1-.24-.11-.37-.04-.13.07-.14.19-.06.28.08.09.28.09.38.02.1-.07.13-.16.05-.26h0Z"/><path class="cls-98" d="M46.35,31.64c.07-.12.02-.26-.15-.31-.17-.05-.36.02-.42.14-.07.12,0,.27.18.31.18.04.32-.02.39-.14h0Z"/><path class="cls-43" d="M44.09,29.07c.1-.19.03-.4-.23-.48-.26-.08-.55.02-.65.21-.1.19,0,.42.28.48s.5-.02.6-.21h0Z"/><path class="cls-40" d="M51.19,28.45c.07-.13.02-.27-.15-.32-.17-.05-.38.02-.45.14-.07.13,0,.29.19.33.19.04.34-.02.41-.15h0Z"/><path class="cls-41" d="M20.55,30.16c-.17-.26-.54-.4-.89-.27-.35.13-.48.45-.31.7.17.26.6.39.94.24.34-.16.43-.41.26-.66h0Z"/><path class="cls-42" d="M25.46,31.95c-.21.07-.38.24-.25.36.13.13.34.2.55.13.21-.07.3-.26.22-.39-.08-.13-.31-.17-.52-.1h0Z"/><path class="cls-38" d="M22.34,32.55c-.2.07-.36.22-.23.34.12.12.32.19.52.12s.29-.25.21-.37c-.08-.12-.3-.17-.49-.1h0Z"/><path class="cls-22" d="M17.09,31.21c.1.11.35.18.51.14.16-.05.25-.24.23-.38-.03-.14-.26-.21-.53-.09-.27.11-.31.22-.21.34h0Z"/><path class="cls-21" d="M15.81,29.04c.16.03.29.12.25.25-.03.12-.2.2-.37.17-.16-.03-.29-.14-.23-.26.05-.12.19-.18.35-.15h0Z"/><path class="cls-27" d="M14.59,31.8c-.14.03-.18.13-.13.23.05.1.21.13.33.1.13-.03.17-.17.1-.25-.07-.08-.17-.12-.31-.09h0Z"/><path class="cls-29" d="M12.16,31.27c-.19.08-.38,0-.48-.14-.1-.15,0-.3.19-.37.18-.07.42.03.48.17.06.14,0,.26-.19.34h0Z"/><path class="cls-37" d="M44.26,31.09c.06-.11.04-.26-.11-.28-.15-.02-.3.02-.37.13-.06.11.01.24.14.28.13.04.27-.02.34-.13h0Z"/><path class="cls-35" d="M42.26,30.91c-.1.1-.32.16-.47.12-.14-.04-.22-.23-.19-.36.03-.13.24-.18.49-.08.24.11.28.21.18.31h0Z"/><path class="cls-39" d="M38.94,30.36c.13-.05.28-.04.35.05.07.09.02.21-.1.26-.13.05-.3.03-.36-.07-.06-.1-.02-.19.11-.25h0Z"/><path class="cls-25" d="M29.02,32.81c.35-.07.7.05.8.31.1.26-.1.56-.45.63s-.61-.11-.81-.34c-.2-.23.11-.53.47-.6h0Z"/><path class="cls-26" d="M24.5,33.94c.07.07.2.1.29.04.09-.05.11-.16.04-.23-.07-.07-.21-.09-.3-.03-.09.06-.1.14-.03.21h0Z"/><path class="cls-18" d="M31.59,32.34c-.18.09-.41.08-.53-.05-.12-.13-.07-.32.11-.4s.44-.07.54.08c.11.14.06.29-.12.38h0Z"/><path class="cls-34" d="M32.07,30.78c.08.05.19.06.26,0,.07-.06.05-.15-.02-.2-.08-.05-.2-.05-.27.02-.06.07-.05.13.03.18h0Z"/><path class="cls-23" d="M28.22,31.37c.05.05.14.07.21.03.07-.04.08-.11.03-.17-.05-.05-.16-.07-.22-.02s-.07.1-.02.16h0Z"/><path class="cls-17" d="M11.92,28.65c-.07.12-.02.26.15.31.17.05.36-.02.43-.14.07-.12,0-.27-.18-.31-.18-.04-.33.02-.39.14h0Z"/><path class="cls-33" d="M53.26,25.56c-.14.16-.14.34.06.41.2.07.49-.01.64-.17.14-.16.12-.36-.1-.41-.22-.05-.45.01-.59.17h0Z"/><path class="cls-24" d="M33.61,33.49c-.08.14-.02.3.17.35.19.06.41-.02.48-.16.08-.14,0-.31-.21-.35-.2-.04-.37.02-.45.16h0Z"/><path class="cls-30" d="M37.83,32.88c.18-.08.4-.05.5.08.1.13.06.32-.13.4-.18.08-.36,0-.51-.1-.16-.11-.04-.3.14-.38h0Z"/><path class="cls-20" d="M5.68,25.67c-.18.09-.39.02-.5-.1-.11-.12.06-.31.23-.37.17-.06.45.03.5.15.05.12-.05.23-.23.32h0Z"/><path class="cls-36" d="M20.34,32.39c-.17-.04-.39.03-.5.17-.11.15-.06.3.11.33.17.04.41-.04.51-.2.1-.15.05-.27-.12-.3h0Z"/></g><path class="cls-2" d="M29.38,34.32c-2.85,0-5.67-.04-8.29-.44-3.43-.53-6.56-1.4-9.12-2.65-1.44-.7-2.69-1.45-3.89-2.23-1.39-.9-2.72-1.79-3.68-2.85-2.81-3.12-3.82-6.86-3.82-10.92h56.67c0,4.06-1.01,7.8-3.82,10.92-2.69,2.99-7.22,5.63-12.85,7.03-3.63.9-6.89,1.14-11.21,1.14h0Z"/><path class="cls-3" d="M25.41,32.62c2.31.07,4.52.36,6.64.42,6.62.18,10.88-3.18,13.22-5.86,2.15-2.47,2.83-5.48,2.67-8.77-12.64-.38-33.27-.99-45.91-1.36.16,3.29,1.12,6.35,3.52,8.96,2.29,2.49,6.07,4.74,10.69,6.01,2.98.82,5.68.51,9.18.62h0Z"/><path class="cls-4" d="M29.27.58c4.9-.05,9.53.56,13.59,1.65,3.83,1.03,6.57,2.83,9.23,4.49,4,2.5,6.17,5.27,6.17,8.52,0,4.34-3.78,8.08-9.87,10.56-3.43,1.4-7.36,2.91-11.78,3.66-2.31.39-4.78.36-7.34.36-1.93,0-3.85.23-5.69.07-2.73-.24-5.31-.9-7.71-1.49-1.38-.34-2.9-.43-4.14-.89-1.15-.43-1.92-.99-2.88-1.58-.94-.59-2.15-1.13-2.99-1.72-.56-.39-.99-.87-1.48-1.29C1.78,20.67.29,18.02.29,15.25.29,10.31,5.33,6.1,12.72,3.45,17.45,1.74,23.02.65,29.27.58h0Z"/><path class="cls-103" d="M29.64,35.05c-5.82,0-11.52-.71-16.03-2.3-2.15-.76-3.91-1.8-5.53-2.88-1.59-1.07-3.04-2.17-4.14-3.39C1.06,23.27.02,19.41.02,15.23h59.25c0,4.18-1.21,8.51-3.7,11.36-4.48,5.12-14.57,8.47-25.92,8.47h0Z"/><path class="cls-104" d="M29.64,0c5.01-.05,9.74.56,13.9,1.66,3.92,1.04,6.72,2.84,9.44,4.51,4.09,2.52,6.31,5.3,6.31,8.57,0,4.36-3.87,8.12-10.09,10.61-5.35,2.14-11.95,4.13-19.55,4.13-6.6,0-12.8-.91-17.73-2.73C4.62,24.08,0,19.61,0,14.74S5.16,5.55,12.71,2.88C17.55,1.17,23.25.06,29.64,0h0Z"/><g class="cls-126"><path class="cls-5" d="M4.29,16.21c-.2.17-.28.44-.03.54.25.1.55.1.75-.06.2-.17.17-.43-.02-.55-.19-.12-.5-.09-.7.08h0Z"/><g class="cls-126"><path class="cls-28" d="M22.03,13.22c-.32-.26-.7-.3-1.06-.17-.36.12-.53.31-.18.59.35.28.76.29,1.1.14.34-.15.46-.3.14-.56h0Z"/><path class="cls-31" d="M7.29,22.96c.32.15.34.31.13.43-.21.13-.5.18-.85,0-.35-.17-.32-.33-.07-.45.24-.12.47-.15.79,0h0Z"/><path class="cls-16" d="M30.4,27.46c-.44-.12-.66,0-.83.18-.17.18-.21.28.21.48.42.2.98.03,1.07-.13.1-.16-.01-.41-.46-.53h0Z"/><path class="cls-32" d="M29.19,25.69c-.45-.13-1.05-.13-1.16.1-.11.24.02.5.46.62.45.13,1,.04,1.17-.15.18-.19-.03-.45-.48-.58h0Z"/><path class="cls-19" d="M23.13,26.89c-.31-.09-.69-.07-.84.1-.15.16,0,.37.31.46.31.09.72.05.84-.13.12-.18,0-.34-.32-.43h0Z"/><path class="cls-8" d="M21.24,20.25c-.25.28-.1.48.32.6.42.12.85.11,1.12-.19.27-.3.04-.51-.41-.61-.45-.1-.79-.08-1.04.2h0Z"/><path class="cls-7" d="M19.59,19.21c-.06-.14.07-.32.29-.37.22-.05.59.05.76.17.17.12.04.29-.37.34-.42.06-.61,0-.68-.14h0Z"/><path class="cls-9" d="M17.23,23.4c.25-.17.14-.38-.21-.52-.35-.14-.79-.08-1.02.08-.23.16-.04.43.3.53.34.1.68.08.93-.09h0Z"/><path class="cls-6" d="M9.61,24.04c-.58.09-.82-.08-1-.33-.18-.25-.2-.38.36-.57.56-.19,1.23.1,1.32.31.09.21-.09.51-.67.6h0Z"/><path class="cls-11" d="M6.96,7.36c-.36.11-.75,0-.95-.18-.2-.18.13-.44.46-.5.34-.06.87.08.96.26.08.17-.11.32-.47.42h0Z"/><path class="cls-13" d="M10.78,15.29c-.17.2-.07.44.32.55.39.1.85.01,1.02-.19.17-.2.02-.47-.4-.55-.42-.08-.77,0-.94.2h0Z"/><path class="cls-10" d="M11.97,13.21c-.15.18-.06.4.29.49.35.09.76,0,.91-.17.15-.18.01-.42-.36-.49-.38-.07-.69,0-.84.18h0Z"/><path class="cls-12" d="M3.02,18.03c.43-.03.85.1.92.33.07.23-.23.44-.66.46-.43.03-.87-.13-.91-.37-.03-.24.22-.4.65-.42h0Z"/><path class="cls-14" d="M1.31,14.95c-.4.22-.48.57-.03.8.44.23,1.16.22,1.56,0,.4-.22.43-.61-.07-.82-.5-.21-1.05-.2-1.46.02h0Z"/><path class="cls-15" d="M3.06,13c-.69,0-1.01-.19-1.03-.48-.02-.28.21-.51.95-.51.75,0,1.04.23,1,.53-.03.29-.23.46-.92.46h0Z"/><path class="cls-71" d="M5.15,10.49c-.25.28-.1.48.32.6.42.12.85.11,1.12-.19.27-.3.04-.51-.41-.61-.45-.1-.79-.08-1.04.2h0Z"/><path class="cls-73" d="M7.32,8.97c-.1.12-.04.26.19.32.23.06.5,0,.6-.11.1-.12,0-.27-.24-.32-.25-.05-.45,0-.55.12h0Z"/><path class="cls-72" d="M25.85,26.94c-.11.19.06.47.36.58.31.1.86.01,1.13-.14.27-.15.11-.41-.49-.55-.6-.14-.9-.08-1.01.11h0Z"/><path class="cls-68" d="M12.37,26c-.38.1-.76-.01-.96-.23-.2-.22.02-.44.38-.52.36-.08.84.07.95.28.11.2.01.38-.37.48h0Z"/><path class="cls-67" d="M5.03,19.84c.54-.06.96.13,1.1.42.14.3-.25.54-.75.59-.5.05-1.03-.22-1.06-.48-.04-.26.18-.47.72-.53h0Z"/><path class="cls-70" d="M8.14,12.31c-.17.15-.03.32.28.41.31.1.65.02.8-.13.15-.15-.06-.36-.35-.41-.29-.06-.56-.03-.73.13h0Z"/><path class="cls-69" d="M32.26,23.64c-.22-.28-.15-.64.37-.68.52-.03,1.05.07,1.26.36.22.28-.04.6-.47.68-.43.08-.95-.08-1.16-.36h0Z"/><path class="cls-59" d="M23.04,16.18c-.19-.25-.07-.53.4-.62.47-.09,1.01.06,1.21.31.19.25,0,.56-.49.62-.5.06-.92-.06-1.11-.31h0Z"/><path class="cls-58" d="M13.68,8.61c-.17.21.05.31.37.4.32.08.49.1.79-.09.3-.2-.04-.47-.32-.52-.27-.05-.68,0-.85.21h0Z"/><path class="cls-57" d="M9.49,6.27c-.2.25-.08.55.4.67.48.12,1.05.01,1.25-.24.2-.25.02-.57-.5-.68-.52-.1-.95,0-1.15.24h0Z"/><path class="cls-65" d="M36.85,25.98c-.14-.19-.05-.4.3-.46.35-.07.75.04.9.23.14.19,0,.41-.37.46-.37.05-.68-.04-.83-.23h0Z"/><path class="cls-64" d="M33.12,20.01c-.14.1-.05.23.14.31.19.07.49-.01.58-.11.09-.1-.03-.28-.22-.31-.19-.04-.36.01-.5.12h0Z"/><path class="cls-66" d="M29.75,18.03c-.24.18-.08.4.24.52.32.13.83-.02.99-.19.16-.17-.06-.47-.38-.53-.32-.06-.61.02-.85.2h0Z"/><path class="cls-60" d="M10.98,20.06c.15-.18.51-.27.85-.18.34.09.49.32.34.5-.15.18-.56.27-.9.15-.34-.11-.44-.29-.29-.47h0Z"/><path class="cls-62" d="M12.45,17.21c-.14.15-.11.36.18.4.29.04.6,0,.74-.14.13-.15,0-.34-.24-.41-.24-.07-.54,0-.68.15h0Z"/><path class="cls-61" d="M8.73,18.07c.01.13.23.21.45.21.23,0,.36-.17.31-.28-.05-.11-.34-.22-.52-.19-.18.03-.25.13-.24.26h0Z"/><path class="cls-63" d="M28.37,20.56c.1-.16.4-.2.71-.13.31.07.42.26.31.41-.1.15-.5.19-.75.1-.25-.08-.37-.22-.27-.38h0Z"/><path class="cls-54" d="M32.78,15.81c-.18.21-.05.45.35.56.4.11.93.04,1.1-.17.18-.21-.07-.4-.41-.57-.34-.17-.87-.02-1.05.18h0Z"/><path class="cls-55" d="M23.31,12.24c-.14.16-.06.36.26.45.32.08.69.01.83-.15.14-.16.02-.38-.32-.45-.34-.07-.63,0-.77.16h0Z"/><path class="cls-56" d="M39.94,21.27c-.29.05-.62,0-.73-.17-.11-.16.05-.33.35-.38.29-.05.65.03.73.2.08.17-.05.3-.35.35h0Z"/><path class="cls-83" d="M43.65,21.11c-.48.08-1.01-.02-1.19-.28-.18-.26.09-.54.56-.62.48-.08,1.05.05,1.19.33.13.28-.09.49-.56.57h0Z"/><path class="cls-81" d="M43.15,22.97c-.29.05-.62,0-.73-.17-.11-.16.05-.33.35-.38.29-.05.65.03.73.2.08.17-.05.3-.35.35h0Z"/><path class="cls-76" d="M33.13,27c-.2.24-.15.57.32.64s.95,0,1.15-.24c.2-.24-.03-.55-.42-.65-.39-.1-.86,0-1.06.25h0Z"/><path class="cls-82" d="M27.7,11.85c-.41.33-.12.49.35.61.48.13.74.15,1.35-.15.61-.31.23-.72-.19-.79-.42-.07-1.11,0-1.52.34h0Z"/><path class="cls-79" d="M24.97,22.49c.29.02.53.13.51.28-.02.15-.28.26-.56.24-.29-.02-.53-.15-.49-.31.05-.15.25-.23.54-.22h0Z"/><path class="cls-77" d="M33.4,1.62c-.33-.17-.81-.27-.95-.11-.14.16-.09.37.24.54.33.17.79.19.97.08.18-.11.07-.34-.26-.51h0Z"/><path class="cls-80" d="M34.99,7.47c.32.23.82.35,1.19.23.36-.12.39-.42.07-.65-.32-.23-.89-.35-1.23-.19-.34.15-.35.39-.03.62h0Z"/><path class="cls-78" d="M39.15,7.57c.27-.05.5.03.68.18.18.15.23.28-.06.33-.29.05-.53-.05-.7-.2-.16-.16-.19-.26.08-.31h0Z"/><path class="cls-75" d="M37.57,5.39c-.14.23.04.42.43.55.39.13.75.16.9-.09.15-.25-.09-.44-.5-.56-.41-.12-.69-.13-.83.1h0Z"/><path class="cls-74" d="M28.18,1.54c-.1.17.07.39.43.51.37.13.79.11.89-.05.1-.17-.15-.36-.48-.53-.33-.18-.74-.1-.84.07h0Z"/><path class="cls-44" d="M43.45,9.35c-.18.13-.06.29.17.39.24.09.61-.01.73-.14.12-.13-.04-.35-.28-.39-.23-.05-.45.02-.63.15h0Z"/><path class="cls-46" d="M44.96,6.43c-.3.22-.27.45.11.65.38.2,1,.19,1.3-.03.3-.22.16-.53-.18-.78-.34-.25-.92-.07-1.23.15h0Z"/><path class="cls-45" d="M39.98,13.14c.15.31-.07.49-.52.53-.45.05-.87-.03-1.03-.37-.16-.34.13-.5.6-.52.47-.02.79.05.94.36h0Z"/><path class="cls-51" d="M47.28,11.63c.15.22-.08.4-.5.46-.42.06-.81-.1-.94-.31-.13-.21.2-.43.59-.45.38-.02.71.07.86.29h0Z"/><path class="cls-53" d="M21.95,23.83c-.5-.1-.9-.03-1.13.21-.23.24,0,.56.5.66.5.1,1-.04,1.33-.27.33-.23-.21-.49-.71-.59h0Z"/><path class="cls-52" d="M53.87,15.18c.27.15.33.37.07.5-.26.13-.71.11-.98-.03-.27-.15-.31-.39,0-.51.3-.12.65-.1.91.05h0Z"/><path class="cls-50" d="M50.99,15.43c.38.17.36.42.04.61-.32.19-.85.15-1.19-.01-.34-.17-.28-.49.05-.62.33-.14.72-.15,1.1.03h0Z"/><path class="cls-48" d="M45.17,12.41c.11.23-.02.51-.44.5-.42,0-.81-.12-.92-.35-.11-.23.16-.46.52-.5.36-.04.73.12.84.35h0Z"/><path class="cls-47" d="M41.49,10.47c.1.21-.06.42-.45.46-.39.04-.79-.11-.89-.32-.1-.21.11-.43.52-.45.41-.02.71.1.81.31h0Z"/><path class="cls-49" d="M24.41,3.79c.26-.11.34-.38.14-.56-.19-.17-.77-.28-1.13-.25-.36.03-.44.28-.01.58.43.29.74.34,1,.22h0Z"/><path class="cls-89" d="M30.57,8.32c-.14.1-.05.23.14.31.19.07.49-.01.58-.11.09-.1-.03-.28-.22-.31-.19-.04-.36.01-.5.12h0Z"/><path class="cls-85" d="M33.36,9.64c.33-.08.73-.04.91.14.18.18.04.4-.29.49-.33.08-.77.02-.92-.18-.15-.2-.03-.37.3-.45h0Z"/><path class="cls-90" d="M33.13,11.2c.4-.13.84-.04,1.1.19.26.23.08.49-.3.61-.38.12-.94-.03-1.11-.25-.17-.22-.1-.42.3-.55h0Z"/><path class="cls-92" d="M14.59,5.67c.34-.01.7-.18.72-.35.03-.17-.35-.38-.69-.45-.34-.07-.68.09-.64.39.04.31.26.42.6.4h0Z"/><path class="cls-91" d="M16.44,6.59c0,.28.32.53.84.56.52.02.95-.2.96-.48,0-.28-.39-.55-.93-.54-.54,0-.86.19-.87.46h0Z"/><path class="cls-93" d="M18.49,5.14c.34-.01.7-.18.72-.35.03-.17-.35-.38-.69-.45-.34-.07-.68.09-.64.39.04.31.26.42.6.4h0Z"/><path class="cls-86" d="M51.29,10.94c.32.15.34.31.13.43-.21.13-.5.18-.85,0-.35-.17-.32-.33-.07-.45.24-.12.47-.15.79,0h0Z"/><path class="cls-87" d="M55.78,11.38c-.22-.26-.71-.42-1.19-.32-.47.1-.67.41-.45.67.22.26.79.42,1.25.28.46-.13.6-.37.38-.63h0Z"/><path class="cls-88" d="M22.41,9.49c.32.15.34.31.13.43-.21.13-.5.18-.85,0-.35-.17-.32-.33-.07-.45.24-.12.47-.15.79,0h0Z"/><path class="cls-84" d="M55.75,13.78c-.41.08-.74.3-.5.49.24.19.64.3,1.05.22.41-.08.6-.34.45-.52-.15-.18-.59-.27-1-.19h0Z"/><path class="cls-116" d="M51.76,9.17c.18.16.63.28.93.23.3-.05.48-.31.44-.5-.04-.19-.46-.3-.97-.17-.51.13-.59.28-.4.44h0Z"/><path class="cls-120" d="M53.82,7.1c.29.05.51.19.44.34-.07.15-.38.24-.67.19-.29-.05-.51-.21-.41-.36.1-.15.35-.22.64-.17h0Z"/><path class="cls-119" d="M50.36,7.08c-.25.03-.34.16-.25.3.09.14.37.19.6.16.23-.04.32-.21.2-.32-.11-.11-.31-.17-.56-.14h0Z"/><path class="cls-118" d="M38.39,2.08c-.39.09-.76-.02-.95-.24-.19-.22.04-.44.4-.52.37-.08.84.09.94.29.1.2,0,.38-.39.47h0Z"/><path class="cls-117" d="M45.91,4.35c-.36.11-.75,0-.95-.18-.2-.18.13-.44.46-.5.34-.06.87.08.96.26.08.17-.11.32-.47.42h0Z"/><path class="cls-113" d="M16.1,12.08c-.17.2-.07.44.32.55.39.1.85,0,1.02-.19.17-.2.02-.47-.4-.55-.42-.08-.77,0-.94.2h0Z"/><path class="cls-114" d="M17.77,14.01c-.13.15-.11.36.18.4.29.04.6,0,.74-.14.13-.15,0-.34-.24-.41-.24-.07-.54,0-.68.15h0Z"/><path class="cls-121" d="M19.11,1.87c-.33.18-.39.46-.03.65.36.19.94.18,1.27,0,.33-.18.35-.5-.06-.67-.41-.17-.86-.16-1.19.02h0Z"/><path class="cls-122" d="M47.84,21.07c-.29.05-.62,0-.73-.17-.11-.16.05-.33.35-.38.29-.05.65.03.73.2.08.17-.05.3-.35.35h0Z"/><path class="cls-115" d="M51.56,20.91c-.48.08-1.01-.02-1.19-.28-.18-.26.09-.54.56-.62.48-.08,1.05.05,1.19.33.13.28-.09.49-.56.57h0Z"/><path class="cls-111" d="M51.05,22.77c-.29.05-.62,0-.73-.17-.11-.16.05-.33.35-.38.29-.05.65.03.73.2.08.17-.05.3-.35.35h0Z"/><path class="cls-105" d="M40.28,3.23c-.36.11-.75,0-.95-.18-.2-.18.13-.44.46-.5.34-.06.88.08.96.25.08.17-.11.32-.47.42h0Z"/><path class="cls-109" d="M30.71,4.67c-.18.13-.16.26.06.37.22.12.57.11.75-.02.18-.13.09-.3-.1-.45-.19-.14-.53-.04-.71.09h0Z"/><path class="cls-110" d="M23.95,7.35c-.22-.28-.15-.64.37-.68.52-.03,1.05.07,1.26.36.22.28-.04.6-.47.68s-.95-.08-1.16-.36h0Z"/><path class="cls-106" d="M42.62,15.97c.34-.01.7-.18.72-.35.03-.17-.35-.38-.69-.45-.34-.07-.68.09-.64.39.04.31.26.42.6.4h0Z"/><path class="cls-112" d="M42.84,18.35c0,.24.24.5.65.47.41-.03.75-.17.76-.41,0-.24-.36-.45-.73-.46-.37-.01-.67.16-.68.4h0Z"/><path class="cls-107" d="M44.47,16.89c0,.28.32.53.84.56.52.02.95-.2.96-.48,0-.28-.39-.55-.93-.54-.54,0-.86.19-.87.46h0Z"/><path class="cls-108" d="M46.52,15.44c.34-.01.7-.18.72-.35.03-.17-.35-.38-.69-.45-.34-.07-.68.09-.64.39.04.31.26.42.6.4h0Z"/></g></g><path class="cls-102" d="M36.95,26.82c.68.34.7.67-.32.31-1.01-.35-.86.47-1.49.54-1.6.2-.1.69-1.53.82-1.53.13-1.24-1.56-3.23-.35-.75.46-1.6-.19-1.04-.48,1.31-.67-.1-.75.41-1.05.12-.07,1.12.5,2.37.02.57-.22.96.04,1.17-.74.28-1.06,1.08.22,2.86-.78.07-.04,2.05-.09.4,1.11-.31.23.15.46.4.59h0ZM40.65,26.64c1.59.84.26-.32,1.28-.44.14-.02-.46-2.17-2.08-1.35-.82.42.82.52-.1,1.16-.19.13.67.51.9.63h0ZM25.67,27.58c.83.28,2.16.38,1.75-.99-.21-.69,1.58.83,1.56-.66,0-.56,1.52-.47.2-1.33-.58-.37-1.64.8-1.39-.27.24-1.04-5.3-2.15-2.71.43.98.98-1.51,2.12.59,2.82h0ZM19.19,27.15c1.17,1,3.06.49,2.47-.29-.33-.42,1.71-1.33-2.5-1.8-3.61-.4-.71,1.7-3.2-.36-1.18-.98-.48.44-2.59-.72-1.11-.61-2.64.02-2.41.46.71,1.31,1.62.44,3.92,1.69.75.41,2.24-.74,4.31,1.02h0ZM42.84,21.53c-1.04,2.27-2.7.78-2.59,1.99.06.68-2.43.18-4.38.91-.83.31-.52-.58-3.19.74-1.3.64-3.29-1-.88-1.06.49-.01-1.57-3.33,2.12-2.11,1.73.57,2.12-1.32,4.03-.59.43.17.55-.4,2.47-.27,1.42.09,3.44-1.85,2.42.4h0ZM53.07,18.89c.41,2.53-1.47.51-1.61,1.68-.02.13-.94.63-2.35.7-.72.04-1.22.53-1.66.76-2.99,1.52-5.45.33-1.91.1,1.54-.1,1.01-1.48,1.01-1.48,1.24-.58,1.91-.46,1.98-.53.06-.05.31-.4-.35-1.04-.25-.24-1.03,0-1.44-.78-.4-.77,1.97-.48,1.55-1.57-.45-1.15,2.71.91,2.75.91.68.09,1.55-.41,1.84,1.1.02.08.17.08.19.15h0ZM44.08,20.32c.21.12.96.33.81-.12-.09-.28.94.07.93-.42,0-.22,1.16-.48-.02-.65-1.07-.15-.48,0-1.4-.31-.66-.23-.18.4-.35.48-.33.15-.32-.16-.15.23.06.14-.25.21.11.38.27.12-.44.13.06.43h0ZM45.14,25.41c1.99.21.59-.73,2.48-.82.76-.04.13-.39.69-.82.28-.22-.89-1.35-3.34.27-.28.19-2.2-.48-1.41.75.33.51-.98.42.34.8.13.04.95-.21,1.24-.18h0ZM21.85,22.75c-.65,1.26,1.96,1.53.24,1.84-.48.09-2.88-.3-2.39-.52.87-.39-1.32-.56-2.07-.97-1.33-.72-1.31.76-2.5-.54-.66-.73-.43-.13-1.03-.81-.13-.14,1.44-.15,1.71-.09,1.26.29,1.11-1.31,3.1-.17.12.07-1.1,1.16,1.91.86.16-.02,1.06.33,1.03.4h0ZM24.12,22.18c1.61,1.18.07-.47,1.92.31.85.36-.03-.81,2.42.08.36.13.81-.54,1.44-.89.22-.12-2.38-.87-.34-.8.68.02-.62-.29-.05-.78.92-.8-1.38-.8-1.84-.96-.76-.25-1.93-1.33-1.66.23.09.54-.94.12.13.84.5.33-.29.22-.19.81.02.14-2.14-.35-1.58.95.04.09-.36.12-.25.21h0ZM21.94,21.57c1.8.68.35-.59.77-.53.96.14-.09-.57-.24-.64-1.84-.92-.75-1.74-2.02-1.82-.13,0-1.69-1.65-1.48.02.07.54.93.55,1.05,1.44.06.45,1.73.84,1.45,1.11-.11.1.22.33.47.43h0ZM17.67,19.16c-.98,1.15.19.76-.14,1.13-.66.76-2.13-1.24-1.7.1.16.49-.93-.06-1.22,0-.27.05-.25,1.14-1.34.14-1.38-1.27-3.24-.17-3.57-.33-2.21-1.1-.73-.57-1.22-1-.13-.11-2.31-1.28-2.79-1.32-1.38-.13-3.04-1.43.47-.58,1.51.37,2.59,1.21,3.46.78,1.43-.7,1.25.15,2.5.06,1.11-.08-.12-.8,2.36.07.55.19-.06-.42,1.43.02.57.17,1.78-1.43,2.02-.1.13.72.02.04-.35.52-.43.55.43.1.1.5h0ZM10.29,22.51c2.35.28-.85-.06,1.26-.74.33-.11.26-.45-.63-.26-.67.15-1.15-.58-.63.4.01.02-1.07.46-.22.62.07.01.12-.03.21-.02h0ZM3.28,19.91c.08.09,1.62.97,1.22.33-.57-.9,3.51.61,2.5-.59-.79-.95-2.42-.53-2.74-.69-.78-.39-.65-1.11-2.24-.39-.35.16,1.11.34.49.67-.71.38.62.53.76.67h0ZM54.12,18.15c3.21.93-.83-1.41,1.6-.97.61.11.4-.38,1.44-.86.63-.28-.98-1.33-1.63-1.16-.82.2-.63-1.53-2.51-.36-.07.04,1.33.98.03.81-1.43-.19,1.5,1.31.48,1.79-.38.18.33.68.59.76h0ZM51.91,12.02c2.39.14.85.39,1.41-.45.23-.35.9.35.94-.23.03-.37,3.12-.45,1.08-1.24-.02,0-.82,0-.96-.03-1.71-.23-1.75.14-1.54-.34.2-.45-1.84-.12-2.23-.31-.29-.14-.79.01-.51.48.53.87,1.85,1.08,1.31,1.38-.71.4.49.74.49.74h0ZM55.57,14.32c2.6,1.12-.94-2.15-.19-.37.14.33-.63.02.19.37h0ZM48.64,15.55c.45.38,2.38.96,1.77.14-.51-.69.67.04.53-.99-.07-.49,3.67-.21-.75-1.76-3.5-1.23-1.18-1.25-2.62-1.92-.4-.19-2.61.47-1.78.93,3.49,1.92-.94.45,1.53,1.75.01,0,.49.86.2,1-.14.07.9.68,1.11.85h0ZM38.06,20.3c1.02.37,2.97.51,2.01-.37-.38-.35.94.33,1.2-.67.2-.78,2.04-.36,2.22-.88.25-.71,2.11.29,1.2-1.03-.11-.16,2.38-1.34.23-1.08-1.46.18-.95-.63-2.02.02-.49.3.43,1.01-1.72.76-1.2-.14.71,1.23-1.87-.08-.45-.23-4.66.25-3.41,1.17,1.23.91-2.52-.02-1.79,1.62.03.07-1,.28.83.94.52.19-.05-.59,1.02-.39.52.1.64-.52,1.69-.08.11.05.31.03.4.06h0ZM31.02,19.57c1.51.27.71-.64,1.47-.8,1.72-.34-1.7-.99-.43-1.59,1.39-.66-3.96-2.2-1.68-.06.49.46-.84-.38-.44.34.33.6-1.72.05.76,1.45.32.18-.53.51.31.66h0ZM23.33,19.75c.35.21,1.69.54.88-.37-.18-.2,1.05-.65.77-.9-1-.88-.93.05-.8-1.07.1-.83-3.58-1.12-2.07-.06.84.59-1.39.08.81,1.79.3.23-.74-.09.41.6h0ZM43.84,5.5c3.43.39,2.63-.94,2.78-.98.81-.21.15.81,1.84.33.68-.19-.19-.51-2.22-1.25-.49-.18-.93-.41-1.8-.41-1.74,0,.92,1.04-1.15.98-.9-.03.66.57-.51.63-.36.02-.39.53,1.06.69h0ZM15.27,16.04c-1.29,1.37-1.83-.52-2.56.49-.33.46.55.34-2.01-.17-1.2-.24-.53,1.65-3.86-.13-1.22-.65-3.12-.04-2.22-.69.37-.27-.64-.45,1.67-.04.89.16.42-1.06,2.35-.25,1,.42-.35-1.01,1.55-1.94.9-.44,1.34.7,2.42.39,1.17-.34.74.2,1.93-.16.55-.17,1.79.07,1.25.36-.36.19.14.32-1.04.9-.65.32,1.3.43.54,1.13-.05.05.03.08,0,.12h0ZM4.72,13.78c.26.2,1.6.51,1.4.06-.11-.24.74.13,1.26-.21.47-.31-.54-.84,1.25-.79,1.44.04.36-.86-.48-.93-.39-.03-1.64.53-1.71.61-.06.08-1.4-.89-1.77.17-.13.38-.54-.3-.91.32-.06.11-1.27-.15-1.4.58-.03.14.38.51,1.18.04.16-.09,1.03.03,1.18.15h0ZM17.84,16.5c.4.19,1.92.48,1.51-.12-.64-.94,4.23-1.14,2.87-1.9-2.11-1.18.49-.48,1.25-1.75.11-.18.12-.69-.81-.61-1.62.15-1.1,1.05-1.11,1.05-.41.07-1.58-.6-1.92.2-.28.64-1.64,0-.88,1.28.44.75-3.4.79-1.79,1.67.2.11.65.07.88.17h0ZM17.46,11.02c-.6.69-1.06.39-1.51.93-.32.39-.36-.88-2.03,0-.55.29-.51-.72-1.83-.13-1.21.54-2.14-.76-1.37-.67,1.69.21-1.09-.61-.33-.98,1.6-.77-2.68-1.03-1.46-1.18,2-.26.51-1.31,3.06.01.36.19,1.71-.62,2.67-.25.6.23-.85.72.87.78.03,0,1.15-.37.47.15-.68.53-2.25.59-.94,1.21.49.23.36-.67,1.64-.13.06.03.96,0,.75.23h0ZM34.97,15.82c6.32,1.44,2.33-.48,5.5-.87,1.35-.17.12-.8,2.39-1.19,3.14-.54-4.51-1.57-2.09-2.96,1.46-.84-5.35-1.22-3.29,1.32,2.13,2.64-2.24-1.24-2.58.91-.14.91-1.86.49-1.04,1.63.29.4-2.53-.52-.57.81.97.66.74.14,1.67.36h0ZM26.2,15.74c.37.31,2.47,1.28,1.41-.56-.35-.6,1.06.17.03-.79-.12-.11,1.75-2.33-2.54-.38-.8.36,1.16.25-.6.98-.53.22-.43.92,1.39.63.11-.02.23.06.31.13h0ZM22.08,10.5c2.24,2.05-2.66-.52-2.3,1.24.1.48-3.86,1.5-1.72.43,1.57-.79-2.07.2.68-1.02.75-.33-.6-.36.21-1.4.37-.48-1.1-2.26,1.28-2.05,2.18.19-.8,1.29,1.6,2.61.19.1.04,0,.25.2h0ZM15.55,7.09c-2.08-2.28,1.29-1.49.6-2.25-.85-.92-1.25-1.6-1.46-1.45-.36.26-.43.96-.58,1.1-.05.05-.37.07-.51.03-.25-.07-.44-.37-.67-.31-.99.27-2.41.4-2.76,1.31-.24.63,1.18.23,1.04.31-1.35.75.11.24-.01.92-.26,1.4,1.55-.1,2.18.29,2.27,1.4,2.63.54,2.18.04h0ZM4.94,10.54c.6.35,2.1.63,1.91-.03-.08-.29,3.22.01.21-1.38-.39-.18.78.03.09-.56-.52-.44.75-1.08.27-1.04-1.14.08-2.14.85-3.08,1.47-.15.1.29.15.33.18,1.53,1.37-1.06.59.27,1.36h0ZM31.78,3.6c1.27.2-.23-.14.81-.56.25-.1-.03-.25.13-.6.27-.58-1.21-.24-1.12.12.05.2-1.94.56-.6,1.07.27.1.57-.07.77-.04h0ZM44.23,8.93c5.17.59,0-.4,3.54-.27.92.03,4.43-.96-.98-1.39-1.16-.09-.47-1.37-3.05-.72-.51.13-2.65-.86-1.9.3.26.39-4.7-1.01-2.97,1,.44.51,1.2-.06.84.58-.34.59,4.28.47,4.52.49h0ZM30.39,12.75c3.23-.28,2.64.27,2.44-1.13-.02-.15,3.12-1.18.85-1.61-1.73-.33-.47,1.01-1.96.8-1.24-.18-.63.92-3.61.34-1.76-.35-1.79,1.97,2.28,1.61h0ZM31.36,7.94c-.73.79-2.14,1.2-1.33,1.67.81.47-2.29-.93-3.89.65-.64.64-4.6.62-1.96-.38.79-.3-1.39-1.09.05-.98,1.33.1.25-.95,1.88-1.34,2.21-.53-5.1-3.11,1.33-2.99.47,0,2.27-1.26,2.83.37.44,1.27-3.13.33.82,2.57.27.15.42.27.27.43h0ZM41.34,4.42c.61,2.05-1.86-.97-3.52,1.24-.26.35-5.53-.03-2.49,1.74,1.54.9-3.36,1.55-2.77-.39.24-.8,1.1.05.33-1.22-.35-.58,1.49.11.83-.93-.91-1.44,2.63-.65,3.49-1.07.84-.41,3.9-.11,4.12.64h0ZM23.83,2.64c-.39-.16-.53-.76-1.65-.76-.53,0-.69.81-1.79,1.19-.66.23-1.91.33-2.99.31-1.31-.03-1.18.57,1.82,2.08.23.12,3.16,1.04,2.55,0-.76-1.28,1.41-1.71,2.61-1.38.07.02,4.19.5-.54-1.44h0ZM7.4,20.73c1.34,0,.31.94,1.44,1.44,1.04.45.36,2.52-1.61.01-.49-.62-1.05.14-1.96-.81-.41-.43,1.07-.05,1.24-.39.22-.46.74-.25.9-.25h0ZM3.12,15.14c.45-.06.92.63.53.97-.4.35.56,1.27-.51,1.21-.4-.02-.34-.81-.71-1.27-.38-.48.24-.85.68-.91h0ZM43.23,10.29c1.83.14.02.83,1.48,1.37.84.31.18,1.65-1.75.39-.51-.33.02-.44-.93-.51-.16-.01-.96-.99.6-1.07,0,0,.52-.18.6-.17h0ZM36.4,7.02c.6-.08,1.45.24,1.45.99,0,.94.57.96.47,1.37-.05.19-2.07.99-2.07-.24,0-.86.45-.53-.07-1.47,0,0-.11-.56.11-.56.05,0,.08-.08.11-.08h0ZM32.62,8.63c1.05,0,1.15.78-.48.94-.28.03-1.33.4-.95-.3.29-.54,1.34-.64,1.43-.63h0ZM35.76,10.62c.87.29.13.58.77.96.26.15-.39.61-1.12-.21-.1-.11-.93-.65.14-.78.08-.01.14,0,.21.03h0ZM50.21,5.57c1.67.25.97.9,2.75,1.48.33.11,1.61,1.8-.1,1.72-1.64-.08-1.57-2.35-2.57-1.62-.51.37-.22-.79-1.91-.41-.42.1-1.59.3-1.59-.31,0-1.15,1.95-.16,2.53-.74.11-.11.74-.14.9-.12h0ZM36.66,1.94c1.21.06,1.42,1.36-.43,1.18-.97-.09-.99.27-1.43.22-1.38-.18-1.23,1.21-1.85.5-.29-.33.42-.94.59-1.45.22-.67,2.87-.47,3.12-.46h0ZM28.29,1.47c.78.17,2.11.32.87,1.13-.97.63-.73-.29-1.09.81-.25.76-1.3-.65-1.81-.65-1.41,0,.32-.92.85-1.05.26-.06,1.12-.25,1.18-.24h0ZM23.85,6.18c.79.06.65.66-.04,1.05-.49.28.12.85-.49.93-.99.13-.47,1.36-.82,1.36-.88,0-.95-.66-.52-1.22.8-1.03-1.56-.76-1.22-1.45.12-.23,1.05-.45,1.49-.17.54.34.99-.46,1.43-.46.08,0,.1-.03.17-.03h0ZM17.67,5.88c1.08.45,1.61.22.19,1.19-.22.15.92,1.37-.75.77-.52-.19.46-.86-.44-1.21-.49-.19.22-1.08,1-.75h0Z"/><path class="cls-123" d="M3.99,11.38c-.17.07-.15,0-.39.15-.32.21-.54.42-.17.73.42.36.83.1.64.66-.06.18.92.13.37.96-.17.26.39.3.63.17.35-.19.27-.11.63-.36.61-.42.63-.05,1.16-.15,1.33-.26,1.05-1.09.16-1.09s-1.15.2-1.31-.49c-.01-.06-.72.16-1.01-.37-.14-.26-.66-.24-.7-.22h0ZM7.16,14.65c-.32-.04-.6.36-.05.55.2.07.29.36.12.58-.09.12.24.11-.38.35-.35.14-.7,1.17.49.97.28-.05.4-.43.73-.19.37.28.85-.43.38-.91-.32-.32.22-.98-.43-.9-.12.01-.07-.39-.66-.45-.06,0-.13,0-.19-.01h0ZM2.06,13.36c-.09,0-.67.13-.41.4.31.32-.65.98.04,1,.48.01.35-.81.56-.86.29-.07.14,0,.25-.42.07-.28-.41-.11-.43-.11h0ZM10.84,9.48c-.3-.03-.81.25-.89.62-.23,1.19-.96.28-.89,1.46.03.46.39.34.66.12.32-.26.31-.23.62-.54.49-.47.19-.42.84-.4.15,0,.66-.83,1.57-.31.34.2-.08.42.72.3.39-.06.78.6,1.3.21.35-.25.25-.68-.22-.68-.22,0-1.34-.14-1.41-.43-.14-.59-.36.01-.81-.74-.15-.25-.74-.25-1,.11-.09.13-.31.29-.5.27h0ZM4.76,8.26c-.92.56-.39.76-.57.92-.33.3.66.28.76.28.29,0,1.88-.19.74-.48-.83-.21,0-.22-.58-.55-.07-.04.22-.41-.31-.18h-.04ZM9,8.12c-.68,0-.93.68.26.61.03,0,.25.47.71.24.28-.14.06-.52-.61-.52-.11,0,.02-.16-.28-.3-.05-.02-.02-.03-.08-.03h0ZM16.72,14.08c-2.35.44-.47-1.02-2.24-.17-.8.38-.67-.74-1.44.44-.08.12-2.48,1.96-1.2,2.02.33.02,1.39-1.17,1.55-1.01.34.33.94-.18,1.76-.18,1.04,0,1.13-.73,2,.9.62,1.16,1.63-.11,2.16.14.76.36,1.15-.74-.04-.72-.96.02-1.11-.99-1.2-.98-.54.01-1.03-.5-1.35-.44h0ZM27.99,12.98c-.97.16-3.11-.41-1.65.62.59.42-.51.57,1.08.6.65.01.16-.45,1.54.11,1.67.68,1.5-.31,2.07-.34.2-.01.75-.75.12-.85-1.19-.19-.93.47-1.93-.18-.18-.12-.98,0-1.23.05h0ZM31.29,9.86c-.44.1-1.41.04-.91.71.21.28,1.43-.2,1.72.13.25.28.26-.36,1.04.23.43.33,3.1.9,1.94.1-.63-.43-1.7.11-1.13-1.18.21-.49-1.03-.56-1.23-.88-.17-.28-.95-.33-1.02.39-.03.27-.15.44-.41.5h0ZM34.54,12.2c-.17.04-1.04-.05-.5.64.24.32,1.36.04,1.37.56,0,.19,1.43.63.84-.27-.32-.48-.15-.1-.08-.55.06-.41-.88-.82-1.58-.42l-.05.03h0ZM26.41,17.91c-.27-.33-1.04.45-1-.87,0-.18-1.8-.48-1.8-1.35,0-.27,1.62-.3,2.06-.07.52.27.58-.57,1.72-.12.85.33,1.98-.29,1.78.74-.08.42-1.78.33-1.78.8,0,.55-.05-.07-.44.45-.2.26-.5.45-.53.41h0ZM33.54,16.9c-3.09-.23-2.87,2.22-1.14,1.12.18-.12,1.09-.35,1.44-.21.77.31.25-.85,1.94-.33.52.16.76-.15,1.19-.56.85-.8-1.24-.29-1.31-.45-.12-.29-.84-.37-1.26.1-.21.24-.58.35-.86.33h0ZM27.1,19.77c-.2,0-2.19-.06-2.25,0-.2.16-.32.81.11.9.55.12-1.15.84.15,1.3.65.23,1.18-.43,1.61.42.16.32,1.33.56,1.31-.1-.01-.57,1.19-.69,1.24-.88.18-.73-.01-.64.94-.68.86-.03.42-1.35-.72-.72-.21.12-1.76.3-2.08-.16-.06-.09-.18-.06-.31-.07h0ZM28.89,22.26c-.26.32-.83.86.3.9.28.01.14-.37.69-.4.17,0,.16-.51-.98-.51h0ZM12.83,16.7c-.84.23-.65.96.43.72.28-.06,1.05.49.8-.24-.05-.16-1-.54-1.23-.48h0ZM14.97,21.07c-1.06-.11-.42.8-.21.86.76.2.96-.49,1.28.54.18.58,1.13.93,1.63.59.71-.47,2.32.38,2.02-.59-.23-.74-1.52-.15-1.57-.83-.07-.93-1.84-.2-2.76-.58-.05-.02-.32.01-.38,0h0ZM36.74,24.65c-1.72,0-.95.76-.96.93-.01.54-2.18.68-1.13,1.73.28.28,1.16.25,1.58-.13.83-.75,1.17-.04,1.8-.47.29-.2,2.35,0,1.73-1.08-.62-1.07-1.93.47-2.62-.81-.1-.19-.2-.17-.39-.17h0ZM28.88,25.7c-1.35.11-1.02,1.15.25.7.11-.04,1.67.52,1.4-.31-.1-.33-.74-.03-.78-.65-.01-.17-.52-.17-.88.26h0ZM36.85,22.4c-.73.07-1.23.69-.57,1.14.14.1-.5.86.73.41.65-.24-.02-.57.59-1,.79-.56-.73-.55-.74-.55h0ZM40.23,16.21c-.14.12-1.42.38-.59.82.31.16-1.36.57-.78.93.64.4,1.87-.71,2.66-.77.91-.07.44.26,1.55-.17.19-.07,1.05-.1.08-.67-.39-.23-.86.23-1.24-.13,0,0-1.22,0-1.39,0-.1,0-.24-.05-.28-.01h0ZM43.05,13.21c-1.7.19-.46,1.15-.57,1.4-.4.89.77.23,1.52.21,1.02-.02.39-.57,1.55-.2.89.29.63-.44,2-.44.81,0,2.68-.98.09-.98-1.54,0-.25-.56-1.3-.51-.55.03-.43.48-1.12-.06-.99-.77-.47,1.54-2.01.64-.04-.02-.12-.07-.16-.06h0ZM36.75,4.29c-.35-.09-1.66.87-.26,1.04.43.05.37.84,1.34-.08.54-.51.86.17,1.64-.29.11-.07,1.96-.29.53-.77-.62-.21-.77.61-1.55.05-.82-.59-1.16.08-1.64.05-.05,0-.03.01-.07,0h0ZM50.76,6.97c-.84-.09-.3.16-1.25-.2-.87-.33-.85.51-1.67.51-1.06,0-.38,1.39,1.02.95.93-.29.05.76,1.76.72.33,0-.45,1.48,2.52.02.48-.24-.05-.23.65-.12.25.04.86-.87-1.27-.67-.74.07-.22-.25-.72-.43-.62-.23.23-.34-.97-.77l-.06-.02h0ZM47.32,21.94c-1.78.49.15.35-1.54,1.08-.39.17-.22,1.43.44.78.87-.86,2.05-.59,2.06-.6.31-.26-.48-.24.47-.53.25-.08.33-.44-.45-.44-.47,0-.74-.36-.97-.29h0ZM51.6,20.49c-1.02-.12-1.25.68-.59.7.2,0-.29,1.42,1.58.19.72-.48.48.16,1.16-.37.06-.05.74-.35.11-.43-.9-.11-.15.29-1.34-.17-.38-.15-.67.12-.92.09h0ZM48.72,17.4c-2.18.2-2.17,1.78-.84,1.11.15-.07,1.62.46,1.65-.17.01-.28,1.53.25,1.47-.55-.02-.28-.73.03-1.24-.37-.28-.22-.73-.04-1.04-.01h0ZM55.48,18.33c-1.56.16-1.05.78-.78.78.87,0,.9.87,1.49.15,0,0,.55-.37.64-.37.95,0-.03-.29.76-.7.44-.23-.58-.5-1.05-.13-.16.13-.73.64-.98.29-.02-.03.02-.04-.06-.03h0ZM55.76,11.56c-1.82.21-.03.48-.66.89-.16.1.69.55,1.14-.16.19-.3,1.32.31.78-.5-.22-.33-1.13-.24-1.26-.23h0ZM52.29,13.74c-.27.14-.7.18-.47.57.23.41.88-.34,1.31.08.37.35,1.12-.53,1.21-.54.44-.02,1.18.22.63-.5-.15-.2-.99-.28-1.22,0-.16.19-.83-.15-1.2.16-.14.12-.07.13-.25.22h0ZM49.32,10.77c-.51.13-.56.83.44.51.3-.09,1.09.32.83-.33-.14-.34-.48.03-.82-.24-.07-.06-.36.04-.45.06h0ZM42.25,8.65c-1.32.07-.25.6-.12.99.09.29.59.4.71.08.32-.82,1.41-.71,1.48-.73.02-.37.09-.89-.73-.61-.44.15.11.36-.96.27-.06,0-.3,0-.37,0h0ZM19.68,5.24c-1.84.33-1.3,1.57.57.51.26-.15,1.45.3,1.02-.44-.11-.19-1.49-.09-1.59-.08h0ZM17.63,9.55c-.31-.22-.04-.38-.81-.48-1.1-.14.33-1.49,1.16-.42.42.55,1.38-.72,1.86.7.14.42,1.71-.27,1.58.92-.03.29-.6.36-1.02-.15-.4-.48-3.02-.69-1.68.75.2.22-.31,1.31-.54-.45-.03-.24-.56-.49-.48-.88h-.06ZM14.77,9.18c-.24,0-.48.93.74.26.15-.08,1.04.19.6-.31-.05-.06-1.21.05-1.34.06h0ZM15.07,15.45c-.22.11-.72,0-.39.41,0,0,.88.11.92-.02.13-.4-.51-.4-.53-.39h0ZM9.64,21.84c-.68.17-1.18.01-.41.92.21.24.52-.03.87.35.37.4,1.25-1,2.57-.12.35.24,1.08-.46-.06-.85-1.65-.56-.69-.05-2.28-.18-.02,0-.48-.17-.69-.12h0ZM24.92,17.88c-1.02-.02-.81,1.13.21.52.07-.04.66.02.76.02,0-.38-.12-.2-.62-.5-.03-.02-.3-.04-.35-.04h0ZM21.45,24.7c-1.5.09-.63.96-.32.96.83,0,.11-.35,1.01-.61.13-.04.32-.4-.69-.35h0ZM28.48,4.39c-.52.08-1.12.11-1.02.91.1.82,1.93.26,2.25,1.12.09.25.32-.2.76-.03,1.05.39,1.87-1.15-.77-1.09-.46.01.37-.63-1.06-.95-.04,0-.11.04-.15.05h0ZM30.28,2.82s-.17.12-.26.15c-.46.16-.08.34-.35.49-.28.15-.2.27.11.27.61,0,.71-.35,1.28-.24.44.09.59-.42.38-.49-.35-.12-.61.02-.74-.08-.19-.15-.2-.16-.42-.1h0ZM40.45,6.29c-.19.12-.46.07-.31.48.14.35.7.16.74.33.04.18.53.11.72.15.06.01.27.03.27-.04,0-.39-.76-.18-.7-.47.06-.26-.2-.27-.41-.37-.17-.08-.16.02-.28-.07-.01-.01-.03-.01-.04,0h0ZM39.43,21.52c-.1-.03-.8.09-.82.39-.01.34.1.37.44.36.28-.01.54-.34.65-.28.07.04.29.02.29-.18,0-.32.57-.21.7-.29.17-.1.87-.34.2-.49-.14-.03-.38-.05-.49.05-.05.05-.21.24-.26.24-.11,0-.07.04-.23-.01-.13-.05-.34.26-.49.21h0ZM44.25,23.74c-1.01-.09-.35.32-.99.38-.37.03-.88.9.48.41.42-.15.3-.42.85-.31.25.05.81-.1.61-.44-.16-.26-.71-.02-.95-.04h0ZM17.14,24.63c-.56.2-.62.13-.36.58.16.27-.2.85.6.34.2-.13.49-.74.66-.74.5,0,.49.04.93-.34.21-.18-.2-.77-.77-.21-.25.25.08-.34-.66.02-.1.05-.35.33-.42.35h0Z"/><g class="cls-127"><path class="cls-124" d="M48.61,23.67c-1.09,1.21-3.17.65-3.13,1.41.09,1.99-4.29,1.37-5.63,2.03-2.14,1.07-2.79.35-3.19.57-.88.48-2.12.29-3.13.29-1.43,0-4.16,1.1-4.75.81-.84-.4-2.42.02-3.1-.37-1.93-1.13-4.16-.18-5.82-.45-1.12-.18-1.34-.44-2.92-.53-2.69-.15-3.55-1.41-3.77-1.42-1.85-.08.63-1.52-4.14-1.73-.98-.04-2.56-.4-2.67-1.53-.15-1.5-1.9-1.28-2.12-1.86-.63-1.65-1.28-.61-2.27-1.83-2.76-3.41.5-3.72-.19-4.71-.69-1,.82-1.11.4-2.04-1.1-2.44,1.11-3.32,1.74-3.56,1.88-.73,1.69-1.69,2.35-1.84,1.76-.39,2.21-.53,2.95-.98.58-.35.81-1.38,1.61-1.58.52-.12,1.87-.08,2.05-.27,1.7-1.86,1.84-.72,2.61-1.25,1.3-.9,1.61-.34,1.86-.54,1.49-1.23,4.52-.55,5.07-.77.56-.22,2.14-.2,2.19-.23.78-.5,1.05.09,1.35.04.45-.07.99-.74,2.82-.74s4.1,1.21,4.39,1.04c1.6-.93,3.2.96,4.8.42,2.24-.77,3.34.11,4.22-.19.09-.03,3.13,1.42,3.15,1.43,1.54.97,2.25.28,2.97,1.67.36.69,3.26,1.67,3.79,1.73,1.4.15,1.34,1.54,2.51,1.85,1.22.31.89,1.46,2.11,1.85,2.95.94-.27,2.77.95,3.49.94.55-.68,1.23-.33,1.88,1.16,2.18.56,1.36.16,2.27-.18.41-1.07,1.92-1.17,1.96-1.42.49-.39.83-1.61,1.69-1.5,1.07-3.55,1.2-4.17,1.71-.81.65-1.54-.21-1.95.26h0ZM43.54,1.67C39.38.56,34.65-.04,29.64,0c-6.39.06-12.09,1.16-16.93,2.88C5.16,5.55,0,9.78,0,14.74s4.62,9.33,11.91,12.01c4.92,1.81,11.13,2.73,17.73,2.73,7.6,0,14.2-1.99,19.55-4.13,6.22-2.49,10.09-6.25,10.09-10.61,0-3.27-2.21-6.05-6.31-8.57-2.72-1.67-5.52-3.47-9.44-4.51h0Z"/></g></g></g></g></svg>