<?xml version="1.0" encoding="UTF-8"?><svg xmlns="http://www.w3.org/2000/svg" xmlns:xlink="http://www.w3.org/1999/xlink" viewBox="0 0 84.74 31.75"><defs><style>.cls-1{fill:none;}.cls-2{fill:url(#_ÂÁ_Ï_ÌÌ_È_ËÂÌÚ_2016-5);}.cls-2,.cls-3,.cls-4,.cls-5,.cls-6,.cls-7,.cls-8,.cls-9,.cls-10,.cls-11,.cls-12{mix-blend-mode:multiply;}.cls-2,.cls-3,.cls-4,.cls-5,.cls-6,.cls-9,.cls-11{opacity:.49;}.cls-3{fill:url(#_ÂÁ_Ï_ÌÌ_È_ËÂÌÚ_2016-3);}.cls-4{fill:url(#_ÂÁ_Ï_ÌÌ_È_ËÂÌÚ_2016-4);}.cls-5{fill:url(#_ÂÁ_Ï_ÌÌ_È_ËÂÌÚ_2016-2);}.cls-6{fill:url(#_ÂÁ_Ï_ÌÌ_È_ËÂÌÚ_2016-6);}.cls-13{isolation:isolate;}.cls-7{fill:url(#_ÂÁ_Ï_ÌÌ_È_ËÂÌÚ_1932);}.cls-7,.cls-14,.cls-15{stroke:#000;stroke-miterlimit:10;}.cls-7,.cls-16{opacity:.51;}.cls-17{fill:url(#_ÂÁ_Ï_ÌÌ_È_ËÂÌÚ_2092);}.cls-17,.cls-18,.cls-16,.cls-15{mix-blend-mode:screen;}.cls-18{fill:url(#_ÂÁ_Ï_ÌÌ_È_ËÂÌÚ_1982);}.cls-14{fill:url(#_ÂÁ_Ï_ÌÌ_È_ËÂÌÚ_1947);}.cls-19{opacity:.64;}.cls-20{opacity:.56;}.cls-21{opacity:.31;}.cls-9{fill:url(#_ÂÁ_Ï_ÌÌ_È_ËÂÌÚ_2016);}.cls-10{fill:url(#_ÂÁ_Ï_ÌÌ_È_ËÂÌÚ_1960);opacity:.24;}.cls-16{fill:url(#_ÂÁ_Ï_ÌÌ_È_ËÂÌÚ_1935);}.cls-15{fill:url(#_ÂÁ_Ï_ÌÌ_È_ËÂÌÚ_1963);opacity:.58;}.cls-11,.cls-12{fill:#d19676;}.cls-12{opacity:.22;}.cls-22{clip-path:url(#clippath);}</style><linearGradient id="_ÂÁ_Ï_ÌÌ_È_ËÂÌÚ_1947" x1="68.42" y1="84.91" x2="68.42" y2="55.55" gradientUnits="userSpaceOnUse"><stop offset=".08" stop-color="#aa3c00"/><stop offset=".15" stop-color="#b94d0f"/><stop offset=".36" stop-color="#eb823e"/><stop offset=".46" stop-color="#ff9751"/><stop offset=".81" stop-color="#ffc780"/><stop offset="1" stop-color="#ffdc95"/></linearGradient><linearGradient id="_ÂÁ_Ï_ÌÌ_È_ËÂÌÚ_1963" x1="47.25" y1="90.97" x2="84.69" y2="44.74" gradientUnits="userSpaceOnUse"><stop offset=".28" stop-color="#000"/><stop offset="1" stop-color="#ff9751"/></linearGradient><linearGradient id="_ÂÁ_Ï_ÌÌ_È_ËÂÌÚ_2092" x1="26.27" y1="29.45" x2="57.8" y2="-9.49" gradientUnits="userSpaceOnUse"><stop offset="0" stop-color="#000"/><stop offset="1" stop-color="#ff3b00"/></linearGradient><linearGradient id="_ÂÁ_Ï_ÌÌ_È_ËÂÌÚ_1932" x1="88.35" y1="49.86" x2="49.93" y2="88.27" gradientUnits="userSpaceOnUse"><stop offset="0" stop-color="#fff"/><stop offset=".35" stop-color="#dfb7a1"/><stop offset=".8" stop-color="#b95f2e"/><stop offset="1" stop-color="#aa3c00"/></linearGradient><linearGradient id="_ÂÁ_Ï_ÌÌ_È_ËÂÌÚ_1935" x1="2.36" y1="14.15" x2="81.71" y2="14.15" gradientUnits="userSpaceOnUse"><stop offset="0" stop-color="#000"/><stop offset=".53" stop-color="#f8934f"/><stop offset="1" stop-color="#000"/></linearGradient><linearGradient id="_ÂÁ_Ï_ÌÌ_È_ËÂÌÚ_1960" x1="42.38" y1="31.25" x2="42.38" y2="16.13" gradientUnits="userSpaceOnUse"><stop offset="0" stop-color="#fff"/><stop offset=".31" stop-color="#dfb7a1"/><stop offset=".72" stop-color="#b95f2e"/><stop offset=".89" stop-color="#aa3c00"/></linearGradient><linearGradient id="_ÂÁ_Ï_ÌÌ_È_ËÂÌÚ_1982" x1="50.82" y1="9.98" x2="85.83" y2="9.98" gradientUnits="userSpaceOnUse"><stop offset=".08" stop-color="#000"/><stop offset=".17" stop-color="#050301"/><stop offset=".28" stop-color="#140c06"/><stop offset=".41" stop-color="#2d1a0e"/><stop offset=".54" stop-color="#502f19"/><stop offset=".68" stop-color="#7d4a27"/><stop offset=".83" stop-color="#b46b39"/><stop offset=".98" stop-color="#f4904d"/><stop offset="1" stop-color="#ff9751"/></linearGradient><clipPath id="clippath"><path class="cls-1" d="M81.01,9.31c.91.59.95,1.91.06,2.54-4.38,3.12-14.6,7.48-38.33,7.48C17.72,19.34,7.05,13.83,2.94,10.55c-.79-.63-.76-1.83.05-2.43,1.36-1,3.4-2.01,6.07-2.94C16.37,2.64,28.43.61,44.17.61c3.33,0,6.4.14,9.27.38,1.57.13,3.09.3,4.53.49,9.92,1.33,16.71,3.97,20.76,6.45.86.52,1.62.96,2.27,1.38Z"/></clipPath><linearGradient id="_ÂÁ_Ï_ÌÌ_È_ËÂÌÚ_2016" x1="14.78" y1="-3.09" x2="45.32" y2="27.45" gradientUnits="userSpaceOnUse"><stop offset=".12" stop-color="#fff"/><stop offset=".17" stop-color="#f1ddd5"/><stop offset=".24" stop-color="#ddaa95"/><stop offset=".31" stop-color="#cc7f60"/><stop offset=".38" stop-color="#bf5e36"/><stop offset=".44" stop-color="#b54618"/><stop offset=".49" stop-color="#b03806"/><stop offset=".52" stop-color="#ae3300"/><stop offset=".91" stop-color="#fff"/></linearGradient><linearGradient id="_ÂÁ_Ï_ÌÌ_È_ËÂÌÚ_2016-2" x1="49.37" y1="-5.35" x2="74.45" y2="19.72" xlink:href="#_ÂÁ_Ï_ÌÌ_È_ËÂÌÚ_2016"/><linearGradient id="_ÂÁ_Ï_ÌÌ_È_ËÂÌÚ_2016-3" x1="14.13" y1="-2.44" x2="43.09" y2="26.51" xlink:href="#_ÂÁ_Ï_ÌÌ_È_ËÂÌÚ_2016"/><linearGradient id="_ÂÁ_Ï_ÌÌ_È_ËÂÌÚ_2016-4" x1="48.91" y1="-4.89" x2="73.47" y2="19.66" xlink:href="#_ÂÁ_Ï_ÌÌ_È_ËÂÌÚ_2016"/><linearGradient id="_ÂÁ_Ï_ÌÌ_È_ËÂÌÚ_2016-5" x1="31.49" y1="-6.86" x2="63.15" y2="24.79" xlink:href="#_ÂÁ_Ï_ÌÌ_È_ËÂÌÚ_2016"/><linearGradient id="_ÂÁ_Ï_ÌÌ_È_ËÂÌÚ_2016-6" x1="30.8" y1="-6.17" x2="60.69" y2="23.72" xlink:href="#_ÂÁ_Ï_ÌÌ_È_ËÂÌÚ_2016"/></defs><g class="cls-13"><g id="Layer_2"><g id="_ÎÓÈ_2"><path class="cls-14" d="M84.24,19.25c0,1.36-.58,2.23-1.37,3.02-3.01,2.96-12.24,8.98-40.14,8.98S4.79,24.56,1.94,21.66c-.42-.43-.7-.96-.84-1.53-1.2-4.97-.23-7.66-.1-9.29.18-1.87,2.98-3.89,8.05-5.66C16.38,2.63,28.44.61,44.18.61c3.32,0,6.39.14,9.26.38,1.58.13,3.09.3,4.54.49,9.92,1.33,16.71,3.97,20.76,6.45,3.03,1.84,4.8,2.57,5.16,5.4,0,0,.34,2.22.34,5.92Z"/><path class="cls-15" d="M78.74,7.93c-4.05-2.48-10.84-5.12-20.76-6.45-1.44-.19-2.96-.36-4.54-.49-2.87-.24-5.94-.38-9.26-.38C28.44.61,16.38,2.63,9.05,5.18,3.98,6.95,1.18,8.97,1.01,10.77c-.48,3.8,21.7,14.44,61.79,8.56,14.35-2.27,20.96-5.92,20.79-7.25-.69-1.84-2.32-2.62-4.85-4.16Z"/><path class="cls-17" d="M81.01,9.31c.91.59.95,1.91.06,2.54-4.38,3.12-14.6,7.48-38.33,7.48C17.72,19.34,7.05,13.83,2.94,10.55c-.79-.63-.76-1.83.05-2.43,1.36-1,3.4-2.01,6.07-2.94C16.37,2.64,28.43.61,44.17.61c3.33,0,6.4.14,9.27.38,1.57.13,3.09.3,4.53.49,9.92,1.33,16.71,3.97,20.76,6.45.86.52,1.62.96,2.27,1.38Z"/><path class="cls-7" d="M43.78,27.5c-.77-3.75,19.02-8.16,19.02-8.16C22.71,25.21.53,14.58,1,10.84c-.13,1.63-1.1,4.32.08,9.25.16.61.43,1.14.86,1.57,2.85,2.9,12.49,9.59,40.79,9.59s37.13-6.02,40.14-8.98c.8-.79,1.37-1.66,1.37-3.02,0-.39,0-.76-.01-1.12-.86,10.19-39.7,13.05-40.46,9.37Z"/><path class="cls-16" d="M81.07,11.09c-4.38,3.12-14.6,7.48-38.33,7.48C17.72,18.57,7.05,13.07,2.94,9.78c-.27-.22-.44-.51-.52-.82-.15.56.02,1.19.52,1.59,4.11,3.28,14.79,8.79,39.8,8.79s33.96-4.36,38.33-7.48c.55-.39.74-1.06.59-1.64-.08.34-.28.65-.59.88Z"/><path class="cls-10" d="M1.1,20.13c.14.57.41,1.1.84,1.53,2.85,2.9,12.49,9.59,40.79,9.59s37.13-6.02,40.14-8.98c.8-.79,1.37-1.66,1.37-3.02,0-.48,0-.94-.02-1.36-.22,4.86-2.9-1.27-8.12,3.87-5.46,5.36-7.95,2.43-12.12,5.36-4.17,2.94-8.85-1.53-15.11,1.11-6.26,2.65-7.91-2.26-10.21-.35-2.3,1.92-6.64-4.85-11.62-1.79-4.98,3.06-8.68,1.79-11.49-.81s-6-.85-7.4-4.21c-1.38-3.31-7.45-.69-7.63-4.95.04,1.14.19,2.43.55,3.97,0,.01.02.02.02.04Z"/><path class="cls-12" d="M4,19.88c-.12-.91,3.97,2.76,3.28,3.29-.69.53-2.8.49-3.28-3.29Z"/><path class="cls-12" d="M78.1,23.14c-.54-.27,4.37-2.51,4.12-1.66-.25.85-1.84,2.77-4.12,1.66Z"/><path class="cls-12" d="M61.55,24.1c-.51-.31,3.16-1.03,3.12-.43s-.99,1.73-3.12.43Z"/><path class="cls-12" d="M8.01,22.96c-.7-.12-.66-.88.38-.38,1.04.5.52.53-.38.38Z"/><path class="cls-12" d="M67.28,26.82c-.83-.16-.78-1.15.45-.49,1.23.65.61.7-.45.49Z"/><path class="cls-12" d="M64.35,22.09c-.83-.16-.78-1.15.45-.49,1.23.65.61.7-.45.49Z"/><path class="cls-12" d="M29.17,27.15c-2-1.12,1.21-1.88,1.31-.89.1.99.51,1.91-1.31.89Z"/><path class="cls-12" d="M31.56,27.05c.76-.11,1.05-.83.26-.83s-1.53,1.02-.26.83Z"/><path class="cls-12" d="M45.29,23.75c.76-.11,1.05-.83.26-.83s-1.53,1.02-.26.83Z"/><path class="cls-12" d="M14.95,22.54c.76-.11,1.05-.83.26-.83s-1.53,1.02-.26.83Z"/><path class="cls-12" d="M55.2,26.69c1.2-.05.59-1.42,0-1.13-.59.29-.69,1.16,0,1.13Z"/><path class="cls-12" d="M43.36,24.51c1.2-.05.59-1.42,0-1.13-.59.29-.69,1.16,0,1.13Z"/><path class="cls-12" d="M21.65,22.4c2.02-.09,1-2.39,0-1.9-1,.48-1.15,1.95,0,1.9Z"/><path class="cls-12" d="M77.95,22.1c1.2-.05.59-1.42,0-1.13-.59.29-.69,1.16,0,1.13Z"/><path class="cls-12" d="M56.57,25.57c.44.05.62-.55.16-.65-.47-.09-.78.58-.16.65Z"/><path class="cls-12" d="M23.82,22.73c.44.05.62-.55.16-.65-.47-.09-.78.58-.16.65Z"/><g class="cls-19"><path class="cls-11" d="M36.08,5.38c-.25-.33,3.59-.27,3.15.19-.44.46-2.09,1.17-3.15-.19Z"/><path class="cls-11" d="M76.89,11.58c-.54-.27,4.37-2.51,4.12-1.66-.25.85-1.84,2.77-4.12,1.66Z"/><path class="cls-11" d="M59.39,6.18c-.51-.31,3.16-1.03,3.12-.43-.04.6-.99,1.73-3.12.43Z"/><path class="cls-11" d="M35.47,4.83c-.7-.12-.66-.88.38-.38,1.04.5.52.53-.38.38Z"/><path class="cls-11" d="M65.12,8.9c-.83-.16-.78-1.15.45-.49,1.23.65.61.7-.45.49Z"/><path class="cls-11" d="M62.19,4.17c-.83-.16-.78-1.15.45-.49,1.23.65.61.7-.45.49Z"/><path class="cls-11" d="M5.6,9.38c-.51-.31,3.16-1.03,3.12-.43s-.99,1.73-3.12.43Z"/><path class="cls-11" d="M8.4,7.37c-.83-.16-.78-1.15.45-.49,1.23.65.61.7-.45.49Z"/><path class="cls-11" d="M31.05,14.05c-2-1.12,1.21-1.88,1.31-.89.1.99.51,1.91-1.31.89Z"/><path class="cls-11" d="M33.45,13.95c.76-.11,1.05-.83.26-.83s-1.53,1.02-.26.83Z"/><path class="cls-11" d="M15.41,13.62c.76-.11,1.05-.83.26-.83s-1.53,1.02-.26.83Z"/><path class="cls-11" d="M47.17,10.65c.76-.11,1.05-.83.26-.83s-1.53,1.02-.26.83Z"/><path class="cls-11" d="M42.41,4.42c.76-.11,1.05-.83.26-.83s-1.53,1.02-.26.83Z"/><path class="cls-11" d="M57.09,13.59c1.2-.05.59-1.42,0-1.13-.59.29-.69,1.16,0,1.13Z"/><path class="cls-11" d="M45.25,11.41c1.2-.05.59-1.42,0-1.13s-.69,1.16,0,1.13Z"/><path class="cls-11" d="M23.53,9.3c2.02-.09,1-2.39,0-1.9-1,.48-1.15,1.95,0,1.9Z"/><path class="cls-11" d="M76.74,10.54c1.2-.05.59-1.42,0-1.13s-.69,1.16,0,1.13Z"/><path class="cls-11" d="M58.46,12.46c.44.05.62-.55.16-.65-.47-.09-.78.58-.16.65Z"/><path class="cls-11" d="M24.7,4.43c1.2-.05.59-1.42,0-1.13-.59.29-.69,1.16,0,1.13Z"/><path class="cls-11" d="M26.07,3.3c.44.05.62-.55.16-.65-.47-.09-.78.58-.16.65Z"/><path class="cls-11" d="M25.71,9.62c.44.05.62-.55.16-.65-.47-.09-.78.58-.16.65Z"/></g><g class="cls-21"><path class="cls-12" d="M32.88,8.29c-.19-.29,1.82-.24,1.67,0-.14.24-1.46.32-1.67,0Z"/><path class="cls-12" d="M32.9,8.3c.23.3,1.42.23,1.64.01-.21-.16-1.45-.18-1.64-.01Z"/><path class="cls-12" d="M31.81,7.56c.09.14.97.17,1.16,0,.19-.17-1.36-.32-1.16,0Z"/><path class="cls-12" d="M32.92,7.59c-.22-.1-.96-.16-1.11-.02.11.13.86.15,1.11.02Z"/><path class="cls-12" d="M34.01,7.23c.11.17.79.16.86-.07.08-.23-1-.15-.86.07Z"/><path class="cls-12" d="M34.84,7.22c-.14-.09-.64-.06-.8.04.15.12.65.12.8-.04Z"/><g class="cls-8"><path class="cls-12" d="M26.06,6.28c-.09-.29.91-.24.84,0s-.73.32-.84,0Z"/><path class="cls-12" d="M26.07,6.29c.12.29.71.23.82.01-.1-.16-.72-.18-.82-.01Z"/></g><g class="cls-8"><path class="cls-12" d="M24.47,3.49c.04.14.44.16.52,0,.08-.16-.61-.31-.52,0Z"/><path class="cls-12" d="M24.97,3.52c-.1-.1-.43-.15-.5-.02.05.12.39.15.5.02Z"/></g><g class="cls-8"><path class="cls-12" d="M36.55,5.91c.04.14.44.16.52,0,.08-.16-.61-.31-.52,0Z"/><path class="cls-12" d="M37.06,5.94c-.1-.1-.43-.15-.5-.02.05.12.39.15.5.02Z"/></g><g class="cls-8"><path class="cls-12" d="M39.5,9.79c.04.14.44.16.52,0,.08-.16-.61-.31-.52,0Z"/><path class="cls-12" d="M40,9.82c-.1-.1-.43-.15-.5-.02.05.12.39.15.5.02Z"/></g><g class="cls-8"><path class="cls-12" d="M29.32,10.49c.04.14.44.16.52,0,.08-.16-.61-.31-.52,0Z"/><path class="cls-12" d="M29.82,10.52c-.1-.1-.43-.15-.5-.02.05.12.39.15.5.02Z"/></g><g class="cls-8"><path class="cls-12" d="M27.37,11.53c.04.14.44.16.52,0,.08-.16-.61-.31-.52,0Z"/><path class="cls-12" d="M27.87,11.56c-.1-.1-.43-.15-.5-.02.05.12.39.15.5.02Z"/></g><g class="cls-8"><path class="cls-12" d="M22.91,6.21c.04.14.44.16.52,0,.08-.16-.61-.31-.52,0Z"/><path class="cls-12" d="M23.42,6.24c-.1-.1-.43-.15-.5-.02.05.12.39.15.5.02Z"/></g><g class="cls-8"><path class="cls-12" d="M16.63,7.61c.04.14.44.16.52,0,.08-.16-.61-.31-.52,0Z"/><path class="cls-12" d="M17.13,7.64c-.1-.1-.43-.15-.5-.02.05.12.39.15.5.02Z"/></g><g class="cls-8"><path class="cls-12" d="M14.66,8.37c.04.14.44.16.52,0,.08-.16-.61-.31-.52,0Z"/><path class="cls-12" d="M15.17,8.4c-.1-.1-.43-.15-.5-.02.05.12.39.15.5.02Z"/></g><g class="cls-8"><path class="cls-12" d="M19.06,10.68c.04.14.44.16.52,0s-.61-.31-.52,0Z"/><path class="cls-12" d="M19.56,10.7c-.1-.1-.43-.15-.5-.02.05.12.39.15.5.02Z"/></g><g class="cls-8"><path class="cls-12" d="M25.19,4.13c.11.17.78.16.86-.07.08-.23-1-.15-.86.07Z"/><path class="cls-12" d="M26.02,4.12c-.14-.09-.64-.06-.8.04.15.12.65.12.8-.04Z"/></g><g class="cls-8"><path class="cls-12" d="M17.27,10.02c-.19-.29,1.82-.24,1.67,0s-1.46.32-1.67,0Z"/><path class="cls-12" d="M17.28,10.03c.23.3,1.42.23,1.64.01-.21-.16-1.45-.18-1.64-.01Z"/></g><g class="cls-8"><path class="cls-12" d="M15.37,6.37c.09.14.97.17,1.16,0,.19-.17-1.36-.32-1.16,0Z"/><path class="cls-12" d="M16.49,6.4c-.22-.1-.96-.16-1.11-.02.11.13.86.15,1.11.02Z"/></g><g class="cls-8"><path class="cls-12" d="M16.86,5.76c.11.17.79.16.86-.07.08-.23-1-.15-.86.07Z"/><path class="cls-12" d="M17.68,5.75c-.14-.09-.64-.06-.8.04.15.12.65.12.8-.04Z"/></g><g class="cls-8"><path class="cls-12" d="M24.34,7.52c-.12-.27,1.21-.23,1.11,0-.1.23-.97.31-1.11,0Z"/><path class="cls-12" d="M24.35,7.53c.15.28.95.22,1.09.01-.14-.15-.96-.17-1.09-.01Z"/></g><g class="cls-8"><path class="cls-12" d="M36.8,10.52c.09.14.97.17,1.16,0s-1.36-.32-1.16,0Z"/><path class="cls-12" d="M37.92,10.55c-.22-.1-.96-.16-1.11-.02.11.13.86.15,1.11.02Z"/></g><g class="cls-8"><path class="cls-12" d="M38.3,9.41c.11.17.78.16.86-.06.08-.23-1-.15-.86.06Z"/><path class="cls-12" d="M39.13,9.4c-.14-.09-.64-.06-.8.04.15.12.65.12.8-.04Z"/></g><g class="cls-8"><path class="cls-12" d="M26.31,8.08c-.19-.29,1.82-.24,1.67,0-.14.24-1.46.32-1.67,0Z"/><path class="cls-12" d="M26.33,8.09c.23.3,1.42.23,1.64.01-.21-.16-1.45-.18-1.64-.01Z"/></g><g class="cls-8"><path class="cls-12" d="M29.44,3.64c.09.14.97.17,1.16,0,.19-.17-1.36-.32-1.16,0Z"/><path class="cls-12" d="M30.56,3.67c-.22-.1-.96-.16-1.11-.02.11.13.86.15,1.11.02Z"/></g><g class="cls-8"><path class="cls-12" d="M30.95,4.29c.11.17.78.16.86-.07.08-.23-1-.15-.86.07Z"/><path class="cls-12" d="M31.78,4.28c-.14-.09-.64-.06-.8.04.15.12.65.12.8-.04Z"/></g><g class="cls-20"><path class="cls-12" d="M32.88,8.29c-.19-.29,1.82-.24,1.67,0-.14.24-1.46.32-1.67,0Z"/><path class="cls-12" d="M32.9,8.3c.23.3,1.42.23,1.64.01-.21-.16-1.45-.18-1.64-.01Z"/><path class="cls-12" d="M31.81,7.56c.09.14.97.17,1.16,0,.19-.17-1.36-.32-1.16,0Z"/><path class="cls-12" d="M32.92,7.59c-.22-.1-.96-.16-1.11-.02.11.13.86.15,1.11.02Z"/><path class="cls-12" d="M34.01,7.23c.11.17.79.16.86-.07.08-.23-1-.15-.86.07Z"/><path class="cls-12" d="M34.84,7.22c-.14-.09-.64-.06-.8.04.15.12.65.12.8-.04Z"/><g class="cls-8"><path class="cls-12" d="M26.06,6.28c-.09-.29.91-.24.84,0s-.73.32-.84,0Z"/><path class="cls-12" d="M26.07,6.29c.12.29.71.23.82.01-.1-.16-.72-.18-.82-.01Z"/></g><g class="cls-8"><path class="cls-12" d="M24.47,3.49c.04.14.44.16.52,0,.08-.16-.61-.31-.52,0Z"/><path class="cls-12" d="M24.97,3.52c-.1-.1-.43-.15-.5-.02.05.12.39.15.5.02Z"/></g><g class="cls-8"><path class="cls-12" d="M36.55,5.91c.04.14.44.16.52,0,.08-.16-.61-.31-.52,0Z"/><path class="cls-12" d="M37.06,5.94c-.1-.1-.43-.15-.5-.02.05.12.39.15.5.02Z"/></g><g class="cls-8"><path class="cls-12" d="M39.5,9.79c.04.14.44.16.52,0,.08-.16-.61-.31-.52,0Z"/><path class="cls-12" d="M40,9.82c-.1-.1-.43-.15-.5-.02.05.12.39.15.5.02Z"/></g><g class="cls-8"><path class="cls-12" d="M29.32,10.49c.04.14.44.16.52,0,.08-.16-.61-.31-.52,0Z"/><path class="cls-12" d="M29.82,10.52c-.1-.1-.43-.15-.5-.02.05.12.39.15.5.02Z"/></g><g class="cls-8"><path class="cls-12" d="M27.37,11.53c.04.14.44.16.52,0,.08-.16-.61-.31-.52,0Z"/><path class="cls-12" d="M27.87,11.56c-.1-.1-.43-.15-.5-.02.05.12.39.15.5.02Z"/></g><g class="cls-8"><path class="cls-12" d="M22.91,6.21c.04.14.44.16.52,0,.08-.16-.61-.31-.52,0Z"/><path class="cls-12" d="M23.42,6.24c-.1-.1-.43-.15-.5-.02.05.12.39.15.5.02Z"/></g><g class="cls-8"><path class="cls-12" d="M16.63,7.61c.04.14.44.16.52,0,.08-.16-.61-.31-.52,0Z"/><path class="cls-12" d="M17.13,7.64c-.1-.1-.43-.15-.5-.02.05.12.39.15.5.02Z"/></g><g class="cls-8"><path class="cls-12" d="M14.66,8.37c.04.14.44.16.52,0,.08-.16-.61-.31-.52,0Z"/><path class="cls-12" d="M15.17,8.4c-.1-.1-.43-.15-.5-.02.05.12.39.15.5.02Z"/></g><g class="cls-8"><path class="cls-12" d="M19.06,10.68c.04.14.44.16.52,0s-.61-.31-.52,0Z"/><path class="cls-12" d="M19.56,10.7c-.1-.1-.43-.15-.5-.02.05.12.39.15.5.02Z"/></g><g class="cls-8"><path class="cls-12" d="M25.19,4.13c.11.17.78.16.86-.07.08-.23-1-.15-.86.07Z"/><path class="cls-12" d="M26.02,4.12c-.14-.09-.64-.06-.8.04.15.12.65.12.8-.04Z"/></g><g class="cls-8"><path class="cls-12" d="M17.27,10.02c-.19-.29,1.82-.24,1.67,0s-1.46.32-1.67,0Z"/><path class="cls-12" d="M17.28,10.03c.23.3,1.42.23,1.64.01-.21-.16-1.45-.18-1.64-.01Z"/></g><g class="cls-8"><path class="cls-12" d="M15.37,6.37c.09.14.97.17,1.16,0,.19-.17-1.36-.32-1.16,0Z"/><path class="cls-12" d="M16.49,6.4c-.22-.1-.96-.16-1.11-.02.11.13.86.15,1.11.02Z"/></g><g class="cls-8"><path class="cls-12" d="M16.86,5.76c.11.17.79.16.86-.07.08-.23-1-.15-.86.07Z"/><path class="cls-12" d="M17.68,5.75c-.14-.09-.64-.06-.8.04.15.12.65.12.8-.04Z"/></g><g class="cls-8"><path class="cls-12" d="M24.34,7.52c-.12-.27,1.21-.23,1.11,0-.1.23-.97.31-1.11,0Z"/><path class="cls-12" d="M24.35,7.53c.15.28.95.22,1.09.01-.14-.15-.96-.17-1.09-.01Z"/></g><g class="cls-8"><path class="cls-12" d="M36.8,10.52c.09.14.97.17,1.16,0s-1.36-.32-1.16,0Z"/><path class="cls-12" d="M37.92,10.55c-.22-.1-.96-.16-1.11-.02.11.13.86.15,1.11.02Z"/></g><g class="cls-8"><path class="cls-12" d="M38.3,9.41c.11.17.78.16.86-.06.08-.23-1-.15-.86.06Z"/><path class="cls-12" d="M39.13,9.4c-.14-.09-.64-.06-.8.04.15.12.65.12.8-.04Z"/></g><g class="cls-8"><path class="cls-12" d="M26.31,8.08c-.19-.29,1.82-.24,1.67,0-.14.24-1.46.32-1.67,0Z"/><path class="cls-12" d="M26.33,8.09c.23.3,1.42.23,1.64.01-.21-.16-1.45-.18-1.64-.01Z"/></g><g class="cls-8"><path class="cls-12" d="M8.15,9.82c-.09-.29.91-.24.84,0s-.73.32-.84,0Z"/><path class="cls-12" d="M8.16,9.83c.12.29.71.23.82.01-.1-.16-.72-.18-.82-.01Z"/></g><g class="cls-8"><path class="cls-12" d="M6.56,7.04c.04.14.44.16.52,0s-.61-.31-.52,0Z"/><path class="cls-12" d="M7.06,7.07c-.1-.1-.43-.15-.5-.02.05.12.39.15.5.02Z"/></g><g class="cls-8"><path class="cls-12" d="M5,9.75c.04.14.44.16.52,0,.08-.16-.61-.31-.52,0Z"/><path class="cls-12" d="M5.51,9.78c-.1-.1-.43-.15-.5-.02.05.12.39.15.5.02Z"/></g><g class="cls-8"><path class="cls-12" d="M7.28,7.67c.11.17.79.16.86-.07.08-.23-1-.15-.86.07Z"/><path class="cls-12" d="M8.1,7.66c-.14-.09-.64-.06-.8.04.15.12.65.12.8-.04Z"/></g><g class="cls-8"><path class="cls-12" d="M6.43,11.06c-.12-.27,1.21-.23,1.11,0s-.97.31-1.11,0Z"/><path class="cls-12" d="M6.43,11.08c.15.28.95.22,1.09.01-.14-.15-.96-.17-1.09-.01Z"/></g><g class="cls-8"><path class="cls-12" d="M8.4,11.62c-.19-.29,1.82-.24,1.67,0s-1.46.32-1.67,0Z"/><path class="cls-12" d="M8.41,11.63c.23.3,1.42.23,1.64.01-.21-.16-1.45-.18-1.64-.01Z"/></g><g class="cls-8"><path class="cls-12" d="M8.15,9.82c-.09-.29.91-.24.84,0s-.73.32-.84,0Z"/><path class="cls-12" d="M8.16,9.83c.12.29.71.23.82.01-.1-.16-.72-.18-.82-.01Z"/></g><g class="cls-8"><path class="cls-12" d="M6.56,7.04c.04.14.44.16.52,0s-.61-.31-.52,0Z"/><path class="cls-12" d="M7.06,7.07c-.1-.1-.43-.15-.5-.02.05.12.39.15.5.02Z"/></g><g class="cls-8"><path class="cls-12" d="M5,9.75c.04.14.44.16.52,0,.08-.16-.61-.31-.52,0Z"/><path class="cls-12" d="M5.51,9.78c-.1-.1-.43-.15-.5-.02.05.12.39.15.5.02Z"/></g><g class="cls-8"><path class="cls-12" d="M7.28,7.67c.11.17.79.16.86-.07.08-.23-1-.15-.86.07Z"/><path class="cls-12" d="M8.1,7.66c-.14-.09-.64-.06-.8.04.15.12.65.12.8-.04Z"/></g><g class="cls-8"><path class="cls-12" d="M6.43,11.06c-.12-.27,1.21-.23,1.11,0s-.97.31-1.11,0Z"/><path class="cls-12" d="M6.43,11.08c.15.28.95.22,1.09.01-.14-.15-.96-.17-1.09-.01Z"/></g><g class="cls-8"><path class="cls-12" d="M8.4,11.62c-.19-.29,1.82-.24,1.67,0s-1.46.32-1.67,0Z"/><path class="cls-12" d="M8.41,11.63c.23.3,1.42.23,1.64.01-.21-.16-1.45-.18-1.64-.01Z"/></g><g class="cls-8"><path class="cls-12" d="M29.44,3.64c.09.14.97.17,1.16,0,.19-.17-1.36-.32-1.16,0Z"/><path class="cls-12" d="M30.56,3.67c-.22-.1-.96-.16-1.11-.02.11.13.86.15,1.11.02Z"/></g><g class="cls-8"><path class="cls-12" d="M30.95,4.29c.11.17.78.16.86-.07.08-.23-1-.15-.86.07Z"/><path class="cls-12" d="M31.78,4.28c-.14-.09-.64-.06-.8.04.15.12.65.12.8-.04Z"/></g></g><path class="cls-12" d="M50.9,13.23c-.19-.29,1.82-.24,1.67,0-.14.24-1.46.32-1.67,0Z"/><path class="cls-12" d="M50.91,13.25c.23.3,1.42.23,1.64.01-.21-.16-1.45-.18-1.64-.01Z"/><path class="cls-12" d="M49.82,12.5c.09.14.97.17,1.16,0,.19-.17-1.36-.32-1.16,0Z"/><path class="cls-12" d="M50.94,12.53c-.22-.1-.96-.16-1.11-.02.11.13.86.15,1.11.02Z"/><path class="cls-12" d="M52.02,12.17c.11.17.79.16.86-.07.08-.23-1-.15-.86.07Z"/><path class="cls-12" d="M52.85,12.16c-.14-.09-.64-.06-.8.04.15.12.65.12.8-.04Z"/><g class="cls-8"><path class="cls-12" d="M44.08,11.22c-.09-.29.91-.24.84,0s-.73.32-.84,0Z"/><path class="cls-12" d="M44.08,11.24c.12.29.71.23.82.01-.1-.16-.72-.18-.82-.01Z"/></g><g class="cls-8"><path class="cls-12" d="M42.48,8.44c.04.14.44.16.52,0,.08-.16-.61-.31-.52,0Z"/><path class="cls-12" d="M42.99,8.47c-.1-.1-.43-.15-.5-.02.05.12.39.15.5.02Z"/></g><g class="cls-8"><path class="cls-12" d="M54.57,10.86c.04.14.44.16.52,0,.08-.16-.61-.31-.52,0Z"/><path class="cls-12" d="M55.07,10.89c-.1-.1-.43-.15-.5-.02.05.12.39.15.5.02Z"/></g><g class="cls-8"><path class="cls-12" d="M57.52,14.73c.04.14.44.16.52,0,.08-.16-.61-.31-.52,0Z"/><path class="cls-12" d="M58.02,14.76c-.1-.1-.43-.15-.5-.02.05.12.39.15.5.02Z"/></g><g class="cls-8"><path class="cls-12" d="M47.33,15.43c.04.14.44.16.52,0,.08-.16-.61-.31-.52,0Z"/><path class="cls-12" d="M47.84,15.46c-.1-.1-.43-.15-.5-.02.05.12.39.15.5.02Z"/></g><g class="cls-8"><path class="cls-12" d="M45.38,16.47c.04.14.44.16.52,0,.08-.16-.61-.31-.52,0Z"/><path class="cls-12" d="M45.89,16.5c-.1-.1-.43-.15-.5-.02.05.12.39.15.5.02Z"/></g><g class="cls-8"><path class="cls-12" d="M40.93,11.15c.04.14.44.16.52,0,.08-.16-.61-.31-.52,0Z"/><path class="cls-12" d="M41.43,11.18c-.1-.1-.43-.15-.5-.02.05.12.39.15.5.02Z"/></g><g class="cls-8"><path class="cls-12" d="M34.64,12.56c.04.14.44.16.52,0,.08-.16-.61-.31-.52,0Z"/><path class="cls-12" d="M35.14,12.59c-.1-.1-.43-.15-.5-.02.05.12.39.15.5.02Z"/></g><g class="cls-8"><path class="cls-12" d="M32.68,13.32c.04.14.44.16.52,0,.08-.16-.61-.31-.52,0Z"/><path class="cls-12" d="M33.18,13.35c-.1-.1-.43-.15-.5-.02.05.12.39.15.5.02Z"/></g><g class="cls-8"><path class="cls-12" d="M37.08,15.62c.04.14.44.16.52,0,.08-.16-.61-.31-.52,0Z"/><path class="cls-12" d="M37.58,15.65c-.1-.1-.43-.15-.5-.02.05.12.39.15.5.02Z"/></g><g class="cls-8"><path class="cls-12" d="M43.2,9.08c.11.17.78.16.86-.06.08-.23-1-.15-.86.06Z"/><path class="cls-12" d="M44.03,9.07c-.14-.09-.64-.06-.8.04.15.12.65.12.8-.04Z"/></g><g class="cls-8"><path class="cls-12" d="M35.29,14.97c-.19-.29,1.82-.24,1.67,0s-1.46.32-1.67,0Z"/><path class="cls-12" d="M35.3,14.98c.23.3,1.42.23,1.64.01-.21-.16-1.45-.18-1.64-.01Z"/></g><g class="cls-8"><path class="cls-12" d="M33.39,11.31c.09.14.97.17,1.16,0,.19-.17-1.36-.32-1.16,0Z"/><path class="cls-12" d="M34.5,11.34c-.22-.1-.96-.16-1.11-.02.11.13.86.15,1.11.02Z"/></g><g class="cls-8"><path class="cls-12" d="M34.87,10.71c.11.17.79.16.86-.07.08-.23-1-.15-.86.07Z"/><path class="cls-12" d="M35.7,10.7c-.14-.09-.64-.06-.8.04.15.12.65.12.8-.04Z"/></g><g class="cls-8"><path class="cls-12" d="M42.35,12.47c-.12-.27,1.21-.23,1.11,0-.1.23-.97.31-1.11,0Z"/><path class="cls-12" d="M42.36,12.48c.15.28.95.22,1.09.01-.14-.15-.96-.17-1.09-.01Z"/></g><g class="cls-8"><path class="cls-12" d="M54.82,15.47c.09.14.97.17,1.16,0,.19-.17-1.36-.32-1.16,0Z"/><path class="cls-12" d="M55.93,15.5c-.22-.1-.96-.16-1.11-.02.11.13.86.15,1.11.02Z"/></g><g class="cls-8"><path class="cls-12" d="M56.32,14.36c.11.17.78.16.86-.07.08-.23-1-.15-.86.07Z"/><path class="cls-12" d="M57.15,14.35c-.14-.09-.64-.06-.8.04.15.12.65.12.8-.04Z"/></g><g class="cls-8"><path class="cls-12" d="M44.33,13.03c-.19-.29,1.82-.24,1.67,0-.14.24-1.46.32-1.67,0Z"/><path class="cls-12" d="M44.34,13.04c.23.3,1.42.23,1.64.01-.21-.16-1.45-.18-1.64-.01Z"/></g><g class="cls-8"><path class="cls-12" d="M47.46,8.59c.09.14.97.17,1.16,0,.19-.17-1.36-.32-1.16,0Z"/><path class="cls-12" d="M48.57,8.62c-.22-.1-.96-.16-1.11-.02.11.13.86.15,1.11.02Z"/></g><g class="cls-8"><path class="cls-12" d="M48.96,9.24c.11.17.79.16.86-.07.08-.23-1-.15-.86.07Z"/><path class="cls-12" d="M49.79,9.23c-.14-.09-.64-.06-.8.04.15.12.65.12.8-.04Z"/></g><g class="cls-20"><path class="cls-12" d="M50.9,13.23c-.19-.29,1.82-.24,1.67,0-.14.24-1.46.32-1.67,0Z"/><path class="cls-12" d="M50.91,13.25c.23.3,1.42.23,1.64.01-.21-.16-1.45-.18-1.64-.01Z"/><path class="cls-12" d="M49.82,12.5c.09.14.97.17,1.16,0,.19-.17-1.36-.32-1.16,0Z"/><path class="cls-12" d="M50.94,12.53c-.22-.1-.96-.16-1.11-.02.11.13.86.15,1.11.02Z"/><path class="cls-12" d="M52.02,12.17c.11.17.79.16.86-.07.08-.23-1-.15-.86.07Z"/><path class="cls-12" d="M52.85,12.16c-.14-.09-.64-.06-.8.04.15.12.65.12.8-.04Z"/><g class="cls-8"><path class="cls-12" d="M44.08,11.22c-.09-.29.91-.24.84,0s-.73.32-.84,0Z"/><path class="cls-12" d="M44.08,11.24c.12.29.71.23.82.01-.1-.16-.72-.18-.82-.01Z"/></g><g class="cls-8"><path class="cls-12" d="M42.48,8.44c.04.14.44.16.52,0,.08-.16-.61-.31-.52,0Z"/><path class="cls-12" d="M42.99,8.47c-.1-.1-.43-.15-.5-.02.05.12.39.15.5.02Z"/></g><g class="cls-8"><path class="cls-12" d="M54.57,10.86c.04.14.44.16.52,0,.08-.16-.61-.31-.52,0Z"/><path class="cls-12" d="M55.07,10.89c-.1-.1-.43-.15-.5-.02.05.12.39.15.5.02Z"/></g><g class="cls-8"><path class="cls-12" d="M57.52,14.73c.04.14.44.16.52,0,.08-.16-.61-.31-.52,0Z"/><path class="cls-12" d="M58.02,14.76c-.1-.1-.43-.15-.5-.02.05.12.39.15.5.02Z"/></g><g class="cls-8"><path class="cls-12" d="M47.33,15.43c.04.14.44.16.52,0,.08-.16-.61-.31-.52,0Z"/><path class="cls-12" d="M47.84,15.46c-.1-.1-.43-.15-.5-.02.05.12.39.15.5.02Z"/></g><g class="cls-8"><path class="cls-12" d="M45.38,16.47c.04.14.44.16.52,0,.08-.16-.61-.31-.52,0Z"/><path class="cls-12" d="M45.89,16.5c-.1-.1-.43-.15-.5-.02.05.12.39.15.5.02Z"/></g><g class="cls-8"><path class="cls-12" d="M40.93,11.15c.04.14.44.16.52,0,.08-.16-.61-.31-.52,0Z"/><path class="cls-12" d="M41.43,11.18c-.1-.1-.43-.15-.5-.02.05.12.39.15.5.02Z"/></g><g class="cls-8"><path class="cls-12" d="M34.64,12.56c.04.14.44.16.52,0,.08-.16-.61-.31-.52,0Z"/><path class="cls-12" d="M35.14,12.59c-.1-.1-.43-.15-.5-.02.05.12.39.15.5.02Z"/></g><g class="cls-8"><path class="cls-12" d="M32.68,13.32c.04.14.44.16.52,0,.08-.16-.61-.31-.52,0Z"/><path class="cls-12" d="M33.18,13.35c-.1-.1-.43-.15-.5-.02.05.12.39.15.5.02Z"/></g><g class="cls-8"><path class="cls-12" d="M37.08,15.62c.04.14.44.16.52,0,.08-.16-.61-.31-.52,0Z"/><path class="cls-12" d="M37.58,15.65c-.1-.1-.43-.15-.5-.02.05.12.39.15.5.02Z"/></g><g class="cls-8"><path class="cls-12" d="M43.2,9.08c.11.17.78.16.86-.06.08-.23-1-.15-.86.06Z"/><path class="cls-12" d="M44.03,9.07c-.14-.09-.64-.06-.8.04.15.12.65.12.8-.04Z"/></g><g class="cls-8"><path class="cls-12" d="M35.29,14.97c-.19-.29,1.82-.24,1.67,0s-1.46.32-1.67,0Z"/><path class="cls-12" d="M35.3,14.98c.23.3,1.42.23,1.64.01-.21-.16-1.45-.18-1.64-.01Z"/></g><g class="cls-8"><path class="cls-12" d="M33.39,11.31c.09.14.97.17,1.16,0,.19-.17-1.36-.32-1.16,0Z"/><path class="cls-12" d="M34.5,11.34c-.22-.1-.96-.16-1.11-.02.11.13.86.15,1.11.02Z"/></g><g class="cls-8"><path class="cls-12" d="M34.87,10.71c.11.17.79.16.86-.07.08-.23-1-.15-.86.07Z"/><path class="cls-12" d="M35.7,10.7c-.14-.09-.64-.06-.8.04.15.12.65.12.8-.04Z"/></g><g class="cls-8"><path class="cls-12" d="M42.35,12.47c-.12-.27,1.21-.23,1.11,0-.1.23-.97.31-1.11,0Z"/><path class="cls-12" d="M42.36,12.48c.15.28.95.22,1.09.01-.14-.15-.96-.17-1.09-.01Z"/></g><g class="cls-8"><path class="cls-12" d="M54.82,15.47c.09.14.97.17,1.16,0,.19-.17-1.36-.32-1.16,0Z"/><path class="cls-12" d="M55.93,15.5c-.22-.1-.96-.16-1.11-.02.11.13.86.15,1.11.02Z"/></g><g class="cls-8"><path class="cls-12" d="M56.32,14.36c.11.17.78.16.86-.07.08-.23-1-.15-.86.07Z"/><path class="cls-12" d="M57.15,14.35c-.14-.09-.64-.06-.8.04.15.12.65.12.8-.04Z"/></g><g class="cls-8"><path class="cls-12" d="M44.33,13.03c-.19-.29,1.82-.24,1.67,0-.14.24-1.46.32-1.67,0Z"/><path class="cls-12" d="M44.34,13.04c.23.3,1.42.23,1.64.01-.21-.16-1.45-.18-1.64-.01Z"/></g><g class="cls-8"><path class="cls-12" d="M47.46,8.59c.09.14.97.17,1.16,0,.19-.17-1.36-.32-1.16,0Z"/><path class="cls-12" d="M48.57,8.62c-.22-.1-.96-.16-1.11-.02.11.13.86.15,1.11.02Z"/></g><g class="cls-8"><path class="cls-12" d="M48.96,9.24c.11.17.79.16.86-.07.08-.23-1-.15-.86.07Z"/><path class="cls-12" d="M49.79,9.23c-.14-.09-.64-.06-.8.04.15.12.65.12.8-.04Z"/></g></g><path class="cls-12" d="M52.1,5.41c-.19-.29,1.82-.24,1.67,0-.14.24-1.46.32-1.67,0Z"/><path class="cls-12" d="M52.11,5.42c.23.3,1.42.23,1.64.01-.21-.16-1.45-.18-1.64-.01Z"/><path class="cls-12" d="M51.02,4.68c.09.14.97.17,1.16,0,.19-.17-1.36-.32-1.16,0Z"/><path class="cls-12" d="M52.13,4.71c-.22-.1-.96-.16-1.11-.02.11.13.86.15,1.11.02Z"/><path class="cls-12" d="M53.22,4.35c.11.17.79.16.86-.07.08-.23-1-.15-.86.07Z"/><path class="cls-12" d="M54.05,4.34c-.14-.09-.64-.06-.8.04.15.12.65.12.8-.04Z"/><g class="cls-8"><path class="cls-12" d="M45.27,3.4c-.09-.29.91-.24.84,0-.07.24-.73.32-.84,0Z"/><path class="cls-12" d="M45.28,3.41c.12.29.71.23.82.01-.1-.16-.72-.18-.82-.01Z"/></g><g class="cls-8"><path class="cls-12" d="M43.8,1.17c.04.14.44.16.52,0,.08-.16-.61-.31-.52,0Z"/><path class="cls-12" d="M44.3,1.2c-.1-.1-.43-.15-.5-.02.05.12.39.15.5.02Z"/></g><g class="cls-8"><path class="cls-12" d="M55.77,3.03c.04.14.44.16.52,0,.08-.16-.61-.31-.52,0Z"/><path class="cls-12" d="M56.27,3.06c-.1-.1-.43-.15-.5-.02.05.12.39.15.5.02Z"/></g><g class="cls-8"><path class="cls-12" d="M58.71,6.91c.04.14.44.16.52,0,.08-.16-.61-.31-.52,0Z"/><path class="cls-12" d="M59.22,6.94c-.1-.1-.43-.15-.5-.02.05.12.39.15.5.02Z"/></g><g class="cls-8"><path class="cls-12" d="M48.53,7.61c.04.14.44.16.52,0,.08-.16-.61-.31-.52,0Z"/><path class="cls-12" d="M49.04,7.64c-.1-.1-.43-.15-.5-.02.05.12.39.15.5.02Z"/></g><g class="cls-8"><path class="cls-12" d="M46.58,8.65c.04.14.44.16.52,0,.08-.16-.61-.31-.52,0Z"/><path class="cls-12" d="M47.09,8.68c-.1-.1-.43-.15-.5-.02.05.12.39.15.5.02Z"/></g><g class="cls-8"><path class="cls-12" d="M42.13,3.33c.04.14.44.16.52,0,.08-.16-.61-.31-.52,0Z"/><path class="cls-12" d="M42.63,3.36c-.1-.1-.43-.15-.5-.02.05.12.39.15.5.02Z"/></g><g class="cls-8"><path class="cls-12" d="M35.84,4.73c.04.14.44.16.52,0,.08-.16-.61-.31-.52,0Z"/><path class="cls-12" d="M36.34,4.76c-.1-.1-.43-.15-.5-.02.05.12.39.15.5.02Z"/></g><g class="cls-8"><path class="cls-12" d="M33.88,5.5c.04.14.44.16.52,0,.08-.16-.61-.31-.52,0Z"/><path class="cls-12" d="M34.38,5.53c-.1-.1-.43-.15-.5-.02.05.12.39.15.5.02Z"/></g><g class="cls-8"><path class="cls-12" d="M38.27,7.8c.04.14.44.16.52,0,.08-.16-.61-.31-.52,0Z"/><path class="cls-12" d="M38.78,7.83c-.1-.1-.43-.15-.5-.02.05.12.39.15.5.02Z"/></g><g class="cls-8"><path class="cls-12" d="M44.52,1.8c.11.17.79.16.86-.07.08-.23-1-.15-.86.07Z"/><path class="cls-12" d="M45.35,1.79c-.14-.09-.64-.06-.8.04.15.12.65.12.8-.04Z"/></g><g class="cls-8"><path class="cls-12" d="M36.48,7.14c-.19-.29,1.82-.24,1.67,0-.14.24-1.46.32-1.67,0Z"/><path class="cls-12" d="M36.5,7.16c.23.3,1.42.23,1.64.01-.21-.16-1.45-.18-1.64-.01Z"/></g><g class="cls-8"><path class="cls-12" d="M34.58,3.49c.09.14.97.17,1.16,0,.19-.17-1.36-.32-1.16,0Z"/><path class="cls-12" d="M35.7,3.52c-.22-.1-.96-.16-1.11-.02.11.13.86.15,1.11.02Z"/></g><g class="cls-8"><path class="cls-12" d="M36.07,2.88c.11.17.79.16.86-.07.08-.23-1-.15-.86.07Z"/><path class="cls-12" d="M36.9,2.87c-.14-.09-.64-.06-.8.04.15.12.65.12.8-.04Z"/></g><g class="cls-8"><path class="cls-12" d="M43.55,4.65c-.12-.27,1.21-.23,1.11,0-.1.23-.97.31-1.11,0Z"/><path class="cls-12" d="M43.56,4.66c.15.28.95.22,1.09.01-.14-.15-.96-.17-1.09-.01Z"/></g><g class="cls-8"><path class="cls-12" d="M56.02,7.65c.09.14.97.17,1.16,0,.19-.17-1.36-.32-1.16,0Z"/><path class="cls-12" d="M57.13,7.68c-.22-.1-.96-.16-1.11-.02.11.13.86.15,1.11.02Z"/></g><g class="cls-8"><path class="cls-12" d="M57.51,6.54c.11.17.79.16.86-.07.08-.23-1-.15-.86.07Z"/><path class="cls-12" d="M58.34,6.52c-.14-.09-.64-.06-.8.04.15.12.65.12.8-.04Z"/></g><g class="cls-8"><path class="cls-12" d="M45.53,5.2c-.19-.29,1.82-.24,1.67,0-.14.24-1.46.32-1.67,0Z"/><path class="cls-12" d="M45.54,5.22c.23.3,1.42.23,1.64.01-.21-.16-1.45-.18-1.64-.01Z"/></g><g class="cls-8"><path class="cls-12" d="M48.78,1.31c.09.14.97.17,1.16,0,.19-.17-1.36-.32-1.16,0Z"/><path class="cls-12" d="M49.89,1.34c-.22-.1-.96-.16-1.11-.02.11.13.86.15,1.11.02Z"/></g><g class="cls-8"><path class="cls-12" d="M50.28,1.96c.11.17.79.16.86-.07.08-.23-1-.15-.86.07Z"/><path class="cls-12" d="M51.11,1.95c-.14-.09-.64-.06-.8.04.15.12.65.12.8-.04Z"/></g><g class="cls-20"><path class="cls-12" d="M52.1,5.41c-.19-.29,1.82-.24,1.67,0-.14.24-1.46.32-1.67,0Z"/><path class="cls-12" d="M52.11,5.42c.23.3,1.42.23,1.64.01-.21-.16-1.45-.18-1.64-.01Z"/><path class="cls-12" d="M51.02,4.68c.09.14.97.17,1.16,0,.19-.17-1.36-.32-1.16,0Z"/><path class="cls-12" d="M52.13,4.71c-.22-.1-.96-.16-1.11-.02.11.13.86.15,1.11.02Z"/><path class="cls-12" d="M53.22,4.35c.11.17.79.16.86-.07.08-.23-1-.15-.86.07Z"/><path class="cls-12" d="M54.05,4.34c-.14-.09-.64-.06-.8.04.15.12.65.12.8-.04Z"/><g class="cls-8"><path class="cls-12" d="M45.27,3.4c-.09-.29.91-.24.84,0-.07.24-.73.32-.84,0Z"/><path class="cls-12" d="M45.28,3.41c.12.29.71.23.82.01-.1-.16-.72-.18-.82-.01Z"/></g><g class="cls-8"><path class="cls-12" d="M43.8,1.17c.04.14.44.16.52,0,.08-.16-.61-.31-.52,0Z"/><path class="cls-12" d="M44.3,1.2c-.1-.1-.43-.15-.5-.02.05.12.39.15.5.02Z"/></g><g class="cls-8"><path class="cls-12" d="M55.77,3.03c.04.14.44.16.52,0,.08-.16-.61-.31-.52,0Z"/><path class="cls-12" d="M56.27,3.06c-.1-.1-.43-.15-.5-.02.05.12.39.15.5.02Z"/></g><g class="cls-8"><path class="cls-12" d="M58.71,6.91c.04.14.44.16.52,0,.08-.16-.61-.31-.52,0Z"/><path class="cls-12" d="M59.22,6.94c-.1-.1-.43-.15-.5-.02.05.12.39.15.5.02Z"/></g><g class="cls-8"><path class="cls-12" d="M48.53,7.61c.04.14.44.16.52,0,.08-.16-.61-.31-.52,0Z"/><path class="cls-12" d="M49.04,7.64c-.1-.1-.43-.15-.5-.02.05.12.39.15.5.02Z"/></g><g class="cls-8"><path class="cls-12" d="M46.58,8.65c.04.14.44.16.52,0,.08-.16-.61-.31-.52,0Z"/><path class="cls-12" d="M47.09,8.68c-.1-.1-.43-.15-.5-.02.05.12.39.15.5.02Z"/></g><g class="cls-8"><path class="cls-12" d="M42.13,3.33c.04.14.44.16.52,0,.08-.16-.61-.31-.52,0Z"/><path class="cls-12" d="M42.63,3.36c-.1-.1-.43-.15-.5-.02.05.12.39.15.5.02Z"/></g><g class="cls-8"><path class="cls-12" d="M35.84,4.73c.04.14.44.16.52,0,.08-.16-.61-.31-.52,0Z"/><path class="cls-12" d="M36.34,4.76c-.1-.1-.43-.15-.5-.02.05.12.39.15.5.02Z"/></g><g class="cls-8"><path class="cls-12" d="M33.88,5.5c.04.14.44.16.52,0,.08-.16-.61-.31-.52,0Z"/><path class="cls-12" d="M34.38,5.53c-.1-.1-.43-.15-.5-.02.05.12.39.15.5.02Z"/></g><g class="cls-8"><path class="cls-12" d="M38.27,7.8c.04.14.44.16.52,0,.08-.16-.61-.31-.52,0Z"/><path class="cls-12" d="M38.78,7.83c-.1-.1-.43-.15-.5-.02.05.12.39.15.5.02Z"/></g><g class="cls-8"><path class="cls-12" d="M44.52,1.8c.11.17.79.16.86-.07.08-.23-1-.15-.86.07Z"/><path class="cls-12" d="M45.35,1.79c-.14-.09-.64-.06-.8.04.15.12.65.12.8-.04Z"/></g><g class="cls-8"><path class="cls-12" d="M36.48,7.14c-.19-.29,1.82-.24,1.67,0-.14.24-1.46.32-1.67,0Z"/><path class="cls-12" d="M36.5,7.16c.23.3,1.42.23,1.64.01-.21-.16-1.45-.18-1.64-.01Z"/></g><g class="cls-8"><path class="cls-12" d="M34.58,3.49c.09.14.97.17,1.16,0,.19-.17-1.36-.32-1.16,0Z"/><path class="cls-12" d="M35.7,3.52c-.22-.1-.96-.16-1.11-.02.11.13.86.15,1.11.02Z"/></g><g class="cls-8"><path class="cls-12" d="M36.07,2.88c.11.17.79.16.86-.07.08-.23-1-.15-.86.07Z"/><path class="cls-12" d="M36.9,2.87c-.14-.09-.64-.06-.8.04.15.12.65.12.8-.04Z"/></g><g class="cls-8"><path class="cls-12" d="M43.55,4.65c-.12-.27,1.21-.23,1.11,0-.1.23-.97.31-1.11,0Z"/><path class="cls-12" d="M43.56,4.66c.15.28.95.22,1.09.01-.14-.15-.96-.17-1.09-.01Z"/></g><g class="cls-8"><path class="cls-12" d="M56.02,7.65c.09.14.97.17,1.16,0,.19-.17-1.36-.32-1.16,0Z"/><path class="cls-12" d="M57.13,7.68c-.22-.1-.96-.16-1.11-.02.11.13.86.15,1.11.02Z"/></g><g class="cls-8"><path class="cls-12" d="M57.51,6.54c.11.17.79.16.86-.07.08-.23-1-.15-.86.07Z"/><path class="cls-12" d="M58.34,6.52c-.14-.09-.64-.06-.8.04.15.12.65.12.8-.04Z"/></g><g class="cls-8"><path class="cls-12" d="M45.53,5.2c-.19-.29,1.82-.24,1.67,0-.14.24-1.46.32-1.67,0Z"/><path class="cls-12" d="M45.54,5.22c.23.3,1.42.23,1.64.01-.21-.16-1.45-.18-1.64-.01Z"/></g><g class="cls-8"><path class="cls-12" d="M48.78,1.31c.09.14.97.17,1.16,0,.19-.17-1.36-.32-1.16,0Z"/><path class="cls-12" d="M49.89,1.34c-.22-.1-.96-.16-1.11-.02.11.13.86.15,1.11.02Z"/></g><g class="cls-8"><path class="cls-12" d="M50.28,1.96c.11.17.79.16.86-.07.08-.23-1-.15-.86.07Z"/><path class="cls-12" d="M51.11,1.95c-.14-.09-.64-.06-.8.04.15.12.65.12.8-.04Z"/></g></g><path class="cls-12" d="M66.63,10.27c-.19-.29,1.82-.24,1.67,0s-1.46.32-1.67,0Z"/><path class="cls-12" d="M66.65,10.29c.23.3,1.42.23,1.64.01-.21-.16-1.45-.18-1.64-.01Z"/><path class="cls-12" d="M65.56,9.54c.09.14.97.17,1.16,0,.19-.17-1.36-.32-1.16,0Z"/><path class="cls-12" d="M66.67,9.57c-.22-.1-.96-.16-1.11-.02.11.13.86.15,1.11.02Z"/><path class="cls-12" d="M67.76,9.22c.11.17.78.16.86-.07.08-.23-1-.15-.86.07Z"/><path class="cls-12" d="M68.59,9.2c-.14-.09-.64-.06-.8.04.15.12.65.12.8-.04Z"/><g class="cls-8"><path class="cls-12" d="M62.58,8.83c-.09-.29.91-.24.84,0-.07.24-.73.32-.84,0Z"/><path class="cls-12" d="M62.59,8.84c.12.29.71.23.82.01-.1-.16-.72-.18-.82-.01Z"/></g><g class="cls-8"><path class="cls-12" d="M60.99,6.05c.04.14.44.16.52,0,.08-.16-.61-.31-.52,0Z"/><path class="cls-12" d="M61.49,6.07c-.1-.1-.43-.15-.5-.02.05.12.39.15.5.02Z"/></g><g class="cls-8"><path class="cls-12" d="M70.3,7.9c.04.14.44.16.52,0,.08-.16-.61-.31-.52,0Z"/><path class="cls-12" d="M70.81,7.93c-.1-.1-.43-.15-.5-.02.05.12.39.15.5.02Z"/></g><g class="cls-8"><path class="cls-12" d="M73.25,11.78c.04.14.44.16.52,0,.08-.16-.61-.31-.52,0Z"/><path class="cls-12" d="M73.76,11.8c-.1-.1-.43-.15-.5-.02.05.12.39.15.5.02Z"/></g><g class="cls-8"><path class="cls-12" d="M65.84,13.04c.04.14.44.16.52,0,.08-.16-.61-.31-.52,0Z"/><path class="cls-12" d="M66.34,13.07c-.1-.1-.43-.15-.5-.02.05.12.39.15.5.02Z"/></g><g class="cls-8"><path class="cls-12" d="M63.89,14.08c.04.14.44.16.52,0,.08-.16-.61-.31-.52,0Z"/><path class="cls-12" d="M64.39,14.11c-.1-.1-.43-.15-.5-.02.05.12.39.15.5.02Z"/></g><g class="cls-8"><path class="cls-12" d="M59.44,8.76c.04.14.44.16.52,0,.08-.16-.61-.31-.52,0Z"/><path class="cls-12" d="M59.94,8.79c-.1-.1-.43-.15-.5-.02.05.12.39.15.5.02Z"/></g><g class="cls-8"><path class="cls-12" d="M53.15,10.16c.04.14.44.16.52,0s-.61-.31-.52,0Z"/><path class="cls-12" d="M53.65,10.19c-.1-.1-.43-.15-.5-.02.05.12.39.15.5.02Z"/></g><g class="cls-8"><path class="cls-12" d="M51.18,10.92c.04.14.44.16.52,0,.08-.16-.61-.31-.52,0Z"/><path class="cls-12" d="M51.69,10.95c-.1-.1-.43-.15-.5-.02.05.12.39.15.5.02Z"/></g><g class="cls-8"><path class="cls-12" d="M55.58,13.23c.04.14.44.16.52,0,.08-.16-.61-.31-.52,0Z"/><path class="cls-12" d="M56.08,13.25c-.1-.1-.43-.15-.5-.02.05.12.39.15.5.02Z"/></g><g class="cls-8"><path class="cls-12" d="M61.71,6.68c.11.17.78.16.86-.07.08-.23-1-.15-.86.07Z"/><path class="cls-12" d="M62.54,6.67c-.14-.09-.64-.06-.8.04.15.12.65.12.8-.04Z"/></g><g class="cls-8"><path class="cls-12" d="M53.79,12.57c-.19-.29,1.82-.24,1.67,0s-1.46.32-1.67,0Z"/><path class="cls-12" d="M53.8,12.58c.23.3,1.42.23,1.64.01-.21-.16-1.45-.18-1.64-.01Z"/></g><g class="cls-8"><path class="cls-12" d="M51.89,8.92c.09.14.97.17,1.16,0,.19-.17-1.36-.32-1.16,0Z"/><path class="cls-12" d="M53.01,8.95c-.22-.1-.96-.16-1.11-.02.11.13.86.15,1.11.02Z"/></g><g class="cls-8"><path class="cls-12" d="M53.38,8.31c.11.17.79.16.86-.07.08-.23-1-.15-.86.07Z"/><path class="cls-12" d="M54.2,8.3c-.14-.09-.64-.06-.8.04.15.12.65.12.8-.04Z"/></g><g class="cls-8"><path class="cls-12" d="M60.86,10.07c-.12-.27,1.21-.23,1.11,0s-.97.31-1.11,0Z"/><path class="cls-12" d="M60.87,10.09c.15.28.95.22,1.09.01-.14-.15-.96-.17-1.09-.01Z"/></g><g class="cls-8"><path class="cls-12" d="M70.56,12.51c.09.14.97.17,1.16,0,.19-.17-1.36-.32-1.16,0Z"/><path class="cls-12" d="M71.67,12.54c-.22-.1-.96-.16-1.11-.02.11.13.86.15,1.11.02Z"/></g><g class="cls-8"><path class="cls-12" d="M72.05,11.4c.11.17.78.16.86-.07.08-.23-1-.15-.86.07Z"/><path class="cls-12" d="M72.88,11.39c-.14-.09-.64-.06-.8.04.15.12.65.12.8-.04Z"/></g><g class="cls-8"><path class="cls-12" d="M62.83,10.63c-.19-.29,1.82-.24,1.67,0s-1.46.32-1.67,0Z"/><path class="cls-12" d="M62.85,10.64c.23.3,1.42.23,1.64.01-.21-.16-1.45-.18-1.64-.01Z"/></g><g class="cls-8"><path class="cls-12" d="M65.97,6.19c.09.14.97.17,1.16,0,.19-.17-1.36-.32-1.16,0Z"/><path class="cls-12" d="M67.08,6.22c-.22-.1-.96-.16-1.11-.02.11.13.86.15,1.11.02Z"/></g><g class="cls-8"><path class="cls-12" d="M67.47,6.84c.11.17.78.16.86-.07.08-.23-1-.15-.86.07Z"/><path class="cls-12" d="M68.3,6.83c-.14-.09-.64-.06-.8.04.15.12.65.12.8-.04Z"/></g><g class="cls-20"><path class="cls-12" d="M66.63,10.27c-.19-.29,1.82-.24,1.67,0s-1.46.32-1.67,0Z"/><path class="cls-12" d="M66.65,10.29c.23.3,1.42.23,1.64.01-.21-.16-1.45-.18-1.64-.01Z"/><path class="cls-12" d="M65.56,9.54c.09.14.97.17,1.16,0,.19-.17-1.36-.32-1.16,0Z"/><path class="cls-12" d="M66.67,9.57c-.22-.1-.96-.16-1.11-.02.11.13.86.15,1.11.02Z"/><path class="cls-12" d="M67.76,9.22c.11.17.78.16.86-.07.08-.23-1-.15-.86.07Z"/><path class="cls-12" d="M68.59,9.2c-.14-.09-.64-.06-.8.04.15.12.65.12.8-.04Z"/><g class="cls-8"><path class="cls-12" d="M62.58,8.83c-.09-.29.91-.24.84,0-.07.24-.73.32-.84,0Z"/><path class="cls-12" d="M62.59,8.84c.12.29.71.23.82.01-.1-.16-.72-.18-.82-.01Z"/></g><g class="cls-8"><path class="cls-12" d="M60.99,6.05c.04.14.44.16.52,0,.08-.16-.61-.31-.52,0Z"/><path class="cls-12" d="M61.49,6.07c-.1-.1-.43-.15-.5-.02.05.12.39.15.5.02Z"/></g><g class="cls-8"><path class="cls-12" d="M70.3,7.9c.04.14.44.16.52,0,.08-.16-.61-.31-.52,0Z"/><path class="cls-12" d="M70.81,7.93c-.1-.1-.43-.15-.5-.02.05.12.39.15.5.02Z"/></g><g class="cls-8"><path class="cls-12" d="M73.25,11.78c.04.14.44.16.52,0,.08-.16-.61-.31-.52,0Z"/><path class="cls-12" d="M73.76,11.8c-.1-.1-.43-.15-.5-.02.05.12.39.15.5.02Z"/></g><g class="cls-8"><path class="cls-12" d="M65.84,13.04c.04.14.44.16.52,0,.08-.16-.61-.31-.52,0Z"/><path class="cls-12" d="M66.34,13.07c-.1-.1-.43-.15-.5-.02.05.12.39.15.5.02Z"/></g><g class="cls-8"><path class="cls-12" d="M63.89,14.08c.04.14.44.16.52,0,.08-.16-.61-.31-.52,0Z"/><path class="cls-12" d="M64.39,14.11c-.1-.1-.43-.15-.5-.02.05.12.39.15.5.02Z"/></g><g class="cls-8"><path class="cls-12" d="M59.44,8.76c.04.14.44.16.52,0,.08-.16-.61-.31-.52,0Z"/><path class="cls-12" d="M59.94,8.79c-.1-.1-.43-.15-.5-.02.05.12.39.15.5.02Z"/></g><g class="cls-8"><path class="cls-12" d="M53.15,10.16c.04.14.44.16.52,0s-.61-.31-.52,0Z"/><path class="cls-12" d="M53.65,10.19c-.1-.1-.43-.15-.5-.02.05.12.39.15.5.02Z"/></g><g class="cls-8"><path class="cls-12" d="M51.18,10.92c.04.14.44.16.52,0,.08-.16-.61-.31-.52,0Z"/><path class="cls-12" d="M51.69,10.95c-.1-.1-.43-.15-.5-.02.05.12.39.15.5.02Z"/></g><g class="cls-8"><path class="cls-12" d="M55.58,13.23c.04.14.44.16.52,0,.08-.16-.61-.31-.52,0Z"/><path class="cls-12" d="M56.08,13.25c-.1-.1-.43-.15-.5-.02.05.12.39.15.5.02Z"/></g><g class="cls-8"><path class="cls-12" d="M61.71,6.68c.11.17.78.16.86-.07.08-.23-1-.15-.86.07Z"/><path class="cls-12" d="M62.54,6.67c-.14-.09-.64-.06-.8.04.15.12.65.12.8-.04Z"/></g><g class="cls-8"><path class="cls-12" d="M53.79,12.57c-.19-.29,1.82-.24,1.67,0s-1.46.32-1.67,0Z"/><path class="cls-12" d="M53.8,12.58c.23.3,1.42.23,1.64.01-.21-.16-1.45-.18-1.64-.01Z"/></g><g class="cls-8"><path class="cls-12" d="M51.89,8.92c.09.14.97.17,1.16,0,.19-.17-1.36-.32-1.16,0Z"/><path class="cls-12" d="M53.01,8.95c-.22-.1-.96-.16-1.11-.02.11.13.86.15,1.11.02Z"/></g><g class="cls-8"><path class="cls-12" d="M53.38,8.31c.11.17.79.16.86-.07.08-.23-1-.15-.86.07Z"/><path class="cls-12" d="M54.2,8.3c-.14-.09-.64-.06-.8.04.15.12.65.12.8-.04Z"/></g><g class="cls-8"><path class="cls-12" d="M60.86,10.07c-.12-.27,1.21-.23,1.11,0s-.97.31-1.11,0Z"/><path class="cls-12" d="M60.87,10.09c.15.28.95.22,1.09.01-.14-.15-.96-.17-1.09-.01Z"/></g><g class="cls-8"><path class="cls-12" d="M70.56,12.51c.09.14.97.17,1.16,0,.19-.17-1.36-.32-1.16,0Z"/><path class="cls-12" d="M71.67,12.54c-.22-.1-.96-.16-1.11-.02.11.13.86.15,1.11.02Z"/></g><g class="cls-8"><path class="cls-12" d="M72.05,11.4c.11.17.78.16.86-.07.08-.23-1-.15-.86.07Z"/><path class="cls-12" d="M72.88,11.39c-.14-.09-.64-.06-.8.04.15.12.65.12.8-.04Z"/></g><g class="cls-8"><path class="cls-12" d="M62.83,10.63c-.19-.29,1.82-.24,1.67,0s-1.46.32-1.67,0Z"/><path class="cls-12" d="M62.85,10.64c.23.3,1.42.23,1.64.01-.21-.16-1.45-.18-1.64-.01Z"/></g><g class="cls-8"><path class="cls-12" d="M65.97,6.19c.09.14.97.17,1.16,0,.19-.17-1.36-.32-1.16,0Z"/><path class="cls-12" d="M67.08,6.22c-.22-.1-.96-.16-1.11-.02.11.13.86.15,1.11.02Z"/></g><g class="cls-8"><path class="cls-12" d="M67.47,6.84c.11.17.78.16.86-.07.08-.23-1-.15-.86.07Z"/><path class="cls-12" d="M68.3,6.83c-.14-.09-.64-.06-.8.04.15.12.65.12.8-.04Z"/></g><path class="cls-12" d="M75.21,11.96c.09.14.97.17,1.16,0,.19-.17-1.36-.32-1.16,0Z"/><path class="cls-12" d="M76.33,11.99c-.22-.1-.96-.16-1.11-.02.11.13.86.15,1.11.02Z"/><path class="cls-12" d="M77.41,11.63c.11.17.79.16.86-.07.08-.23-1-.15-.86.07Z"/><path class="cls-12" d="M78.24,11.62c-.14-.09-.64-.06-.8.04.15.12.65.12.8-.04Z"/><g class="cls-8"><path class="cls-12" d="M79.96,10.31c.04.14.44.16.52,0,.08-.16-.61-.31-.52,0Z"/><path class="cls-12" d="M80.46,10.34c-.1-.1-.43-.15-.5-.02.05.12.39.15.5.02Z"/></g><g class="cls-8"><path class="cls-12" d="M75.62,8.6c.09.14.97.17,1.16,0,.19-.17-1.36-.32-1.16,0Z"/><path class="cls-12" d="M76.73,8.63c-.22-.1-.96-.16-1.11-.02.11.13.86.15,1.11.02Z"/></g><g class="cls-8"><path class="cls-12" d="M77.12,9.25c.11.17.79.16.86-.07.08-.23-1-.15-.86.07Z"/><path class="cls-12" d="M77.95,9.24c-.14-.09-.64-.06-.8.04.15.12.65.12.8-.04Z"/></g><path class="cls-12" d="M75.21,11.96c.09.14.97.17,1.16,0,.19-.17-1.36-.32-1.16,0Z"/><path class="cls-12" d="M76.33,11.99c-.22-.1-.96-.16-1.11-.02.11.13.86.15,1.11.02Z"/><path class="cls-12" d="M77.41,11.63c.11.17.79.16.86-.07.08-.23-1-.15-.86.07Z"/><path class="cls-12" d="M78.24,11.62c-.14-.09-.64-.06-.8.04.15.12.65.12.8-.04Z"/><g class="cls-8"><path class="cls-12" d="M79.96,10.31c.04.14.44.16.52,0,.08-.16-.61-.31-.52,0Z"/><path class="cls-12" d="M80.46,10.34c-.1-.1-.43-.15-.5-.02.05.12.39.15.5.02Z"/></g><g class="cls-8"><path class="cls-12" d="M75.62,8.6c.09.14.97.17,1.16,0,.19-.17-1.36-.32-1.16,0Z"/><path class="cls-12" d="M76.73,8.63c-.22-.1-.96-.16-1.11-.02.11.13.86.15,1.11.02Z"/></g><g class="cls-8"><path class="cls-12" d="M77.12,9.25c.11.17.79.16.86-.07.08-.23-1-.15-.86.07Z"/><path class="cls-12" d="M77.95,9.24c-.14-.09-.64-.06-.8.04.15.12.65.12.8-.04Z"/></g></g><path class="cls-12" d="M30.12,17.55c-.19-.29,1.82-.24,1.67,0-.14.24-1.46.32-1.67,0Z"/><path class="cls-12" d="M30.14,17.57c.23.3,1.42.23,1.64.01-.21-.16-1.45-.18-1.64-.01Z"/><path class="cls-12" d="M29.05,16.82c.09.14.97.17,1.16,0,.19-.17-1.36-.32-1.16,0Z"/><path class="cls-12" d="M30.16,16.85c-.22-.1-.96-.16-1.11-.02.11.13.86.15,1.11.02Z"/><path class="cls-12" d="M31.25,16.5c.11.17.79.16.86-.07s-1-.15-.86.07Z"/><path class="cls-12" d="M32.08,16.48c-.14-.09-.64-.06-.8.04.15.12.65.12.8-.04Z"/><g class="cls-8"><path class="cls-12" d="M25.5,14.46c-.09-.29.91-.24.84,0-.07.24-.73.32-.84,0Z"/><path class="cls-12" d="M25.51,14.48c.12.29.71.23.82.01-.1-.16-.72-.18-.82-.01Z"/></g><g class="cls-8"><path class="cls-12" d="M21.71,12.76c.04.14.44.16.52,0,.08-.16-.61-.31-.52,0Z"/><path class="cls-12" d="M22.21,12.79c-.1-.1-.43-.15-.5-.02.05.12.39.15.5.02Z"/></g><g class="cls-8"><path class="cls-12" d="M33.79,15.18c.04.14.44.16.52,0,.08-.16-.61-.31-.52,0Z"/><path class="cls-12" d="M34.3,15.21c-.1-.1-.43-.15-.5-.02.05.12.39.15.5.02Z"/></g><g class="cls-8"><path class="cls-12" d="M62.38,14.94c.04.14.44.16.52,0,.08-.16-.61-.31-.52,0Z"/><path class="cls-12" d="M62.88,14.97c-.1-.1-.43-.15-.5-.02.05.12.39.15.5.02Z"/></g><g class="cls-8"><path class="cls-12" d="M42.35,14.97c.04.14.44.16.52,0,.08-.16-.61-.31-.52,0Z"/><path class="cls-12" d="M42.86,15c-.1-.1-.43-.15-.5-.02.05.12.39.15.5.02Z"/></g><g class="cls-8"><path class="cls-12" d="M40.4,16.01c.04.14.44.16.52,0,.08-.16-.61-.31-.52,0Z"/><path class="cls-12" d="M40.91,16.04c-.1-.1-.43-.15-.5-.02.05.12.39.15.5.02Z"/></g><g class="cls-8"><path class="cls-12" d="M22.36,14.39c.04.14.44.16.52,0,.08-.16-.61-.31-.52,0Z"/><path class="cls-12" d="M22.86,14.42c-.1-.1-.43-.15-.5-.02.05.12.39.15.5.02Z"/></g><g class="cls-8"><path class="cls-12" d="M12.99,9.61c.04.14.44.16.52,0,.08-.16-.61-.31-.52,0Z"/><path class="cls-12" d="M13.49,9.64c-.1-.1-.43-.15-.5-.02.05.12.39.15.5.02Z"/></g><g class="cls-8"><path class="cls-12" d="M11.03,10.38c.04.14.44.16.52,0,.08-.16-.61-.31-.52,0Z"/><path class="cls-12" d="M11.53,10.41c-.1-.1-.43-.15-.5-.02.05.12.39.15.5.02Z"/></g><g class="cls-8"><path class="cls-12" d="M15.42,12.68c.04.14.44.16.52,0,.08-.16-.61-.31-.52,0Z"/><path class="cls-12" d="M15.93,12.71c-.1-.1-.43-.15-.5-.02.05.12.39.15.5.02Z"/></g><g class="cls-8"><path class="cls-12" d="M22.43,13.4c.11.17.79.16.86-.07.08-.23-1-.15-.86.07Z"/><path class="cls-12" d="M23.26,13.39c-.14-.09-.64-.06-.8.04.15.12.65.12.8-.04Z"/></g><g class="cls-8"><path class="cls-12" d="M13.63,12.02c-.19-.29,1.82-.24,1.67,0s-1.46.32-1.67,0Z"/><path class="cls-12" d="M13.65,12.03c.23.3,1.42.23,1.64.01-.21-.16-1.45-.18-1.64-.01Z"/></g><g class="cls-8"><path class="cls-12" d="M11.73,8.37c.09.14.97.17,1.16,0,.19-.17-1.36-.32-1.16,0Z"/><path class="cls-12" d="M12.85,8.4c-.22-.1-.96-.16-1.11-.02.11.13.86.15,1.11.02Z"/></g><g class="cls-8"><path class="cls-12" d="M13.22,7.76c.11.17.79.16.86-.07.08-.23-1-.15-.86.07Z"/><path class="cls-12" d="M14.05,7.75c-.14-.09-.64-.06-.8.04.15.12.65.12.8-.04Z"/></g><g class="cls-8"><path class="cls-12" d="M23.78,15.71c-.12-.27,1.21-.23,1.11,0-.1.23-.97.31-1.11,0Z"/><path class="cls-12" d="M23.79,15.72c.15.28.95.22,1.09.01-.14-.15-.96-.17-1.09-.01Z"/></g><g class="cls-8"><path class="cls-12" d="M59.68,15.68c.09.14.97.17,1.16,0,.19-.17-1.36-.32-1.16,0Z"/><path class="cls-12" d="M60.79,15.71c-.22-.1-.96-.16-1.11-.02.11.13.86.15,1.11.02Z"/></g><g class="cls-8"><path class="cls-12" d="M61.18,14.57c.11.17.79.16.86-.06.08-.23-1-.15-.86.06Z"/><path class="cls-12" d="M62.01,14.56c-.14-.09-.64-.06-.8.04.15.12.65.12.8-.04Z"/></g><g class="cls-8"><path class="cls-12" d="M25.75,16.27c-.19-.29,1.82-.24,1.67,0s-1.46.32-1.67,0Z"/><path class="cls-12" d="M25.77,16.28c.23.3,1.42.23,1.64.01-.21-.16-1.45-.18-1.64-.01Z"/></g><g class="cls-8"><path class="cls-12" d="M26.69,12.91c.09.14.97.17,1.16,0,.19-.17-1.36-.32-1.16,0Z"/><path class="cls-12" d="M27.8,12.94c-.22-.1-.96-.16-1.11-.02.11.13.86.15,1.11.02Z"/></g><g class="cls-8"><path class="cls-12" d="M28.19,13.56c.11.17.79.16.86-.06.08-.23-1-.15-.86.06Z"/><path class="cls-12" d="M29.02,13.55c-.14-.09-.64-.06-.8.04.15.12.65.12.8-.04Z"/></g><g class="cls-20"><path class="cls-12" d="M30.12,17.55c-.19-.29,1.82-.24,1.67,0-.14.24-1.46.32-1.67,0Z"/><path class="cls-12" d="M30.14,17.57c.23.3,1.42.23,1.64.01-.21-.16-1.45-.18-1.64-.01Z"/><path class="cls-12" d="M29.05,16.82c.09.14.97.17,1.16,0,.19-.17-1.36-.32-1.16,0Z"/><path class="cls-12" d="M30.16,16.85c-.22-.1-.96-.16-1.11-.02.11.13.86.15,1.11.02Z"/><path class="cls-12" d="M31.25,16.5c.11.17.79.16.86-.07s-1-.15-.86.07Z"/><path class="cls-12" d="M32.08,16.48c-.14-.09-.64-.06-.8.04.15.12.65.12.8-.04Z"/><g class="cls-8"><path class="cls-12" d="M25.5,14.46c-.09-.29.91-.24.84,0-.07.24-.73.32-.84,0Z"/><path class="cls-12" d="M25.51,14.48c.12.29.71.23.82.01-.1-.16-.72-.18-.82-.01Z"/></g><g class="cls-8"><path class="cls-12" d="M21.71,12.76c.04.14.44.16.52,0,.08-.16-.61-.31-.52,0Z"/><path class="cls-12" d="M22.21,12.79c-.1-.1-.43-.15-.5-.02.05.12.39.15.5.02Z"/></g><g class="cls-8"><path class="cls-12" d="M33.79,15.18c.04.14.44.16.52,0,.08-.16-.61-.31-.52,0Z"/><path class="cls-12" d="M34.3,15.21c-.1-.1-.43-.15-.5-.02.05.12.39.15.5.02Z"/></g><g class="cls-8"><path class="cls-12" d="M62.38,14.94c.04.14.44.16.52,0,.08-.16-.61-.31-.52,0Z"/><path class="cls-12" d="M62.88,14.97c-.1-.1-.43-.15-.5-.02.05.12.39.15.5.02Z"/></g><g class="cls-8"><path class="cls-12" d="M42.35,14.97c.04.14.44.16.52,0,.08-.16-.61-.31-.52,0Z"/><path class="cls-12" d="M42.86,15c-.1-.1-.43-.15-.5-.02.05.12.39.15.5.02Z"/></g><g class="cls-8"><path class="cls-12" d="M40.4,16.01c.04.14.44.16.52,0,.08-.16-.61-.31-.52,0Z"/><path class="cls-12" d="M40.91,16.04c-.1-.1-.43-.15-.5-.02.05.12.39.15.5.02Z"/></g><g class="cls-8"><path class="cls-12" d="M22.36,14.39c.04.14.44.16.52,0,.08-.16-.61-.31-.52,0Z"/><path class="cls-12" d="M22.86,14.42c-.1-.1-.43-.15-.5-.02.05.12.39.15.5.02Z"/></g><g class="cls-8"><path class="cls-12" d="M12.99,9.61c.04.14.44.16.52,0,.08-.16-.61-.31-.52,0Z"/><path class="cls-12" d="M13.49,9.64c-.1-.1-.43-.15-.5-.02.05.12.39.15.5.02Z"/></g><g class="cls-8"><path class="cls-12" d="M11.03,10.38c.04.14.44.16.52,0,.08-.16-.61-.31-.52,0Z"/><path class="cls-12" d="M11.53,10.41c-.1-.1-.43-.15-.5-.02.05.12.39.15.5.02Z"/></g><g class="cls-8"><path class="cls-12" d="M15.42,12.68c.04.14.44.16.52,0,.08-.16-.61-.31-.52,0Z"/><path class="cls-12" d="M15.93,12.71c-.1-.1-.43-.15-.5-.02.05.12.39.15.5.02Z"/></g><g class="cls-8"><path class="cls-12" d="M22.43,13.4c.11.17.79.16.86-.07.08-.23-1-.15-.86.07Z"/><path class="cls-12" d="M23.26,13.39c-.14-.09-.64-.06-.8.04.15.12.65.12.8-.04Z"/></g><g class="cls-8"><path class="cls-12" d="M13.63,12.02c-.19-.29,1.82-.24,1.67,0s-1.46.32-1.67,0Z"/><path class="cls-12" d="M13.65,12.03c.23.3,1.42.23,1.64.01-.21-.16-1.45-.18-1.64-.01Z"/></g><g class="cls-8"><path class="cls-12" d="M11.73,8.37c.09.14.97.17,1.16,0,.19-.17-1.36-.32-1.16,0Z"/><path class="cls-12" d="M12.85,8.4c-.22-.1-.96-.16-1.11-.02.11.13.86.15,1.11.02Z"/></g><g class="cls-8"><path class="cls-12" d="M13.22,7.76c.11.17.79.16.86-.07.08-.23-1-.15-.86.07Z"/><path class="cls-12" d="M14.05,7.75c-.14-.09-.64-.06-.8.04.15.12.65.12.8-.04Z"/></g><g class="cls-8"><path class="cls-12" d="M23.78,15.71c-.12-.27,1.21-.23,1.11,0-.1.23-.97.31-1.11,0Z"/><path class="cls-12" d="M23.79,15.72c.15.28.95.22,1.09.01-.14-.15-.96-.17-1.09-.01Z"/></g><g class="cls-8"><path class="cls-12" d="M59.68,15.68c.09.14.97.17,1.16,0,.19-.17-1.36-.32-1.16,0Z"/><path class="cls-12" d="M60.79,15.71c-.22-.1-.96-.16-1.11-.02.11.13.86.15,1.11.02Z"/></g><g class="cls-8"><path class="cls-12" d="M61.18,14.57c.11.17.79.16.86-.06.08-.23-1-.15-.86.06Z"/><path class="cls-12" d="M62.01,14.56c-.14-.09-.64-.06-.8.04.15.12.65.12.8-.04Z"/></g><g class="cls-8"><path class="cls-12" d="M25.75,16.27c-.19-.29,1.82-.24,1.67,0s-1.46.32-1.67,0Z"/><path class="cls-12" d="M25.77,16.28c.23.3,1.42.23,1.64.01-.21-.16-1.45-.18-1.64-.01Z"/></g><g class="cls-8"><path class="cls-12" d="M26.69,12.91c.09.14.97.17,1.16,0,.19-.17-1.36-.32-1.16,0Z"/><path class="cls-12" d="M27.8,12.94c-.22-.1-.96-.16-1.11-.02.11.13.86.15,1.11.02Z"/></g><g class="cls-8"><path class="cls-12" d="M28.19,13.56c.11.17.79.16.86-.06.08-.23-1-.15-.86.06Z"/><path class="cls-12" d="M29.02,13.55c-.14-.09-.64-.06-.8.04.15.12.65.12.8-.04Z"/></g></g></g><path class="cls-18" d="M81.01,9.31c-.65-.42-1.41-.86-2.27-1.38-4.05-2.48-10.84-5.12-20.76-6.45-1.44-.19-2.96-.36-4.53-.49-2.87-.24-5.94-.38-9.27-.38-1.09,0-2.16.01-3.22.03,2.76.12,5.98.23,9.76.34,32.08.93,21.45,18.22-7.98,18.35,23.74,0,33.96-4.36,38.33-7.48.88-.63.85-1.95-.06-2.54Z"/><g class="cls-22"><path class="cls-9" d="M42.69,19.64c.94-.77,1.79.89,2.81.3,0,0,1.15.68,1.36.04,0,0,2.37.5,5.25.69.05,0-39.53-18.15-39.53-18.15-.1.03-.2.06-.31.08-1.19.29-2.83.61-4.26,1.1l34.5,16.06c.06-.04.12-.06.19-.12Z"/><path class="cls-5" d="M78.64,14.36c.59-.06,1.12-.21,1.58-.42L52.48,1.22c-.89-.13-1.86-.26-2.93-.38-1.99-.21-4-.34-5.96-.42l31.48,14.65c.37-.56,1.8-.55,3.57-.72Z"/><path class="cls-3" d="M45.49,19.94s1.15.68,1.36.04c0,0,.95.2,2.37.39L11.06,2.87c-.98.22-2.07.48-3.06.82l34.5,16.06c.06-.04.12-.06.19-.12.94-.77,1.79.89,2.81.3Z"/><path class="cls-4" d="M78.64,14.36s.1-.02.14-.02L49.31.82c-1.91-.2-3.83-.32-5.72-.39l31.48,14.65c.37-.56,1.8-.55,3.57-.72Z"/><path class="cls-2" d="M63.66,18.36c.91-.32,1.65-.53,2.28-.63,1.71-.57,2.85-.75,3.43-.22.43.39.61.38.77.29L32.48.53c-3.43.18-5.67.42-5.67.42-.2-.55-1.22-.89-2.16-.95-.05.04-.11.09-.16.13l39.16,18.23Z"/><path class="cls-6" d="M63.66,18.36c.92-.33,1.68-.54,2.31-.64.37-.12.71-.23,1.03-.31L30.44.65c-2.25.15-3.63.3-3.63.3-.2-.55-1.22-.89-2.16-.95-.05.04-.11.09-.16.13l39.16,18.23Z"/></g></g></g></g></svg>