<?xml version="1.0" encoding="UTF-8"?><svg xmlns="http://www.w3.org/2000/svg" xmlns:xlink="http://www.w3.org/1999/xlink" viewBox="0 0 94.69 31.69"><defs><style>.cls-1{fill:url(#linear-gradient-2);}.cls-1,.cls-2{opacity:.55;}.cls-1,.cls-2,.cls-3,.cls-4,.cls-5{stroke:#000;stroke-miterlimit:10;}.cls-1,.cls-2,.cls-3,.cls-5{mix-blend-mode:screen;}.cls-2{fill:url(#linear-gradient-3);}.cls-3{fill:url(#linear-gradient);}.cls-6{isolation:isolate;}.cls-4{fill:url(#_ÂÁ_Ï_ÌÌ_È_ËÂÌÚ_5);}.cls-5{fill:#fff;opacity:.9;}.cls-7{fill:url(#_ÂÁ_Ï_ÌÌ_È_ËÂÌÚ_1888);mix-blend-mode:multiply;opacity:.44;}</style><linearGradient id="_ÂÁ_Ï_ÌÌ_È_ËÂÌÚ_5" x1="42.44" y1="38.35" x2="49.87" y2="4" gradientUnits="userSpaceOnUse"><stop offset="0" stop-color="#ff4f00"/><stop offset=".06" stop-color="#ff5900"/><stop offset=".51" stop-color="#ff9f00"/><stop offset=".84" stop-color="#ffca00"/><stop offset="1" stop-color="#ffdb00"/></linearGradient><linearGradient id="_ÂÁ_Ï_ÌÌ_È_ËÂÌÚ_1888" x1="40.54" y1="-10.88" x2="53.85" y2="45.97" gradientUnits="userSpaceOnUse"><stop offset="0" stop-color="#fff"/><stop offset=".07" stop-color="#ffefe9"/><stop offset=".33" stop-color="#ffb797"/><stop offset=".57" stop-color="#ff8a56"/><stop offset=".76" stop-color="#ff6a27"/><stop offset=".91" stop-color="#ff560a"/><stop offset="1" stop-color="#ff4f00"/></linearGradient><linearGradient id="linear-gradient" x1="10.86" y1="13.12" x2="92.19" y2="13.12" gradientUnits="userSpaceOnUse"><stop offset="0" stop-color="#000"/><stop offset=".1" stop-color="#050400"/><stop offset=".23" stop-color="#141100"/><stop offset=".36" stop-color="#2c2600"/><stop offset=".5" stop-color="#4f4300"/><stop offset=".65" stop-color="#7b6900"/><stop offset=".81" stop-color="#b19800"/><stop offset=".97" stop-color="#f0ce00"/><stop offset="1" stop-color="#ffdb00"/></linearGradient><linearGradient id="linear-gradient-2" x1="42.47" y1="25.29" x2="60.74" y2="25.29" xlink:href="#linear-gradient"/><linearGradient id="linear-gradient-3" x1="78.5" y1="16.89" x2="92.74" y2="16.89" xlink:href="#linear-gradient"/></defs><g class="cls-6"><g id="Layer_2"><g id="_ÎÓÈ_2"><path class="cls-4" d="M40.99,30.84c-.72.58-1.76.44-2.01-.46-.39-1.38-1.11-3-2.46-3.96-2.72-1.96-22.38-13.28-26.04-14.21-2.66-.68-6.57.84-9.07,2.44-.69.44-1.18-.21-.76-.91.75-1.25,1.76-2.91,4.04-4.43,5.28-3.49,6.04-1.19,11.4-4.09,5.36-2.89,6.21-2.38,10.13-3.49,3.91-1.11,17.79-2.13,31.15,0,13.36,2.13,29.7,3.4,31.49,7.32,1.58,3.46,5.76,5.13,5.29,8.24-.07.47-.67.65-1.01.31-.81-.83-2.74-1.67-7.26-.29-7.23,2.21-21.02,7.85-30.89,8.79-6.9.65-8.17.06-14,4.74Z"/><path class="cls-7" d="M71.21,21.76c-13.84,4.18-21.83.51-26.04,3.51-4.21,3-5.04,5.96-6.26,1.66s-6.89-6.51-13.85-8.81c-6.96-2.3-5.94-3.45-11.43-6.77-5.49-3.32-11.62,2.17-11.17.7.45-1.47,3.06-4.21,9.51-4.72,6.45-.51,2.17-.51,7.6-2.49,5.43-1.98,12.88-3.83,24.13-3.83,4.61,0,9.37.3,14.12.79-.15-.02-.3-.05-.44-.07C44.02-.39,30.15.64,26.23,1.74c-3.91,1.11-4.77.6-10.13,3.49-5.36,2.89-6.13.6-11.4,4.09-2.29,1.51-3.29,3.18-4.04,4.43-.42.7.07,1.35.76.91,2.5-1.6,6.41-3.12,9.07-2.44,3.66.94,23.32,12.26,26.04,14.21,1.35.97,2.07,2.58,2.46,3.96.25.89,1.3,1.04,2.01.46,5.67-4.68,7.1-4.08,14-4.74,9.87-.94,23.66-6.57,30.89-8.79,4.52-1.38,6.45-.54,7.26.29-5.25-5.18-8.1-.02-21.94,4.16Z"/><path class="cls-3" d="M10.86,6.98c3.44-.89,14.69,7.61,18.27,10.25,3.57,2.64,10.98,7.4,33.19,1.28,22.21-6.13,27.5-7.09,29.88-5.29-1.17-1.21-2.55-2.47-3.32-4.16-.15-.32-.4-.62-.73-.91,1.87,1.82-22.31,11.68-41.31,11.29-19.01-.38-32.73-12.53-29.81-14.69-.29.15-.59.31-.91.48-2.39,1.29-3.87,1.55-5.24,1.75Z"/><path class="cls-1" d="M49.57,23.1c-3.51-.32-5.2,1.72-7.1,4.4.71-.65,1.58-1.44,2.69-2.23,3.01-2.14,7.96-.89,15.58-1.52-5.18.12-9.49-.5-11.17-.65Z"/><path class="cls-2" d="M92.74,17.22c-2.61-2.91-3.98-4.61-14.24,1.92,7.56-3.14,10.3-5.48,14.24-1.92Z"/><path class="cls-5" d="M52.44,19.21c-.33-.69,3.37-.52,3-.13-.38.4-2.56,1.05-3,.13Z"/><path class="cls-5" d="M38.86,18.96c-.74-.22-.27-1.43.12-1.43.39,0,.62,1.65-.12,1.43Z"/><path class="cls-5" d="M40,18.95c-.36-.2-.39-.7-.22-.95.16-.25,2.7,2.34.22.95Z"/></g></g></g></svg>