<?xml version="1.0" encoding="UTF-8"?><svg id="Layer_2" xmlns="http://www.w3.org/2000/svg" xmlns:xlink="http://www.w3.org/1999/xlink" viewBox="0 0 82.6 35.91"><defs><style>.cls-1{fill:url(#_횂횁_횕_횑횑_횊_횏횂횑횣_5);stroke:#000;stroke-miterlimit:10;}</style><linearGradient id="_횂횁_횕_횑횑_횊_횏횂횑횣_5" x1="40.3" y1="34.57" x2="42.04" y2="-.36" gradientUnits="userSpaceOnUse"><stop offset="0" stop-color="#ff4f00"/><stop offset=".06" stop-color="#ff5900"/><stop offset=".51" stop-color="#ff9f00"/><stop offset=".84" stop-color="#ffca00"/><stop offset="1" stop-color="#ffdb00"/></linearGradient></defs><g id="_횓횙횊_2"><path class="cls-1" d="M4.11,9.28c1.33-1.91,1.55-6.38,8.11-5.79,6.55.6,8.6,2.13,15.4-.43,6.81-2.55,8.68-3.98,19.23-.5s16.09-3.43,23.83,2.32c7.74,5.75,6.81,5.75,7.74,7.11.94,1.36,5.11.31,3.15,5.77-1.96,5.46-.85,7.59-4.26,7.85-3.4.26-3.15.51-5.96,6.21-2.81,5.7-7.13,3.32-9.61,1.45-2.48-1.87-6.65-6.64-11.29-5.62-4.64,1.02-6.43.6-8.17-.72-1.74-1.32-3.36-.72-4.21.26-.85.98-1.45.3-2.04-.47-.6-.77-3.23-1.45-4.51.13-1.28,1.57,1.83,7.28-1.49,7.28s-1.36-4.34-1.06-6.13c.3-1.79-.72-1.74-3.45.34-2.72,2.09-8.64,4.81-12.77.38-4.13-4.43-7.79-12.34-9.53-12.68-1.74-.34-2.89-1.23-2.72-2.64s1.79-1.53,3.6-4.13Z"/></g></svg>