<?xml version="1.0" encoding="UTF-8"?><svg xmlns="http://www.w3.org/2000/svg" xmlns:xlink="http://www.w3.org/1999/xlink" viewBox="0 0 74.41 20.11"><defs><style>.cls-1{fill:#ffe2c9;}.cls-1,.cls-2,.cls-3,.cls-4,.cls-5,.cls-6,.cls-7,.cls-8,.cls-9,.cls-10,.cls-11,.cls-12,.cls-13,.cls-14,.cls-15,.cls-16,.cls-17,.cls-18,.cls-19,.cls-20,.cls-21,.cls-22,.cls-23,.cls-24,.cls-25{stroke:#000;stroke-miterlimit:10;stroke-width:.25px;}.cls-2{fill:url(#_횂횁_횕_횑횑_횊_횏횂횑횣_384-5);}.cls-2,.cls-3,.cls-4,.cls-5,.cls-6,.cls-7,.cls-20,.cls-21,.cls-22{mix-blend-mode:multiply;opacity:.54;}.cls-3{fill:url(#_횂횁_횕_횑횑_횊_횏횂횑횣_384-3);}.cls-4{fill:url(#_횂횁_횕_횑횑_횊_횏횂횑횣_384-2);}.cls-5{fill:url(#_횂횁_횕_횑횑_횊_횏횂횑횣_384-7);}.cls-6{fill:url(#_횂횁_횕_횑횑_횊_횏횂횑횣_384-6);}.cls-7{fill:url(#_횂횁_횕_횑횑_횊_횏횂횑횣_384-4);}.cls-8{fill:url(#_횂횁_횕_횑횑_횊_횏횂횑횣_400-10);}.cls-8,.cls-9,.cls-10,.cls-11,.cls-12,.cls-13,.cls-14,.cls-15,.cls-16,.cls-23{mix-blend-mode:screen;}.cls-26{isolation:isolate;}.cls-9{fill:url(#_횂횁_횕_횑횑_횊_횏횂횑횣_400-4);}.cls-10{fill:url(#_횂횁_횕_횑횑_횊_횏횂횑횣_400-2);}.cls-11{fill:url(#_횂횁_횕_횑횑_횊_횏횂횑횣_400-3);}.cls-12{fill:url(#_횂횁_횕_횑횑_횊_횏횂횑횣_400-9);}.cls-13{fill:url(#_횂횁_횕_횑횑_횊_횏횂횑횣_400-5);}.cls-14{fill:url(#_횂횁_횕_횑횑_횊_횏횂횑횣_400-8);}.cls-15{fill:url(#_횂횁_횕_횑횑_횊_횏횂횑횣_400-7);}.cls-16{fill:url(#_횂횁_횕_횑횑_횊_횏횂횑횣_400-6);}.cls-17{fill:url(#_횂횁_횕_횑횑_횊_횏횂횑횣_375-4);}.cls-18{fill:url(#_횂횁_횕_횑횑_횊_횏횂횑횣_375-2);}.cls-19{fill:url(#_횂횁_횕_횑횑_횊_횏횂횑횣_375-3);}.cls-20{fill:url(#_횂횁_횕_횑횑_횊_횏횂횑횣_401);}.cls-21{fill:url(#_횂횁_횕_횑횑_횊_횏횂횑횣_384);}.cls-22{fill:url(#_횂횁_횕_횑횑_횊_횏횂횑횣_389);}.cls-23{fill:url(#_횂횁_횕_횑횑_횊_횏횂횑횣_400);}.cls-24{fill:url(#_횂횁_횕_횑횑_횊_횏횂횑횣_375);}.cls-25{fill:url(#_횂횁_횕_횑횑_횊_횏횂횑횣_423);}</style><linearGradient id="_횂횁_횕_횑횑_횊_횏횂횑횣_375" x1="39.73" y1=".12" x2="39.73" y2="19.99" gradientUnits="userSpaceOnUse"><stop offset="0" stop-color="#bd0000"/><stop offset=".31" stop-color="#b50000"/><stop offset=".77" stop-color="#9f0000"/><stop offset="1" stop-color="#930000"/></linearGradient><linearGradient id="_횂횁_횕_횑횑_횊_횏횂횑횣_375-2" x1="4.99" y1="11.94" x2="1.92" y2="15.01" xlink:href="#_횂횁_횕_횑횑_횊_횏횂횑횣_375"/><linearGradient id="_횂횁_횕_횑횑_횊_횏횂횑횣_375-3" x1="3.31" y1="8.82" x2="2.06" y2="10.07" xlink:href="#_횂횁_횕_횑횑_횊_횏횂횑횣_375"/><linearGradient id="_횂횁_횕_횑횑_횊_횏횂횑횣_375-4" x1="55.89" y1="9.31" x2="55.09" y2="10.05" xlink:href="#_횂횁_횕_횑횑_횊_횏횂횑횣_375"/><linearGradient id="_횂횁_횕_횑횑_횊_횏횂횑횣_423" x1="57.53" y1="-6.44" x2="22.33" y2="28.77" gradientUnits="userSpaceOnUse"><stop offset="0" stop-color="#d10000"/><stop offset=".37" stop-color="#ce0000"/><stop offset=".58" stop-color="#c60000"/><stop offset=".75" stop-color="#b80000"/><stop offset=".9" stop-color="#a40000"/><stop offset="1" stop-color="#930000"/></linearGradient><linearGradient id="_횂횁_횕_횑횑_횊_횏횂횑횣_384" x1="3.45" y1="14.46" x2="3.45" y2="12.5" gradientUnits="userSpaceOnUse"><stop offset="0" stop-color="#fff"/><stop offset=".18" stop-color="#e1bcbc"/><stop offset=".37" stop-color="#c47c7c"/><stop offset=".54" stop-color="#ad4949"/><stop offset=".69" stop-color="#9d2525"/><stop offset=".81" stop-color="#930f0f"/><stop offset=".89" stop-color="#900707"/></linearGradient><linearGradient id="_횂횁_횕_횑횑_횊_횏횂횑횣_384-2" x1="2.67" y1="10.06" x2="2.67" y2="9.02" xlink:href="#_횂횁_횕_횑횑_횊_횏횂횑횣_384"/><linearGradient id="_횂횁_횕_횑횑_횊_횏횂횑횣_384-3" x1="55.58" y1="10.06" x2="55.58" y2="9.14" xlink:href="#_횂횁_횕_횑횑_횊_횏횂횑횣_384"/><linearGradient id="_횂횁_횕_횑횑_횊_횏횂횑횣_384-4" x1="43.17" y1="11.23" x2="43.17" y2="4.11" xlink:href="#_횂횁_횕_횑횑_횊_횏횂횑횣_384"/><linearGradient id="_횂횁_횕_횑횑_횊_횏횂횑횣_384-5" x1="40.16" y1="15.4" x2="40.16" y2="1.21" xlink:href="#_횂횁_횕_횑횑_횊_횏횂횑횣_384"/><linearGradient id="_횂횁_횕_횑횑_횊_횏횂횑횣_384-6" x1="48.5" y1="9.56" x2="48.5" y2="7.04" xlink:href="#_횂횁_횕_횑횑_횊_횏횂횑횣_384"/><linearGradient id="_횂횁_횕_횑횑_횊_횏횂횑횣_401" x1="35.99" y1="11.78" x2="35.99" y2="5.82" gradientUnits="userSpaceOnUse"><stop offset="0" stop-color="#fff"/><stop offset=".15" stop-color="#e1bcbc"/><stop offset=".31" stop-color="#c47c7c"/><stop offset=".46" stop-color="#ad4949"/><stop offset=".58" stop-color="#9d2525"/><stop offset=".68" stop-color="#930f0f"/><stop offset=".75" stop-color="#900707"/></linearGradient><linearGradient id="_횂횁_횕_횑횑_횊_횏횂횑횣_384-7" x1="34.82" y1="14.99" x2="34.82" y2="7.5" xlink:href="#_횂횁_횕_횑횑_횊_횏횂횑횣_384"/><linearGradient id="_횂횁_횕_횑횑_횊_횏횂횑횣_389" x1="41.63" y1="19.99" x2="41.63" y2="10.85" gradientUnits="userSpaceOnUse"><stop offset="0" stop-color="#fff"/><stop offset=".11" stop-color="#e1bcbc"/><stop offset=".23" stop-color="#c47c7c"/><stop offset=".33" stop-color="#ad4949"/><stop offset=".43" stop-color="#9d2525"/><stop offset=".5" stop-color="#930f0f"/><stop offset=".55" stop-color="#900707"/></linearGradient><linearGradient id="_횂횁_횕_횑횑_횊_횏횂횑횣_400" x1="6.21" y1="11.5" x2="4.19" y2="13.52" gradientUnits="userSpaceOnUse"><stop offset="0" stop-color="#ff4e4f"/><stop offset=".22" stop-color="#c43c3c"/><stop offset=".76" stop-color="#381111"/><stop offset="1" stop-color="#000"/></linearGradient><linearGradient id="_횂횁_횕_횑횑_횊_횏횂횑횣_400-2" x1="3.52" y1="8.49" x2="2.77" y2="9.24" xlink:href="#_횂횁_횕_횑횑_횊_횏횂횑횣_400"/><linearGradient id="_횂횁_횕_횑횑_횊_횏횂횑횣_400-3" x1="56.11" y1="8.88" x2="55.4" y2="9.6" xlink:href="#_횂횁_횕_횑횑_횊_횏횂횑횣_400"/><linearGradient id="_횂횁_횕_횑횑_횊_횏횂횑횣_400-4" x1="70.39" y1="6.54" x2="52.99" y2="23.95" xlink:href="#_횂횁_횕_횑횑_횊_횏횂횑횣_400"/><linearGradient id="_횂횁_횕_횑횑_횊_횏횂횑횣_400-5" x1="34.32" y1="10.69" x2="20.14" y2="24.87" xlink:href="#_횂횁_횕_횑횑_횊_횏횂횑횣_400"/><linearGradient id="_횂횁_횕_횑횑_횊_횏횂횑횣_400-6" x1="45.82" y1="2.21" x2="31.58" y2="16.44" xlink:href="#_횂횁_횕_횑횑_횊_횏횂횑횣_400"/><linearGradient id="_횂횁_횕_횑횑_횊_횏횂횑횣_400-7" x1="37.12" y1="8.2" x2="26.46" y2="18.86" xlink:href="#_횂횁_횕_횑횑_횊_횏횂횑횣_400"/><linearGradient id="_횂횁_횕_횑횑_횊_횏횂횑횣_400-8" x1="62.39" y1="6.07" x2="50.78" y2="17.68" xlink:href="#_횂횁_횕_횑횑_횊_횏횂횑횣_400"/><linearGradient id="_횂횁_횕_횑횑_횊_횏횂횑횣_400-9" x1="52.92" y1="1.08" x2="44.2" y2="9.79" xlink:href="#_횂횁_횕_횑횑_횊_횏횂횑횣_400"/><linearGradient id="_횂횁_횕_횑횑_횊_횏횂횑횣_400-10" x1="49.08" y1="7.16" x2="48.12" y2="8.13" xlink:href="#_횂횁_횕_횑횑_횊_횏횂횑횣_400"/></defs><g class="cls-26"><g id="Layer_2"><g id="_횓횙횊_2"><path class="cls-24" d="M8.98,15.33s2.62,3.7,7.34,2.68c4.72-1.02,5.68-1.09,9.19,1.09,3.51,2.17,8.81-.32,12.06-.32s15.45,1.6,25.66.7c10.21-.89,12.57-5.2,10.21-9.41-2.36-4.21-7.45-6.94-16.51-8.03-9.06-1.09-9.66-2.73-26.38-1.45S4,5.32,5.28,10.07s11.81,4.11,18.77,3.03c6.96-1.09,17.17,2.87,29.55,1.66,12.38-1.21,13.6-6.57,6.7-9.77-6.89-3.19-14.55-1.6-20.68-.26-6.13,1.34-11.94-.89-17.3.83s-4.53,4.15,1.66,5.3c6.19,1.15,14.49-.64,18.64.38,4.15,1.02,9.32.57,10.47-1.47,1.15-2.04-6.45-3.13-6.45-3.13,0,0,2.43.51,1.85,1.66-.57,1.15-3.19-.64-7.34,1.4-4.15,2.04-7.02-1.09-13.79-1.28-6.77-.19,0-3.32,6.51-2.43,6.51.89,10.34.89,15.77-.26,5.43-1.15,12.58,1.56,11.43,4.66-1.16,3.1-17.3,4.21-28.28,2.36-10.98-1.85-21.64-.64-22.21-3.13-.57-2.49,7.09-6.32,19.4-7.66,12.32-1.34,11.78.96,18.96.45,7.17-.52,15.96,1.47,18.38,5.94,2.43,4.47-3.19,7.15-16.98,8.23-13.79,1.09-14.55,1.21-19.34-.06s-5.31,1.55-8.74-.64c-3.44-2.19-6.41-1.09-8.23.36-1.82,1.45-5.04-.94-5.04-.94Z"/><path class="cls-18" d="M6.77,14.46s-.94-3.02-3.28-2.55c-2.34.47-2.68.98-3.36.6,0,0-.21,2,2.6,1.49s4.04.47,4.04.47Z"/><path class="cls-19" d="M2.72,10.06c1.44-.02.98-1.42,0-1.42-.81,0-1.83,1.45,0,1.42Z"/><path class="cls-17" d="M55.58,10.06c2,.02,1.15-1.08,0-1.08s-2,1.06,0,1.08Z"/><path class="cls-25" d="M8.98,15.33s2.62,3.7,7.34,2.68c4.72-1.02,5.68-1.09,9.19,1.09,3.51,2.17,8.81-.32,12.06-.32s15.45,1.6,25.66.7c10.21-.89,12.57-5.2,10.21-9.41-2.36-4.21-7.45-6.94-16.51-8.03-9.06-1.09-9.66-2.73-26.38-1.45S4,5.32,5.28,10.07s11.81,4.11,18.77,3.03c6.96-1.09,17.17,2.87,29.55,1.66,12.38-1.21,13.6-6.57,6.7-9.77-6.89-3.19-14.55-1.6-20.68-.26-6.13,1.34-11.94-.89-17.3.83s-4.53,4.15,1.66,5.3c6.19,1.15,14.49-.64,18.64.38,4.15,1.02,9.32.57,10.47-1.47,1.15-2.04-6.45-3.13-6.45-3.13,0,0,2.43.51,1.85,1.66-.57,1.15-3.19-.64-7.34,1.4-4.15,2.04-7.02-1.09-13.79-1.28-6.77-.19,0-3.32,6.51-2.43,6.51.89,10.34.89,15.77-.26,5.43-1.15,12.58,1.56,11.43,4.66-1.16,3.1-17.3,4.21-28.28,2.36-10.98-1.85-21.64-.64-22.21-3.13-.57-2.49,7.09-6.32,19.4-7.66,12.32-1.34,11.78.96,18.96.45,7.17-.52,15.96,1.47,18.38,5.94,2.43,4.47-3.19,7.15-16.98,8.23-13.79,1.09-14.55,1.21-19.34-.06s-5.31,1.55-8.74-.64c-3.44-2.19-6.41-1.09-8.23.36-1.82,1.45-5.04-.94-5.04-.94Z"/><path class="cls-21" d="M.13,12.5s-.21,2,2.6,1.49,4.04.47,4.04.47c-1.36-3.11-6.4-.06-6.64-1.96Z"/><path class="cls-4" d="M3.45,9.53c-.4.18-1.98.11-1.49-.51-.4.43-.44,1.05.77,1.04.79,0,.99-.43.87-.82.02.12-.01.23-.15.29Z"/><path class="cls-3" d="M54.67,9.21c-.5.31-.48.83.9.84,1.51.02,1.39-.61.75-.92,1.16.67-2.57.77-1.65.08Z"/><path class="cls-7" d="M61.29,7.45c-2.88-3.19-9-3.99-12.96-2.84s-9.67,2.11-12.8,1.47c-3.13-.64-6.51-.89-8.59-.41-1.95.45-3.36,1.57-2.23,2.3-1.17-.89,4.07-2.65,9.15-1.95,6.51.89,10.34.89,15.77-.26,5.43-1.15,12.58,1.56,11.43,4.66-.11.29-.34.56-.69.81,1.35-.82,2.43-2.09.91-3.78Z"/><path class="cls-2" d="M69.78,10.64c0-3.29-4.56-6.13-10.66-7.66-6.1-1.53-8.52-1.66-10.05-1.4-1.53.26-7.43.37-10.5-.22-3.07-.59-13.79.67-20.52,2.36-6.73,1.69-7.63,3.64-7.49,5.8,0,.02.01.03.02.05-.39-2.49,7.22-6.25,19.41-7.57,12.32-1.34,11.78.96,18.96.45,7.17-.52,15.96,1.47,18.38,5.94,1.78,3.28-.79,5.59-7.72,7.02h.05s10.12-1.47,10.12-4.75Z"/><path class="cls-6" d="M50.21,8.54c-.76-1.38-3.57-1.88-3.57-1.88,0,0,2.43.51,1.85,1.66-.18.35-.55.43-1.09.42,1.88.2,3.46.97,2.81-.2Z"/><path class="cls-20" d="M52,9.75c-1.72.57-4.47-.54-7.21-.23-2.74.31-5,1.42-8.01,1.22-3.01-.19-5.52-1.47-9.89-1.22-4.36.24-8.97-1.89-5.26-3.7-4.56,1.7-3.55,3.96,2.36,5.05,6.19,1.15,14.49-.64,18.64.38,4.15,1.02,9.32.57,10.47-1.47.36-.64-.13-1.18-.98-1.63.9.55,1.07,1.2-.11,1.59Z"/><path class="cls-5" d="M43.1,14.57c-7.28-.4-13.4-3.1-24.03-2.01-8.91.91-14.97-2.04-13.33-5.06-.54.81-.7,1.67-.46,2.58,1.28,4.75,11.81,4.11,18.77,3.03,6.96-1.09,17.17,2.87,29.55,1.66,7.29-.71,10.71-2.87,10.88-5.17-.64,4.17-15.06,5.32-21.38,4.98Z"/><path class="cls-22" d="M73.83,10.85c1.16,3.49-2.36,6.67-12.81,7.57-12.98,1.11-21.26-.91-25.02-.17-3.77.74-8.38,1.91-12.87-.7-4.49-2.62-5.62-.43-8.96-.17-3.34.26-5.19-2.04-5.19-2.04,0,0,2.62,3.7,7.34,2.68,4.72-1.02,5.68-1.09,9.19,1.09,3.51,2.17,8.81-.32,12.06-.32s15.45,1.6,25.66.7c9.58-.84,12.25-4.68,10.59-8.63Z"/><path class="cls-23" d="M5.77,13.19c.05.05.07.08.07.08,0,0-.02-.03-.07-.08-.23-.19-1.06-.62-3.63-.07,1.64-.17,3.81-.54,4.63,1.34,0,0-.94-3.02-3.28-2.55-.7.14-1.21.28-1.61.4,2.25-.58,3.58.57,3.89.88Z"/><path class="cls-10" d="M2.58,9.6c.34.03.7,0,.86-.07.14-.06.16-.17.15-.29-.1-.32-.43-.61-.87-.61-.17,0-.35.07-.52.17.74-.49,1.46.87.38.79Z"/><path class="cls-11" d="M55.58,9.69c.68-.02,1.33-.21.75-.55-.21-.1-.47-.17-.75-.17-.25,0-.48.05-.67.13.75-.3,1.9.53.68.59Z"/><path class="cls-9" d="M70.09,15.42c-5.52,3.09-15.81,3.4-22.42,3.2,3.71.18,8.15.24,13.36-.2,10.37-.88,13.9-4.02,12.83-7.48-.11-.29-.24-.58-.4-.86-.28-.5-.6-.98-.96-1.43,1.31,1.93,1.7,4.49-2.4,6.78Z"/><path class="cls-13" d="M34.62,18.38c-1.79.57-8.13,1.2-12.45-1.49-4.29-2.67-6.99.83-9.59.41.49.08,1.02.12,1.59.08,3.34-.26,4.47-2.45,8.96.17,4.49,2.62,9.11,1.45,12.87.7,1.36-.27,3.33-.18,5.88,0-2.79-.34-5.48-.45-7.27.13Z"/><path class="cls-16" d="M26.88,9.51c4.37-.24,6.89,1.03,9.89,1.22,3.01.19,5.27-.92,8.01-1.22,2.74-.31,5.49.81,7.21.23.47-.16.71-.35.79-.57-.36.66-1.72.72-3.48.42-1.76-.31-4.02-1.06-7.5.31-3.48,1.37-7.26.52-10.63-.39-2.56-.69-4.84-.07-6.62-.08.75.09,1.53.13,2.31.08Z"/><path class="cls-15" d="M43.1,14.57c.13,0,.27.01.4.02-1.78-.13-3.97-.45-7.51-1.1-6.5-1.19-10.31-1.72-15.5-1.05-.15.02-.27.03-.41.04,10-.82,15.98,1.71,23.01,2.09Z"/><path class="cls-14" d="M62.25,11.57c-3.24,2.22-11.35,2.82-14.56,3.01,6.95-.25,16.28-1.66,16.79-4.99.08-1.13-.62-2.3-2.04-3.35.81.6,2.97,3.16-.19,5.33Z"/><path class="cls-12" d="M56.57,4.73c-2.32-.83-5.13-1.31-7.67-.47-2.36.78-6.06,1.6-8.36,1.88,2.62-.26,5.5-.86,7.79-1.53,2.36-.69,5.49-.67,8.24.12Z"/><path class="cls-8" d="M50.21,8.54c.07.13.11.23.13.32-.04-.66-.98-1.42-1.51-1.78-1.21-.28-2.2-.42-2.2-.42,0,0,2.81.51,3.57,1.88Z"/><path class="cls-1" d="M67.02,16.84c-1.08-.6,2.02-1.42,2.66-1.21.64.21-2.04,1.55-2.66,1.21Z"/><path class="cls-1" d="M69.94,15.6c-.19-.18.7-.86.73-.53.03.33-.5.76-.73.53Z"/><path class="cls-1" d="M73.41,11.84c-.23,0-.17-.65-.06-.54.11.11.3.54.06.54Z"/><path class="cls-1" d="M73.52,11.38c.13-.06-.01-.36-.13-.35s0,.4.13.35Z"/><path class="cls-1" d="M46.08,9.11c.06-.17,1.45-.11,1.22.11-.23.22-1.35.24-1.22-.11Z"/><path class="cls-1" d="M47.54,9.33c-.07-.23.27-.2.32.03.05.23-.28.12-.32-.03Z"/><path class="cls-1" d="M55.89,9.38c.24-.06.07-.41-.28-.25-.35.16-.02.32.28.25Z"/><path class="cls-1" d="M19.83,15.95c-.02-.36,1.47.2,1.39.43-.08.23-1.37-.17-1.39-.43Z"/><path class="cls-1" d="M29.64,16.69c.18-.46,1.8.34,1.29.7-.51.37-1.42-.38-1.29-.7Z"/><path class="cls-1" d="M29.34,16.77c.22-.06.37.69,0,.59-.37-.1-.3-.51,0-.59Z"/></g></g></g></svg>