<?xml version="1.0" encoding="UTF-8"?><svg xmlns="http://www.w3.org/2000/svg" xmlns:xlink="http://www.w3.org/1999/xlink" viewBox="0 0 75.81 30.16"><defs><style>.cls-1{fill:url(#_횂횁_횕_횑횑_횊_횏횂횑횣_620-9);}.cls-1,.cls-2,.cls-3,.cls-4,.cls-5,.cls-6,.cls-7,.cls-8,.cls-9{opacity:.41;}.cls-1,.cls-2,.cls-3,.cls-4,.cls-5,.cls-6,.cls-7,.cls-8,.cls-9,.cls-10,.cls-11,.cls-12,.cls-13,.cls-14,.cls-15,.cls-16,.cls-17,.cls-18,.cls-19,.cls-20,.cls-21,.cls-22,.cls-23,.cls-24,.cls-25,.cls-26,.cls-27,.cls-28{stroke:#000;stroke-miterlimit:10;stroke-width:.5px;}.cls-1,.cls-2,.cls-3,.cls-4,.cls-5,.cls-6,.cls-7,.cls-8,.cls-9,.cls-10,.cls-18,.cls-22{mix-blend-mode:screen;}.cls-2{fill:url(#_횂횁_횕_횑횑_횊_횏횂횑횣_620-3);}.cls-3{fill:url(#_횂횁_횕_횑횑_횊_횏횂횑횣_620-2);}.cls-4{fill:url(#_횂횁_횕_횑횑_횊_횏횂횑횣_620-6);}.cls-5{fill:url(#_횂횁_횕_횑횑_횊_횏횂횑횣_620-8);}.cls-6{fill:url(#_횂횁_횕_횑횑_횊_횏횂횑횣_620-7);}.cls-7{fill:url(#_횂횁_횕_횑횑_횊_횏횂횑횣_620-5);}.cls-8{fill:url(#_횂횁_횕_횑횑_횊_횏횂횑횣_620-4);}.cls-9{fill:url(#_횂횁_횕_횑횑_횊_횏횂횑횣_620);}.cls-29{isolation:isolate;}.cls-10{fill:url(#_횂횁_횕_횑횑_횊_횏횂횑횣_625-2);opacity:.72;}.cls-11{fill:url(#_횂횁_횕_횑횑_횊_횏횂횑횣_496-6);}.cls-11,.cls-12,.cls-13,.cls-14,.cls-15,.cls-17{opacity:.53;}.cls-11,.cls-12,.cls-13,.cls-14,.cls-15,.cls-17,.cls-19,.cls-20,.cls-21,.cls-23{mix-blend-mode:multiply;}.cls-12{fill:url(#_횂횁_횕_횑횑_횊_횏횂횑횣_496-2);}.cls-13{fill:url(#_횂횁_횕_횑횑_횊_횏횂횑횣_496-3);}.cls-14{fill:url(#_횂횁_횕_횑횑_횊_횏횂횑횣_496-5);}.cls-15{fill:url(#_횂횁_횕_횑횑_횊_횏횂횑횣_496-4);}.cls-16{fill:#fff;}.cls-17{fill:url(#_횂횁_횕_횑횑_횊_횏횂횑횣_496);}.cls-18{fill:url(#_횂횁_횕_횑횑_횊_횏횂횑횣_625);opacity:.51;}.cls-19{fill:url(#_횂횁_횕_횑횑_횊_횏횂횑횣_497-3);}.cls-19,.cls-20,.cls-21,.cls-23{opacity:.26;}.cls-20{fill:url(#_횂횁_횕_횑횑_횊_횏횂횑횣_497-2);}.cls-21{fill:url(#_횂횁_횕_횑횑_횊_횏횂횑횣_497-4);}.cls-22{fill:url(#_횂횁_횕_횑횑_횊_횏횂횑횣_625-3);opacity:.92;}.cls-23{fill:url(#_횂횁_횕_횑횑_횊_횏횂횑횣_497);}.cls-24{fill:url(#_횂횁_횕_횑횑_횊_횏횂횑횣_478);}.cls-25{fill:url(#_횂횁_횕_횑횑_횊_횏횂횑횣_483);}.cls-26{fill:url(#_횂횁_횕_횑횑_횊_횏횂횑횣_482);}.cls-27{fill:url(#_횂횁_횕_횑횑_횊_횏횂횑횣_481);}.cls-28{fill:url(#_횂횁_횕_횑횑_횊_횏횂횑횣_626);}</style><linearGradient id="_횂횁_횕_횑횑_횊_횏횂횑횣_626" x1="36.02" y1="-6.32" x2="-10.16" y2="23.47" gradientUnits="userSpaceOnUse"><stop offset=".23" stop-color="#ffcd00"/><stop offset=".48" stop-color="#e6b100"/><stop offset=".94" stop-color="#b37800"/></linearGradient><linearGradient id="_횂횁_횕_횑횑_횊_횏횂횑횣_478" x1="42.16" y1="-98.91" x2="36.68" y2="-95.07" gradientTransform="translate(8.12 120.12) rotate(-9.98)" gradientUnits="userSpaceOnUse"><stop offset="0" stop-color="#ffcd00"/><stop offset=".22" stop-color="#f2bf00"/><stop offset=".64" stop-color="#d39b00"/><stop offset="1" stop-color="#b37800"/></linearGradient><linearGradient id="_횂횁_횕_횑횑_횊_횏횂횑횣_483" x1="3.68" y1="3.75" x2="2.15" y2="5.2" gradientTransform="translate(-.33 14.56) rotate(-1.31)" gradientUnits="userSpaceOnUse"><stop offset="0" stop-color="#ffcd00"/><stop offset=".2" stop-color="#efbb00"/><stop offset="1" stop-color="#b37800"/></linearGradient><linearGradient id="_횂횁_횕_횑횑_횊_횏횂횑횣_482" x1="-1.29" y1="13.46" x2="-3.7" y2="15.87" gradientUnits="userSpaceOnUse"><stop offset="0" stop-color="#ffcd00"/><stop offset=".64" stop-color="#cb9300"/><stop offset="1" stop-color="#b37800"/></linearGradient><linearGradient id="_횂횁_횕_횑횑_횊_횏횂횑횣_481" x1="-6.59" y1="9.5" x2="-12.47" y2="15.39" gradientUnits="userSpaceOnUse"><stop offset="0" stop-color="#ffcd00"/><stop offset=".2" stop-color="#edb900"/><stop offset=".73" stop-color="#c38a00"/><stop offset="1" stop-color="#b37800"/></linearGradient><linearGradient id="_횂횁_횕_횑횑_횊_횏횂횑횣_496" x1="51.29" y1="4.51" x2="50.1" y2="5.69" gradientUnits="userSpaceOnUse"><stop offset=".24" stop-color="#aa6100"/><stop offset=".32" stop-color="#ab6304"/><stop offset=".42" stop-color="#af6b11"/><stop offset=".52" stop-color="#b67926"/><stop offset=".62" stop-color="#c18b45"/><stop offset=".72" stop-color="#cda36b"/><stop offset=".82" stop-color="#ddc19b"/><stop offset=".93" stop-color="#f0e3d2"/><stop offset="1" stop-color="#fff"/></linearGradient><linearGradient id="_횂횁_횕_횑횑_횊_횏횂횑횣_496-2" x1="43.98" y1="-1.27" x2="29.66" y2="13.05" xlink:href="#_횂횁_횕_횑횑_횊_횏횂횑횣_496"/><linearGradient id="_횂횁_횕_횑횑_횊_횏횂횑횣_496-3" x1="34.93" y1="2.51" x2="18.06" y2="19.38" xlink:href="#_횂횁_횕_횑횑_횊_횏횂횑횣_496"/><linearGradient id="_횂횁_횕_횑횑_횊_횏횂횑횣_496-4" x1="11.18" y1="7.51" x2="-3.44" y2="22.14" xlink:href="#_횂횁_횕_횑횑_횊_횏횂횑횣_496"/><linearGradient id="_횂횁_횕_횑횑_횊_횏횂횑횣_496-5" x1="7.96" y1="8.03" x2="5.06" y2="10.93" xlink:href="#_횂횁_횕_횑횑_횊_횏횂횑횣_496"/><linearGradient id="_횂횁_횕_횑횑_횊_횏횂횑횣_496-6" x1="26.65" y1="2.8" x2="23.06" y2="9.04" xlink:href="#_횂횁_횕_횑횑_횊_횏횂횑횣_496"/><linearGradient id="_횂횁_횕_횑횑_횊_횏횂횑횣_497" x1="33.68" y1="14.22" x2="28.95" y2="18.95" gradientUnits="userSpaceOnUse"><stop offset="0" stop-color="#fff"/><stop offset=".07" stop-color="#f0e3d2"/><stop offset=".18" stop-color="#ddc19b"/><stop offset=".28" stop-color="#cda36b"/><stop offset=".38" stop-color="#c18b45"/><stop offset=".48" stop-color="#b67926"/><stop offset=".58" stop-color="#af6b11"/><stop offset=".68" stop-color="#ab6304"/><stop offset=".76" stop-color="#aa6100"/></linearGradient><linearGradient id="_횂횁_횕_횑횑_횊_횏횂횑횣_497-2" x1="3.43" y1="18.22" x2="1.93" y2="19.72" xlink:href="#_횂횁_횕_횑횑_횊_횏횂횑횣_497"/><linearGradient id="_횂횁_횕_횑횑_횊_횏횂횑횣_497-3" x1="-1.29" y1="13.47" x2="-3.69" y2="15.87" xlink:href="#_횂횁_횕_횑횑_횊_횏횂횑횣_497"/><linearGradient id="_횂횁_횕_횑횑_횊_횏횂횑횣_497-4" x1="-6.59" y1="9.5" x2="-12.47" y2="15.39" xlink:href="#_횂횁_횕_횑횑_횊_횏횂횑횣_497"/><linearGradient id="_횂횁_횕_횑횑_횊_횏횂횑횣_620" x1="20.5" y1="5.81" x2="54.13" y2="5.81" gradientUnits="userSpaceOnUse"><stop offset="0" stop-color="#000"/><stop offset=".24" stop-color="#383811"/><stop offset=".78" stop-color="#c4c43c"/><stop offset="1" stop-color="#ffff4f"/></linearGradient><linearGradient id="_횂횁_횕_횑횑_횊_횏횂횑횣_620-2" x1="6.56" y1="10.18" x2="47.46" y2="10.18" xlink:href="#_횂횁_횕_횑횑_횊_횏횂횑횣_620"/><linearGradient id="_횂횁_횕_횑횑_횊_횏횂횑횣_620-3" x1="-20.38" y1="13.45" x2="31.13" y2="13.45" xlink:href="#_횂횁_횕_횑횑_횊_횏횂횑횣_620"/><linearGradient id="_횂횁_횕_횑횑_횊_횏횂횑횣_620-4" x1="32.71" y1="16.25" x2="35.74" y2="16.25" xlink:href="#_횂횁_횕_횑횑_횊_횏횂횑횣_620"/><linearGradient id="_횂횁_횕_횑횑_횊_횏횂횑횣_620-5" x1="2.4" y1="18.67" x2="4.01" y2="18.67" xlink:href="#_횂횁_횕_횑횑_횊_횏횂횑횣_620"/><linearGradient id="_횂횁_횕_횑횑_횊_횏횂횑횣_620-6" x1="-2.69" y1="14.38" x2="-.23" y2="14.38" xlink:href="#_횂횁_횕_횑횑_횊_횏횂횑횣_620"/><linearGradient id="_횂횁_횕_횑횑_횊_횏횂횑횣_620-7" x1="-10.54" y1="11.89" x2="-3.72" y2="11.89" xlink:href="#_횂횁_횕_횑횑_횊_횏횂횑횣_620"/><linearGradient id="_횂횁_횕_횑횑_횊_횏횂횑횣_620-8" x1="19.9" y1="7.76" x2="38.28" y2="7.76" xlink:href="#_횂횁_횕_횑횑_횊_횏횂횑횣_620"/><linearGradient id="_횂횁_횕_횑횑_횊_횏횂횑횣_620-9" x1="4.44" y1="11.41" x2="16.26" y2="11.41" xlink:href="#_횂횁_횕_횑횑_횊_횏횂횑횣_620"/><linearGradient id="_횂횁_횕_횑횑_횊_횏횂횑횣_625" x1="52.25" y1="6.07" x2="49.39" y2="8.93" gradientUnits="userSpaceOnUse"><stop offset="0" stop-color="#ffffb3"/><stop offset=".22" stop-color="#c4c48a"/><stop offset=".76" stop-color="#383827"/><stop offset="1" stop-color="#000"/></linearGradient><linearGradient id="_횂횁_횕_횑횑_횊_횏횂횑횣_625-2" x1="45.31" y1="10.41" x2="40.13" y2="15.59" xlink:href="#_횂횁_횕_횑횑_횊_횏횂횑횣_625"/><linearGradient id="_횂횁_횕_횑횑_횊_횏횂횑횣_625-3" x1="29.79" y1="20.74" x2="25.69" y2="24.85" xlink:href="#_횂횁_횕_횑횑_횊_횏횂횑횣_625"/></defs><g class="cls-29"><g id="Layer_2"><g id="_횓횙횊_2"><path class="cls-28" d="M71.59,5.58s1.19,1.23-.13,1.36c-1.32.13-16.89-3.36-24.38-4.77-7.49-1.4-9.83-.64-9.53,1.11.27,1.61,5.37,4.41,8.96,5.74-3.61-1.24-17.5-5.84-21.89-4.56-4.24,1.24-.61,4.48-.61,4.48,0,0-5.15-4.21-11.57-4.04-6.43.17-11.53-.17-10.04-4.34,0,0-3.53,2.04-1.53,5.74s8.47,2.17,13.62,3.7c5.15,1.53,15.23,8.13,21.79,10.85,6.55,2.72,9.57,4.12,10.68,6.38s1.53,2.81,3.28,2.64c1.74-.17,4.26-5.57,0-8.47-4.26-2.89-18.38-7.66-21.23-11.02-2.85-3.36,3.74-1.62,10.98.72,7.23,2.34,18.85,6,24.47,6.26,5.62.26,5.11-3.74,2.89-4.51-2.21-.77-3.15,0-9.15-1.62-6-1.62-15.23-4.13-15.36-5.28-.13-1.15,11.19,1.45,18.38,3.32,7.19,1.87,11.83,2.47,13.62,1.28,1.79-1.19.17-4-3.23-4.98Z"/><path class="cls-24" d="M51.33,18.98c8.66.6,6.71-1.47,2.92-2.36-3.79-.89-10.2,1.86-2.92,2.36Z"/><path class="cls-25" d="M24.14,20.88c2.7.14.96-1.04-.02-1.06-.98-.02-2.81.92.02,1.06Z"/><path class="cls-26" d="M18.64,16.68c4.51.23,2.38-1,.85-1.38s-5.36,1.15-.85,1.38Z"/><path class="cls-27" d="M9.59,12.1c5.3-.08,14.19,3.36,3.51,3.06-10.68-.3-7.72-3-3.51-3.06Z"/><path class="cls-17" d="M71.59,5.58s1.19,1.23-.13,1.36c-.05,0-.13,0-.21,0,3.22.51,2.42-.41.34-1.36Z"/><path class="cls-12" d="M63.5,8.66c-5.36-1.66-13.19-3.51-17.83-4.36-4.25-.78-5.63.02-2.62,1.97-.13-.11-.22-.22-.23-.31-.13-1.15,11.19,1.45,18.38,3.32,7.19,1.87,11.83,2.47,13.62,1.28.19-.13.33-.28.45-.43-1.54,1.61-6.42.2-11.77-1.46Z"/><path class="cls-13" d="M50.37,13.03c-5.01-1.73-15.77-5.96-18.62-6.09-2.69-.12-5.61,1.02-2.29,3.92-.18-.16-.34-.32-.47-.47-2.85-3.36,3.74-1.62,10.98.72,7.23,2.34,18.85,6,24.47,6.26,2.2.1,3.46-.46,4.04-1.22,0,0-.83,1.34-4.91.75-4.39-.64-10.59-2.98-13.19-3.87Z"/><path class="cls-15" d="M47.63,27.2c-.6-2.16-1.7-4.51-5.74-5.87-4.04-1.36-13.15-6-21.7-11.23C11.63,4.86,3.8,8.81,1.8,5.81-.2,2.82,2.4.56,2.4.56c0,0-3.53,2.04-1.53,5.74s8.47,2.17,13.62,3.7c5.15,1.53,15.23,8.13,21.79,10.85,6.55,2.72,9.57,4.12,10.68,6.38s1.53,2.81,3.28,2.64c.56-.06,1.21-.66,1.67-1.55-1.25,1.95-3.67,1.03-4.27-1.13Z"/><path class="cls-14" d="M31.19,13.01c-8.47-4.94-8.58-7.79-6.82-8.47-3.83,1.3-.36,4.39-.36,4.39,5.07,3.9,15.83,9.12,7.18,4.07Z"/><path class="cls-11" d="M53.6,10.56c-2.55-.7-6.16-1.82-10.34-3.57-4.15-1.74-7.03-5.3-2.96-5.52-2.18.1-2.93.79-2.75,1.82.27,1.61,5.37,4.41,8.96,5.74,11.32,3.98,9.65,2.24,7.09,1.54Z"/><path class="cls-23" d="M54.4,18.76c-3.28-.25-6.15-1.59-3.75-2.13-2.77.52-4.45,2,.69,2.35,6.22.43,6.97-.52,5.49-1.42.69.47.57,1.43-2.43,1.2Z"/><path class="cls-20" d="M24.14,20.88c1.67.09,1.64-.33,1.14-.67,1,.71-3.27.09-1.69-.33-.92.2-1.81.88.56,1Z"/><path class="cls-19" d="M18.64,16.68c3.07.16,3.06-.36,2.27-.83.02.01.89.65-.5.6-1.4-.05-3.72-.6-2.53-1.09-1.42.32-2.46,1.15.77,1.32Z"/><path class="cls-21" d="M13.1,15.17c5.28.15,5.77-.62,4.29-1.42.09.06,1.4.95-2.06.77-3.57-.19-10.94-1.66-6.8-2.34-3.57.44-5.19,2.72,4.57,2.99Z"/><path class="cls-9" d="M72.16,5.86c1.78.63,4.48,4.09,1.03,4.06-3.45-.03-11.55-1.81-16.31-3.41-4.76-1.6-12.73-3.38-14.96-2.37.65-.21,1.93-.16,3.75.17,4.64.85,12.47,2.7,17.83,4.36,5.35,1.65,10.23,3.07,11.77,1.46-.06.08-.12.15-.19.23,1.34-1.28-.27-3.84-3.49-4.77.2.09.39.19.57.28,0,0,0,0,0,0Z"/><path class="cls-3" d="M56.06,14.45c-5.74-1.21-14.65-4.66-19.09-6.86-4.43-2.2-8.71-1.15-8.99.86,0,.05,0,.09,0,.14.02-1.24,1.94-1.74,3.77-1.65,2.85.13,13.61,4.36,18.62,6.09,2.6.9,8.8,3.23,13.19,3.87,3.21.47,4.41-.26,4.77-.59.05-.05.1-.1.14-.15.49-.64.51-1.42.2-2.07,1.45,3.27-6.92,1.58-12.62.37Z"/><path class="cls-2" d="M1.8,5.81c2,3,9.83-.96,18.38,4.28,8.55,5.23,17.66,9.87,21.7,11.23,4.04,1.36,5.14,3.71,5.74,5.87.6,2.16,3.02,3.08,4.27,1.13.49-.92.78-2.14.61-3.38.25,4.31-4.53,3.69-4.94,1.44-.41-2.27-.93-4.82-4.44-5.84-3.51-1.02-13.15-4.18-21.32-9.77-8.17-5.58-11.17-3.59-15.89-3.85C1.2,6.67.81,2.16,2.4.56,2.4.56-.2,2.82,1.8,5.81Z"/><path class="cls-8" d="M54.13,18.73c.09,0,.18.02.27.03,3,.23,3.11-.72,2.43-1.2-.48-.29-1.2-.58-2.04-.81,2.09.65,1.41,1.92-.65,1.98Z"/><path class="cls-7" d="M23.82,20.38c.8.19,2.05.24,1.45-.18.06.04.11.08.15.12-.21-.2-.62-.39-1-.47.83.18.6.73-.6.53Z"/><path class="cls-4" d="M18.74,16.22c.54.12,1.16.21,1.67.22,1.39.05.52-.59.5-.6-.31-.18-.74-.36-1.17-.48,1.27.44.4,1.13-1,.86Z"/><path class="cls-6" d="M16.15,14.08c-1.92.35-5.23-.14-5.26-.14,1.51.29,3.21.51,4.44.57,3.45.18,2.15-.71,2.06-.77-1.07-.58-3.16-1.17-5.24-1.46,1.74.28,5.77,1.48,4,1.8Z"/><path class="cls-5" d="M53.6,10.56c1.75.48,3.09,1.45.1.73,8.96,2.27,7.43,1.38-1.54-1.3-4.75-1.42-8.46-2.77-10.84-4,.59.37,1.24.71,1.93,1,4.18,1.76,7.79,2.87,10.34,3.57Z"/><path class="cls-1" d="M34.07,14.98c6.89,3.27,2.74.85-2.53-1.99-2.28-1.23-4.25-2.48-5.68-3.67,1.21,1.06,2.92,2.29,5.33,3.7,3.23,1.88,3.75,2.33,2.88,1.96Z"/><path class="cls-18" d="M73,7.09c.09,0,.13,0,.13-.04-.32.07-.91.04-1.88-.11-.04,0-.07,0-.11,0,1.26.56,1.48,3.81-.13,3.72,1.03.17,1.94.23,2.67.14-2,.07-1.58-3.78-.68-3.7Z"/><path class="cls-10" d="M66.86,12.71c-1.09-.3-1.96-.25-3.55-.43,1.21.21,1.27,1.05.78,1.92-.63,1.11-2.17,2.26-3.32,2.14.96.24,1.91.44,2.79.56.24.03.46.06.68.08-1.94-.35-.69-2.38,1.01-3.41.11-.06.22-.12.33-.18.97-.49,2.01-.62,2.68.07-.25-.27-.57-.49-.93-.62-.16-.06-.32-.1-.47-.14Z"/><path class="cls-22" d="M50.67,21.76c1.96,1.77-2.52,3.42-4.67,2.15.77.9,1.2,1.89,1.5,2.86-.67-2.23,4.55-3.89,4.95-2.17-.21-1.01-.77-2-1.78-2.83Z"/><path class="cls-16" d="M65.61,13.01c.45-.24,2.22.13,2.17.61s-3.67.19-2.17-.61Z"/><path class="cls-16" d="M67.64,14.34c.48.23.64-.51.29-.49-.35.02-.93.18-.29.49Z"/><path class="cls-16" d="M74.04,9.83c.3.26,1.49-.64.76-1.27-.73-.62-1.06,1.01-.76,1.27Z"/><path class="cls-16" d="M49.69,23.96c.24.21,1.88-.43,1.18-1.12-.7-.69-1.42.91-1.18,1.12Z"/><path class="cls-16" d="M50.69,24c.08-.3,1.26-.33,1.21.07-.06.4-1.31.31-1.21-.07Z"/><path class="cls-16" d="M55.65,17.95c.64.07.6-.53-.17-.77-.77-.24-1.16.62.17.77Z"/><path class="cls-16" d="M36.64,15.82c.34-.02-.24-.44-.6-.35-.36.09.18.37.6.35Z"/><path class="cls-16" d="M36.8,16.01c-.03-.16.25-.32.46,0s-.43.16-.46,0Z"/><path class="cls-16" d="M56.74,11.4c.05.29.95.57,1.23.41.27-.16-1.28-.7-1.23-.41Z"/><path class="cls-16" d="M15.32,13.37c.05.29.95.57,1.23.41.27-.16-1.28-.7-1.23-.41Z"/></g></g></g></svg>