<?xml version="1.0" encoding="UTF-8"?><svg xmlns="http://www.w3.org/2000/svg" xmlns:xlink="http://www.w3.org/1999/xlink" viewBox="0 0 82.04 31.97"><defs><style>.cls-1{fill:url(#_ÂÁ_Ï_ÌÌ_È_ËÂÌÚ_1001);}.cls-1,.cls-2,.cls-3,.cls-4,.cls-5,.cls-6,.cls-7,.cls-8,.cls-9,.cls-10,.cls-11,.cls-12,.cls-13,.cls-14,.cls-15,.cls-16,.cls-17,.cls-18,.cls-19,.cls-20,.cls-21,.cls-22,.cls-23,.cls-24,.cls-25{stroke:#000;stroke-miterlimit:10;}.cls-1,.cls-2,.cls-6,.cls-7,.cls-10,.cls-14,.cls-15,.cls-16,.cls-17,.cls-18{mix-blend-mode:multiply;}.cls-1,.cls-14,.cls-15,.cls-16,.cls-17,.cls-18{opacity:.57;}.cls-2{fill:url(#_ÂÁ_Ï_ÌÌ_È_ËÂÌÚ_985);opacity:.68;}.cls-3,.cls-4,.cls-5,.cls-11,.cls-12,.cls-26,.cls-13,.cls-19,.cls-20,.cls-21,.cls-22,.cls-23,.cls-24,.cls-25{mix-blend-mode:screen;}.cls-3,.cls-5{opacity:.8;}.cls-3,.cls-8{fill:#ffff7f;}.cls-4{fill:url(#_ÂÁ_Ï_ÌÌ_È_ËÂÌÚ_996);}.cls-4,.cls-11,.cls-12{opacity:.78;}.cls-5{fill:url(#_ÂÁ_Ï_ÌÌ_È_ËÂÌÚ_989);}.cls-6{fill:url(#_ÂÁ_Ï_ÌÌ_È_ËÂÌÚ_990);}.cls-6,.cls-7,.cls-10,.cls-13,.cls-19,.cls-21,.cls-22,.cls-23,.cls-24,.cls-25{opacity:.32;}.cls-27{isolation:isolate;}.cls-7{fill:#682309;}.cls-9{fill:url(#_ÂÁ_Ï_ÌÌ_È_ËÂÌÚ_1027);}.cls-10{fill:url(#_ÂÁ_Ï_ÌÌ_È_ËÂÌÚ_1002);}.cls-11{fill:url(#_ÂÁ_Ï_ÌÌ_È_ËÂÌÚ_996-3);}.cls-12{fill:url(#_ÂÁ_Ï_ÌÌ_È_ËÂÌÚ_996-2);}.cls-28{opacity:.65;}.cls-29{opacity:.54;}.cls-13{fill:#ffa569;}.cls-14{fill:url(#_ÂÁ_Ï_ÌÌ_È_ËÂÌÚ_1001-4);}.cls-15{fill:url(#_ÂÁ_Ï_ÌÌ_È_ËÂÌÚ_1001-2);}.cls-16{fill:url(#_ÂÁ_Ï_ÌÌ_È_ËÂÌÚ_1001-5);}.cls-17{fill:url(#_ÂÁ_Ï_ÌÌ_È_ËÂÌÚ_1001-3);}.cls-18{fill:url(#_ÂÁ_Ï_ÌÌ_È_ËÂÌÚ_1001-6);}.cls-19{fill:url(#_ÂÁ_Ï_ÌÌ_È_ËÂÌÚ_1059);}.cls-20{fill:url(#_ÂÁ_Ï_ÌÌ_È_ËÂÌÚ_989-2);opacity:.5;}.cls-21{fill:url(#_ÂÁ_Ï_ÌÌ_È_ËÂÌÚ_1059-4);}.cls-22{fill:url(#_ÂÁ_Ï_ÌÌ_È_ËÂÌÚ_1059-3);}.cls-23{fill:url(#_ÂÁ_Ï_ÌÌ_È_ËÂÌÚ_1059-5);}.cls-24{fill:url(#_ÂÁ_Ï_ÌÌ_È_ËÂÌÚ_1059-2);}.cls-25{fill:url(#_ÂÁ_Ï_ÌÌ_È_ËÂÌÚ_1059-6);}</style><linearGradient id="_ÂÁ_Ï_ÌÌ_È_ËÂÌÚ_1027" x1="36.55" y1="-10.71" x2="46.9" y2="52.52" gradientUnits="userSpaceOnUse"><stop offset=".11" stop-color="#301616"/><stop offset=".22" stop-color="#461b14"/><stop offset=".48" stop-color="#742711"/><stop offset=".61" stop-color="#872c10"/></linearGradient><linearGradient id="_ÂÁ_Ï_ÌÌ_È_ËÂÌÚ_1002" x1="18.08" y1="-8.43" x2="43.33" y2="16.82" gradientUnits="userSpaceOnUse"><stop offset=".27" stop-color="#fff"/><stop offset=".33" stop-color="#ebe1de"/><stop offset=".47" stop-color="#c3a89e"/><stop offset=".61" stop-color="#a37869"/><stop offset=".73" stop-color="#89533f"/><stop offset=".84" stop-color="#773921"/><stop offset=".93" stop-color="#6b280f"/><stop offset="1" stop-color="#682309"/></linearGradient><linearGradient id="_ÂÁ_Ï_ÌÌ_È_ËÂÌÚ_985" x1="36.2" y1="41.38" x2="40.12" y2="20.93" gradientUnits="userSpaceOnUse"><stop offset=".4" stop-color="#fff"/><stop offset=".45" stop-color="#ebe1de"/><stop offset=".56" stop-color="#c3a89e"/><stop offset=".67" stop-color="#a37869"/><stop offset=".78" stop-color="#89533f"/><stop offset=".87" stop-color="#773921"/><stop offset=".94" stop-color="#6b280f"/><stop offset="1" stop-color="#682309"/></linearGradient><linearGradient id="_ÂÁ_Ï_ÌÌ_È_ËÂÌÚ_989" x1="1.22" y1="15.02" x2="81.18" y2="15.02" gradientUnits="userSpaceOnUse"><stop offset="0" stop-color="#000"/><stop offset=".14" stop-color="#140700"/><stop offset=".44" stop-color="#4a1a00"/><stop offset=".87" stop-color="#9f3800"/><stop offset=".92" stop-color="#aa3c00"/></linearGradient><linearGradient id="_ÂÁ_Ï_ÌÌ_È_ËÂÌÚ_989-2" x1="56.67" y1="7.08" x2="79.92" y2="7.08" xlink:href="#_ÂÁ_Ï_ÌÌ_È_ËÂÌÚ_989"/><linearGradient id="_ÂÁ_Ï_ÌÌ_È_ËÂÌÚ_990" x1="41.01" y1="37.55" x2="41.01" y2="25.21" gradientUnits="userSpaceOnUse"><stop offset="0" stop-color="#fff"/><stop offset=".09" stop-color="#ebe1de"/><stop offset=".28" stop-color="#c3a89e"/><stop offset=".46" stop-color="#a37869"/><stop offset=".63" stop-color="#89533f"/><stop offset=".78" stop-color="#773921"/><stop offset=".91" stop-color="#6b280f"/><stop offset="1" stop-color="#682309"/></linearGradient><linearGradient id="_ÂÁ_Ï_ÌÌ_È_ËÂÌÚ_1001" x1="14.22" y1="-1.82" x2="44.76" y2="28.72" gradientUnits="userSpaceOnUse"><stop offset=".09" stop-color="#fff"/><stop offset=".13" stop-color="#ebe1de"/><stop offset=".21" stop-color="#c3a89e"/><stop offset=".29" stop-color="#a37869"/><stop offset=".36" stop-color="#89533f"/><stop offset=".43" stop-color="#773921"/><stop offset=".48" stop-color="#6b280f"/><stop offset=".52" stop-color="#682309"/><stop offset=".94" stop-color="#fff"/></linearGradient><linearGradient id="_ÂÁ_Ï_ÌÌ_È_ËÂÌÚ_1001-2" x1="48.81" y1="-4.08" x2="73.88" y2="21" xlink:href="#_ÂÁ_Ï_ÌÌ_È_ËÂÌÚ_1001"/><linearGradient id="_ÂÁ_Ï_ÌÌ_È_ËÂÌÚ_1001-3" x1="13.57" y1="-1.17" x2="42.53" y2="27.79" xlink:href="#_ÂÁ_Ï_ÌÌ_È_ËÂÌÚ_1001"/><linearGradient id="_ÂÁ_Ï_ÌÌ_È_ËÂÌÚ_1001-4" x1="48.35" y1="-3.62" x2="72.9" y2="20.93" xlink:href="#_ÂÁ_Ï_ÌÌ_È_ËÂÌÚ_1001"/><linearGradient id="_ÂÁ_Ï_ÌÌ_È_ËÂÌÚ_1001-5" x1="30.93" y1="-5.59" x2="62.58" y2="26.07" xlink:href="#_ÂÁ_Ï_ÌÌ_È_ËÂÌÚ_1001"/><linearGradient id="_ÂÁ_Ï_ÌÌ_È_ËÂÌÚ_1001-6" x1="30.24" y1="-4.9" x2="60.13" y2="24.99" xlink:href="#_ÂÁ_Ï_ÌÌ_È_ËÂÌÚ_1001"/><linearGradient id="_ÂÁ_Ï_ÌÌ_È_ËÂÌÚ_996" x1="46.76" y1="-2.39" x2="68.84" y2="19.69" gradientUnits="userSpaceOnUse"><stop offset="0" stop-color="#000"/><stop offset=".08" stop-color="#140700"/><stop offset=".25" stop-color="#4a1a00"/><stop offset=".49" stop-color="#9f3800"/><stop offset=".51" stop-color="#a53a00"/><stop offset="1" stop-color="#000"/></linearGradient><linearGradient id="_ÂÁ_Ï_ÌÌ_È_ËÂÌÚ_996-2" x1="12.37" y1="1.05" x2="35.62" y2="24.31" xlink:href="#_ÂÁ_Ï_ÌÌ_È_ËÂÌÚ_996"/><linearGradient id="_ÂÁ_Ï_ÌÌ_È_ËÂÌÚ_996-3" x1="29.63" y1="-3.31" x2="57.6" y2="24.65" xlink:href="#_ÂÁ_Ï_ÌÌ_È_ËÂÌÚ_996"/><linearGradient id="_ÂÁ_Ï_ÌÌ_È_ËÂÌÚ_1059" x1="19.93" y1="24.23" x2="19.93" y2="20.02" gradientUnits="userSpaceOnUse"><stop offset="0" stop-color="#ffa569"/><stop offset="0" stop-color="#faa267"/><stop offset=".12" stop-color="#b9774c"/><stop offset=".23" stop-color="#805335"/><stop offset=".34" stop-color="#523522"/><stop offset=".44" stop-color="#2e1e13"/><stop offset=".54" stop-color="#140d08"/><stop offset=".62" stop-color="#050302"/><stop offset=".69" stop-color="#000"/></linearGradient><linearGradient id="_ÂÁ_Ï_ÌÌ_È_ËÂÌÚ_1059-2" x1="63.7" y1="29.07" x2="63.7" y2="24.86" xlink:href="#_ÂÁ_Ï_ÌÌ_È_ËÂÌÚ_1059"/><linearGradient id="_ÂÁ_Ï_ÌÌ_È_ËÂÌÚ_1059-3" x1="72.46" y1="22.12" x2="72.46" y2="17.91" xlink:href="#_ÂÁ_Ï_ÌÌ_È_ËÂÌÚ_1059"/><linearGradient id="_ÂÁ_Ï_ÌÌ_È_ËÂÌÚ_1059-4" x1="21.19" y1="25.79" x2="21.19" y2="23.6" xlink:href="#_ÂÁ_Ï_ÌÌ_È_ËÂÌÚ_1059"/><linearGradient id="_ÂÁ_Ï_ÌÌ_È_ËÂÌÚ_1059-5" x1="40.62" y1="25.46" x2="40.62" y2="23.27" xlink:href="#_ÂÁ_Ï_ÌÌ_È_ËÂÌÚ_1059"/><linearGradient id="_ÂÁ_Ï_ÌÌ_È_ËÂÌÚ_1059-6" x1="71.01" y1="23.42" x2="71.01" y2="21.23" xlink:href="#_ÂÁ_Ï_ÌÌ_È_ËÂÌÚ_1059"/></defs><g class="cls-27"><g id="Layer_2"><g id="_ÎÓÈ_2"><path class="cls-9" d="M16.04,2.98c1.13.3,1.28-2.23,3.51-1.21s2.3.2,3.13-.28c.83-.48,3.26-.13,3.58.75,0,0,11.78-1.28,22.74-.11,10.96,1.18,11.54,3.54,14.15,2.84,2.62-.7,3.32-.13,5.43.96,2.11,1.09,1.21-.32,3.7,0,2.49.32,3.64-1.6,5.68.13,2.04,1.72.45,2.36.45,2.36,0,0,2.36.77,1.21,2.74,0,0,2.78,1.2,1.66,6.06-.38,1.66.31,1.48.13,3.06-.13,1.09-1.53.7-1.28,2.17.26,1.47-.32,2.17-1.4,2.36.04,1.11-.58,2.13-1.59,2.61-2.55,1.21-9.92,2.8-19.03,3.52-13.09,1.02-14.23-.57-15.77,0s-4.4-.64-4.4-.64c0,0-1.28,1.72-2.81.99-1.53-.73-1.32.63-5.09-.46-3.77-1.09-9.66-1.74-17.57-4.62-7.91-2.87-7.47-3.96-7.91-4.6s-.7.83-1.91.38-.77-1.21-.77-1.21c0,0-1.28-.13-1.15-1.02.13-.89,1.02-.51.26-2.3-.77-1.79-.57-4.6.38-6,.96-1.4-.57-2.04,0-3.13.57-1.09,2.43.51,3.13-1.34.7-1.85,4.85-2.55,7.21-3.13,2.36-.57,2.17-1.47,4.34-.89Z"/><path class="cls-10" d="M63.14,4.96c-2.62.7-3.19-1.66-14.15-2.84-10.96-1.18-22.74.11-22.74.11-.32-.88-2.75-1.23-3.58-.75-.83.48-.89,1.31-3.13.28-2.23-1.02-2.38,1.51-3.51,1.21-2.17-.57-1.98.32-4.34.89-2.36.57-6.51,1.28-7.21,3.13-.7,1.85-2.55.26-3.13,1.34-.14.26-.15.49-.11.71.24.73,1.81.81,1.94,1.86.17,1.32,1.36,1.02,1.7,1.57.34.55,1.96.94,1.96.94,0,0,.3-1.15,1.45,0,1.15,1.15,1.19.17,2.3,0,1.11-.17.94.51,1.79,1.57.46.57,1.6,1.43,3.36,2.19-1.76-1.27,9.28-1.49,2.26-5.83-8.07-5,2.75-.02-.05-2.55-2.8-2.53,13.2,2.8,9.61-.89s18.72,6.07,12.54,1.62c-6.18-4.45,13.86,1.94,8.9-1.13-4.95-3.07,7.06,1.25,4.75-1.92-2.31-3.17,13.73,3.58,11.72,1.43-2-2.13-1.54-3.48.47-3.17-.74-.16-1.54-.12-2.79.21Z"/><path class="cls-2" d="M78.08,15.64c-2.21.21-3.91.13-3.66,1.23.26,1.11-2.34.04-2.53.81-.19.77-1.51,2.3-2.87,1.74-1.36-.55-.98.77-2-.17s-3.7.3-8.21,2c-4.51,1.7-12.51,0-12.51,0-.21.64-1.36-.04-1.36-.04-1.02.6-1.87-1.06-2.81-.3-.94.77-1.53-.3-2.43.6s-2.85.94-3.79-.68c-.94-1.62-1.49-1.53-2.55-1.19-1.06.34-.98-.13-1.53.09-.55.21-.54.85-.54.85,0,0-4.39-1.32-9.63-1.87-5.23-.55-8.43-2.64-9.28-3.7-.85-1.06-.68-1.74-1.79-1.57-1.11.17-1.15,1.15-2.3,0-1.15-1.15-1.45,0-1.45,0,0,0-1.62-.38-1.96-.94-.34-.55-1.53-.26-1.7-1.57-.14-1.05-1.7-1.13-1.94-1.86.13.72.84,1.34.11,2.42-.96,1.4-1.15,4.21-.38,6,.77,1.79-.13,1.4-.26,2.3s1.15,1.02,1.15,1.02c0,0-.45.77.77,1.21s1.47-1.02,1.91-.38c.45.64,0,1.72,7.91,4.6,7.91,2.87,13.81,3.53,17.57,4.62,3.77,1.09,3.55-.28,5.09.46,1.53.73,2.81-.99,2.81-.99,0,0,2.87,1.21,4.4.64,1.53-.57,2.68,1.02,15.77,0,9.11-.71,16.48-2.3,19.03-3.52,1.01-.48,1.63-1.5,1.59-2.61,1.09-.19,1.66-.89,1.4-2.36s1.15-1.09,1.28-2.17c.19-1.59-.51-1.4-.13-3.06.51-2.19.22-3.64-.25-4.57.67,1.49-.87,2.79-2.94,2.99Z"/><path class="cls-5" d="M3.19,10.91c.17,1.32,1.36,1.02,1.7,1.57.34.55,1.96.94,1.96.94,0,0,.3-1.15,1.45,0,1.15,1.15,1.19.17,2.3,0,1.11-.17.94.51,1.79,1.57.85,1.06,4.04,3.15,9.28,3.7,5.23.55,9.63,1.87,9.63,1.87,0,0,0-.64.54-.85.55-.21.47.26,1.53-.09,1.06-.34,1.62-.43,2.55,1.19.94,1.62,2.89,1.57,3.79.68s1.49.17,2.43-.6c.94-.77,1.79.89,2.81.3,0,0,1.15.68,1.36.04,0,0,8,1.7,12.51,0,4.51-1.7,7.19-2.94,8.21-2s.64-.38,2,.17c1.36.55,2.69-.98,2.87-1.74.19-.77,2.78.3,2.53-.81-.26-1.11,1.45-1.02,3.66-1.23,2.07-.2,3.61-1.5,2.94-2.99.81,2.16-3.11,2.57-5.62,2.74-2.51.17-.77,1.83-2,1.49-1.23-.34-1.49-.21-1.7.51-.21.72-.85,2.13-2.21,1.57-1.36-.55-1.57.51-2.47-.3-.9-.8-1.53-.64-3.53.47s-5.66,2.09-10.13,2.38c-4.47.3-7.13-.64-7.13-.64.03.75-1.44-.34-1.44-.34,0,0,.18,1.2-1.28.27-1.45-.93-1.27.62-2.5.2-1.23-.43-3.88.93-5.24-.74-1.36-1.67-1.87-1.39-2.77-.93-.89.46-1.28-.93-2.47-.16-1.19.77-4.6-1.49-9.91-1.36-5.32.13-7.56-2.14-8.23-3.79-.67-1.65-2.45-.38-3.18-.3-.73.08-1.23-1.83-1.91-1.23-.68.6-1.19.72-2-.21s-.96-.14-1.57-.68c-.61-.54.08-1.53-.9-1.7s-1.53-1.96.26-1.93c-.7,0-1.42-.23-1.75.38-.14.26-.15.49-.11.71.24.73,1.81.81,1.94,1.86Z"/><path class="cls-20" d="M62.29,5.55c2.72-.64,5.19.26,6.43.85,1.23.6,2.76-.54,3.74-.13s2.94-.85,4.6,0c1.66.85.47,2.43.47,2.43,2.07-.25,2.28,1.97,2.29,2.01.59-1.65-1.41-2.3-1.41-2.3,0,0,1.6-.64-.45-2.36-2.04-1.72-3.19.19-5.68-.13-2.49-.32-1.6,1.09-3.7,0-2.11-1.09-2.81-1.66-5.43-.96-1.79.48-2.63-.47-6.48-1.5,2.99.96,3.27,2.65,5.63,2.09Z"/><path class="cls-6" d="M.97,17.47c.77,1.79-.13,1.4-.26,2.3s1.15,1.02,1.15,1.02c0,0-.45.77.77,1.21s1.47-1.02,1.91-.38c.45.64,0,1.72,7.91,4.6,7.91,2.87,13.81,3.53,17.57,4.62,3.77,1.09,3.55-.28,5.09.46,1.53.73,2.81-.99,2.81-.99,0,0,2.87,1.21,4.4.64,1.53-.57,2.68,1.02,15.77,0,9.11-.71,16.48-2.3,19.03-3.52,1.01-.48,1.63-1.5,1.59-2.61,1.09-.19,1.66-.89,1.4-2.36s1.15-1.09,1.28-2.17c.19-1.59-.51-1.4-.13-3.06.12-.54.2-1.03.24-1.49-.28,1.67-1.73,2-.54,3.49,1.19,1.49-1.66,3.02-2.81,1.53s-1.36-.77-2.38,2.89c-1.02,3.66-4.26,1.45-5.45.89-1.19-.55-1.11,1.45-2.26.72-1.15-.72-2.6-2.3-4.55.26-1.96,2.55-1.57,2.26-3.32.43-1.74-1.83-6.38-3.28-8.98.81-2.6,4.09-7.79,3.19-10.21,1.23-2.42-1.96-3.88.85-5.32,1.36-1.45.51-6.64-5.74-10.85-2.26-4.21,3.49-6.26-1.06-8.6-3.11-2.34-2.04-1.11-.09-4-.3-2.89-.21-5.45-7.19-7.15-5.32-1.42,1.56-4.31-.29-4.59-3.26.02.85.17,1.68.47,2.37Z"/><path class="cls-1" d="M42.12,20.91c.94-.77,1.79.89,2.81.3,0,0,1.15.68,1.36.04,0,0,2.37.5,5.25.69.05,0-39.53-18.15-39.53-18.15-.1.03-.2.06-.31.08-1.19.29-2.83.61-4.26,1.1l34.5,16.06c.06-.04.12-.06.19-.12Z"/><path class="cls-15" d="M78.08,15.64c.59-.06,1.12-.21,1.58-.42L51.92,2.5c-.89-.13-1.86-.26-2.93-.38-1.99-.21-4-.34-5.96-.42l31.48,14.65c.37-.56,1.8-.55,3.57-.72Z"/><path class="cls-17" d="M44.93,21.21s1.15.68,1.36.04c0,0,.95.2,2.37.39L10.5,4.15c-.98.22-2.07.48-3.06.82l34.5,16.06c.06-.04.12-.06.19-.12.94-.77,1.79.89,2.81.3Z"/><path class="cls-14" d="M78.08,15.64c.05,0,.1-.02.14-.02L48.74,2.1c-1.91-.2-3.83-.32-5.72-.39l31.48,14.65c.37-.56,1.8-.55,3.57-.72Z"/><path class="cls-16" d="M63.09,19.63c.91-.32,1.65-.53,2.28-.63,1.71-.57,2.85-.75,3.43-.22.43.39.61.38.77.29L31.92,1.81c-3.43.18-5.67.42-5.67.42-.2-.55-1.22-.89-2.16-.95-.05.04-.11.09-.16.13l39.16,18.23Z"/><path class="cls-18" d="M63.09,19.63c.92-.33,1.68-.54,2.31-.64.37-.12.71-.23,1.03-.31L29.88,1.93c-2.25.15-3.63.3-3.63.3-.2-.55-1.22-.89-2.16-.95-.05.04-.11.09-.16.13l39.16,18.23Z"/><path class="cls-4" d="M42.69,1.69c2.82,1.17,2.97,2.1,5.04,2.46,2.07.36,1.07,1.16,3.22,1.7,2.15.54,1.28,1.12,2.36,1.37,1.09.26,1.79.61,3.35,1.09,1.56.47,3.35,1.96,4.68,2.25,1.33.29,2.88,2.15,4.73,2.34,1.85.2,1.42,1.03,2.59,1.15s.67.61,1.63.7c.96.09,1.03.12,2.62.86,0,0-29.89-13.91-29.89-13.91-.11,0-.23,0-.34-.01Z"/><path class="cls-12" d="M14.41,9.03c3.03.84,6,3.45,8.17,3.87,2.17.42,2.11.64,2.94.93s.48,1.08,1.88,1.19c1.4.11,1.05.62,2.27.85,1.21.22,1.21,1.12,2.59,1.34,1.37.22,3.1,1.59,6.19,2.42.56.15,1.02.29,1.42.43L8.13,5.29c2.72,1.26,3.25,2.89,6.28,3.74Z"/><path class="cls-11" d="M25.77,2.91c.99.1,1.5,1.34,2.74,1.5s3.35.54,4.95,1.82c1.6,1.28.35.66,3,1.69,2.65,1.03,3.92,1.94,5.55,2.3,1.64.36.48.83,1.6.99,1.12.16.99.51,1.95.73.96.22,2.42,1.61,4.79,2.23,2.37.62,2.65,1.79,4.98,2.19,2.33.4,1.02,1.01,2.55,1.45,1.53.45,2.69,1.44,3.47,1.4.78-.04,1.42.26,1.42.26L24.6,1.72c.48.46.52,1.14,1.17,1.2Z"/><g class="cls-28"><path class="cls-7" d="M54.33,26.27c.42-1.39,5.74,2.62,4.02,3.32-1.72.7-4.4-2.04-4.02-3.32Z"/><path class="cls-7" d="M56.08,25.68c-.04-.6,2.38.47,2.26.85-.13.38-2.21-.26-2.26-.85Z"/><path class="cls-7" d="M63.78,22.74c.77-.06.51-.59,0-.8-.51-.22-1.15.89,0,.8Z"/><path class="cls-7" d="M50.82,18.71c.77-.03.51-.34,0-.47s-1.15.52,0,.47Z"/><path class="cls-7" d="M52.23,9.29c.77-.03.51-.34,0-.47-.51-.13-1.15.52,0,.47Z"/><path class="cls-7" d="M43.77,4.82c.77-.03.51-.34,0-.47s-1.15.52,0,.47Z"/><path class="cls-7" d="M19.16,14.59c.77-.03.51-.34,0-.47s-1.15.52,0,.47Z"/><path class="cls-7" d="M13.16,11.84c.77-.03.51-.34,0-.47s-1.15.52,0,.47Z"/><path class="cls-7" d="M14.6,11.19c.77-.03.51-.34,0-.47-.51-.13-1.15.52,0,.47Z"/><path class="cls-7" d="M31.16,8.89c.77-.03.51-.34,0-.47-.51-.13-1.15.52,0,.47Z"/><path class="cls-7" d="M32.5,9.78c.77-.03.51-.34,0-.47-.51-.13-1.15.52,0,.47Z"/><path class="cls-7" d="M79.74,17.7c.77-.06.51-.59,0-.8-.51-.22-1.15.89,0,.8Z"/><path class="cls-7" d="M66.51,27.06c.77-.06.51-.59,0-.8-.51-.22-1.15.89,0,.8Z"/><path class="cls-7" d="M24.6,22.75c.84-.17,1.48,1.53.58,1.61-.89.09-1.42-1.44-.58-1.61Z"/><path class="cls-7" d="M41.61,15.08c-.4-.67,4.21-.65,4.37.03.16.68-3.96.64-4.37-.03Z"/><path class="cls-7" d="M61.37,6.26c-.4-.67,4.21-.65,4.37.03.16.68-3.96.64-4.37-.03Z"/><path class="cls-7" d="M15.02,21.47c-1.22-.63.09-2.59.98-1.4.89,1.19.51,2.17-.98,1.4Z"/><path class="cls-7" d="M16.47,23.28c-.95.15-.59-1.09,0-1.16s.9,1.01,0,1.16Z"/><path class="cls-7" d="M78.23,18.86c-.95.15-.59-1.09,0-1.16s.9,1.01,0,1.16Z"/><path class="cls-7" d="M6.5,15.98c.52-.6,2.13,1.91,1.15,1.87-.98-.04-1.45-1.53-1.15-1.87Z"/><path class="cls-7" d="M70.32,25.09c.52-.6,2.13,1.91,1.15,1.87-.98-.04-1.45-1.53-1.15-1.87Z"/><path class="cls-7" d="M7.7,20.71c.22-.2,2.17,1.71,1.57,2.02-.6.31-2.1-1.53-1.57-2.02Z"/><path class="cls-7" d="M75.3,20.43c.29.07-.23,2.76-.81,2.43-.58-.33.11-2.59.81-2.43Z"/><path class="cls-7" d="M48.1,17.96c0,.3-2.73.43-2.55-.22.18-.65,2.55-.5,2.55.22Z"/><path class="cls-7" d="M55.76,9.97c0,.3-2.73.43-2.55-.22.18-.65,2.55-.5,2.55.22Z"/><path class="cls-7" d="M27.16,6.68c0,.3-2.73.43-2.55-.22s2.55-.5,2.55.22Z"/><path class="cls-7" d="M25.31,28.1c-.38-.64.94-.6,1.15-.26.21.34-.77.9-1.15.26Z"/><path class="cls-7" d="M64.9,26.18c-.38-.64.94-.6,1.15-.26.21.34-.77.9-1.15.26Z"/></g><path class="cls-13" d="M62.5,14.4c.11-.66,2.78-.32,2.49,0-.29.32-2.59.57-2.49,0Z"/><path class="cls-13" d="M65.46,14.96c.19-.16,1.81-.21,1.66.07-.15.27-2.05.25-1.66-.07Z"/><path class="cls-13" d="M40.67,12.61c.19-.16,1.81-.21,1.66.07s-2.05.25-1.66-.07Z"/><path class="cls-13" d="M28.53,17.13c.19-.16,1.81-.21,1.66.07s-2.05.25-1.66-.07Z"/><path class="cls-13" d="M74.82,10.06c2.53.14,2.3-.68-.09-.57s-1.79.47.09.57Z"/><path class="cls-13" d="M40.07,13.85c2.53.14,2.3-.68-.09-.57-2.38.11-1.78.47.09.57Z"/><path class="cls-13" d="M76.12,10.6c.56,0,.51.42,0,.31-.51-.11-.45-.31,0-.31Z"/><path class="cls-13" d="M65.74,13.45c.68-.02.3.23,0,.23s-.79-.21,0-.23Z"/><path class="cls-13" d="M55.78,18.76c.68-.02.3.23,0,.23s-.79-.21,0-.23Z"/><path class="cls-13" d="M27.57,17.22c.68-.02.3.23,0,.23s-.79-.21,0-.23Z"/><path class="cls-13" d="M28.96,17.65c.68-.02.3.23,0,.23s-.79-.21,0-.23Z"/><g class="cls-29"><path class="cls-19" d="M19.86,20.13c-.81.89-.84,4.1.12,4.1.97,0,.71-5.02-.12-4.1Z"/><path class="cls-13" d="M20.11,23.16c.21.01.26.79,0,.86-.61.17-.29-.88,0-.86Z"/></g><g class="cls-29"><path class="cls-24" d="M63.63,24.97c-.81.9-.84,4.1.12,4.1.97,0,.71-5.02-.12-4.1Z"/><path class="cls-13" d="M63.88,28c.21.01.26.79,0,.86-.61.17-.29-.88,0-.86Z"/></g><g class="cls-29"><path class="cls-22" d="M72.39,18.02c-.81.89-.84,4.1.12,4.1.97,0,.71-5.02-.12-4.1Z"/><path class="cls-13" d="M72.63,21.05c.21.01.26.79,0,.86-.61.17-.29-.88,0-.86Z"/></g><g class="cls-29"><path class="cls-21" d="M21.16,23.65c-.42.47-.44,2.13.06,2.13.5,0,.37-2.61-.06-2.13Z"/><path class="cls-13" d="M21.29,25.23c.11,0,.14.41,0,.45-.32.09-.15-.46,0-.45Z"/></g><g class="cls-29"><path class="cls-23" d="M40.58,23.33c-.42.47-.44,2.13.06,2.13.5,0,.37-2.61-.06-2.13Z"/><path class="cls-13" d="M40.71,24.9c.11,0,.14.41,0,.45-.32.09-.15-.46,0-.45Z"/></g><g class="cls-29"><path class="cls-25" d="M70.97,21.29c-.42.47-.44,2.13.06,2.13.5,0,.37-2.61-.06-2.13Z"/><path class="cls-13" d="M71.1,22.87c.11,0,.14.41,0,.45-.32.09-.15-.46,0-.45Z"/></g><g class="cls-26"><path class="cls-3" d="M70.48,18.45c.59-.34.32-1.45,0-1.45s-.74,1.88,0,1.45Z"/><path class="cls-3" d="M69.43,18.22c.04-.26.63.11.56.3-.06.19-.62.04-.56-.3Z"/><path class="cls-3" d="M80.47,13.38c-.05-.56-1.5.25-1.38.77s1.43-.22,1.38-.77Z"/><path class="cls-3" d="M78.46,14.33c-.03-.31.59-.3.49-.06-.1.24-.46.33-.49.06Z"/><path class="cls-3" d="M78.13,8.91c.15-.21.91.33.65.55-.25.22-.84-.28-.65-.55Z"/><path class="cls-3" d="M51.19,20.78c.46-.02-.06-.68-.45-.49-.38.19-.29.52.45.49Z"/><path class="cls-3" d="M51.71,20.78c.06-.3,1.39-.22,1.39,0s-1.49.54-1.39,0Z"/><path class="cls-3" d="M38.45,21.11c.32-.05.18-.67-.38-.55s-1.22.83.38.55Z"/><path class="cls-8" d="M80.63,12.7c.38-.1-.18-.72-.29-.62-.11.1.03.69.29.62Z"/></g></g></g></g></svg>