<?xml version="1.0" encoding="UTF-8"?><svg xmlns="http://www.w3.org/2000/svg" xmlns:xlink="http://www.w3.org/1999/xlink" viewBox="0 0 61.28 39.02"><defs><style>.cls-1{fill:url(#New_Gradient_Swatch_69-8);}.cls-1,.cls-2,.cls-3,.cls-4,.cls-5,.cls-6,.cls-7,.cls-8,.cls-9,.cls-10,.cls-11,.cls-12,.cls-13,.cls-14,.cls-15,.cls-16,.cls-17,.cls-18,.cls-19,.cls-20,.cls-21,.cls-22,.cls-23,.cls-24,.cls-25,.cls-26,.cls-27,.cls-28,.cls-29,.cls-30,.cls-31,.cls-32,.cls-33,.cls-34{fill-rule:evenodd;}.cls-1,.cls-2,.cls-3,.cls-4,.cls-5,.cls-6,.cls-7,.cls-8,.cls-9,.cls-10,.cls-11,.cls-12,.cls-16,.cls-24,.cls-25,.cls-26,.cls-27,.cls-29,.cls-30,.cls-35{mix-blend-mode:screen;}.cls-1,.cls-2,.cls-3,.cls-27{opacity:.6;}.cls-2{fill:url(#New_Gradient_Swatch_69-7);}.cls-3{fill:url(#New_Gradient_Swatch_69-9);}.cls-4{fill:url(#New_Gradient_Swatch_69-3);}.cls-4,.cls-5,.cls-6,.cls-7,.cls-8,.cls-12,.cls-17,.cls-20,.cls-26{opacity:.25;}.cls-5{fill:url(#New_Gradient_Swatch_69-5);}.cls-6{fill:url(#New_Gradient_Swatch_69-4);}.cls-7{fill:url(#New_Gradient_Swatch_69-6);}.cls-8{fill:url(#New_Gradient_Swatch_69-2);}.cls-9{fill:url(#radial-gradient-3);}.cls-9,.cls-22{opacity:.7;}.cls-10{fill:url(#radial-gradient-5);opacity:.2;}.cls-11{fill:url(#New_Gradient_Swatch_75);}.cls-11,.cls-30{opacity:.75;}.cls-12{fill:url(#New_Gradient_Swatch_69);}.cls-36{opacity:.8;}.cls-36,.cls-14,.cls-17,.cls-18,.cls-19,.cls-20,.cls-21,.cls-22,.cls-23{mix-blend-mode:multiply;}.cls-13{fill:url(#radial-gradient-17);}.cls-14{fill:url(#radial-gradient);}.cls-14,.cls-18,.cls-37,.cls-28,.cls-31,.cls-35{opacity:.5;}.cls-15{fill:url(#radial-gradient-11);}.cls-15,.cls-19,.cls-23,.cls-38{opacity:.4;}.cls-39{isolation:isolate;}.cls-16{fill:url(#radial-gradient-15);}.cls-17{fill:url(#radial-gradient-10);}.cls-18{fill:url(#radial-gradient-14);}.cls-19{fill:url(#radial-gradient-16);}.cls-20{fill:url(#radial-gradient-4);}.cls-21{fill:url(#radial-gradient-7);}.cls-21,.cls-25{opacity:.65;}.cls-22{fill:url(#radial-gradient-8);}.cls-23{fill:url(#radial-gradient-6);}.cls-24{fill:url(#linear-gradient);opacity:.35;}.cls-25{fill:url(#linear-gradient-2);}.cls-26{fill:url(#linear-gradient-3);}.cls-27{fill:url(#New_Gradient_Swatch_69-10);}.cls-28{fill:#f2ab68;}.cls-29{fill:url(#radial-gradient-12);opacity:.45;}.cls-30{fill:url(#radial-gradient-13);}.cls-31,.cls-32{fill:#f27540;}.cls-32{opacity:.3;}.cls-33{fill:url(#radial-gradient-9);}.cls-34{fill:url(#radial-gradient-2);}</style><radialGradient id="radial-gradient" cx="30.89" cy="-21.93" fx="30.89" fy="-21.93" r="61.86" gradientUnits="userSpaceOnUse"><stop offset=".84" stop-color="#732905"/><stop offset=".89" stop-color="#742a06"/><stop offset=".91" stop-color="#77300d"/><stop offset=".92" stop-color="#7e3a19"/><stop offset=".94" stop-color="#87492b"/><stop offset=".95" stop-color="#935c41"/><stop offset=".96" stop-color="#a2735d"/><stop offset=".97" stop-color="#b48f7e"/><stop offset=".97" stop-color="#c8b0a4"/><stop offset=".98" stop-color="#dfd4ce"/><stop offset=".99" stop-color="#f2f2f2"/></radialGradient><radialGradient id="radial-gradient-2" cx="23.89" cy="26.7" fx="23.89" fy="26.7" r="37.79" gradientUnits="userSpaceOnUse"><stop offset="0" stop-color="#7d3120"/><stop offset="1" stop-color="#521c25"/></radialGradient><radialGradient id="radial-gradient-3" cx="30.64" cy="-2.64" fx="30.64" fy="-2.64" r="40.33" gradientUnits="userSpaceOnUse"><stop offset=".87" stop-color="#000"/><stop offset=".95" stop-color="#8c222e"/><stop offset="1" stop-color="#000"/></radialGradient><radialGradient id="radial-gradient-4" cx="18.19" cy="27.4" fx="18.19" fy="27.4" r="34.1" gradientUnits="userSpaceOnUse"><stop offset="0" stop-color="#b0969e"/><stop offset=".77" stop-color="#823630"/></radialGradient><radialGradient id="radial-gradient-5" cx="18.35" cy="28.15" fx="18.35" fy="28.15" r="39.64" gradientUnits="userSpaceOnUse"><stop offset="0" stop-color="#d98675"/><stop offset=".07" stop-color="#cf7b6c"/><stop offset=".31" stop-color="#b45f52"/><stop offset=".54" stop-color="#a04a40"/><stop offset=".77" stop-color="#943e35"/><stop offset="1" stop-color="#913a32"/></radialGradient><radialGradient id="radial-gradient-6" cx="-42.56" cy="57.07" fx="-42.56" fy="57.07" r="59.9" gradientTransform="translate(20.3 -42.49) rotate(-32.46)" gradientUnits="userSpaceOnUse"><stop offset="0" stop-color="#612911"/><stop offset="1" stop-color="#471703"/></radialGradient><radialGradient id="radial-gradient-7" cx="28.27" cy="-7.17" fx="28.27" fy="-7.17" r="50.16" gradientUnits="userSpaceOnUse"><stop offset=".79" stop-color="#f2f2f2"/><stop offset=".81" stop-color="#edebeb"/><stop offset=".84" stop-color="#e2d9d9"/><stop offset=".88" stop-color="#cebcbb"/><stop offset=".92" stop-color="#b39491"/><stop offset=".96" stop-color="#91605c"/><stop offset="1" stop-color="#68221d"/></radialGradient><radialGradient id="radial-gradient-8" cx="30.92" cy="17.55" fx="30.92" fy="17.55" r="33.35" gradientUnits="userSpaceOnUse"><stop offset=".74" stop-color="#fff"/><stop offset=".78" stop-color="#fcfbfa"/><stop offset=".81" stop-color="#f3efee"/><stop offset=".85" stop-color="#e5dbda"/><stop offset=".89" stop-color="#d1c0bd"/><stop offset=".92" stop-color="#b79d98"/><stop offset=".96" stop-color="#98716b"/><stop offset=".99" stop-color="#733f36"/><stop offset="1" stop-color="#6e382f"/></radialGradient><radialGradient id="New_Gradient_Swatch_69" cx="14.17" cy="42.65" fx="14.17" fy="42.65" r="7.97" gradientTransform="translate(0 -10.35) scale(1 .9)" gradientUnits="userSpaceOnUse"><stop offset="0" stop-color="#b3604e"/><stop offset="1" stop-color="#1d1828"/></radialGradient><radialGradient id="New_Gradient_Swatch_69-2" cx="13.21" cy="42.04" fx="13.21" fy="42.04" r="7.44" xlink:href="#New_Gradient_Swatch_69"/><linearGradient id="linear-gradient" x1="13.8" y1="31.75" x2="13.8" y2="26.82" gradientUnits="userSpaceOnUse"><stop offset="0" stop-color="#1d1828"/><stop offset="1" stop-color="#c27d69"/></linearGradient><radialGradient id="New_Gradient_Swatch_69-3" cx="43.29" cy="29.69" fx="43.29" fy="29.69" r="8.89" gradientTransform="translate(-11.02 -3.86) rotate(5.82)" xlink:href="#New_Gradient_Swatch_69"/><radialGradient id="New_Gradient_Swatch_69-4" cx="43.99" cy="30.6" fx="43.99" fy="30.6" r="5.22" gradientTransform="translate(-11.02 -3.86) rotate(5.82)" xlink:href="#New_Gradient_Swatch_69"/><linearGradient id="linear-gradient-2" x1="45.71" y1="32.54" x2="45.71" y2="29.8" gradientTransform="translate(-11.02 -3.86) rotate(5.82)" xlink:href="#linear-gradient"/><radialGradient id="New_Gradient_Swatch_69-5" cx="69.18" cy="47.01" fx="69.18" fy="47.01" r="5.51" gradientTransform="translate(-10.75 -22.14) rotate(7.01) scale(1 .87)" xlink:href="#New_Gradient_Swatch_69"/><radialGradient id="New_Gradient_Swatch_69-6" cx="68.21" cy="47.14" fx="68.21" fy="47.14" r="4.14" gradientTransform="translate(-10.75 -22.14) rotate(7.01) scale(1 .87)" xlink:href="#New_Gradient_Swatch_69"/><linearGradient id="linear-gradient-3" x1="66.59" y1="50.73" x2="66.59" y2="46.53" gradientTransform="translate(-10.75 -22.14) rotate(7.01) scale(1 .87)" xlink:href="#linear-gradient"/><radialGradient id="radial-gradient-9" cx="15.92" cy="29.11" fx="15.92" fy="29.11" r="59.85" gradientUnits="userSpaceOnUse"><stop offset="0" stop-color="#a64f3b"/><stop offset="1" stop-color="#68221d"/></radialGradient><radialGradient id="radial-gradient-10" cx="20.86" cy="28.51" fx="20.86" fy="28.51" r="50.26" xlink:href="#radial-gradient-4"/><radialGradient id="radial-gradient-11" cx="15.94" cy="32.46" fx="15.94" fy="32.46" r="56.25" xlink:href="#radial-gradient-5"/><radialGradient id="radial-gradient-12" cx="21.47" cy="13.59" fx="21.47" fy="13.59" r="26.02" gradientUnits="userSpaceOnUse"><stop offset="0" stop-color="#db1d00"/><stop offset="1" stop-color="#171717"/></radialGradient><radialGradient id="radial-gradient-13" cx="15.78" cy="24.54" fx="15.78" fy="24.54" r="12.5" gradientUnits="userSpaceOnUse"><stop offset="0" stop-color="#d64b2e"/><stop offset="1" stop-color="#2d1818"/></radialGradient><radialGradient id="New_Gradient_Swatch_75" cx="30.58" cy="29.31" fx="30.58" fy="29.31" r="5.41" gradientUnits="userSpaceOnUse"><stop offset="0" stop-color="#b85e4b"/><stop offset="1" stop-color="#221c2d"/></radialGradient><radialGradient id="radial-gradient-14" cx="28.79" cy="52.6" fx="28.79" fy="52.6" r="56.51" xlink:href="#radial-gradient-7"/><radialGradient id="radial-gradient-15" cx="12.33" cy="30.37" fx="12.33" fy="30.37" r="8.94" gradientUnits="userSpaceOnUse"><stop offset="0" stop-color="#f2866e"/><stop offset="1" stop-color="#1b1628"/></radialGradient><radialGradient id="radial-gradient-16" cx="25.98" cy="17.47" fx="25.98" fy="17.47" r="63.83" gradientTransform="translate(-7.66 -3.37) rotate(7.77) scale(1.03 .9) skewX(.75)" gradientUnits="userSpaceOnUse"><stop offset="0" stop-color="#ab6868"/><stop offset="1" stop-color="#68312b"/></radialGradient><radialGradient id="New_Gradient_Swatch_69-7" cx="94.34" cy="-175.04" fx="94.34" fy="-175.04" r="24.98" gradientTransform="translate(165.71 -155.49) rotate(-172.63)" xlink:href="#New_Gradient_Swatch_69"/><radialGradient id="New_Gradient_Swatch_69-8" cx="35.04" cy="-61.59" fx="35.04" fy="-61.59" r="21.3" gradientTransform="translate(-26.66 66.6) rotate(12.64)" xlink:href="#New_Gradient_Swatch_69"/><radialGradient id="New_Gradient_Swatch_69-9" cx="-53.58" cy="-47.63" fx="-53.58" fy="-47.63" r="14.54" gradientTransform="translate(70.68 78.4) rotate(7.02)" xlink:href="#New_Gradient_Swatch_69"/><radialGradient id="New_Gradient_Swatch_69-10" cx="113.71" cy="-174.45" fx="113.71" fy="-174.45" r="11.38" gradientTransform="translate(162.76 -169.31) rotate(-179.63)" xlink:href="#New_Gradient_Swatch_69"/><radialGradient id="radial-gradient-17" cx="34.96" cy="-30.13" fx="34.96" fy="-30.13" r="59.09" gradientUnits="userSpaceOnUse"><stop offset="0" stop-color="#945b56"/><stop offset="1" stop-color="#ab7082"/></radialGradient></defs><g class="cls-39"><g id="Layer_2"><g id="Layer_1-2"><path class="cls-14" d="M1.64,22.42c.05.16.11.34.14.59.07.63-.06,1.27.06,1.89.04.2.33.28.39.47.16.48.08,1.02.25,1.5.16.44.51.78.72,1.2.25.49.37,1.09.74,1.49.45.49.9.64,1.4,1.06.19.16.32.49.5.65.32.28.83.3,1.14.58.48.44.65,1.19,1.2,1.56.66.45,1.54.43,2.25.78.38.19.58.65.97.81.8.32,1.73.26,2.53.58.27.11.54.6.81.72.63.29,1.15.01,1.82.21.7.2.98,1.01,1.79.9.22-.03.67-.18.89-.14.71.12,1.34.56,2.06.61.63.04,1.03-.28,1.66-.18.26.04.34.46.6.54.37.11.76-.29,1.14-.22.55.1.95.65,1.5.72.52.07,1.03-.3,1.56-.31.51,0,.99.27,1.5.28.7.01,1.39-.22,2.09-.22.32,0,.62.19.95.22.37.03.74-.06,1.11-.03.56.06,1.11.37,1.67.31.66-.08,1.21-.61,1.86-.72.95-.16,1.95.12,2.89-.08.27-.06.26-.59.53-.64.75-.13,1.53.26,2.28.14.25-.04.25-.51.5-.58.5-.15,1.06.12,1.56-.03.44-.13.71-.61,1.14-.75.31-.1.66.12.97.06.38-.08.68-.42,1.06-.47.4-.06.83.3,1.2.14.29-.13.16-.67.42-.86.27-.2.71,0,1-.17.16-.09.02-.46.19-.53.4-.16.92.11,1.31-.08.52-.26.77-.88,1.25-1.2.3-.2.74-.09,1.03-.31.32-.24.41-.7.7-.97.16-.16.48-.1.61-.28.13-.17.17-.51.33-.64.33-.26.64-.05.92-.36.29-.33.25-.75.53-1.1.21-.26.49-.2.72-.43.18-.18.14-.5.26-.72.15-.27.32-.32.46-.58.16-.31,0-.7.11-1.03.1-.29.47-.47.5-.78.05-.44-.3-.85-.26-1.29.02-.26.39-.42.4-.68.01-.23-.31-.37-.32-.6-.02-.32.26-.62.24-.95-.02-.19-.1-.36-.2-.53-.09-.15-.12-.27-.12-.35-.02-.33.03-.36-.09-.75-.05-.16-.11-.34-.22-.54-.31-.57-.49-.98-.82-1.53-.14-.24-.36-.51-.54-.72-.55-.64-.8-1.3-1.43-1.86-.24-.22-.72-.09-.99-.28-.39-.28-.41-.89-.78-1.2-.47-.39-1.98-.34-2.59-1.25-.09-.13-.19-.42-.33-.5-.33-.21-.79-.12-1.14-.31-.19-.1-.42-.34-.62-.41-.24-.09-.28.08-.52,0-.38-.13-.61-.54-.97-.7-.46-.2-1.02-.14-1.47-.36-.35-.17-.49-.66-.86-.78-.47-.15-.99.12-1.47.03-.23-.04-.33-.36-.56-.42-.37-.09-.76.05-1.14,0-.52-.08-1.01-.34-1.53-.39-.16-.02-.28.21-.45.19-.67-.08-1.3-.39-1.98-.47-.24-.03-.49.2-.72.14-.49-.12-.87-.54-1.36-.67-.55-.14-1.13-.2-1.7-.14-.33.04-.58.42-.92.42-.3,0-.51-.39-.81-.42-.32-.03-.6.28-.92.25-.61-.06-1.19-.51-1.79-.43-.72.09-1.18.48-1.88.65-.41.1-.83,0-1.25.03-.4.02-.76.31-1.17.33-.46.03-.9-.2-1.36-.19-.33,0-.63.3-.96.29-.49-.02-1.07-.25-1.56-.18-.68.1-1.14.47-1.82.58-.35.06-.67-.3-1.03-.28-.35.02-.62.36-.97.42-.4.06-.58-.07-.97.04-.19.05-.39.28-.56.38-.22.13-.53,0-.75.11-.27.14-.43.34-.72.4-.49.11-.96-.04-1.45.1-.45.12-.66.5-1.1.67-.33.13-.76.06-1.1.17-.5.16-.88.58-1.36.78-.47.2-1.03.17-1.47.42-.29.17-.39.56-.64.78-.15.13-.39.14-.56.25-.23.16-.41.4-.64.56-.45.31-1,.48-1.42.83-.28.23-.36.65-.64.89-.21.18-.6.12-.78.33-.36.43-.44,1.04-.75,1.5-.1.15-.25.15-.35.29-.1.14-.11.35-.21.49-.32.44-.68.71-.95,1.18-.12.2-.05.5-.14.71-.02.05-.05.1-.08.15-.23.38-.28.8-.14,1.22h0Z"/><path class="cls-34" d="M10.17,4.36c-.48.2-1.04.17-1.49.42-.3.17-.39.57-.65.79-.16.13-.39.14-.56.25-.24.16-.41.4-.65.56-.46.31-1.01.49-1.44.85-.28.24-.37.66-.65.9-.22.19-.61.12-.79.34-.36.44-.44,1.05-.76,1.52-.1.15-.25.15-.35.3-.1.14-.11.35-.21.49-.32.45-.68.72-.96,1.2-.12.2-.05.5-.14.72-.16.37-.51.62-.65,1-.13.35-.04.72-.11,1.08-.03.16-.17.38-.2.55-.07.45,0,.75-.08,1.2-.08.4-.26.79-.32,1.2-.07.45-.05.83-.07,1.28-.02.38-.12.74-.06,1.11.06.33.29.52.39.83.09.26.02.56.1.82.08.28.15.48.21.76.09.39,0,.8.11,1.18.08.28.31.47.42.73.18.41.2.85.42,1.24.29.52.86.84,1.21,1.32.28.39.38.89.68,1.27.28.36.71.57.99.93.14.18.05.5.23.65.27.24.6.17.89.39.16.12.15.46.32.56.36.21.89.36,1.23.6.54.38.78.78,1.31,1.18.17.13.47.02.68.09.23.09.31.26.54.36.26.11.51,0,.75.15.24.16.32.58.58.72.38.21.73.13,1.11.32.27.14.45.48.72.63.38.22.81.13,1.18.35.21.12.28.43.45.61.4.42,1.44-.04,2.08-.03.23,0,.42.24.65.25.39.03.77-.17,1.16-.11.26.04.49.22.7.37.21.14.32.44.56.51.23.07.51-.03.75.01.46.08.82.22,1.28.32.37.08.76-.01,1.13.06.5.09.96.35,1.47.42.61.09,1.25-.06,1.86.06.22.04.31.38.54.39.6.04,1.22-.07,1.8-.23.24-.06.4-.23.65-.21.31.02.43.25.73.32.32.08.66-.12.99-.08.28.03.51.28.79.25.72-.07,1.37-.46,2.09-.56.3-.05.6.15.9.11.18-.02.6-.13.77-.14.66-.03.99.05,1.65.03.31-.01.59-.25.9-.28.35-.04.71.15,1.04.06.28-.08.53-.33.82-.38.42-.08.66-.06,1.08-.13.32-.05.55-.33.87-.39.41-.08.82.17,1.23.11.25-.04.41-.32.65-.39.69-.22,1.37-.25,2.05-.49.13-.05.5-.38.63-.43.48-.18.68,0,1.16-.2.24-.1.27-.49.51-.59.65-.26,1.42-.15,2.06-.45.37-.18.19-.39.56-.58.37-.2,1.19-.3,1.55-.51.53-.33.72-1.05,1.25-1.38.2-.13.74.02.96-.08.31-.14.36-.52.45-.57.2-.13.62-.02.7-.11.27-.32.35-.78.65-1.07.31-.3.85-.32,1.13-.65.21-.24.13-.49.3-.76.09-.14.3-.18.4-.31.23-.31.2-.63.44-.93.18-.22.59-.27.74-.51.2-.31.02-.77.2-1.1.21-.38.78-.51.9-.93.21-.73-.09-1.53,0-2.28.02-.2.3-.31.34-.51.03-.18-.01-.38.04-.56.1-.36.28-.55.36-.91.05-.23-.22-.44-.2-.68.06-.55.4-1.05.45-1.61.02-.27-.24-.49-.25-.76-.02-.31.07-.62-.01-.92-.13-.43-.43-.66-.58-1.08-.1-.29.1-.62.06-.93-.03-.19-.22-.32-.28-.51-.14-.4-.11-.87-.31-1.24-.14-.26-.54-.31-.68-.56-.31-.58-.49-.99-.83-1.55-.15-.24-.36-.52-.55-.73-.56-.65-.81-1.32-1.45-1.89-.25-.22-.73-.09-1-.28-.39-.28-.42-.91-.79-1.21-.47-.39-2-.34-2.63-1.27-.09-.14-.19-.42-.33-.51-.34-.21-.8-.12-1.16-.31-.19-.1-.43-.34-.63-.42-.24-.09-.29.08-.53,0-.38-.14-.62-.54-.99-.7-.47-.2-1.03-.14-1.49-.37-.35-.17-.5-.67-.87-.79-.47-.15-1,.12-1.49.03-.23-.04-.34-.37-.56-.42-.37-.09-.77.06-1.16,0-.53-.08-1.02-.34-1.55-.39-.16-.02-.29.22-.45.2-.68-.08-1.32-.39-2-.48-.25-.03-.49.2-.73.14-.5-.13-.89-.55-1.38-.68-.56-.15-1.15-.2-1.72-.14-.34.04-.59.42-.93.42-.31,0-.51-.39-.82-.42-.32-.03-.61.29-.93.25-.61-.06-1.2-.52-1.82-.44-.73.09-1.19.49-1.9.66-.42.1-.84,0-1.27.03-.41.02-.77.32-1.18.34-.46.03-.92-.2-1.38-.2-.34,0-.64.31-.97.3-.5-.02-1.08-.25-1.58-.18-.69.1-1.16.47-1.85.59-.35.06-.68-.31-1.04-.28-.36.02-.63.37-.99.42-.41.06-.59-.07-.99.04-.19.05-.39.28-.56.38-.22.13-.53,0-.76.11-.27.14-.43.34-.73.41-.5.11-.97-.04-1.47.1-.46.13-.67.51-1.11.68-.33.13-.77.06-1.11.17-.5.16-.89.58-1.38.79h0Z"/><path class="cls-9" d="M10.17,4.36c-.48.2-1.04.17-1.49.42-.3.17-.39.57-.65.79-.16.13-.39.14-.56.25-.24.16-.41.4-.65.56-.46.31-1.01.49-1.44.85-.28.24-.37.66-.65.9-.22.19-.61.12-.79.34-.36.44-.44,1.05-.76,1.52-.1.15-.25.15-.35.3-.1.14-.11.35-.21.49-.32.45-.68.72-.96,1.2-.12.2-.05.5-.14.72-.16.37-.51.62-.65,1-.13.35-.04.72-.11,1.08-.03.16-.17.38-.2.55-.07.45,0,.75-.08,1.2-.08.4-.26.79-.32,1.2-.07.45-.05.83-.07,1.28-.02.38-.12.74-.06,1.11.06.33.29.52.39.83.09.26.02.56.1.82.08.28.15.48.21.76.09.39,0,.8.11,1.18.08.28.31.47.42.73.18.41.2.85.42,1.24.29.52.86.84,1.21,1.32.28.39.38.89.68,1.27.28.36.71.57.99.93.14.18.05.5.23.65.27.24.6.17.89.39.16.12.15.46.32.56.36.21.89.36,1.23.6.54.38.78.78,1.31,1.18.17.13.47.02.68.09.23.09.31.26.54.36.26.11.51,0,.75.15.24.16.32.58.58.72.38.21.73.13,1.11.32.27.14.45.48.72.63.38.22.81.13,1.18.35.21.12.28.43.45.61.4.42,1.44-.04,2.08-.03.23,0,.42.24.65.25.39.03.77-.17,1.16-.11.26.04.49.22.7.37.21.14.32.44.56.51.23.07.51-.03.75.01.46.08.82.22,1.28.32.37.08.76-.01,1.13.06.5.09.96.35,1.47.42.61.09,1.25-.06,1.86.06.22.04.31.38.54.39.6.04,1.22-.07,1.8-.23.24-.06.4-.23.65-.21.31.02.43.25.73.32.32.08.66-.12.99-.08.28.03.51.28.79.25.72-.07,1.37-.46,2.09-.56.3-.05.6.15.9.11.18-.02.6-.13.77-.14.66-.03.99.05,1.65.03.31-.01.59-.25.9-.28.35-.04.71.15,1.04.06.28-.08.53-.33.82-.38.42-.08.66-.06,1.08-.13.32-.05.55-.33.87-.39.41-.08.82.17,1.23.11.25-.04.41-.32.65-.39.69-.22,1.37-.25,2.05-.49.13-.05.5-.38.63-.43.48-.18.68,0,1.16-.2.24-.1.27-.49.51-.59.65-.26,1.42-.15,2.06-.45.37-.18.19-.39.56-.58.37-.2,1.19-.3,1.55-.51.53-.33.72-1.05,1.25-1.38.2-.13.74.02.96-.08.31-.14.36-.52.45-.57.2-.13.62-.02.7-.11.27-.32.35-.78.65-1.07.31-.3.85-.32,1.13-.65.21-.24.13-.49.3-.76.09-.14.3-.18.4-.31.23-.31.2-.63.44-.93.18-.22.59-.27.74-.51.2-.31.02-.77.2-1.1.21-.38.78-.51.9-.93.21-.73-.09-1.53,0-2.28.02-.2.3-.31.34-.51.03-.18-.01-.38.04-.56.1-.36.28-.55.36-.91.05-.23-.22-.44-.2-.68.06-.55.4-1.05.45-1.61.02-.27-.24-.49-.25-.76-.02-.31.07-.62-.01-.92-.13-.43-.43-.66-.58-1.08-.1-.29.1-.62.06-.93-.03-.19-.22-.32-.28-.51-.14-.4-.11-.87-.31-1.24-.14-.26-.54-.31-.68-.56-.31-.58-.49-.99-.83-1.55-.15-.24-.36-.52-.55-.73-.56-.65-.81-1.32-1.45-1.89-.25-.22-.73-.09-1-.28-.39-.28-.42-.91-.79-1.21-.47-.39-2-.34-2.63-1.27-.09-.14-.19-.42-.33-.51-.34-.21-.8-.12-1.16-.31-.19-.1-.43-.34-.63-.42-.24-.09-.29.08-.53,0-.38-.14-.62-.54-.99-.7-.47-.2-1.03-.14-1.49-.37-.35-.17-.5-.67-.87-.79-.47-.15-1,.12-1.49.03-.23-.04-.34-.37-.56-.42-.37-.09-.77.06-1.16,0-.53-.08-1.02-.34-1.55-.39-.16-.02-.29.22-.45.2-.68-.08-1.32-.39-2-.48-.25-.03-.49.2-.73.14-.5-.13-.89-.55-1.38-.68-.56-.15-1.15-.2-1.72-.14-.34.04-.59.42-.93.42-.31,0-.51-.39-.82-.42-.32-.03-.61.29-.93.25-.61-.06-1.2-.52-1.82-.44-.73.09-1.19.49-1.9.66-.42.1-.84,0-1.27.03-.41.02-.77.32-1.18.34-.46.03-.92-.2-1.38-.2-.34,0-.64.31-.97.3-.5-.02-1.08-.25-1.58-.18-.69.1-1.16.47-1.85.59-.35.06-.68-.31-1.04-.28-.36.02-.63.37-.99.42-.41.06-.59-.07-.99.04-.19.05-.39.28-.56.38-.22.13-.53,0-.76.11-.27.14-.43.34-.73.41-.5.11-.97-.04-1.47.1-.46.13-.67.51-1.11.68-.33.13-.77.06-1.11.17-.5.16-.89.58-1.38.79h0Z"/><path class="cls-20" d="M5.69,20.94c-1.36-.87-1.54.56-2.24.56-1.11,0-.73,2.33.52,2.03.51-.12.25-.86,1.17-.95.38-.04,1.07-.06.7-.62-.43-.66.15-.83-.15-1.02h0ZM8.25,23.63c-.61.06-2.07-.21-1.76.86.13.44.76-.36,1.38.02,0,0,1.13.1,1.13-.62,0-.26-.52-.29-.75-.27h0ZM5.29,25.66c-1.27.25-.39.91-.86,1.32-.28.24.16.39.45.39.83,0,.63-.49,2.15-.42.37.02.45-.99-.8-.96-.13,0-.48-.41-.93-.32h0ZM10.38,27.97c-1-.5-1.22.77-1.54.77-1.41,0-1.23,1.16-.84,1.13.37-.03.49.29,1.69,0,.98-.23.12.98,1.64,1.06.48.02,1.03.61,1.25.99.48.82,1.46.9,1.49.31.03-.62,0-.61-.75-1.06-1.19-.72-.59.15-1.11-1.27-.34-.93-1.37-.06-1.32-1.16,0-.09-.49-.77-.51-.77h0ZM13.34,28.09c-.79-.19-1.15,1.09.15,1.01.12,0,1.25,1.27,1.37,0,.03-.34-.81-.38-1.11-.8-.15-.21-.31-.19-.42-.21h0ZM18.18,30.28c-1.06.08-1.48-.28-2.04.47-.18.24-1.28-.18-.89.81.18.46,1.08.91-.18,1.71-.52.33.1,1.03.98.59,1.22-.6.36-.37,1.62-.32.23,0,.45-.64.06-.96-.65-.52.09-.95.76-.99.46-.03.65-.33.79-.36,0-.74-.49-.06-.78-.92-.05-.14-.22-.03-.32-.02h0ZM18.77,32.28c-.37.21-.57.77.26.72.1,0,.86.52.81-.25,0-.15-.88-.58-1.07-.47h0ZM22.07,34.15c-.9-.15-2.14-.46-2.14.76.19-.01,1.36.1,1.44.4.03.12.86.11,1.32.39.06.04,1.16.3,1.16-.14,0-1.09-.76-.27-.92-1.01-.06-.26-.66-.36-.85-.39h0ZM23.04,30.64c-1.12.13-2.06-.02-2.25,1.19-.07.45-.93,1.2.64,1.16.21,0,1.39-1.26,1.83-.61.35.51.93-.51,1.52-.51.5,0,.8-.09,1.25.16.26.14.99-.44.11-.92-.3-.16-.89-.26-1.16-.68-.18-.29-.97.06-1.27.45-.16.2-.51-.25-.68-.23h0ZM25.75,33.12c-.77.08-1.12-.03-1.14.86-.02.83,2.33-.13,2.72-.12.43.01,1.02-.42.07-.98-.61-.36-1.23.19-1.65.23h0ZM27.37,35.19c-1.34,1.04.75.63,1.3.65.13,0,1.08-.75-.54-.68-.23,0-.15-.48-.54-.06-.03.03-.19.07-.22.09h0ZM31.44,31.01c-1.44-.15-1.47.91-2.65,1.11-.35.06-.55.88.53,1.22.96.3,1.52,2.03,2.85-.55.69-1.34,2.47,0,2.39-1.48-.04-.65-1.53-.24-1.83-.18-.78.17-.69-.06-1.28-.12h0ZM33.64,33.41c-.91-.09-1.39.64-.58,1.42.04.03.1,1.82,1.16.56.79-.94,1.77-.09,1.63-1.24-.08-.67-1.63-.15-1.98-.62-.01-.02-.2-.12-.23-.13h0ZM38.13,30.91c-2.71,0-2.32,1.55-2.88,1.52-.42-.03-.62,1.48,1.63.27,1.02-.55.44-.61,2.03-.61.45,0,.44.04.86-.08.7-.21.35-.5,1.51-.45.3.01,1-.84-.22-1.05-1.66-.29-1.61.4-2.95.4h0ZM39.05,33.36c-.06.01-.13.22-.37.37-.31.19-.29,1.18.6.5.58-.44.45.19.88-.34.21-.26-.38-.56-.59-.56-.29,0-.31-.01-.52.03h0ZM44.64,31.01c-.64-.09-1.38.41-1.38,1.18,0,1.06.22.83-.34,1.73-.35.57.05,1.29.75.78.81-.59.54-.62.91-1.37.73-1.52.82-.3,1.31-1.42.1-.24,2.07,0,2.68-.21.42-.14.93-.36.89-.89-.01-.14-.76-.47-1.33-.09-.39.26-2.2-.46-2.81.15-.12.13-.56.16-.68.14h0ZM48.56,28.35c-.37-.04-1.58.25-1.58.91,0,.95,1.2.32,2.06.32.82,0,1.15.25,1.42-.35.16-.36.53-1.07.9-1.2.59-.21-.94-1.12-1.17-.02-.2.93-1.09.48-1.54.39,0,0-.08-.04-.08-.04h0ZM54.28,25.73c-1.47.3-.1.65-1.02,1.09-1.2.59.19,1.75,1.39-.44.26-.48.64-.11,1.05-.92.09-.18.61-.72.29-1.21-.29-.44-.96,1.16-1.35,1.32-.08.03-.2.13-.37.16h0ZM54.19,28.35c-1.47-.15-1.92,1.06-.46.75.93-.2,2.54.83,2.38-.43-.04-.34-.88-.18-1.28-.51-.2-.17-.4-.01-.5.17-.09.01-.07.02-.13.02h0ZM57.87,24.88c-.37-.06-1.95.72-1.16,1.47.19.18-.49,1.29.63.6.4-.24.05-1.02.68-1.16.16-.04.33-.84-.15-.92h0ZM20.99,28.81c-1.48,0-.68.94-1.24,1.01-.11.02-.25,1.23.8.41.28-.22.31-.36.48-.38,1.05-.14,1.1-.77.02-1.02l-.06-.02h0ZM16.67,28.07c-.8-.06.03,2,.15.96.02-.17,1.27-.48.26-.99-.11-.06-.3.03-.41.02h0ZM9.52,25.22c-.35.15-.64,1.04.05,1.2.31.07,1.39,1.48,1.29-.42-.02-.32-.91-.97-1.34-.78h0ZM2.52,19.01c-.23.03-.67-.7-.67.09,0,.25.47.34.44,1.05,0,.12.49.5.81-.13.15-.3-.16-.15-.16-.57,0-.26-.04-.44-.36-.44h-.05ZM2.94,24.11c-.11.09-.57.68-.25.82.6.26.09.65.75.99.28.14.54-.21.65-.4.21-.36.74-.44-.26-.8-.62-.22-.3-.52-.61-.63-.05-.02-.25-.01-.29.02h0Z"/><path class="cls-10" d="M7.38,27.51c-1.22-.13-.12.22-.97.26-.45.02-.81.96.18.96.67,0,.62-.28,1.5-.28.38,0,.94,0,.74-.55-.26-.09-.13-.05-.42-.06-.42-.01-.01-.53-.82-.36-.05.01-.08.04-.21.02h0ZM6.02,22.94c-.35.21-1.17.15-1.15.81,0,.29-.58.11-.28.48.06.07.5.12.69-.1.09-.11.47-.48.63-.48.27,0,.71.03.71-.33,0-.46-.25-.2-.49-.42-.01-.01-.08.02-.11.03h0ZM8.37,24.94c-.48.07-1.03.22-.98.83,0,.04.44.55.28.87-.22.45,1.59,1.24,1.32.04-.1-.45-.33-.66.04-1.05.21-.22-.05-.27-.05-.46,0-.27-.47-.26-.61-.24h0ZM11.8,27.3c-.95.26-.06.63-.12.95-.05.29.44.14.63-.2.17-.31,1.12-.06.87-.42-.1-.14-.63-.11-.81-.23-.26-.17-.35-.16-.57-.09h0ZM13.92,30.33c-.1.03-.8.01-.28.5.12.11.91.5.65.75-.14.13.38.41-.14,1.15-.22.31.07.77.77.16.18-.16.3-.07.34-.28.14-.82-.34-.7-.43-1.11-.02-.06.13-.66.16-.68.49-.33.94,0,.94-.65,0-.08-.49-.35-.77-.04-.19.21-1.1.16-1.23.2h0ZM20.16,31.2c-.9.08-.18.51-.45.66-.29.16.28.45.46.14.08-.14.83-.82.06-.81h-.06ZM19.08,33.71c-.25.02-.61-.04-.61.42,0,.26.68.1.87-.07.29-.25.28.17.51-.15.19-.28.91,0,.91-.32s-1.12-.19-1.28-.03c-.1.09-.28.14-.41.15h0ZM24.29,34.72c-.09,0-.76-.45-1.12-.49-.18-.02-.88-.66-.41-.85.21-.09.03-.51.61-.31.28.1.67-.49.64.35,0,.12.23.18.28.52.02.15.15.3.14.52,0,.2.1.27-.15.26h0ZM28.5,30.23c-.89-.26-.47.61-1.28.83-.38.11-.15.83-.09.83.72,0,.52-.42,1.44-.39.67.02.69-.39,1-.39,1.02,0,1.62-1.17.11-.67-.58.19-.43-.42-1.13-.19h-.04ZM28.95,33.93c-.29.12-.68.12-.32.58.28.36,1.01.15,1.04.69.02.44,1.6-.24,1.89-.04.19.13.63,0,.87-.03.2-.03.05-.89-.8-.56-.12.05-.9.1-1.1-.05-.13-.1-.36-.22-.4-.33-.55-.14-.24.13-.71-.24-.04-.03-.43-.02-.48,0h0ZM25.47,34.81c-.3.1-.73.12-.56.57.08.21.63.21.6.65,0,.12,1,.99.92-.13-.03-.35-.86-.27-.07-.66.11-.05.72-.06.39-.42-.18-.19-.24.14-.38-.21-.17-.41-.72-.15-.8.16,0,.03-.06.04-.1.05h0ZM37.76,35.17c-.36,0-1.04.05-1.15-.45-.15-.68.57-.41.24-1.04-.13-.24,1.15-.99,1.39-1.15.19-.13.33.36-.19.81-.52.46.04.54.05.63,0,.04-.57.59.23.73.67.11.75-.19,1.23-.19,0,0,.4.61-.24.46-.33-.08-.8-.3-.92.2-.02.07-.61,0-.66,0h0ZM42.77,30.92c-.58-.03-1,.38-1.09.94-.08.58-1.45.67-1.31,1.71.03.26.69.12.85-.18.06-.1.44-.36.67-.28.08.03.13-.2.45-.27.99-.21.02-.83.69-1.41.23-.2.08.2.34-.42.28-.66,1.77.04,2.03-.94.14-.52-.47-.19-.6-.45-.23-.45-1.03.14-1.24.47-.05.07-.31.49-.36.52,0,.07-.34.3-.44.3h0ZM51.09,29.67c-.7.13-.52.62-1.13,1.16-.22.19-.56,1.25.23.79.79-.46.8-.2,1.2-.32.25-.07.35-.58,0-.71-.24-.09.31-.4.28-.87,0-.15.37-.12.45-.69.08-.51-.49-.38-.69.12-.02.05-.31.5-.34.51h0ZM54.72,27.49c-.73-.35-.09-.67.39-.75.37-.07.52-.86.85-.68.06.03,0,.65-.07.69-.3.17-.63-.04-.4.38.18.34-.63.51-.73.37-.01-.02-.02,0-.04,0h0ZM51.95,25.95c-.56,0-.81.62-.22.93.12.06-.03.86.32.62.15-.11.54-.9.85-1.04.26-.12-.01-.54.42-.73.16-.07.02-.99-.79-.1-.11.12-.42.32-.57.32h0ZM56.94,22.27c-.88.15-.06.96-.4,1.21-.22.16.16.68-.28,1.38-.11.17.31.28.65-.72.08-.23.25-.79.55-.78.29.02-.07-.82.31-.96.55-.21.31-.87.78-1.04.22-.08.3-.98-.54-.21-.21.19-.2.33-.53.32-.26,0-.06.32-.3.59-.05.05-.08.18-.24.21h0Z"/><path class="cls-23" d="M41.09,32.17c-1.03-.06-.96-.52-1.46-.46-.41.04.12.67.64.7.58.03,2.08.6,2.04,1.37,0,.18.14.24.01.76-.21.89.7.69.9.08.19-.59-.11-.68.26-.9.22-.13.36.22.51-.19.23-.61,2.03.46,1.79-.83-.09-.48-.99-.53-1.4-.29-.22.13-.88.35-1.16.33-.72-.04-.75.06-1.34-.33-.3-.2-.45-.23-.8-.25h0ZM20,33.02c-.39-.23-.81-.51-.78.09.03.66.8.3.73,1.51-.02.42-.17.66.59.63.42-.02.56-.95.6-.95.86.05.93-1.01-.22-.83-.37.06-.71-.34-.92-.46h0ZM6.94,25.76c-.64-.05-.19,1.21-.83,1.79-.15.14-.67.97.04.9.11-.01.13-.55.87-.07.03.02.51.84.72.07.12-.42-.9-.44-.83-1.24.05-.54-.29,0,.22-.78.05-.08.14-.48,0-.55-.02,0-.16-.11-.18-.12h0ZM29.05,34.68c-.65.48-.89.24-1.29.53-.26.19.2.67.59.47.09-.05,1.14-.18,1.33-.1.95.41.5,1.6.96,1.19.2-.17.2-.75.08-1.04-.19-.47-.35-.72.35-.87.38-.08,1.16-.17,1.15-.73.2-.14.09-.2.53-.42.22-.1,1.25-1.03.65-1.31-.28-.13-.98.42-1.14.61-.15.18-1.4,1.44-1.55,1.45-.41.05-.05-.27-.65.09-.15.09-.63.12-.83.07-.04-.01-.16.03-.19.05h0ZM49.4,28.3c-.35.26-1.63-.51-1.23.22.3.55,1.32-.32,2.25,1.08.13.2.28,1.67.75,1.02.4-.56-1.52-2.04-.08-2.63.38-.15-.21-1.07-.65-.13-.17.36-.78.23-.98.41l-.05.02h0ZM2.45,22.65c-.93.26-.9-.34-1.42-.07-.18.1.21.62.57.62.31,0,1.63.25,1.69.67.08.62,1.14.55.56-.36-.28-.45-.59-.18-.42-1.28.08-.53-.49-.65-.61.16-.02.14-.21.22-.33.24h-.05ZM12.12,31.81c-.99-.14-.51.37-1.77.23-.13-.01-.34.49.51.58.1.01.89,0,.89.02-.01.56.7-.14,1.07.54.23.43.67-.17.06-.76-.19-.19-.04-.44.33-.42.87.05.57-1.24-.33-.66-.34.22-.08.47-.67.44-.05,0-.04.03-.08.02h0ZM54.59,25.46c-.03-.05-1.13-.82-.64.78.12.38-.98.02-.45,1.02.28.52.78,1.04.07,1.49-.48.3.13,1.04.61.23.34-.58-.16-1.3.32-1.85.26-.3-.37-.57.06-1.57.02-.05.05-.08.04-.1h0Z"/><path class="cls-21" d="M43.27,32.93c-.73.23-1.02,1.19-1.69,1.55-.36.19-.71-.03-1.08.13-.29.12-.4.5-.69.63-.32.15-.73-.1-1.07,0-.35.1-.58.48-.93.56-.36.09-.74,0-1.1-.06-.4-.06-.78-.31-1.18-.28-.38.02-.74.23-1.07.42-.23.13-.34.45-.59.54-.23.08-.51.02-.73-.08-.3-.15-.45-.52-.76-.65-.38-.15-.82-.23-1.21-.14-.45.11-.74.59-1.18.7-.21.06-.4-.26-.62-.23-.26.04-.41.39-.68.42-.3.04-.6-.26-.9-.2-.52.1-.93.52-1.44.65-.27.07-.58.02-.85-.08-.26-.11-.4-.41-.68-.42-.55-.03-1.03.27-1.58.28-.2,0-.29-.29-.48-.34-.29-.07-.61.09-.9,0-.27-.08-.43-.4-.7-.48-.49-.14-1.08.08-1.52-.17-.31-.18-.2-.53-.51-.72-.26-.16-.6-.08-.9-.15-.22-.06-.39-.36-.62-.35-.62.02-1.05.39-1.66.44-.22.02-.32-.32-.54-.37-.38-.08-.8.15-1.16,0-.27-.11-.25-.56-.51-.7-.32-.17-.83.1-1.07-.17-.46-.52-.32-1.18-.82-1.66-.33-.32-.92-.28-1.35-.45-.46-.18-.75-.74-1.24-.85-.52-.11-1.06.33-1.58.23-.31-.06-.37-.53-.65-.68-.31-.16-.79.09-1.01-.17-.27-.31.02-.85-.17-1.21-.2-.39-.49-.54-.87-.76-.32-.18-.93-.1-1.16-.39-.28-.37-.06-.9-.3-1.3-.21-.36-.68-.4-.92-.75-.19-.29-.13-.59-.32-.89-.15-.23-.29-.33-.5-.49-.21-.17-.24-.33-.28-.6-.04-.26.06-.5.06-.75,0-.41-.21-.8-.21-1.21,0-.48.26-.93.21-1.41-.02-.25-.4-.55-.48-.79-.13-.39-.19-.63-.14-1.04.05-.41.43-.74.45-1.16.02-.39-.27-.74-.31-1.13-.02-.23.06-.46.14-.68.11-.27.3-.45.37-.73.05-.21.03-.57.11-.77.16-.39.35-.56.62-.89.27-.33.64-.6.82-.99.18-.4.03-.9.2-1.31.09-.21.46-.21.54-.42.14-.38-.02-.83.08-1.23.06-.21.21-.38.38-.52.14-.12.41-.05.51-.21.13-.21.15-.47.18-.72-.08.15-.17.3-.3.41-.22.19-.61.12-.79.34-.36.44-.44,1.05-.76,1.52-.1.15-.25.15-.35.3-.1.14-.11.35-.21.49-.32.45-.68.72-.96,1.2-.12.2-.05.5-.14.72-.16.37-.51.62-.65,1-.13.35-.04.72-.11,1.08-.03.16-.17.38-.2.55-.07.45,0,.75-.08,1.2-.08.4-.26.79-.32,1.2-.07.45-.05.83-.07,1.28-.02.38-.12.74-.06,1.11.06.33.29.52.39.83.09.26.02.56.1.82.08.28.15.48.21.76.09.39,0,.8.11,1.18.08.28.31.47.42.73.18.41.2.85.42,1.24.29.52.86.84,1.21,1.32.28.39.38.89.68,1.27.28.36.71.57.99.93.14.18.05.5.23.65.27.24.6.17.89.39.16.12.15.46.32.56.36.21.89.36,1.23.6.54.38.78.78,1.31,1.18.17.13.47.02.68.09.23.09.31.26.54.36.26.11.51,0,.75.15.24.16.32.58.58.72.38.21.73.13,1.11.32.27.14.45.48.72.63.38.22.81.13,1.18.35.21.12.28.43.45.61.4.42,1.44-.04,2.08-.03.23,0,.42.24.65.25.39.03.77-.17,1.16-.11.26.04.49.22.7.37.21.14.32.44.56.51.23.07.51-.03.75.01.46.08.82.22,1.28.32.37.08.76-.01,1.13.06.5.09.96.35,1.47.42.61.09,1.25-.06,1.86.06.22.04.31.38.54.39.6.04,1.22-.07,1.8-.23.24-.06.4-.23.65-.21.31.02.43.25.73.32.32.08.66-.12.99-.08.28.03.51.28.79.25.72-.07,1.37-.46,2.09-.56.3-.05.6.15.9.11.18-.02.6-.13.77-.14.66-.03.99.05,1.65.03.31-.01.59-.25.9-.28.35-.04.71.15,1.04.06.28-.08.53-.33.82-.38.42-.08.66-.06,1.08-.13.32-.05.55-.33.87-.39.41-.08.82.17,1.23.11.25-.04.41-.32.65-.39.69-.22,1.37-.25,2.05-.49.13-.05.5-.38.63-.43.48-.18.68,0,1.16-.2.24-.1.27-.49.51-.59.65-.26,1.42-.15,2.06-.45.37-.18.19-.39.56-.58.37-.2,1.19-.3,1.55-.51.53-.33.72-1.05,1.25-1.38.2-.13.74.02.96-.08.31-.14.36-.52.45-.57.2-.13.62-.02.7-.11.27-.32.35-.78.65-1.07.31-.3.85-.32,1.13-.65.21-.24.13-.49.3-.76.09-.14.3-.18.4-.31.23-.31.2-.63.44-.93.18-.22.59-.27.74-.51.2-.31.02-.77.2-1.1.21-.38.78-.51.9-.93.21-.73-.09-1.53,0-2.28.02-.2.3-.31.34-.51.03-.18-.01-.38.04-.56.1-.36.28-.55.36-.91.05-.23-.22-.44-.2-.68.06-.55.4-1.05.45-1.61.02-.27-.24-.49-.25-.76-.02-.31.07-.62-.01-.92-.13-.43-.43-.66-.58-1.08-.1-.29.1-.62.06-.93-.03-.19-.22-.32-.28-.51-.06-.18-.09-.38-.12-.57-.11-.71-.47-.5-.87-1.24-.04-.07-.07-.13-.1-.18-.1-.18-.18-.35-.27-.52h0c.13.59.23,1.23.22,1.46-.02.38-.29.72-.25,1.1.02.25.43.37.42.62-.02.58-.45.84-.46,1.42,0,.22.16.56.18.77.02.25-.16.37-.11.62.11.51.56.88.76,1.35.13.3.22.63.1.93-.16.39-.34.52-.52.9-.16.34-.13.77-.31,1.1-.23.43-.65.62-.87,1.06-.19.37-.1.76-.25,1.14-.2.49-.59.66-.75,1.17-.1.34.13.73.07,1.08-.08.47-.39.91-.73,1.24-.2.19-.62.28-.77.51-.31.47-.09.93-.46,1.35-.39.44-1.05.59-1.63.68-.54.08-1.03-.21-1.51.07-.48.28-.43.87-.8,1.28-.43.47-1.02.82-1.63,1.01-.48.16-1.03-.13-1.52,0-.27.07-.35.49-.62.56-.43.12-.92-.13-1.35,0-.32.09-.46.59-.79.62-.67.05-1.33-.6-1.97-.39h0Z"/><path class="cls-22" d="M10.17,4.36c-.48.2-1.04.17-1.49.42-.3.17-.39.57-.65.79-.16.13-.39.14-.56.25-.24.16-.41.4-.65.56-.46.31-1.01.49-1.44.85-.28.24-.37.66-.65.9-.22.19-.61.12-.79.34-.36.44-.44,1.05-.76,1.52-.1.15-.25.15-.35.3-.1.14-.11.35-.21.49-.32.45-.68.72-.96,1.2-.12.2-.05.5-.14.72-.16.37-.51.62-.65,1-.13.35-.04.72-.11,1.08-.03.16-.17.38-.2.55-.07.45,0,.75-.08,1.2-.08.4-.26.79-.32,1.2-.07.45-.05.83-.07,1.28-.02.38-.12.74-.06,1.11.06.33.29.52.39.83.09.26.02.56.1.82.08.28.15.48.21.76.09.39,0,.8.11,1.18.08.28.31.47.42.73.18.41.2.85.42,1.24.29.52.86.84,1.21,1.32.28.39.38.89.68,1.27.28.36.71.57.99.93.14.18.05.5.23.65.27.24.6.17.89.39.16.12.15.46.32.56.36.21.89.36,1.23.6.54.38.78.78,1.31,1.18.17.13.47.02.68.09.23.09.31.26.54.36.26.11.51,0,.75.15.24.16.32.58.58.72.38.21.73.13,1.11.32.27.14.45.48.72.63.38.22.81.13,1.18.35.21.12.28.43.45.61.4.42,1.44-.04,2.08-.03.23,0,.42.24.65.25.39.03.77-.17,1.16-.11.26.04.49.22.7.37.21.14.32.44.56.51.23.07.51-.03.75.01.46.08.82.22,1.28.32.37.08.76-.01,1.13.06.5.09.96.35,1.47.42.61.09,1.25-.06,1.86.06.22.04.31.38.54.39.6.04,1.22-.07,1.8-.23.24-.06.4-.23.65-.21.31.02.43.25.73.32.32.08.66-.12.99-.08.28.03.51.28.79.25.72-.07,1.37-.46,2.09-.56.3-.05.6.15.9.11.18-.02.6-.13.77-.14.66-.03.99.05,1.65.03.31-.01.59-.25.9-.28.35-.04.71.15,1.04.06.28-.08.53-.33.82-.38.42-.08.66-.06,1.08-.13.32-.05.55-.33.87-.39.41-.08.82.17,1.23.11.25-.04.41-.32.65-.39.69-.22,1.37-.25,2.05-.49.13-.05.5-.38.63-.43.48-.18.68,0,1.16-.2.24-.1.27-.49.51-.59.65-.26,1.42-.15,2.06-.45.37-.18.19-.39.56-.58.37-.2,1.19-.3,1.55-.51.53-.33.72-1.05,1.25-1.38.2-.13.74.02.96-.08.31-.14.36-.52.45-.57.2-.13.62-.02.7-.11.27-.32.35-.78.65-1.07.31-.3.85-.32,1.13-.65.21-.24.13-.49.3-.76.09-.14.3-.18.4-.31.23-.31.2-.63.44-.93.18-.22.59-.27.74-.51.2-.31.02-.77.2-1.1.21-.38.78-.51.9-.93.21-.73-.09-1.53,0-2.28.02-.2.3-.31.34-.51.03-.18-.01-.38.04-.56.1-.36.28-.55.36-.91.05-.23-.22-.44-.2-.68.06-.55.4-1.05.45-1.61.02-.27-.24-.49-.25-.76-.02-.31.07-.62-.01-.92-.13-.43-.43-.66-.58-1.08-.1-.29.1-.62.06-.93-.03-.19-.22-.32-.28-.51-.14-.4-.11-.87-.31-1.24-.14-.26-.54-.31-.68-.56-.31-.58-.49-.99-.83-1.55-.15-.24-.36-.52-.55-.73-.56-.65-.81-1.32-1.45-1.89-.25-.22-.73-.09-1-.28-.39-.28-.42-.91-.79-1.21-.47-.39-2-.34-2.63-1.27-.09-.14-.19-.42-.33-.51-.34-.21-.8-.12-1.16-.31-.19-.1-.43-.34-.63-.42-.24-.09-.29.08-.53,0-.38-.14-.62-.54-.99-.7-.47-.2-1.03-.14-1.49-.37-.35-.17-.5-.67-.87-.79-.47-.15-1,.12-1.49.03-.23-.04-.34-.37-.56-.42-.37-.09-.77.06-1.16,0-.53-.08-1.02-.34-1.55-.39-.16-.02-.29.22-.45.2-.68-.08-1.32-.39-2-.48-.25-.03-.49.2-.73.14-.5-.13-.89-.55-1.38-.68-.56-.15-1.15-.2-1.72-.14-.34.04-.59.42-.93.42-.31,0-.51-.39-.82-.42-.32-.03-.61.29-.93.25-.61-.06-1.2-.52-1.82-.44-.73.09-1.19.49-1.9.66-.42.1-.84,0-1.27.03-.41.02-.77.32-1.18.34-.46.03-.92-.2-1.38-.2-.34,0-.64.31-.97.3-.5-.02-1.08-.25-1.58-.18-.69.1-1.16.47-1.85.59-.35.06-.68-.31-1.04-.28-.36.02-.63.37-.99.42-.41.06-.59-.07-.99.04-.19.05-.39.28-.56.38-.22.13-.53,0-.76.11-.27.14-.43.34-.73.41-.5.11-.97-.04-1.47.1-.46.13-.67.51-1.11.68-.33.13-.77.06-1.11.17-.5.16-.89.58-1.38.79h0Z"/><g class="cls-37"><path class="cls-12" d="M12.24,28.12c.32.49.12,3.34.36,4.3.25.96.55,2.32,1.68,2.69.79.26,1.46.42,2.07-.18.72-.71,1.02-.51,1.19-1.37.16-.84.94-2.7.3-3.34-.83-.82.06-1.92,1.09-2.3.24-.09.38-.41.47-.76-.83,0-1.64.22-2.47.2-.99-.03-1.98-.19-2.96-.33-.73-.11-1.49-.18-2.18-.44-.03-.01-.06-.02-.08-.03.06.53.21,1.05.54,1.56h0Z"/><path class="cls-8" d="M13.21,28.07c.16.63-.46,2.63-.02,3.98.11.35.14,2.6,1,2.25.28-.11.72-1.87.82-1.89.14-.32,1.87-1.25.64-2.33-1.51-1.32-.03-1.49.15-1.9.06-.14.05-.5.2-.88-.68-.07-1.36-.17-2.04-.28-.33-.05-.67-.09-1-.15.03.25.1.59.25,1.2h0Z"/><path class="cls-24" d="M12.63,26.82c.07.64.45,1.31.37,2-.04.37-.16.97.12,1.26.14.15.05,2.42.58,1.42.24-.45.06-.93.76-1.25.73-.33-.68-1.12-.73-1.32-.22-.87.96-.29.56-1.04-.15-.29.34-.4.69-.7-.34-.05-.67-.1-1-.15-.44-.07-.9-.12-1.34-.21h0Z"/></g><g class="cls-37"><path class="cls-4" d="M29.27,31.99c-.05,1.66.98,1.12,2.1,2.3,1.22,1.29.63,2.04,1.91,2.33,1.26.28,2.28-1.67,2.51-2.44.59-2.02.79-1.79,1.68-2.18,1.15-.51.88-1.92,1.25-3.02-.82.26-1.73.26-2.54.55-.68.24-1.22.76-1.89,1.01-.42.16-.89.26-1.34.23-.8-.05-1.6-.24-2.38-.45-.9-.24-1.75-.63-2.64-.92.78.76,1.36,1.62,1.34,2.59h0Z"/><path class="cls-6" d="M30.4,31.58c-.18.98,1.25.94,1.62,2.33.53,2.03,1.63.12,1.4-1.16-.2-1.11.15-.76.53-1.84.04-.12.08-.21.11-.29-.36.11-.74.17-1.11.15-.8-.05-1.6-.24-2.38-.45-.12-.03-.24-.07-.36-.11.19.35.31.75.19,1.37h0Z"/><path class="cls-25" d="M30.73,31.83c.44.26-.18,1.2.59,1.33.76.13.47-1.42.54-1.82,0-.05.19-.26.34-.65-.52-.08-1.03-.21-1.54-.35.12.7-.34,1.25.07,1.49h0Z"/></g><path class="cls-5" d="M48.14,26.65c1.4.71-.41,1.6,1.1,1.98.66.16.53.91.71,1.48.19.63.47,1.04,1.29.78.45-.15.13-1.74,1.03-3.05.32-.46.94-.33.41-1.84-.02-.06-.03-.24-.03-.48-.38.26-.88.37-1.34.51-.47.14-.98.17-1.47.24-.66.09-1.33.12-1.98.23.09.05.19.1.3.15h0Z"/><path class="cls-7" d="M49.21,26.34c.12.31.17.7-.18,1.4-.38.77,2.32-.01,1.4,1.37-.06.09.44,2.07.75.41.12-.65-.47-1.14.18-2.51,0,0,.09-.54.18-1.05-.09.02-.17.05-.26.07-.47.14-.98.17-1.47.24-.2.03-.41.05-.61.07h0Z"/><path class="cls-26" d="M49.59,26.3c.11.55-.22.96-.09,1.17.32.53-.27,1.5-.13,1.79.19.4.95.42,1.02-.09.03-.22-.24-.74.31-1.43.28-.34-.18-.86.43-1.61.02-.03.04-.05.05-.07-.44.12-.92.15-1.37.21-.08.01-.15.02-.23.03h0Z"/><path class="cls-33" d="M1.29,14.09c.05.16.11.35.14.6.07.64-.06,1.29.06,1.92.04.2.33.28.39.48.16.49.08,1.04.25,1.52.16.44.52.79.73,1.21.25.49.37,1.1.75,1.51.45.49.91.64,1.42,1.08.19.16.32.49.51.66.33.28.84.3,1.16.59.49.45.66,1.21,1.21,1.58.67.45,1.56.43,2.28.79.38.19.59.66.99.82.82.32,1.75.26,2.56.59.27.11.55.61.82.73.64.3,1.17.01,1.85.21.71.21.99,1.02,1.82.92.22-.03.68-.18.9-.14.72.12,1.36.57,2.09.62.64.05,1.05-.28,1.68-.18.27.04.35.47.61.55.37.12.77-.3,1.16-.23.55.1.96.66,1.52.73.53.07,1.04-.31,1.58-.31.52,0,1.01.27,1.52.28.71.01,1.4-.23,2.11-.23.33,0,.63.19.96.23.37.04.75-.07,1.13-.03.57.06,1.12.38,1.69.31.67-.08,1.22-.62,1.89-.73.96-.16,1.97.12,2.93-.08.27-.06.26-.6.54-.65.76-.14,1.55.26,2.31.14.26-.04.26-.52.51-.59.5-.15,1.07.12,1.58-.03.44-.13.72-.62,1.16-.76.31-.1.66.12.99.06.38-.08.68-.42,1.07-.48.4-.06.84.31,1.21.14.3-.13.16-.68.42-.87.28-.2.72,0,1.01-.17.16-.1.02-.46.2-.54.41-.17.93.11,1.32-.08.52-.26.78-.89,1.27-1.21.3-.2.75-.09,1.04-.31.32-.24.41-.71.7-.99.16-.16.49-.1.62-.28.13-.18.17-.51.34-.65.33-.26.65-.05.93-.37.3-.34.25-.76.54-1.11.21-.26.49-.2.73-.44.18-.18.14-.51.27-.73.15-.27.32-.32.46-.59.16-.31,0-.71.11-1.04.1-.3.47-.48.51-.79.05-.44-.3-.87-.27-1.31.02-.27.39-.42.41-.69.01-.23-.31-.38-.32-.61-.02-.33.27-.63.24-.96-.02-.19-.1-.37-.2-.54-.09-.16-.12-.27-.13-.36-.02-.33.03-.37-.09-.76-.05-.17-.11-.34-.23-.55-.31-.58-.49-.99-.83-1.55-.15-.24-.36-.52-.55-.73-.56-.65-.81-1.32-1.45-1.89-.25-.22-.73-.09-1-.28-.39-.28-.42-.91-.79-1.21-.47-.39-2-.34-2.63-1.27-.09-.14-.19-.42-.33-.51-.34-.21-.8-.12-1.16-.31-.19-.1-.43-.34-.63-.42-.24-.09-.29.08-.53,0-.38-.14-.62-.54-.99-.7-.47-.2-1.03-.14-1.49-.37-.35-.17-.5-.67-.87-.79-.47-.15-1,.12-1.49.03-.23-.04-.34-.37-.56-.42-.37-.09-.77.06-1.16,0-.53-.08-1.02-.34-1.55-.39-.16-.02-.29.22-.45.2-.68-.08-1.32-.39-2-.48-.25-.03-.49.2-.73.14-.5-.13-.89-.55-1.38-.68-.56-.15-1.15-.2-1.72-.14-.34.04-.59.42-.93.42-.31,0-.51-.39-.82-.42-.32-.03-.61.29-.93.25-.61-.06-1.2-.52-1.82-.44-.73.09-1.19.49-1.9.66-.42.1-.84,0-1.27.03-.41.02-.77.32-1.18.34-.46.03-.92-.2-1.38-.2-.34,0-.64.31-.97.3-.5-.02-1.08-.25-1.58-.18-.69.1-1.16.47-1.85.59-.35.06-.68-.31-1.04-.28-.36.02-.63.37-.99.42-.41.06-.59-.07-.99.04-.19.05-.39.28-.56.38-.22.13-.53,0-.76.11-.27.14-.43.34-.73.41-.5.11-.97-.04-1.47.1-.46.13-.67.51-1.11.68-.33.13-.77.06-1.11.17-.5.16-.89.58-1.38.79-.48.2-1.04.17-1.49.42-.3.17-.39.57-.65.79-.16.13-.39.14-.56.25-.24.16-.41.4-.65.56-.46.31-1.01.49-1.44.85-.28.24-.37.66-.65.9-.22.19-.61.12-.79.34-.36.44-.44,1.05-.76,1.52-.1.15-.25.15-.35.3-.1.14-.11.35-.21.49-.32.45-.68.72-.96,1.2-.12.2-.05.5-.14.72-.02.05-.05.1-.08.15-.23.38-.28.81-.15,1.23h0Z"/><path class="cls-17" d="M23.24,28.46c-.7.37-.71.72.33.34,1.03-.38.87.5,1.52.59,1.63.22.1.75,1.56.88,1.56.14,1.26-1.69,3.29-.38.76.49,1.63-.21,1.06-.52-1.34-.72.11-.81-.42-1.13-.12-.08-1.14.54-2.41.02-.58-.24-.98.04-1.19-.79-.29-1.15-1.1.23-2.91-.84-.08-.04-2.09-.09-.41,1.2.32.25-.15.5-.41.64h0ZM19.47,28.27c-1.62.91-.26-.35-1.3-.47-.14-.02.47-2.34,2.12-1.46.84.45-.83.56.11,1.25.19.14-.68.55-.92.68h0ZM34.73,29.28c-.84.3-2.2.41-1.78-1.07.21-.74-1.61.9-1.59-.71,0-.61-1.54-.51-.2-1.43.59-.4,1.67.87,1.41-.29-.25-1.12,5.4-2.33,2.76.46-1,1.06,1.53,2.29-.6,3.04h0ZM41.33,28.81c-1.19,1.08-3.12.53-2.51-.32.33-.46-1.74-1.44,2.54-1.94,3.68-.43.73,1.84,3.26-.39,1.2-1.06.49.47,2.64-.77,1.13-.66,2.69.02,2.45.49-.73,1.41-1.66.47-3.99,1.82-.76.44-2.28-.8-4.39,1.1h0ZM17.24,22.75c1.05,2.45,2.75.84,2.64,2.15-.06.73,2.48.19,4.46.99.85.34.53-.62,3.25.79,1.32.69,3.35-1.08.89-1.15-.5-.01,1.6-3.59-2.16-2.28-1.76.61-2.16-1.42-4.11-.64-.44.18-.56-.43-2.52-.3-1.44.1-3.5-2-2.46.43h0ZM6.82,19.89c-.42,2.74,1.5.55,1.64,1.81.02.14.96.68,2.4.76.73.04,1.25.58,1.69.82,3.04,1.65,5.55.36,1.94.11-1.57-.11-1.03-1.6-1.03-1.6-1.26-.62-1.94-.5-2.02-.58-.06-.06-.31-.43.35-1.12.25-.26,1.05,0,1.47-.85.41-.83-2.01-.52-1.57-1.69.46-1.24-2.76.98-2.8.99-.7.1-1.58-.44-1.88,1.19-.02.08-.18.09-.19.17h0ZM15.98,21.44c-.21.14-.98.36-.83-.13.09-.3-.96.08-.95-.46,0-.24-1.18-.52.02-.7,1.09-.17.49,0,1.43-.34.67-.25.19.44.35.52.34.16.32-.17.16.24-.06.16.25.23-.11.41-.28.13.45.14-.07.46h0ZM14.9,26.94c-2.03.23-.61-.79-2.53-.89-.78-.04-.14-.42-.7-.89-.28-.23.91-1.46,3.41.29.29.2,2.25-.52,1.44.81-.33.55,1,.45-.35.87-.13.04-.97-.23-1.26-.19h0ZM38.62,24.07c.66,1.36-2,1.65-.25,1.98.48.09,2.94-.32,2.44-.56-.89-.43,1.34-.61,2.11-1.05,1.36-.78,1.34.82,2.54-.58.67-.78.44-.14,1.05-.87.13-.15-1.47-.16-1.74-.09-1.28.31-1.13-1.41-3.16-.18-.12.08,1.12,1.25-1.94.93-.16-.02-1.08.36-1.05.43h0ZM36.31,23.46c-1.64,1.28-.07-.5-1.96.34-.86.38.03-.88-2.46.09-.37.14-.82-.58-1.47-.96-.22-.13,2.43-.94.34-.87-.69.02.63-.31.05-.85-.94-.86,1.4-.87,1.88-1.03.77-.27,1.97-1.44,1.69.25-.1.58.96.13-.13.91-.51.36.3.24.2.87-.02.15,2.18-.38,1.61,1.03-.04.1.37.13.25.22h0ZM38.53,22.79c-1.83.73-.35-.64-.78-.57-.98.15.09-.61.25-.7,1.88-.99.76-1.88,2.06-1.97.13,0,1.73-1.79,1.51.02-.07.58-.95.6-1.07,1.56-.06.49-1.77.91-1.48,1.2.11.11-.22.35-.48.46h0ZM42.88,20.19c1,1.25-.19.82.14,1.22.67.82,2.17-1.34,1.73.1-.16.53.95-.06,1.24,0,.28.06.26,1.23,1.37.15,1.41-1.37,3.3-.18,3.64-.36,2.25-1.18.75-.61,1.25-1.08.13-.12,2.35-1.38,2.85-1.43,1.41-.14,3.1-1.55-.48-.62-1.53.4-2.63,1.31-3.53.84-1.45-.75-1.27.16-2.55.07-1.13-.08.12-.86-2.4.08-.56.21.06-.45-1.46.03-.58.18-1.81-1.54-2.06-.1-.13.78-.02.05.36.57.44.6-.44.11-.1.54h0ZM50.4,23.81c-2.4.3.86-.06-1.29-.8-.34-.12-.26-.49.64-.28.68.16,1.17-.63.64.43-.01.02,1.09.5.22.67-.07.01-.12-.03-.21-.02h0ZM57.54,21c-.09.09-1.65,1.04-1.24.36.58-.97-3.58.66-2.55-.64.81-1.02,2.46-.57,2.79-.74.8-.42.66-1.2,2.28-.43.35.17-1.13.37-.5.72.72.41-.64.57-.78.73h0ZM5.75,19.1c-3.27,1,.84-1.53-1.63-1.05-.62.12-.4-.42-1.47-.93-.64-.31,1-1.43,1.67-1.26.84.22.64-1.66,2.56-.39.07.04-1.35,1.06-.03.87,1.45-.2-1.53,1.42-.49,1.94.39.2-.34.74-.6.82h0ZM7.99,12.48c-2.44.15-.87.42-1.44-.49-.24-.37-.91.38-.96-.24-.03-.39-3.18-.48-1.1-1.34.02,0,.84-.01.98-.03,1.74-.25,1.78.15,1.57-.37-.2-.49,1.87-.13,2.27-.34.3-.15.81.01.52.52-.54.94-1.88,1.17-1.34,1.49.73.43-.5.8-.5.8h0ZM4.27,14.96c-2.65,1.21.96-2.32.19-.4-.15.36.64.02-.19.4h0ZM11.33,16.3c-.46.41-2.43,1.04-1.8.15.52-.74-.69.04-.54-1.07.07-.53-3.74-.23.76-1.91,3.56-1.33,1.2-1.35,2.67-2.07.41-.2,2.66.51,1.81,1-3.56,2.07.96.49-1.56,1.89-.01,0-.5.92-.21,1.08.15.08-.92.74-1.13.92h0ZM22.1,21.42c-1.03.4-3.02.55-2.05-.4.38-.38-.95.36-1.22-.72-.21-.84-2.08-.38-2.26-.95-.26-.77-2.15.31-1.22-1.12.11-.18-2.42-1.45-.23-1.16,1.49.2.97-.68,2.06.02.5.32-.43,1.1,1.76.82,1.22-.15-.72,1.33,1.9-.08.46-.25,4.75.27,3.47,1.27-1.25.98,2.56-.02,1.82,1.75-.03.07,1.02.3-.84,1.01-.53.2.05-.63-1.04-.42-.52.1-.66-.56-1.72-.09-.11.05-.31.03-.41.07h0ZM29.29,20.63c-1.53.29-.72-.7-1.5-.86-1.76-.37,1.73-1.07.43-1.72-1.42-.71,4.04-2.38,1.71-.06-.5.5.85-.41.45.37-.34.65,1.75.05-.78,1.56-.33.2.54.55-.32.71h0ZM37.12,20.82c-.35.22-1.72.58-.89-.4.18-.21-1.07-.7-.78-.97,1.02-.95.94.06.81-1.16-.1-.9,3.64-1.2,2.11-.06-.85.63,1.42.09-.83,1.94-.3.25.75-.09-.42.65h0ZM16.22,5.44c-3.49.42-2.68-1.01-2.83-1.06-.83-.23-.15.88-1.88.36-.69-.21.19-.56,2.26-1.35.49-.19.95-.44,1.84-.44,1.77,0-.94,1.12,1.17,1.06.92-.03-.67.61.52.68.37.02.4.57-1.08.75h0ZM45.33,16.82c1.31,1.48,1.86-.56,2.61.53.34.5-.56.36,2.05-.18,1.22-.26.54,1.78,3.94-.14,1.24-.7,3.18-.05,2.26-.74-.38-.29.66-.48-1.7-.04-.9.17-.43-1.14-2.4-.27-1.02.45.36-1.1-1.58-2.1-.92-.47-1.36.75-2.46.42-1.19-.36-.75.22-1.97-.18-.56-.18-1.82.08-1.27.39.37.21-.15.35,1.06.97.66.34-1.32.47-.55,1.22.06.05-.03.08,0,.13h0ZM56.08,14.38c-.27.22-1.63.55-1.42.06.11-.26-.76.14-1.28-.23-.48-.33.55-.91-1.27-.85-1.47.04-.37-.93.48-1,.4-.03,1.67.57,1.74.66.06.08,1.42-.97,1.81.18.14.41.55-.33.93.35.06.11,1.29-.16,1.42.63.03.16-.39.55-1.2.05-.16-.1-1.05.03-1.21.16h0ZM42.71,17.32c-.41.2-1.95.51-1.54-.12.66-1.02-4.31-1.23-2.92-2.05,2.15-1.28-.5-.52-1.27-1.89-.11-.2-.12-.75.82-.66,1.65.16,1.12,1.14,1.13,1.14.42.07,1.61-.64,1.96.22.28.69,1.67,0,.89,1.38-.45.81,3.46.86,1.82,1.8-.2.12-.67.08-.89.19h0ZM43.09,11.4c.62.74,1.08.42,1.54,1,.33.42.36-.95,2.06,0,.56.31.52-.77,1.87-.14,1.23.58,2.18-.82,1.4-.72-1.72.23,1.11-.66.33-1.05-1.63-.83,2.73-1.11,1.48-1.28-2.04-.28-.51-1.42-3.12.01-.37.2-1.74-.67-2.72-.27-.62.25.86.78-.89.85-.03,0-1.17-.4-.48.16.69.57,2.29.64.96,1.31-.5.25-.36-.72-1.67-.14-.07.03-.98-.01-.76.25h0ZM25.25,16.59c-6.44,1.56-2.38-.52-5.6-.94-1.38-.18-.12-.87-2.44-1.29-3.2-.58,4.6-1.69,2.12-3.2-1.48-.9,5.45-1.32,3.35,1.43-2.17,2.85,2.28-1.34,2.62.98.14.98,1.9.52,1.06,1.76-.29.43,2.57-.56.58.87-.99.71-.75.16-1.71.39h0ZM34.19,16.5c-.37.33-2.52,1.38-1.44-.61.35-.65-1.08.18-.03-.86.12-.12-1.78-2.51,2.59-.41.81.39-1.18.27.62,1.06.54.24.44.99-1.42.68-.11-.02-.23.06-.32.14h0ZM38.38,10.84c-2.28,2.22,2.71-.56,2.35,1.34-.1.52,3.93,1.62,1.76.46-1.6-.85,2.11.22-.7-1.1-.76-.36.61-.38-.21-1.52-.38-.52,1.12-2.44-1.3-2.22-2.22.2.82,1.4-1.63,2.82-.19.11-.04,0-.25.21h0ZM44.83,7.19c2.42-2.81-1.5-1.84-.7-2.77.98-1.14,1.46-1.97,1.7-1.78.42.32.5,1.19.67,1.35.06.06.43.09.6.04.29-.08.51-.46.78-.38,1.15.34,2.8.49,3.21,1.62.28.78-1.37.29-1.21.38,1.57.92-.13.3.02,1.13.3,1.73-1.8-.12-2.53.36-2.64,1.72-3.06.66-2.53.05h0ZM55.85,10.88c-.61.38-2.14.68-1.94-.03.09-.31-3.28.01-.21-1.49.4-.2-.79.03-.09-.6.53-.47-.76-1.16-.28-1.12,1.16.09,2.18.91,3.13,1.58.15.11-.3.16-.34.19-1.56,1.48,1.08.64-.27,1.46h0ZM28.51,3.38c-1.3.22.23-.15-.83-.6-.25-.11.03-.27-.13-.64-.28-.63,1.23-.26,1.14.13-.05.22,1.98.6.61,1.16-.27.11-.58-.08-.79-.04h0ZM15.82,9.14c-5.26.64,0-.43-3.61-.29-.94.04-4.51-1.04,1-1.5,1.19-.1.48-1.48,3.1-.78.52.14,2.7-.93,1.93.32-.26.43,4.79-1.09,3.02,1.08-.45.55-1.22-.07-.85.63.35.64-4.36.5-4.61.53h0ZM29.92,13.27c-3.29-.3-2.69.3-2.49-1.22.02-.16-3.17-1.27-.87-1.74,1.76-.36.48,1.09,2,.86,1.26-.19.64,1,3.67.36,1.8-.37,1.82,2.12-2.32,1.74h0ZM28.93,8.07c.75.86,2.18,1.29,1.35,1.8-.83.51,2.33-1.01,3.96.7.66.69,4.68.67,1.99-.41-.8-.32,1.42-1.17-.05-1.06-1.35.1-.25-1.03-1.91-1.45-2.26-.57,5.19-3.36-1.35-3.22-.48,0-2.32-1.36-2.89.4-.45,1.37,3.19.35-.84,2.78-.28.17-.42.29-.27.46h0ZM18.77,4.27c-.62,2.21,1.9-1.05,3.58,1.34.26.37,5.64-.03,2.53,1.88-1.57.97,3.43,1.67,2.82-.42-.25-.86-1.12.06-.34-1.31.36-.63-1.52.12-.84-1.01.93-1.55-2.68-.7-3.56-1.16-.85-.44-3.98-.12-4.2.69h0ZM36.61,2.35c.4-.17.54-.82,1.68-.82.54,0,.7.87,1.83,1.28.67.25,1.94.36,3.04.34,1.34-.03,1.21.62-1.85,2.25-.24.13-3.22,1.12-2.6,0,.77-1.38-1.43-1.84-2.65-1.49-.07.02-4.27.54.55-1.56h0ZM53.35,21.88c-1.37,0-.32,1.02-1.47,1.55-1.06.49-.37,2.72,1.64.02.5-.67,1.07.15,2-.88.42-.47-1.09-.05-1.26-.42-.23-.5-.76-.27-.91-.27h0ZM57.7,15.85c-.46-.06-.93.68-.54,1.05.41.38-.57,1.38.52,1.31.4-.03.35-.88.72-1.38.39-.52-.24-.92-.7-.98h0ZM16.84,10.61c-1.86.15-.02.89-1.51,1.48-.85.34-.18,1.79,1.78.42.52-.36-.02-.48.95-.55.17-.01.98-1.07-.62-1.16,0,0-.53-.19-.61-.19h0ZM23.8,7.07c-.62-.09-1.48.26-1.48,1.07,0,1.01-.58,1.04-.47,1.48.05.2,2.11,1.07,2.11-.26,0-.93-.46-.58.07-1.59,0,0,.11-.6-.11-.61-.05,0-.08-.08-.12-.09h0ZM27.65,8.82c-1.07,0-1.17.84.49,1.01.28.03,1.36.43.97-.33-.3-.58-1.37-.69-1.46-.69h0ZM24.45,10.96c-.89.32-.13.62-.78,1.04-.26.17.4.66,1.14-.23.1-.12.95-.7-.14-.85-.08-.01-.14,0-.21.03h0ZM9.73,5.51c-1.71.26-.99.97-2.8,1.6-.34.12-1.64,1.95.11,1.86,1.67-.09,1.6-2.54,2.62-1.75.52.4.22-.86,1.94-.44.43.1,1.62.32,1.62-.34,0-1.24-1.99-.17-2.58-.8-.11-.12-.75-.15-.92-.12h0ZM23.54,1.59c-1.23.06-1.45,1.47.44,1.28.99-.1,1.01.29,1.45.23,1.41-.2,1.25,1.31,1.88.54.29-.35-.42-1.01-.6-1.56-.23-.73-2.92-.51-3.18-.5h0ZM32.06,1.09c-.79.19-2.15.34-.89,1.22.99.68.75-.32,1.11.88.25.83,1.32-.7,1.85-.7,1.44,0-.33-.99-.87-1.13-.26-.07-1.14-.28-1.2-.26h0ZM36.58,6.17c-.8.07-.67.71.04,1.14.5.3-.12.91.5,1,1.01.14.47,1.47.84,1.47.9,0,.97-.72.53-1.32-.82-1.12,1.59-.82,1.24-1.57-.12-.25-1.07-.49-1.52-.19-.55.37-1.01-.5-1.46-.5-.08,0-.1-.03-.17-.03h0ZM42.88,5.85c-1.1.49-1.64.24-.2,1.28.23.16-.94,1.48.76.83.53-.2-.47-.93.45-1.31.5-.2-.22-1.17-1.02-.81h0Z"/><path class="cls-15" d="M4.5,11.86c-.17.08-.15,0-.39.16-.32.22-.54.44-.17.77.42.38.83.1.64.7-.06.19.92.14.37,1.02-.17.27.39.32.63.18.35-.2.27-.12.63-.38.61-.45.63-.05,1.16-.16,1.33-.28,1.05-1.15.16-1.15s-1.15.22-1.31-.52c-.01-.06-.72.17-1.01-.4-.14-.28-.66-.25-.7-.23h0ZM7.67,15.33c-.32-.05-.6.39-.05.58.2.07.29.39.12.62-.09.13.24.12-.38.37-.35.14-.7,1.24.49,1.03.28-.05.4-.45.73-.2.37.29.85-.46.38-.96-.32-.34.22-1.04-.43-.95-.12.02-.07-.41-.66-.48-.06,0-.13,0-.19-.01h0ZM2.57,13.96c-.09,0-.67.14-.41.42.31.34-.65,1.04.04,1.06.48.01.35-.86.55-.91.29-.07.14,0,.25-.44.07-.3-.41-.12-.43-.12h0ZM11.34,9.84c-.3-.03-.81.27-.89.66-.23,1.27-.96.29-.89,1.55.03.49.39.36.66.13.32-.28.31-.25.62-.57.49-.5.19-.44.84-.43.15,0,.66-.88,1.57-.33.34.21-.08.45.72.32.39-.07.77.63,1.3.22.35-.27.25-.72-.22-.72-.22,0-1.34-.14-1.41-.45-.14-.62-.36.02-.81-.79-.15-.26-.74-.26-1,.12-.09.14-.31.3-.5.29h0ZM5.27,8.55c-.92.59-.39.8-.57.98-.33.32.66.3.76.3.29,0,1.88-.2.74-.51-.83-.22,0-.24-.58-.58-.07-.04.22-.44-.31-.19h-.04ZM9.51,8.4c-.67,0-.93.72.26.65.03,0,.25.49.71.26.28-.14.06-.56-.61-.56-.11,0,.02-.16-.28-.32-.05-.02-.02-.03-.08-.03h0ZM17.23,14.72c-2.35.47-.47-1.08-2.24-.18-.8.4-.67-.79-1.44.47-.08.13-2.48,2.07-1.2,2.15.33.02,1.39-1.24,1.55-1.07.34.35.93-.19,1.76-.19,1.04,0,1.13-.78,2,.95.62,1.23,1.63-.12,2.16.15.76.38,1.15-.79-.04-.76-.96.02-1.11-1.05-1.2-1.04-.54.01-1.03-.53-1.35-.46h0ZM28.5,13.55c-.97.17-3.11-.44-1.65.66.59.44-.51.6,1.08.63.65.01.16-.48,1.54.11,1.67.72,1.5-.33,2.07-.36.2-.01.75-.8.12-.9-1.19-.2-.93.5-1.93-.19-.18-.12-.98,0-1.23.05h0ZM31.79,10.24c-.44.1-1.41.04-.91.75.21.3,1.43-.21,1.72.14.25.3.26-.39,1.04.25.43.35,3.1.96,1.94.11-.63-.46-1.7.12-1.13-1.25.21-.52-1.03-.59-1.23-.93-.17-.3-.95-.35-1.02.42-.03.28-.15.47-.41.53h0ZM35.05,12.72c-.17.05-1.04-.06-.5.68.24.34,1.36.05,1.37.6,0,.2,1.43.66.84-.29-.32-.51-.15-.11-.08-.58.06-.43-.88-.87-1.58-.44l-.05.03h0ZM26.92,18.78c-.27-.35-1.04.47-1-.92,0-.19-1.8-.51-1.8-1.43,0-.28,1.62-.31,2.06-.08.52.28.58-.6,1.72-.13.85.35,1.98-.31,1.78.79-.08.45-1.78.35-1.78.85,0,.58-.05-.07-.44.48-.2.28-.5.48-.53.44h0ZM34.05,17.71c-3.09-.24-2.87,2.36-1.14,1.18.18-.12,1.09-.37,1.44-.22.77.33.25-.9,1.94-.35.52.17.76-.16,1.19-.59.85-.85-1.24-.3-1.31-.48-.12-.3-.84-.39-1.26.11-.21.25-.58.37-.86.35h0ZM27.61,20.75c-.2,0-2.18-.06-2.25,0-.2.17-.32.85.11.95.55.13-1.15.89.15,1.38.65.24,1.18-.45,1.61.45.16.34,1.33.59,1.31-.11-.01-.61,1.19-.73,1.23-.93.18-.77-.01-.68.94-.72.86-.03.42-1.44-.72-.76-.21.12-1.76.31-2.08-.17-.06-.09-.18-.07-.31-.07h0ZM29.4,23.39c-.26.34-.83.91.3.96.28.01.14-.39.69-.42.17-.01.16-.54-.98-.54h0ZM13.34,17.5c-.84.24-.65,1.02.43.76.28-.07,1.05.52.8-.25-.06-.16-1-.57-1.23-.51h0ZM15.48,22.13c-1.06-.11-.42.85-.21.91.76.21.96-.52,1.28.57.18.62,1.13.98,1.63.63.71-.5,2.32.4,2.02-.62-.23-.78-1.52-.16-1.57-.88-.07-.99-1.84-.21-2.76-.61-.05-.02-.32.01-.38,0h0ZM37.25,25.92c-1.72,0-.95.81-.96.99-.01.57-2.18.72-1.13,1.83.28.29,1.16.27,1.58-.14.83-.8,1.17-.04,1.8-.5.29-.21,2.35,0,1.73-1.15-.62-1.13-1.93.5-2.62-.86-.1-.2-.2-.18-.39-.18h0ZM29.38,27.04c-1.35.12-1.02,1.22.25.74.11-.04,1.67.55,1.4-.32-.1-.35-.74-.03-.78-.69-.01-.18-.52-.18-.88.28h0ZM37.36,23.54c-.73.08-1.23.73-.57,1.21.14.1-.5.91.73.43.65-.25-.02-.6.59-1.06.79-.6-.73-.58-.74-.58h0ZM40.74,16.98c-.14.12-1.42.4-.59.86.31.17-1.36.6-.78.99.64.42,1.87-.76,2.66-.82.91-.07.44.28,1.54-.18.19-.08,1.05-.1.08-.71-.39-.24-.86.24-1.24-.14,0,0-1.22,0-1.39,0-.1,0-.24-.05-.28-.01h0ZM43.56,13.79c-1.7.2-.46,1.22-.57,1.48-.4.94.77.24,1.52.23,1.02-.02.39-.61,1.55-.21.89.31.63-.47,2-.47.81,0,2.68-1.04.09-1.04-1.54,0-.25-.59-1.3-.54-.54.03-.42.51-1.12-.06-.99-.82-.47,1.63-2.01.68-.04-.02-.12-.07-.16-.07h0ZM37.26,4.34c-.35-.09-1.66.92-.26,1.1.43.05.37.89,1.34-.08.54-.54.86.18,1.64-.3.11-.07,1.96-.31.53-.82-.62-.22-.77.64-1.54.06-.82-.62-1.16.09-1.64.05-.05,0-.03.01-.07,0h0ZM51.26,7.19c-.84-.1-.3.17-1.25-.21-.87-.35-.85.55-1.67.55-1.06,0-.38,1.47,1.02,1.01.93-.31.05.81,1.76.77.33,0-.45,1.57,2.51.02.48-.25-.05-.24.65-.13.25.04.86-.93-1.27-.71-.74.08-.22-.26-.72-.46-.62-.24.23-.36-.97-.82l-.06-.02h0ZM47.83,23.05c-1.78.52.15.37-1.54,1.15-.39.18-.22,1.52.44.83.87-.91,2.05-.63,2.06-.63.31-.27-.48-.25.47-.56.25-.08.33-.47-.45-.47-.47,0-.74-.38-.97-.31h0ZM52.11,21.51c-1.02-.13-1.25.72-.59.74.2,0-.29,1.51,1.58.2.72-.5.48.17,1.16-.4.06-.05.74-.37.11-.45-.9-.12-.15.31-1.34-.19-.38-.16-.67.12-.92.09h0ZM49.22,18.24c-2.18.21-2.17,1.88-.84,1.18.15-.08,1.62.48,1.65-.18.01-.3,1.53.26,1.47-.58-.02-.29-.73.03-1.24-.39-.28-.23-.73-.04-1.04-.01h0ZM55.98,19.23c-1.56.16-1.05.83-.78.83.87,0,.9.92,1.49.16,0,0,.55-.39.64-.39.95,0-.03-.31.76-.74.44-.24-.58-.53-1.05-.14-.16.14-.73.68-.98.31-.02-.03.02-.04-.06-.03h0ZM56.94,11.29c-1.82.22-.03.51-.66.94-.16.11.69.58,1.14-.17.19-.32,1.32.33.78-.53-.22-.34-1.13-.26-1.26-.24h0ZM52.8,14.36c-.27.15-.7.19-.47.61.23.43.88-.36,1.31.08.37.37,1.12-.56,1.21-.57.44-.02,1.18.24.63-.53-.15-.21-.99-.29-1.22,0-.16.2-.83-.15-1.2.17-.14.12-.07.13-.25.24h0ZM51.77,11.07c-.51.14-.56.88.44.54.3-.1,1.09.34.83-.36-.14-.36-.48.03-.82-.26-.07-.06-.36.05-.45.07h0ZM42.75,8.96c-1.32.08-.25.63-.12,1.05.09.31.59.42.71.09.32-.87,1.41-.75,1.48-.78.02-.39.09-.95-.73-.64-.44.16.11.39-.96.28-.06,0-.3,0-.37,0h0ZM20.18,5.35c-1.84.35-1.3,1.66.57.54.26-.16,1.45.32,1.02-.46-.11-.21-1.49-.1-1.59-.08h0ZM18.14,9.92c-.31-.23-.04-.41-.81-.51-1.09-.14.33-1.58,1.16-.45.42.58,1.38-.76,1.86.74.14.45,1.71-.29,1.58.97-.03.31-.6.38-1.02-.15-.4-.51-3.02-.73-1.68.8.2.23-.31,1.39-.54-.47-.03-.25-.56-.52-.48-.93h-.06ZM15.28,9.52c-.24,0-.48.98.74.27.15-.08,1.04.2.6-.33-.05-.06-1.21.05-1.34.06h0ZM15.58,16.17c-.22.12-.72,0-.39.44,0,0,.88.11.92-.02.13-.42-.51-.42-.53-.41h0ZM10.15,22.95c-.68.18-1.18.01-.41.97.21.25.52-.03.87.37.37.42,1.25-1.06,2.57-.12.35.25,1.08-.49-.06-.9-1.65-.59-.69-.05-2.28-.19-.02,0-.48-.19-.69-.13h0ZM25.43,18.75c-1.02-.03-.81,1.2.21.55.07-.04.66.02.76.02,0-.4-.12-.21-.62-.53-.03-.02-.3-.05-.35-.05h0ZM21.96,25.98c-1.5.09-.63,1.01-.32,1.01.83,0,.11-.37,1.01-.65.13-.04.32-.43-.69-.37h0ZM28.99,4.45c-.52.08-1.12.12-1.02.97.1.87,1.93.28,2.25,1.19.09.26.32-.21.76-.03,1.05.42,1.87-1.22-.77-1.16-.46.01.37-.66-1.06-1.01-.04-.01-.11.05-.15.05h0ZM30.79,2.78s-.17.13-.26.16c-.46.17-.08.36-.35.51-.28.16-.2.28.11.28.61,0,.71-.37,1.28-.25.44.09.59-.44.38-.52-.35-.13-.61.02-.74-.08-.19-.15-.2-.17-.42-.11h0ZM40.96,6.47c-.19.13-.46.07-.31.51.14.38.7.17.74.35.04.19.53.11.72.15.06.01.27.03.27-.04,0-.41-.76-.19-.7-.49.06-.27-.2-.28-.41-.39-.17-.09-.16.03-.28-.08-.01-.01-.03-.01-.04,0h0ZM39.94,22.61c-.1-.03-.8.1-.82.41-.01.36.1.4.44.38.28-.01.54-.37.65-.3.07.04.29.02.29-.19,0-.34.57-.23.7-.3.17-.11.87-.37.2-.52-.14-.03-.38-.05-.49.05-.05.06-.21.25-.26.26-.11,0-.07.04-.23-.01-.13-.05-.34.27-.49.22h0ZM44.75,24.96c-1.01-.1-.35.34-.99.4-.37.03-.88.95.48.44.42-.16.3-.44.85-.33.25.05.81-.11.61-.46-.16-.28-.71-.02-.95-.05h0ZM17.65,25.91c-.56.21-.62.14-.36.62.16.28-.2.9.6.36.2-.13.49-.78.66-.78.5,0,.49.04.93-.36.21-.19-.2-.81-.77-.23-.25.26.08-.36-.66.02-.1.05-.35.35-.42.37h0Z"/><path class="cls-29" d="M3.3,19.47c-.3-.34-.68-.6-.99-.93-.09-.1-.14-.23-.18-.35-.04-.12-.02-.25-.06-.37-.02-.06-.04-.15-.1-.14-.07,0-.1.1-.12.16-.02.1.02.2,0,.3,0,.1-.08.19-.06.28.04.16.17.27.23.42.15.41.31.81.38,1.24.04.25-.16.53-.06.76.27.62.66,1.2,1.13,1.69.12.12.42.17.56.27.5.35.67.64.88,1.14.13.31.03.56.21.85.14.23.4.3.61.47.22.19.24.56.48.73.22.16.55.07.79.2.34.18.56.59.93.7.36.11.56.32.9.48.34.15.7.7,1.27,1.01.23.13.54-.07.79,0,.34.1.59.43.93.51.28.07.59-.2.85-.08.81.36,1.42,1.09,2.23,1.47.49.22,1.08.09,1.58.28.25.1.35.41.56.56.94.65,1.75.45,2.65.45.53,0,.99-.41,1.52-.45.21-.02.36.23.56.28.42.12.9.04,1.3.23.41.19.62.77,1.07.85.93.16,1.88-.24,2.82-.17.5.04.91.48,1.41.51.38.02.69-.37,1.07-.39.59-.04,1.16.29,1.75.23.56-.07,1.02-.56,1.58-.62.61-.06,1.2.32,1.8.28.9-.06,1.76-.43,2.65-.59.18-.03.4.09.56,0,.22-.13.25-.48.48-.59.36-.18.81-.1,1.18-.25.18-.08.24-.34.42-.42.26-.12.56-.22.8-.37.19-.11.23-.24.42-.35.2-.11.46-.11.69-.06.16.03.72.03.69-.08-.03-.12-.31-.06-.82-.23-.37-.12-.91-.33-1.28-.23-.46.13-.77.04-1.3-.18-.36-.15-.74.1-1.13.13-.26.02-.45.07-.71.1-.19.02-.32.18-.51.2-.41.03-.68-.02-1.08.03-.35.04-.71.19-1.06.23-.93.09-1.41-.2-2.34-.11-.17.02-.55.14-.72.15-.24.02-.45-.08-.69-.07-.65.03-1.26.47-1.92.42-.48-.04-.82-.52-1.27-.68-.38-.13-.8-.07-1.18-.2-.25-.08-.41-.38-.68-.42-.44-.08-.9.07-1.35.06-.26,0-.51-.13-.76-.11-.14.01-.34.13-.48.1-.48-.1-.76-.38-1.24-.46-.49-.09-1,.15-1.49.06-.3-.06-.47-.32-.77-.38-.23-.04-.55-.11-.76-.21-.42-.21-.5-.45-.89-.7-.22-.14-.52,0-.76-.08-.2-.08-.3-.34-.51-.39-.43-.11-.91.06-1.32-.08-.51-.18-.86-.67-1.35-.87-.29-.12-.64.02-.93-.08-.14-.05-.14-.32-.28-.37-.51-.17-1.08-.07-1.58-.25-.34-.12-.55-.47-.87-.62-.28-.13-.61-.1-.9-.2-.12-.04-.21-.16-.34-.2-.24-.07-.52-.01-.73-.14-.37-.23-.57-.7-.96-.9-.35-.18-.81.01-1.16-.17-.13-.07-.05-.36-.17-.46-.31-.25-.63-.22-.96-.44-.07-.05-.08-.35-.14-.42-.25-.3-.34-.38-.68-.57-.18-.11-.51.04-.62-.14-.12-.18.19-.44.11-.65-.06-.15-.33-.09-.45-.2-.09-.08-.05-.25-.13-.34h0Z"/><path class="cls-30" d="M6.73,23.52c-.12-.07-1.21-1.01-1,0,.11.52.71.1.76,1.08.02.49,1.68.34,2.11,1.16.47.06,0,.72,1.25.7.27,0-.38.93,1.35.96.74.01.04.27,1.14,0,1.44-.36.67.57,1.88.48.36-.03-.56,1.22,1.27,1.13.08,0,.51.54,1.18.54,1.05,0,.28,1.24,2.21.55.59-.21.78.67,2.55.13.54-.17.9.42,1.73.14.27-.09.32.17.58.34.14.09.34,0,.65-.03.15-.01,1.69.19,1.66-.15-.03-.24-1.12.02-1.66-.47-.46-.42-1.26.33-2.18-.64-.63-.66-.91-.15-1.36-.27-.35-.09-.57-.53-.94-.52-1.36.03-.94-.23-1.2-.26-.39-.04-.4.4-1.16-.17,0,0-.82.09-1.43-.51-1.03-1-2.62-.9-2.75-1.04-.86-.9-.56-.45-1.62-.93-.33-.15-.35.27-.67-.16-.45-.61-1.84.29-2.71-.77-.24-.29-.61.27-.96-.83-.16-.51-.58-.41-.65-.45h0Z"/><path class="cls-11" d="M28.62,30.57c-.17.05-.85.02-.58.39.06.08.35-.08.64.24.28.3.82.52,1.19.27.44-.29.07.01.53-.08.32-.06.04-.27.43-.08.36.17.99-.04,1.32-.23.2-.11.74.12.88-.08.02-.03,1.88.13,1.72-.38-.04-.14-.47.04-.68.04-.68,0-.35-.18-1.17-.09-.18.02-.64.1-.77-.04-.09-.1-.67-.27-.9-.07-.09.08-.53.32-.64.32-.38,0-.24-.17-.51.04-.29.23-.92-.94-1.3-.36-.03.05-.14.09-.17.1h0Z"/><path class="cls-18" d="M1.29,14.09c.05.16.11.35.14.6.07.64-.06,1.29.06,1.92.04.2.33.28.39.48.16.49.08,1.04.25,1.52.16.44.52.79.73,1.21.25.49.37,1.1.75,1.51.45.49.91.64,1.42,1.08.19.16.32.49.51.66.33.28.84.3,1.16.59.49.45.66,1.21,1.21,1.58.67.45,1.56.43,2.28.79.38.19.59.66.99.82.82.32,1.75.26,2.56.59.27.11.55.61.82.73.64.3,1.17.01,1.85.21.71.21.99,1.02,1.82.92.22-.03.68-.18.9-.14.72.12,1.36.57,2.09.62.64.05,1.05-.28,1.68-.18.27.04.35.47.61.55.37.12.77-.3,1.16-.23.55.1.96.66,1.52.73.53.07,1.04-.31,1.58-.31.52,0,1.01.27,1.52.28.71.01,1.4-.23,2.11-.23.33,0,.63.19.96.23.37.04.75-.07,1.13-.03.57.06,1.12.38,1.69.31.67-.08,1.22-.62,1.89-.73.96-.16,1.97.12,2.93-.08.27-.06.26-.6.54-.65.76-.14,1.55.26,2.31.14.26-.04.26-.52.51-.59.5-.15,1.07.12,1.58-.03.44-.13.72-.62,1.16-.76.31-.1.66.12.99.06.38-.08.68-.42,1.07-.48.4-.06.84.31,1.21.14.3-.13.16-.68.42-.87.28-.2.72,0,1.01-.17.16-.1.02-.46.2-.54.41-.17.93.11,1.32-.08.52-.26.78-.89,1.27-1.21.3-.2.75-.09,1.04-.31.32-.24.41-.71.7-.99.16-.16.49-.1.62-.28.13-.18.17-.51.34-.65.33-.26.65-.05.93-.37.3-.34.25-.76.54-1.11.21-.26.49-.2.73-.44.18-.18.14-.51.27-.73.15-.27.32-.32.46-.59.16-.31,0-.71.11-1.04.1-.3.47-.48.51-.79.05-.44-.3-.87-.27-1.31.02-.27.39-.42.41-.69.01-.23-.31-.38-.32-.61-.02-.33.27-.63.24-.96-.02-.19-.1-.37-.2-.54-.09-.16-.12-.27-.13-.36-.02-.33.03-.37-.09-.76-.05-.17-.11-.34-.23-.55-.31-.58-.49-.99-.83-1.55-.15-.24-.36-.52-.55-.73-.56-.65-.81-1.32-1.45-1.89-.25-.22-.73-.09-1-.28-.39-.28-.42-.91-.79-1.21-.47-.39-2-.34-2.63-1.27-.09-.14-.19-.42-.33-.51-.34-.21-.8-.12-1.16-.31-.19-.1-.43-.34-.63-.42-.24-.09-.29.08-.53,0-.38-.14-.62-.54-.99-.7-.47-.2-1.03-.14-1.49-.37-.35-.17-.5-.67-.87-.79-.47-.15-1,.12-1.49.03-.23-.04-.34-.37-.56-.42-.37-.09-.77.06-1.16,0-.53-.08-1.02-.34-1.55-.39-.16-.02-.29.22-.45.2-.68-.08-1.32-.39-2-.48-.25-.03-.49.2-.73.14-.5-.13-.89-.55-1.38-.68-.56-.15-1.15-.2-1.72-.14-.34.04-.59.42-.93.42-.31,0-.51-.39-.82-.42-.32-.03-.61.29-.93.25-.61-.06-1.2-.52-1.82-.44-.73.09-1.19.49-1.9.66-.42.1-.84,0-1.27.03-.41.02-.77.32-1.18.34-.46.03-.92-.2-1.38-.2-.34,0-.64.31-.97.3-.5-.02-1.08-.25-1.58-.18-.69.1-1.16.47-1.85.59-.35.06-.68-.31-1.04-.28-.36.02-.63.37-.99.42-.41.06-.59-.07-.99.04-.19.05-.39.28-.56.38-.22.13-.53,0-.76.11-.27.14-.43.34-.73.41-.5.11-.97-.04-1.47.1-.46.13-.67.51-1.11.68-.33.13-.77.06-1.11.17-.5.16-.89.58-1.38.79-.48.2-1.04.17-1.49.42-.3.17-.39.57-.65.79-.16.13-.39.14-.56.25-.24.16-.41.4-.65.56-.46.31-1.01.49-1.44.85-.28.24-.37.66-.65.9-.22.19-.61.12-.79.34-.36.44-.44,1.05-.76,1.52-.1.15-.25.15-.35.3-.1.14-.11.35-.21.49-.32.45-.68.72-.96,1.2-.12.2-.05.5-.14.72-.02.05-.05.1-.08.15-.23.38-.28.81-.15,1.23h0Z"/><path class="cls-16" d="M12.5,27.25c-.54.44.67.58,1.17,1.07.45.45,1.17,1.23,1.83,1.27.38.02,1.09-.03,1.45.01.37.05.77.32,1.22.35.59.04.53-.28,1.37-.12.4.07.71-.39-.68-.5-.67-.05-2.23-.11-2.71-.5-.99-.79-1.72-.83-2.23-.96-.69-.18-.7-.32-1.23-.57,0,0-.18-.05-.19-.04h0Z"/><path class="cls-19" d="M22.04,10.45c-1.54-.79-1.87,1.25-.62,1.19,1.75-.08.29.48,2.11.47.88,0,.92.88,1.18,1.01,1.12.59,1.83-1.03.87-1.58-.89-.51.22-1.47-.78-2.46-.3-.3-1.59-.26-1.11.98,0,0,.44.6.15.64-.08.35-1.33-.01-1.8-.25h0ZM55.24,12.38c-.86-.59-1.51,1.29-.34,1.98.16.09,0,1.14.99.86.54-.15-.26-.84.58-1.11.28-.09.64-.71-.52-.79-.39-.03-.51-.81-.71-.94h0ZM38.13,1.28c-.06-.04-1.55-.56-1.71-.26-.42.79.79.65,1.7,1,.41.16.68,1.5,1.47.93.61-.44-1.09-1.46-1.46-1.67h0ZM56.29,10.53c-1.01-1.11-.98.54-2.93.39,0,0-1.28-.99-1.67-.28-.33.61.45.92,1.07.94,1.39.02,1.01-.47,2.24-.4.09,0,.21-.27,1.1-.21.21.01.28-.34.19-.43h0ZM47.51,15.56c-.66-.31-1.42-.59-1.52.14-.09.63,1.44.89,2.57,1.04,1.23.16.97-.04,1.87.61.17.12.36.13,1.33.12.95-.01,2.19.7,1.67,1.72-.05.1-1.44.71-.46,1.4.53.38,1.34-.21,1.69-.6.1-.11.17-.55,1.1-.57.55-.01.18-.91.74-1.25.68-.41.91.11,1.37.24.3.08.65.02.93-.5.32-.61-.35-1-.9-1.46-.31-.27-2.31-.99-2.78-.42-.72.87-2.38.88-2.73.11-.18-.38-1.81.23-1.82-1.02,0-.25-1.36-1.3-1.6.29-.1.67-1,.39-1.46.18h0ZM50.41,18c-1.07.01-.67.12-.69,1.18,0,.57-1.2,1.19-.39,1.51,1.15.46.94-1.12,1.55-1.34.44-.16.74-.68.1-.74-.3-.03-.15-.65-.47-.62h-.1ZM44.68,20.44c-1.01,1.73,2.33,1.58,2.3,2.06-.04.87,2.27.75,1.72,1.83-.23.44-.45-.1-.73.82-.05.16-1.73.73-.42,1.43.63.34,1.34-.37,1.49-.99.05-.21,1.16.29,2.04-.26.94-.59.07-1.21,1.33-1.35,1.26-.15,1.43.13,1.49-1.2.02-.47-1.95-.67-2.53-.48-.26.09-.74-.32-1.59-.34-1.16-.02-1.09.13-2.07-.35-1.14-.56-.11-.85-1-.95-1.07-.11.12-.67-1.69-.7-.15.18-.22.27-.34.47h0ZM44,24.79c-.51.4-1.29-.48-1.52.07-.32.77.44.84.74,1.59.34.86,1.31.54,1.57-.31.09-.31.55-.34.81-.15.52.37,1.26.28,1.08-.35-.22-.77-1.49-.06-1.65-.6-.14-.47-.76-.56-.99-.27l-.04.02h0ZM39.68,22.01c.39.64,1.75.95.2,1.77-.37.19.11,1.13,1.07.22.53-.5-.2-.37.5-1.09.37-.38-.45-.59,1.4-.56,1.28.02.92-1.4-.52-1.43-.76-.01-.55,1.3-1.53.69-.39-.25-1.1.44-1.12.41h0ZM40.24,16.7c-.34-.34-.99.33-.57.78.14.15.31.58-.04.67-.45.11.26.64-.14.82-.16.07-.88.46-.95.59-.5.91.98,1.5,1.23.59.11-.41.96-.19,1.29-.16.28.03.88.78,1.01-.11.14-1.02-1.55-.62-1.5-1.28.03-.36-.11-.13.1-.45.15-.23-.39-.15-.15-.61.14-.28-.22-.8-.27-.85h0ZM41.11,15.16c-.68.22-1.46-1.18-1.8-.35-.17.42.16,1.17.78,1.27,2.67.43,1.69,1.01,2.21,1.14,1.03.26.88.27,1.21,1.21.45,1.31-1.97.91-.28,1.98.59.37,1.34-1.36,1.19-1.59-.42-.62-.48-.85-.54-1.52,0-.01-2.05-1.41.26-1.58,1.01-.07,1.33-1.06-.17-1.21-.31-.03.51-1.13-1.04-.33-.43.22.07,1.57-1.71.97-.05-.02-.06,0-.1,0h0ZM47.19,10.4c-.69-.1-1.5-.41-1.28.66.14.73,2.64-.13,2.88,1.01.05.21,1.35-.11.79,1.18-.45,1.03,2.09.48.68-1.59-.14-.2-2.03-.54-.8-1.41.24-.17,1.19.09,1.31-.79.09-.64,1.69.1,1.71-1.19,0-.31-1.62-1.03-1.85-.14-.2.76-1.03,1.26-1.76,1.44-.66.16.27.82-1.54.81h-.13ZM48.92,4.67c-.28-.03-1.72-1.23-1.8.11-.07,1.12,3.39.74,3.78,2.18.28,1.05,2.65-.45-1.35-1.47-.33-.08-.51-.8-.63-.82h0ZM39.11,6.01c-.66-.39-1.44.32-.26,1.1,1.15.76-.34.77.47,1.67.14.15.23.77-.22,1.01-2.22,1.19.93,1.29,1.19.22.14-.57,1.28-.65,1.72-.38.87.54,1,.23,1.08,1.38,0,.09.98.39.34,1.2-.47.6,1.29,1.67,1.38-.58.05-1.39-2.27-1.68-1.32-3.39.16-.3.19.17.44-.44.81-1.97.6-1.02,2.19-2.03.26-.16.6-.91-.3-1.19-1.95-.6-1.1.65-1.86,1.05-.9.47-.63.01-.77,1.23-.16,1.35-1.28,1.14-1.3.78-.02-.56-1.61.03-1.88-.33-.15-.2-.44-.51-.49-.8-.01,0-.32-.46-.41-.52h0ZM41.39,3.56s-.76-.13-.1.16c.16.07.42.06.73.28.4.28.39.34.71.64.32.29.86-.36,1.32-.35.8.01-.06-.98-1.39-.54-.35.12-1.26-.18-1.28-.18h0ZM34.38,10.52c-2.28-.35-.93.75-1.78.97-.26.07-.71.74.04.76.89.02.93-.03,1.4-.64.13-.17.82.15.79-.68,0-.08-.18-.29-.27-.31-.06-.12-.09-.09-.18-.1h0ZM34.08,16.39c-1.14-.12-.31.81.19.98.21.07.45,1.2,1.4.11.3-.35.12-.76-.54-.83-.27-.03-.72.04-.87-.19-.03-.04-.13-.07-.18-.08h0ZM32.84,15.82c-.33.02-1.6.13-1.18.75.58.87,1.62-.64,2.18-.63,1.54.03,1.27-1.36,1.75-1.36.45,0,.2-.32,1,.05,1.3.61,3.04-.44,1.55-.94-1.2-.4.04-.88.05-1.42.02-1.77-.62-.38-1.25-1.84-.08-.18-2.32-1.12-1.5.6.67,1.39,1.26.08.28,1.84-.36.64.1,1.07-.88,1.17-.88.08-.57.85-1.56,1.44-.13.08-.06.3-.44.33h0ZM35.7,18.33c-.46.02-.85.58-.46.99.33.35-.1,1.02.07,1.27.39.6-.45,1.24-.98,1.41-1.27.41-.73,1.22.33.63.14-.08,1.05-.84,1.05-.93-.04-.45,1.31-.49,1.63-.3.2.12.89.35,1.2.35.45,0,1.47.1.68-.56-.64-.54-2.44.26-2.43-.89,0-.64-.72.18-.55-1.02.05-.32-.11-.97-.54-.95h0ZM33.9,25.16c-.71.3-.18.4-1.25.81-.56.21.59,1.58,1.32,0,.3-.65.46.51,1.31-.85.14-.23,1.72-.03,1.19,1.15-.27.61.8,1.12,1.12.33.08-.2.72-.2.83.41.07.4,1.04.16.69-.54-.33-.68-1.39.08-1.29-1.42.02-.35-.97-.34-1.4-.53-.49-.21-.49-.03-.91-.44-.34-.32-.95.48-2.02-1.1-.54-.8-1.92-.17-1.07.7.24.25.7-.25.75.47.04.47,1.03-.12.93.88,0,.09-.14.08-.21.11h0ZM26.44,25.58c-.71.27-.72.32-.51,1.23.22.94,1.79.42,1.69,1.48-.01.11-1.31.5.46.95.65.16,1.03-1.53.14-1.7-.37-.07.09-.5.56-.63,1.13-.32.7.59,1.5.16.93-.51,1.13,1.49,1.87.57.66-.82-1.69-1.17-1.73-1.2-.62-.5-1.71-.23-2.41.03-1.12.42-.3-1.38-1.57-.89h0ZM24.61,28c-.88-.59-.84,1.26-2.16.7-.49-.21-.12.48-1.07.09-.6-.25-1.53,1.21.94.96.46-.05.38-.6,1.12-.39.34.1.12-.76,1.2-.49.19.05.53-.52-.02-.88h0ZM23.13,22.9c-.7-.05-.19.49-.47,1-.08.14-.71-.12-.84.09-.4.61-1.22-.5-1.32.95-.02.26-1.32.37-.73.97.65.66,1.58,0,1.77-.96.1-.48.74.29,1.19.26.16-.01.34-.65.7-.77.28-.09.8.46,1.34.55,2.1.37,1.82-.62.47-.86-1.66-.29-.34-.41-.97-1.01-.26-.24-.82-.2-1.14-.22h0ZM28.43,20.59c-.86.27-1.24-.56-1.26.43,0,.49,1.83.38,2.35.08.26-.15.91.17,1.54.1.54-.06,1.53-.05,1.48.61-.04.56,1.95.41.91-.68-.78-.83-2.67-.25-2.65-.8.03-.62-1.3.21-.34-1.97.21-.47.31-.45-.5-.5-.72-.04-.14,1.5-.4,1.71-.44.35-.44-.31-.51.69-.02.32-.51.3-.63.34h0ZM27.1,16.23c-.52,0-.39.53-.03.74.56.33-.03.39.11.7.35.78-.11.6-.29,1.27-.17.64.96.45.97-.47,0-.3-.38-.57-.15-.87.13-.17-.15-.46-.14-.69,0-.46-.06-.35-.43-.66-.02-.02-.01-.02-.04-.02h0ZM24.55,19.51c-1.22.08-.49.82.38.89.68.05-.15.23.66.66.38.2.73,1.02-.42,1.14-.86.09.28.86.81.47.86-.61.57-1.06.47-1.52-.05-.24-.27-.63.09-.75.44-.15.43-.47.35-.54-.14-.14-.21-.26-.54-.16-.14.04-.29.19-.57.29-.63.21-.84-.5-1.22-.48h0ZM23.14,20.82c-.38,0-.51.37-.19.63.66.52.14.69.39.91.39.35.82-.49.36-.67-.07-.03,0-.86-.57-.87h0ZM20.54,20.88c-.37-.09-.67-.19-1-.38-.26-.15-1.37.08-.63.68.69.57-.31.74-.31,1.05,0,.19,1.09.39,1.27-.42.08-.38.43.11.95-.41.11-.11,1.14.16,1.06-.57,0-.09-.9-.21-1.1,0-.04.04-.19.08-.25.06h0ZM18.56,14.61c-1.9-.76-2.13,1.01-.62.97.17,0-.22.86,1.71.84.55,0,1.78.52,1.01,1.39-.4.46,1.19.26.84,1.71-.16.67.93.73,1.22.28.24-.38.03-1.56-.85-1.77-.74-.18.4-.59-.47-1.18-.13-.09-.34-.79.25-1.05.9-.4-.3-1.76-1.16-.6-.53.72-1.28-.5-1.54-.49-.07,0-.34-.07-.39-.09h0ZM29.6,17.21c-.27.32-.49-2.02-2.02-1.55-1.47.45-.29-.86-2.46-.9-.72-.01-1.01.27-2.25.25-1-.02-.35-1.29.8-.72.48.24,1.43-1.05,2.38-.07,0,0,1.18.51,1.2-.42.02-1.56,1.81-1.23.96.19-.47.79.99.96.99.97.02.03-.07.53.19.53.04,0,2.15.72,1.05,1.52-.18.13-.77.14-.78.15l-.04.05h0ZM27.93,8.51c-.4-.08-1.82-.67-1.53.42.17.64,1.26.08,1.42.85.08.38,1.7-.42,1.52,1.36,0,0-1.34.87-.53,1.14.61.2,1.51-.58,1.59-1.25.11-.92,1.86-.46,2.42-.99.46-.44,1.98.35,1.62-1.16-.08-.35-.24-.35-1.07.2-.3.2-.94-.34-.17-1.23,1.07-1.23-.32-1.35-.56-.9-.2.37-.81-.45-.6.93.06.43.47.85-.45,1.15-.69.22-.96-.23-1.95-.23-.87,0,.36-2.24-1.01-1.59-.47.22.34,1.38-.27,1.34-.14,0-.07.03-.41-.04h0ZM31.08,4.24c-1-.23-1.39.56-1.49.59-.63.16-.84-.53-1.52-.17-.28.15-.99.12-1.27-.24-.05-.07-.98-.59-.89.33.07.79,2.3.17,2.44.87.09.44-.3,1.07.57,1.03.37-.02.07-.95,0-1.12-.08-.19.43-.35.64-.16,0,0,.34.15.44.09.38-.23-.43-.81.93-.54.29.06.54-.3.33-.57-.04-.05-.12-.09-.19-.11h0ZM31.11,1.71c-1.21.09-.33,1.26.42,1.29.06,0,.68.49.18.85-.63.45,2.35.58,1.36,1.99-.48.68,1.09.63,1.16-.21.1-1.31-.57-.76-.48-1.61.03-.3,1.19-.14,1.62.58.48.81,1.41-.13,2.12.53.46.42,2.14-.01,2.52-.68.33-.57.57-.76-.78-.86-.8-.06-.79.92-2.06.1-.45-.29-3.06.58-2.97-.99.03-.52-.75-.24-.79.57,0,0-.55.89-.96-.16-.29-.72-.82.03-.75-.89.01-.13-.49-.51-.59-.51h0ZM28.41,1.53c-.64-.17-.44.4-.02.61.43.22-.13.83-.14,1,0,.54,1.21.28.86-.64-.29-.77.37-.14.62-1.08.11-.42-.58-.69-.68-.06-.03.19-.41.23-.64.17h0ZM23.13,1.68c-1.6-.03-.8,1.14.24,1.16,1.48.03.15.6.96.62,0,0,.78.9,1.1.16.33-.76-.88-.7-.12-1.28.34-.26,1.51.39.74-.94-.18-.31-.8-.29-1.08.38-.12.28-.19.45-.52.53-.35-.27-.33.05-.91-.59-.06-.07-.32-.05-.41-.05h0ZM22.61,5.5c-.96-.26-1.17-.16-1.96.31-.26.15.31.48-.63.56-.34.03.15,1.61,1.53.56.12-.09,1.69-.63,1.62.26-.03.38.75-.25.89.93.1.88,2.26.22.88-1.04-.41-.38-.85-1.4.25-1.28.41.04.75-1.64-.53-1.17-.83.3-.84-.42-1.03.78-.02.14-.88.14-1.02.1h0ZM16.2,13.03c-.52-.06-1.4-.23-1.11.58.1.27.22-.15.61.67.23.49.96.46,1-.21.01-.25,1.52-.36-.01-.98-.03-.01-.47-.06-.48-.06h0ZM13.23,19.69c-.46-.01-.77.5-.33.94.15.15.92,0,1.16.1.21.08.26.53-.13.77-.68.41-1.84.88-.37,1.32.02,0,1.2,1,1.01-.13,0,0-.82-1.12.44-1.14.73-.01-1.19-1.24,1.06-1.2,2.3.04,1.57-1.89.02-.98-.44.26-.42-1-1.38-.67-.43.14.25,1.02-.01,1.24-.19.16-.91-.21-1.47-.23h0ZM11.32,22.74s.35,1.55-.7.88c-.55-.35.61-1.01-.6-1.3-.85-.2-.42-1.53.6-.42.22.24.9.1.77.77l-.07.07h0ZM7.53,20.78c-.91-1.05,2.24.15.71-2.14-.35-.52,1.15-.52.1-1.92-.2-.27.85-.87,1.04.22.21,1.18-.65,1.89.82,2.12.19.03-.12.7,1.34.72.67.01.18,1.7-1.06.65-.32-.27-1-.31-1.31.09-.29.38-.47-.16-1,.37-.25.25-.56-.01-.64-.1h0ZM12.16,15.49c-.51.35-2.1-.23-2,.78.01.15.64.83,1.25.42.66-.44.95.39,1.44.4.92.02,1.44-.05,1.67.96.1.44,1.88.23.42-1.17-.84-.8.75-1.02.83-1.27.24-.77-1.1-1.23-1.64-.78-.89.75-1.68.47-1.97.66h0ZM12.87,11.83c-.65-.12-.93.9.14.97,1.11.08.36,1.2,1.54,1.11.61-.05-.54-1.08-.65-1.17-.07-.05-.19-.74-1.04-.9h0ZM15.02,8.7c-.72.77-.77.06-1.43.47-.67.42.03,1.3.93.77.33-.19,1.02-.42,1.32-.13.46.46,2.23-.68,3.07,1.13.33.7-.97,1.19-1.04,1.44-.22.81.91.67,1.19.09.18-.38.3.34.41-.95.02-.25,1.01-.65-.6-1.78-.4-.28-1.6-.35-.73-1.4.05-.06,1.51-.45,1.45-1.25-.48-.24-1.26.1-1.44-.27-.62-1.25-1.07,1.35-1.31,1.51-.04.03-.44.8-1.37.45-.08-.03-.42-.1-.45-.07h0ZM16.78,2.92c-.71-.1-.52.99.12,1.12,1.04.21-.79,1.73.93,1.66.78-.03.02-1.45.1-1.49.3-.15,1.62-.11,1.09-.92-.37-.56-1.65.89-1.84-.03-.06-.31-.33-.33-.4-.34h0ZM14.32,4.31c-1.54-.68-.77.35-1.78.33-1.12-.02-.75.97.37.62.2-.06.71.53,1.2-.25.02-.04,1.36-.19.21-.71h0ZM8.01,11.59c-.67.4.08,1.35,1.62.5.45-.25.77.24,1.42-.06.4-.19.56.12.69-.43.11-.47,1.13-.52-.14-1.5-.48-.37,1.81-1.19-.27-2.28-.32-.17-2-1.61-1.88-.08.04.48.89.25.13,1-.37.37.04,1.15.25,1.49.17.28-.18,1.1-.42,1.1-.34,0-1.11.1-1.39.27h0ZM8.13,12.73c-1.07-.1-.53.72.25.96.69.21-.27.52.49.79.96.35-.17,2.07,1.02.89.59-.59-.91-.97.2-1.52.35-.18.03-.74-.65-.34-.53.31-1.02-.75-1.31-.77h0ZM5.78,9.02c-.02,1.42-1.16,0-1.02,1.44.01.13-.19.71-.21.79-.31.05-.13.21-1.08.19-.39,0,.39,1.11-1.09.97-.05,0-1.29.7.9.74,0,0,.55-1.15,1.08-1.14.6.01.88-.3,1.34.28.48.6,1.89-.51.42-1.1-.43-.17-.8-.29-.24-.78.25-.22.53.21.51-.57,0-.22,1.64-.33.61-1.21-.26-.22-1.22-.1-1.23.39h0ZM7.48,15.48c-.55-.89-1.28.58-2.36-.63-.28-.31-1.75-.99-2-.47-.4.83,1.58.71.67,2.29-.36.62.18.89.81.38.68-.55.44-1.62.91-.98.34.46.63-.69,1.16-.27.25.2,1.23.28.91-.25-.04-.06-.06,0-.1-.07h0Z"/><g class="cls-35"><path class="cls-32" d="M2.84,18.71c-.2.17-.28.44-.03.54.25.1.55.1.75-.06.2-.17.17-.43-.02-.55-.19-.12-.5-.09-.7.08h0Z"/><g class="cls-38"><path class="cls-31" d="M5.24,25.84c-.26.28-.22.56.12.79.34.23.89.18,1.15-.1.26-.28.12-.65-.19-.94-.31-.29-.82-.03-1.08.25h0Z"/><path class="cls-31" d="M6.56,28.87c.14.26-.06.49-.42.59-.37.1-.72-.07-.85-.32-.12-.25.16-.54.5-.58.34-.04.63.05.77.31h0Z"/><path class="cls-28" d="M33.49,33.72c-.45-.1-.8,0-.99.31-.19.31.02.68.47.78.45.1.88-.11,1.17-.41.28-.3-.2-.58-.65-.69h0Z"/><path class="cls-31" d="M19.17,32.83c.17-.3.05-.63-.35-.76-.4-.12-.88.03-1.04.33-.16.3,0,.66.43.76.43.09.79-.03.96-.33h0Z"/><path class="cls-28" d="M47.93,33.42c-.47-.07-.71-.3-.68-.65.03-.35.48-.6.95-.53.47.07.72.42.78.79.05.37-.58.45-1.05.38h0Z"/><path class="cls-31" d="M47.92,30.93c.15-.25.04-.52-.3-.63-.34-.11-.78-.01-.92.24-.15.25.06.46.34.64.29.18.73,0,.87-.25h0Z"/><path class="cls-28" d="M57.33,23.73c-.15-.12-.39-.17-.58-.07-.19.09-.21.27-.07.4.15.12.42.16.6.05.18-.11.19-.25.04-.37h0Z"/><path class="cls-31" d="M51.11,27.79c-.15-.18-.43-.19-.67-.08-.24.12-.26.35-.11.52.15.16.51.17.7.04.19-.13.24-.3.09-.48h0Z"/><path class="cls-31" d="M46.46,34.6c.1-.18.03-.38-.22-.45-.24-.07-.53.02-.63.2-.1.18,0,.4.27.45.26.06.48-.02.58-.2h0Z"/><path class="cls-31" d="M43.85,31.39c.15-.27.04-.58-.33-.69-.37-.11-.8.04-.95.31-.15.27,0,.61.4.69.4.08.73-.04.88-.31h0Z"/><path class="cls-31" d="M52.79,31.12c.17-.3.05-.65-.37-.77-.41-.12-.9.04-1.06.34-.17.3,0,.68.45.77.44.09.81-.04.98-.35h0Z"/><path class="cls-28" d="M15.62,32.74c-.2-.3-.65-.48-1.06-.33-.41.15-.58.53-.37.84.2.3.71.47,1.12.28.41-.19.52-.49.31-.79h0Z"/><path class="cls-31" d="M21.62,31.95c-.36.12-.64.4-.42.62.22.22.58.34.93.22.36-.12.52-.44.38-.66-.14-.22-.53-.3-.89-.18h0Z"/><path class="cls-31" d="M18.12,34.52c-.36.12-.64.4-.42.62.22.22.58.34.93.22.36-.12.51-.44.38-.66-.14-.22-.53-.3-.89-.18h0Z"/><path class="cls-31" d="M12.57,30.98c.17.19.57.3.83.23.26-.07.42-.4.37-.63-.04-.23-.42-.34-.86-.16-.44.19-.51.37-.34.55h0Z"/><path class="cls-31" d="M9.87,31.25c.26.04.46.2.4.39-.06.19-.33.31-.59.27-.26-.04-.46-.23-.37-.42.08-.19.3-.28.56-.24h0Z"/><path class="cls-31" d="M11.26,28.51c-.22.06-.29.21-.21.38.08.16.33.22.54.16.2-.06.27-.27.17-.4-.11-.13-.28-.2-.5-.14h0Z"/><path class="cls-31" d="M9.42,27.89c-.34.13-.67.02-.85-.24-.17-.26.02-.54.34-.65.32-.12.74.06.84.3.1.24.01.46-.33.6h0Z"/><path class="cls-31" d="M44.13,33.75c.11-.2.08-.47-.2-.51-.28-.04-.56.03-.68.24-.11.2.02.45.26.51.23.07.51-.04.62-.24h0Z"/><path class="cls-31" d="M41.38,33.98c-.21.21-.68.34-.99.25-.3-.09-.47-.48-.41-.75.06-.27.51-.39,1.02-.16.51.23.58.45.38.66h0Z"/><path class="cls-28" d="M37.14,32.68c.26-.11.59-.08.74.11.15.19.05.44-.22.55-.26.11-.62.06-.74-.15-.13-.21-.04-.4.22-.51h0Z"/><path class="cls-28" d="M25.69,35.9c.42-.08.84.06.95.36.11.31-.12.67-.54.75-.42.08-.73-.13-.97-.41-.24-.28.13-.63.55-.71h0Z"/><path class="cls-31" d="M20.73,35.62c.17.16.45.23.67.1.22-.12.26-.36.09-.52-.17-.16-.49-.21-.7-.07-.21.14-.23.33-.06.49h0Z"/><path class="cls-31" d="M28.93,35.54c-.37.19-.86.17-1.12-.1-.25-.27-.14-.66.23-.84.37-.19.91-.14,1.13.16.22.3.12.6-.25.78h0Z"/><path class="cls-31" d="M29.14,33.63c.21.13.51.15.69,0,.18-.15.14-.39-.07-.53-.21-.13-.54-.13-.71.04-.16.17-.13.36.08.49h0Z"/><path class="cls-31" d="M24.01,35.16c.17.16.45.23.67.1.22-.12.26-.36.09-.52-.17-.16-.49-.21-.7-.07-.21.14-.23.33-.06.49h0Z"/><path class="cls-31" d="M8.85,29.62c-.12.22-.03.46.26.55.29.09.64-.03.75-.24.12-.22,0-.48-.32-.55-.32-.07-.58.03-.69.24h0Z"/><path class="cls-31" d="M53.74,26.86c-.31.34-.31.73.13.88.44.15,1.06-.02,1.37-.36.31-.34.26-.77-.23-.88-.48-.12-.96.03-1.28.37h0Z"/><path class="cls-31" d="M30.91,36.63c-.15.27-.04.57.32.68.37.11.79-.03.94-.3.15-.27,0-.6-.4-.68-.39-.08-.72.04-.86.3h0Z"/><path class="cls-31" d="M36.02,35.79c.37-.15.81-.1,1.02.17.21.27.11.65-.26.8-.37.15-.73,0-1.05-.21-.32-.22-.08-.61.29-.77h0Z"/><path class="cls-28" d="M2.9,24.27c-.31.15-.66.04-.85-.17-.19-.21.09-.54.39-.63.29-.1.78.05.85.26.08.21-.09.39-.4.54h0Z"/><path class="cls-31" d="M16.8,31.52c-.2-.04-.47.03-.6.2-.13.17-.07.35.14.39.2.04.49-.05.61-.24.12-.18.06-.32-.15-.36h0Z"/></g><g class="cls-37"><path class="cls-31" d="M23.82,14.13c-.32-.26-.7-.3-1.06-.17-.36.12-.53.31-.18.59.35.28.76.29,1.1.14.34-.15.46-.3.14-.56h0Z"/><path class="cls-31" d="M9.08,23.86c.32.15.34.31.13.43-.21.13-.5.18-.85,0-.35-.17-.32-.33-.07-.45.24-.12.47-.15.79,0h0Z"/><path class="cls-31" d="M32.19,28.36c-.44-.12-.66,0-.83.18-.17.18-.21.28.21.48.42.2.98.03,1.07-.13.1-.16-.01-.41-.46-.53h0Z"/><path class="cls-31" d="M30.98,26.59c-.45-.13-1.05-.13-1.16.1-.11.24.02.5.46.62.45.13,1,.04,1.17-.15.18-.19-.03-.45-.48-.58h0Z"/><path class="cls-31" d="M24.92,27.79c-.31-.09-.69-.07-.84.1-.15.16,0,.37.31.46.31.09.72.05.84-.13.12-.18,0-.34-.32-.43h0Z"/><path class="cls-31" d="M23.03,21.15c-.25.28-.1.48.32.6.42.12.85.11,1.12-.19.27-.3.04-.51-.41-.61-.45-.1-.79-.08-1.04.2h0Z"/><path class="cls-28" d="M21.38,20.11c-.06-.14.07-.32.29-.37.22-.05.59.05.76.17.17.12.04.29-.37.34-.42.06-.61,0-.68-.14h0Z"/><path class="cls-31" d="M19.02,24.3c.25-.17.14-.38-.21-.52-.35-.14-.79-.08-1.02.08-.23.16-.04.43.3.53.34.1.68.08.93-.09h0Z"/><path class="cls-31" d="M11.4,24.95c-.58.09-.82-.08-1-.33-.18-.25-.2-.38.36-.57.56-.19,1.23.1,1.32.31.09.21-.09.51-.67.6h0Z"/><path class="cls-31" d="M8.75,8.27c-.36.11-.75,0-.95-.18-.2-.18.13-.44.46-.5.34-.06.87.08.96.26.08.17-.11.32-.47.42h0Z"/><path class="cls-31" d="M12.56,16.19c-.17.2-.07.44.32.55.39.1.85.01,1.02-.19.17-.2.02-.47-.4-.55-.42-.08-.77,0-.94.2h0Z"/><path class="cls-31" d="M13.76,14.11c-.15.18-.06.4.29.49.35.09.76,0,.91-.17.15-.18.01-.42-.36-.49-.38-.07-.69,0-.84.18h0Z"/><path class="cls-31" d="M4.81,18.94c.43-.03.85.1.92.33.07.23-.23.44-.66.46-.43.03-.87-.13-.91-.37-.03-.24.22-.4.65-.42h0Z"/><path class="cls-28" d="M3.1,15.85c-.4.22-.48.57-.03.8.44.23,1.16.22,1.56,0,.4-.22.43-.61-.07-.82-.5-.21-1.05-.2-1.46.02h0Z"/><path class="cls-31" d="M4.85,13.91c-.69,0-1.01-.19-1.03-.48-.02-.28.21-.51.95-.51.75,0,1.04.23,1,.53-.03.29-.23.46-.92.46h0Z"/><path class="cls-31" d="M6.94,11.39c-.25.28-.1.48.32.6.42.12.85.11,1.12-.19.27-.3.04-.51-.41-.61-.45-.1-.79-.08-1.04.2h0Z"/><path class="cls-31" d="M9.11,9.88c-.1.12-.04.26.19.32.23.06.5,0,.6-.11.1-.12,0-.27-.24-.32-.25-.05-.45,0-.55.12h0Z"/><path class="cls-31" d="M27.64,27.85c-.11.19.06.47.36.58.31.1.86.01,1.13-.14.27-.15.11-.41-.49-.55-.6-.14-.9-.08-1.01.11h0Z"/><path class="cls-28" d="M14.16,26.9c-.38.1-.76-.01-.96-.23-.2-.22.02-.44.38-.52.36-.08.84.07.95.28.11.2.01.38-.37.48h0Z"/><path class="cls-31" d="M6.82,20.74c.54-.06.96.13,1.1.42.14.3-.25.54-.75.59-.5.05-1.03-.22-1.06-.48-.04-.26.18-.47.72-.53h0Z"/><path class="cls-28" d="M9.93,13.21c-.17.15-.03.32.28.41.31.1.65.02.8-.13.15-.15-.06-.36-.35-.41-.29-.06-.56-.03-.73.13h0Z"/><path class="cls-28" d="M34.05,24.54c-.22-.28-.15-.64.37-.68.52-.03,1.05.07,1.26.36.22.28-.04.6-.47.68-.43.08-.95-.08-1.16-.36h0Z"/><path class="cls-31" d="M24.83,17.08c-.19-.25-.07-.53.4-.62.47-.09,1.01.06,1.21.31.19.25,0,.56-.49.62-.5.06-.92-.06-1.11-.31h0Z"/><path class="cls-31" d="M15.46,9.51c-.17.21.05.31.37.4.32.08.49.1.79-.09.3-.2-.04-.47-.32-.52-.27-.05-.68,0-.85.21h0Z"/><path class="cls-31" d="M11.27,7.17c-.2.25-.08.55.4.67.48.12,1.05.01,1.25-.24.2-.25.02-.57-.5-.68-.52-.1-.95,0-1.15.24h0Z"/><path class="cls-31" d="M38.64,26.88c-.14-.19-.05-.4.3-.46.35-.07.75.04.9.23.15.19,0,.41-.37.46-.37.05-.68-.04-.83-.23h0Z"/><path class="cls-31" d="M34.9,20.91c-.14.1-.05.23.14.31.19.07.49-.01.58-.11.09-.1-.03-.28-.22-.31-.19-.04-.36.01-.5.12h0Z"/><path class="cls-31" d="M31.54,18.93c-.24.18-.08.4.24.52.32.13.83-.02.99-.19.16-.17-.06-.47-.38-.53-.32-.06-.61.02-.85.2h0Z"/><path class="cls-31" d="M12.77,20.96c.15-.18.51-.27.85-.18.34.09.49.32.34.5-.15.18-.56.27-.9.15-.34-.11-.44-.29-.29-.47h0Z"/><path class="cls-31" d="M14.24,18.12c-.13.15-.11.36.18.4.29.04.6,0,.74-.14.13-.15,0-.34-.24-.41-.24-.07-.54,0-.68.15h0Z"/><path class="cls-31" d="M10.52,18.98c.01.13.23.21.45.21.23,0,.36-.17.31-.28-.04-.11-.34-.22-.52-.19-.18.03-.25.13-.24.26h0Z"/><path class="cls-31" d="M30.16,21.46c.1-.16.4-.2.71-.13.31.07.42.26.31.41-.1.15-.5.19-.75.1-.25-.08-.37-.22-.27-.38h0Z"/><path class="cls-31" d="M34.57,16.72c-.18.21-.05.45.35.56.4.11.93.04,1.1-.17.18-.21-.07-.4-.41-.57-.34-.17-.87-.02-1.05.18h0Z"/><path class="cls-31" d="M25.1,13.14c-.14.16-.06.36.26.45.32.08.69.01.83-.15.14-.16.02-.38-.32-.45-.34-.07-.63,0-.77.16h0Z"/><path class="cls-31" d="M41.73,22.17c-.29.05-.62,0-.73-.17-.11-.16.05-.33.35-.38.29-.05.65.03.73.2.08.17-.05.3-.35.35h0Z"/><path class="cls-31" d="M45.44,22.01c-.48.08-1.01-.02-1.19-.28-.18-.26.09-.54.56-.62.48-.08,1.05.05,1.19.33.13.28-.09.49-.56.57h0Z"/><path class="cls-31" d="M44.94,23.87c-.29.05-.62,0-.73-.17-.11-.16.05-.33.35-.38.29-.05.65.03.73.2.08.17-.05.3-.35.35h0Z"/><path class="cls-31" d="M34.92,27.91c-.2.24-.15.57.32.64s.95,0,1.15-.24c.2-.24-.03-.55-.42-.65-.39-.1-.86,0-1.06.25h0Z"/><path class="cls-31" d="M29.49,12.75c-.41.33-.12.49.35.61.48.13.74.15,1.35-.15.61-.31.23-.72-.19-.79-.42-.07-1.11,0-1.52.34h0Z"/><path class="cls-31" d="M26.76,23.4c.29.02.53.13.51.28-.02.15-.28.26-.56.24-.29-.02-.53-.15-.49-.31.05-.15.25-.23.54-.22h0Z"/><path class="cls-31" d="M35.19,2.52c-.33-.17-.81-.27-.95-.11-.14.16-.09.37.24.54.33.17.79.19.97.08.18-.11.07-.34-.26-.51h0Z"/><path class="cls-31" d="M36.78,8.37c.32.23.82.35,1.19.23.36-.12.39-.42.07-.65-.32-.23-.89-.35-1.23-.19-.34.15-.35.39-.03.62h0Z"/><path class="cls-31" d="M40.94,8.48c.27-.05.5.03.68.18.18.15.23.28-.06.33-.29.05-.53-.05-.7-.2-.16-.16-.19-.26.08-.31h0Z"/><path class="cls-31" d="M39.36,6.3c-.14.23.04.42.43.55.39.13.75.16.9-.09.15-.25-.09-.44-.5-.56-.41-.12-.69-.13-.83.1h0Z"/><path class="cls-31" d="M29.97,2.44c-.1.17.07.39.43.51.37.13.79.11.89-.05.1-.17-.15-.36-.48-.53-.33-.18-.74-.1-.84.07h0Z"/><path class="cls-31" d="M45.24,10.25c-.18.13-.06.29.17.39.24.09.61-.01.73-.14.12-.13-.04-.35-.28-.39-.23-.05-.45.02-.62.15h0Z"/><path class="cls-31" d="M46.74,7.34c-.3.22-.27.45.11.65.38.2,1,.19,1.3-.03.3-.22.16-.53-.18-.78-.34-.25-.92-.07-1.23.15h0Z"/><path class="cls-31" d="M41.76,14.04c.15.31-.07.49-.52.53-.45.05-.87-.03-1.03-.37-.16-.34.13-.5.6-.52.47-.02.79.05.94.36h0Z"/><path class="cls-31" d="M49.07,12.53c.15.22-.08.4-.5.46-.42.06-.81-.1-.94-.31s.2-.43.59-.45c.38-.02.71.07.86.29h0Z"/><path class="cls-31" d="M23.74,24.73c-.5-.1-.9-.03-1.13.21-.23.24,0,.56.5.66.5.1,1-.04,1.33-.27.33-.23-.21-.49-.71-.59h0Z"/><path class="cls-31" d="M55.66,16.08c.27.15.33.37.07.5-.26.13-.71.11-.98-.03-.27-.15-.31-.39,0-.51.3-.12.65-.1.91.05h0Z"/><path class="cls-31" d="M52.78,16.33c.38.17.36.42.04.61-.32.19-.85.15-1.19-.01-.34-.17-.28-.49.05-.62.33-.14.72-.15,1.1.03h0Z"/><path class="cls-31" d="M46.96,13.31c.11.23-.02.51-.44.5-.42,0-.81-.12-.92-.35-.11-.23.16-.46.52-.5.36-.04.73.12.84.35h0Z"/><path class="cls-31" d="M43.28,11.38c.1.21-.06.42-.45.46-.39.04-.79-.11-.88-.32-.1-.21.11-.43.52-.45.41-.02.71.1.81.31h0Z"/><path class="cls-31" d="M26.2,4.69c.26-.11.34-.38.14-.56-.19-.17-.77-.28-1.13-.25-.36.03-.44.28-.01.58.43.29.74.34,1,.22h0Z"/><path class="cls-31" d="M32.36,9.22c-.14.1-.05.23.14.31.19.07.49-.01.58-.11.09-.1-.03-.28-.22-.31-.19-.04-.36.01-.5.12h0Z"/><path class="cls-31" d="M35.15,10.54c.33-.08.73-.04.91.14.18.18.04.4-.29.49-.33.08-.77.02-.92-.18-.15-.2-.03-.37.3-.45h0Z"/><path class="cls-31" d="M34.92,12.1c.4-.13.84-.04,1.1.19.26.23.08.49-.3.61-.38.12-.94-.03-1.11-.25-.17-.22-.1-.42.3-.55h0Z"/><path class="cls-31" d="M16.38,6.57c.34-.01.7-.18.72-.35.03-.17-.35-.38-.69-.45-.34-.07-.68.09-.64.39.04.31.26.42.6.4h0Z"/><path class="cls-28" d="M18.23,7.49c0,.28.32.53.84.56.52.02.95-.2.96-.48,0-.28-.39-.55-.93-.54-.54,0-.86.19-.87.46h0Z"/><path class="cls-31" d="M20.28,6.04c.34-.01.7-.18.72-.35.03-.17-.35-.38-.69-.45-.34-.07-.68.09-.64.39.04.31.26.42.6.4h0Z"/><path class="cls-31" d="M53.08,11.84c.32.15.34.31.13.43-.21.13-.5.18-.85,0-.35-.17-.32-.33-.07-.45.24-.12.47-.15.79,0h0Z"/><path class="cls-31" d="M57.57,12.29c-.22-.26-.71-.42-1.19-.32-.47.1-.67.41-.45.67.22.26.79.42,1.25.28s.6-.37.38-.63h0Z"/><path class="cls-31" d="M24.2,10.39c.32.15.34.31.13.43-.21.13-.5.18-.85,0-.35-.17-.32-.33-.07-.45.24-.12.47-.15.79,0h0Z"/><path class="cls-31" d="M57.53,14.68c-.41.08-.74.3-.5.49.24.19.64.3,1.05.22s.6-.34.45-.52c-.15-.18-.59-.27-1-.19h0Z"/><path class="cls-31" d="M53.55,10.07c.18.16.63.28.93.23.3-.05.48-.31.44-.5-.04-.19-.46-.3-.97-.17-.51.13-.59.28-.4.44h0Z"/><path class="cls-31" d="M55.61,8c.29.05.51.19.44.34-.07.15-.38.24-.67.19-.29-.05-.51-.21-.41-.36.1-.15.35-.22.64-.17h0Z"/><path class="cls-31" d="M52.15,7.98c-.25.03-.34.16-.25.3.09.14.37.19.6.16.23-.04.32-.21.2-.32-.11-.11-.31-.17-.56-.14h0Z"/><path class="cls-31" d="M40.18,2.98c-.39.09-.76-.02-.95-.24-.19-.22.04-.44.4-.52.37-.08.84.09.94.29.1.2,0,.38-.39.47h0Z"/><path class="cls-31" d="M47.69,5.25c-.36.11-.75,0-.95-.18-.2-.18.13-.44.46-.5.34-.06.87.08.96.26.08.17-.11.32-.47.42h0Z"/><path class="cls-31" d="M17.89,12.99c-.17.2-.07.44.32.55.39.1.85,0,1.02-.19.17-.2.02-.47-.4-.55-.42-.08-.77,0-.94.2h0Z"/><path class="cls-31" d="M19.56,14.91c-.13.15-.11.36.18.4.29.04.6,0,.74-.14.13-.15,0-.34-.24-.41-.24-.07-.54,0-.68.15h0Z"/><path class="cls-31" d="M24.31,1.51c-.4.22-.48.57-.03.8.44.23,1.16.22,1.56,0,.4-.22.43-.61-.07-.82-.5-.21-1.05-.2-1.46.02h0Z"/><path class="cls-31" d="M49.63,21.98c-.29.05-.62,0-.73-.17-.11-.16.05-.33.35-.38.29-.05.65.03.73.2.08.17-.05.3-.35.35h0Z"/><path class="cls-31" d="M53.35,21.82c-.48.08-1.01-.02-1.19-.28-.18-.26.09-.54.56-.62.48-.08,1.05.05,1.19.33.13.28-.09.49-.56.57h0Z"/><path class="cls-31" d="M52.84,23.67c-.29.05-.62,0-.73-.17-.11-.16.05-.33.35-.38.29-.05.65.03.73.2.08.17-.05.3-.35.35h0Z"/><path class="cls-31" d="M42.07,4.14c-.36.11-.75,0-.95-.18-.2-.18.13-.44.46-.5.34-.06.87.08.96.25.08.17-.11.32-.47.42h0Z"/><path class="cls-28" d="M32.5,5.57c-.18.13-.16.26.06.37.22.12.57.11.75-.02.18-.13.09-.3-.1-.45-.19-.14-.53-.04-.71.09h0Z"/><path class="cls-28" d="M25.74,8.25c-.22-.28-.15-.64.37-.68.52-.03,1.05.07,1.26.36.22.28-.04.6-.47.68s-.95-.08-1.16-.36h0Z"/><path class="cls-31" d="M44.41,16.87c.34-.01.7-.18.72-.35.03-.17-.35-.38-.69-.45-.34-.07-.68.09-.64.39.04.31.26.42.6.4h0Z"/><path class="cls-31" d="M44.63,19.25c0,.24.24.5.65.47.41-.03.75-.17.76-.41,0-.24-.36-.45-.73-.46-.37-.01-.67.16-.68.4h0Z"/><path class="cls-31" d="M46.26,17.79c0,.28.32.53.84.56.52.02.95-.2.96-.48,0-.28-.39-.55-.93-.54-.54,0-.86.19-.87.46h0Z"/><path class="cls-31" d="M48.31,16.34c.34-.01.7-.18.72-.35.02-.17-.35-.38-.69-.45-.34-.07-.68.09-.64.39.04.31.26.42.6.4h0Z"/></g></g><path class="cls-2" d="M49.33,17.14c.77.07,1.46.92,2.29.66.1-.03,2.29.39,1.7-.16-.01-.01-1.94-.23-2.48-.48-1.37-.61-1.4-.23-2.13-1.59-.26-.48-1.45-.52-2.13-1.4-.41-.54-1.91-.17-3.26-1.71-1.91-2.16-3.57-1.87-4.07-2.22-.39-.27-1.83-.93-2.35-1.03-.67-.13-.96-.12-1.58-.43-.4-.2-1.99-1.19-2.32-1.49-.4-.37-.93-.89-2.94-1.52-1.12-.35-2.44-1.55-3.2-1.87-.67-.29-1.11-.22-.82.12.35.42,2.39,1.23,2.7,1.7.43.65,1.59,1.43,2.31,1.62.65.17,1.48,1.2,2.23,1.41.25.07,1.67.12,2.6.91.79.67,2.27.44,3.84,1.83,1.53,1.36.71,1.44,3.16,1.85.73.12.62.61,1.91.86,1.91.37,1.52.39,2.52,1.85.39.57,1.04.31,1.41.86.13.19.42.22.63.24h0Z"/><path class="cls-1" d="M22.46,9.17c-1.12-.43-.74-.05-1.83-.89-.59-.46-1.7-.39-2.47-1.17-.54-.54-2.09-.98-.66.09.34.25,2.24,1.8,3.88,2.22,2.93.75,4.19,3.27,7.49,3.94,1.17.24,1.45,1.12,3.29,1.65,1.68.49,1.34.53,2.71,1.21,1.69.84,2.73,1.01,4.2,2.41,1,.95,2.68,2.08.69-.11-1.19-1.3-2.25-2.08-3.42-3.34-.92-.99-1.7.15-3.18-1.03-.68-.54-5.5-.78-5.83-2.96-.11-.71-2.4-1.07-2.91-1.52-.98-.87-1.1-.17-1.88-.45l-.07-.04h0Z"/><path class="cls-3" d="M23.97,18.33c-.44-.05-.88-.22-1.13-.52-.31-.37-.86-.16-.01.39.26.17,1.93.37,2.51.74.55.35.85.14,1.21.37.52.34,1.24.48,1.71,1,.08.08.59.49.81.7,1.22,1.2,1.3.98,2.83,1.42.34.1.19.42,1.37.64.72.14,2.14.24,2.71.62.13.09.8-.04-.66-.39-.98-.23-1.82-1.06-2.5-1.76-.96-.98-1.43-.12-2.35-.44-.12-.04,0-.42-.71-.57-.46-.1-.45.12-.68-.57-.31-.94-1.46-1.49-2.4-1.43-.23.02-2.19-.16-2.69-.22h0Z"/><path class="cls-27" d="M53.47,11.63c1.22.43.8-.47.25-.6-.46-.11-1.19-.77-1.36-1.28-.37-1.05-1.83-1.49-2.82-1.37-.45.06-1.57.04-1.67-.53-.11-.63-1.6-.44-2.41-1.27-.61-.63-.8-1.24-1.36-1.63-.46-.32-3.33-.4-3.41-.82-.22-.12-1.81-.99-1.51-.09.18.55,2.84.93,3.57,1.38.17.1.92.31,1.19.63.92,1.14,1.5.99,2.63,1.75.66.44,3.04,1.77,3.76,1.94.16.04.45.08.55.22.02,0,1.57,1.2,1.99,1.35.05.02.59.32.61.32h0Z"/><g class="cls-36"><path class="cls-13" d="M50.1,9.94c.82.42,1.72.8,2.61,1.18.52.22,1.22.35,1.63.64.35.25.22.63.54.89.33.27,1.04.36,1.34.64.21.19.28.47.07.66-.24.23-.83.57-1.23.42-1.01-.38-1.13-1.2-2.03-1.64-1.49-.74-3.56-1.1-5.03-1.85-.77-.4-.84-1.07-1.52-1.51-.86-.55-1.98-.98-3.04-1.43-1.06-.44-2.41-.71-3.33-1.24-.58-.33-.43-.91-1.01-1.24-1.41-.79-3.21-1.35-4.82-2.01-.62-.26-1.35-.46-1.89-.76-.45-.26-.87-.56-1.04-.9-.11-.21-.1-.53.26-.62.55-.14,1.27-.03,1.82.1,1.35.33,2.7.72,3.78,1.27,1.13.57,1.64,1.43,2.75,2.01.53.27,1.47.21,2.03.46.9.41,1.36,1.05,2.25,1.47.64.3,1.68.32,2.25.66.72.43.84,1.07,1.45,1.54.61.47,1.4.88,2.17,1.27h0ZM50.51,17.67c.55.27.99.6,1.55.86.52.25,1.26.38,1.69.67.36.25.66.59.56.9-.07.23-.57.51-.98.45-1.1-.15-2.08-.55-2.88-.97-1.27-.68-1.99-1.6-3.23-2.29-.55-.3-1.48-.34-2.04-.64-.66-.35-.87-.9-1.55-1.24-.69-.35-1.84-.4-2.46-.79-1.24-.78-1.72-1.85-2.95-2.62-.77-.49-2.04-.67-2.95-1.09-.51-.23-.73-.61-1.27-.82-1.57-.63-3.6-.94-4.99-1.69-.56-.3-.11-.87-.49-1.24-.33-.32-1.11-.43-1.55-.71-.19-.12-.07-.34-.28-.45-.94-.49-2.06-.88-3.09-1.31-.72-.3-1.56-.54-2.18-.9-.41-.24-.8-.54-.84-.86-.03-.23.21-.56.63-.6.87-.09,1.97-.06,2.6.26,2.22,1.14,3.48,2.72,5.55,3.94.93.54,2.41.75,3.38,1.27.53.29.49.78.98,1.09.91.56,2,1.05,3.16,1.46.92.32,2.22.31,3.02.71.7.35.62.98,1.2,1.39.49.35,1.39.49,1.9.82.29.19.12.52.42.71.67.42,1.7.64,2.39,1.05.5.29.62.73,1.13,1.01,1.08.6,2.43,1.05,3.59,1.61h0ZM45.21,22.5c.67.38,1.3.78,2.04,1.12.37.17.98.2,1.26.41.24.19.3.46.14.67-.18.24-.62.64-1.05.52-1.16-.3-1.74-1.02-2.67-1.5-.71-.36-1.45-.71-2.25-1.01-.96-.37-2.21-.55-3.02-1.01-.92-.53-1.17-1.32-2.04-1.87-.73-.47-1.93-.69-2.67-1.16-.53-.34-.46-.89-1.05-1.2-1.4-.73-3.28-1.16-4.78-1.84-.7-.32-1.08-.8-1.76-1.12-1.14-.55-2.6-.9-3.65-1.5-.93-.53-1.36-1.26-2.18-1.84-.41-.29-.95-.52-1.47-.75-1.44-.63-3.06-1.16-4.42-1.84-.37-.18-.37-.51-.7-.71-1.04-.64-2.44-1.11-3.37-1.8-.25-.18-.22-.48,0-.67.24-.21.74-.43,1.19-.37.91.11,1.75.42,2.39.79,1.62.94,2.63,2.15,4.28,3.07.59.33,1.63.33,2.32.6.67.26,1.04.7,1.69.97.45.19,1.17.18,1.55.41.8.5,1.04,1.21,1.83,1.72.58.38,1.49.57,2.18.9.82.39,1.61.79,2.32,1.24.54.34.76.83,1.4,1.12.47.21,1.3.08,1.76.3,1.03.51,1.61,1.23,2.53,1.8.42.26,1.06.41,1.47.67.47.3.62.72,1.12,1.01.97.56,2.2.97,3.23,1.5.84.43,1.59.9,2.39,1.35h0ZM37.4,25.85c.29.15.51.33.81.47.54.25,1.21.43,1.69.71.22.13.34.31.35.49.01.18.03.45-.28.53-.4.09-.95-.01-1.27-.17-.97-.48-1.46-1.2-2.43-1.67-1.56-.76-3.57-1.24-5.11-2.01-.7-.35-.87-.92-1.48-1.32-.74-.48-1.6-.91-2.54-1.28-.86-.33-2.05-.4-2.82-.79-.83-.42-1.04-1.1-1.83-1.54-.5-.27-1.43-.24-1.9-.53-.87-.53-1.14-1.29-1.97-1.84-.74-.48-1.82-.78-2.68-1.2-.39-.19-.65-.46-1.06-.64-1.1-.5-2.3-.93-3.46-1.39-.28-.11-.64-.19-.85-.34-.53-.38-.73-.89-1.34-1.24-.92-.53-2.25-.82-3.17-1.35-.34-.19-.52-.49-.49-.75.02-.22.26-.47.63-.56.47-.11,1.17-.15,1.55.04,1.86.89,3.06,2.12,4.87,3.05,1.36.69,3.21,1.08,4.58,1.77,1.16.58,1.82,1.4,2.96,1.99.38.2,1.14.09,1.48.3.6.38.63.94,1.13,1.35.16.13.62.09.78.23.23.2-.05.53.28.68.84.38,2.14.4,2.96.79.56.27.48.79.99,1.09.57.34,1.53.42,2.12.75.35.2.24.54.56.75.32.21.86.29,1.27.45.63.25,1.33.47,1.83.79.46.29.52.73.99,1.02.84.52,1.92.92,2.86,1.39h0ZM26.48,27.32c.5.29,1.28.45,1.67.78.21.18.25.47,0,.63-.26.17-.84.26-1.18.15-.81-.27-1.18-.81-1.88-1.15-.6-.29-1.43-.44-2.02-.74-.49-.25-.71-.63-1.18-.89-.9-.49-1.98-.87-2.93-1.34-.31-.16-.49-.38-.84-.52-.62-.25-1.48-.33-2.02-.63-.97-.54-1.43-1.3-2.44-1.82-.4-.21-1.22-.04-1.6-.26-.35-.2.05-.6-.28-.82-.42-.27-1.27-.24-1.74-.48-.32-.17-.16-.5-.49-.67-1.13-.57-2.69-.88-3.76-1.49-.47-.27-.6-.68-.7-1.04-.05-.19-.04-.47.28-.56.45-.13,1.17-.15,1.53.04.94.49,1.13,1.3,2.02,1.82.71.41,1.87.52,2.65.89.55.26.74.69,1.25.97.54.29,1.38.4,1.88.71.49.3.47.79.98,1.08.51.29,1.39.33,1.95.59.78.37,1.25.89,2.02,1.26.41.2,1.09.19,1.46.41.64.37.79.95,1.46,1.3.76.4,1.91.52,2.72.89.52.24.72.62,1.18.89h0Z"/></g></g></g></g></svg>