<?xml version="1.0" encoding="UTF-8"?><svg xmlns="http://www.w3.org/2000/svg" xmlns:xlink="http://www.w3.org/1999/xlink" viewBox="0 0 83.6 38.21"><defs><style>.cls-1{fill:url(#_횂횁_횕_횑횑_횊_횏횂횑횣_1970-6);}.cls-2{fill:url(#_횂횁_횕_횑횑_횊_횏횂횑횣_1970-5);}.cls-3{fill:url(#_횂횁_횕_횑횑_횊_횏횂횑횣_1970-2);}.cls-4{fill:url(#_횂횁_횕_횑횑_횊_횏횂횑횣_1970-8);}.cls-5{fill:url(#_횂횁_횕_횑횑_횊_횏횂횑횣_1970-3);}.cls-6{fill:url(#_횂횁_횕_횑횑_횊_횏횂횑횣_1970-7);}.cls-7{fill:url(#_횂횁_횕_횑횑_횊_횏횂횑횣_1970-4);}.cls-8{fill:url(#_횂횁_횕_횑횑_횊_횏횂횑횣_1970-9);}.cls-9{opacity:.36;}.cls-9,.cls-10,.cls-11,.cls-12,.cls-13,.cls-14{mix-blend-mode:multiply;}.cls-10{fill:url(#_횂횁_횕_횑횑_횊_횏횂횑횣_1939-2);}.cls-10,.cls-12,.cls-13{opacity:.51;}.cls-15{isolation:isolate;}.cls-16{fill:url(#_횂횁_횕_횑횑_횊_횏횂횑횣_1938-3);}.cls-16,.cls-17,.cls-18,.cls-19,.cls-20,.cls-21{mix-blend-mode:screen;}.cls-17{fill:url(#_횂횁_횕_횑횑_횊_횏횂횑횣_1938-6);}.cls-18{fill:url(#_횂횁_횕_횑횑_횊_횏횂횑횣_1938-2);}.cls-19{fill:url(#_횂횁_횕_횑횑_횊_횏횂횑횣_1938-5);}.cls-11{fill:#aa3c00;}.cls-22{fill:url(#_횂횁_횕_횑횑_횊_횏횂횑횣_1970-21);}.cls-23{fill:url(#_횂횁_횕_횑횑_횊_횏횂횑횣_1970-24);}.cls-24{fill:url(#_횂횁_횕_횑횑_횊_횏횂횑횣_1970-23);}.cls-25{fill:url(#_횂횁_횕_횑횑_횊_횏횂횑횣_1970-20);}.cls-26{fill:url(#_횂횁_횕_횑횑_횊_횏횂횑횣_1970-22);}.cls-27{fill:url(#_횂횁_횕_횑횑_횊_횏횂횑횣_1970-15);}.cls-28{fill:url(#_횂횁_횕_횑횑_횊_횏횂횑횣_1970-16);}.cls-29{fill:url(#_횂횁_횕_횑횑_횊_횏횂횑횣_1970-17);}.cls-30{fill:url(#_횂횁_횕_횑횑_횊_횏횂횑횣_1970-18);}.cls-31{fill:url(#_횂횁_횕_횑횑_횊_횏횂횑횣_1970-19);}.cls-32{fill:url(#_횂횁_횕_횑횑_횊_횏횂횑횣_1970-13);}.cls-33{fill:url(#_횂횁_횕_횑횑_횊_횏횂횑횣_1970-12);}.cls-34{fill:url(#_횂횁_횕_횑횑_횊_횏횂횑횣_1970-11);}.cls-35{fill:url(#_횂횁_횕_횑횑_횊_횏횂횑횣_1970-10);}.cls-36{fill:url(#_횂횁_횕_횑횑_횊_횏횂횑횣_1970-14);}.cls-37{fill:url(#_횂횁_횕_횑횑_횊_횏횂횑횣_1970-25);}.cls-38{fill:url(#_횂횁_횕_횑횑_횊_횏횂횑횣_1970-26);}.cls-20{fill:url(#_횂횁_횕_횑횑_횊_횏횂횑횣_1938);}.cls-39{fill:url(#_횂횁_횕_횑횑_횊_횏횂횑횣_1945);stroke:#000;stroke-miterlimit:10;}.cls-12{fill:url(#_횂횁_횕_횑횑_횊_횏횂횑횣_1939);}.cls-13{fill:url(#_횂횁_횕_횑횑_횊_횏횂횑횣_1960);}.cls-40{fill:url(#_횂횁_횕_횑횑_횊_횏횂횑횣_1970);}.cls-21{fill:url(#_횂횁_횕_횑횑_횊_횏횂횑횣_1938-4);opacity:.49;}.cls-14{fill:#d19676;opacity:.22;}</style><linearGradient id="_횂횁_횕_횑횑_횊_횏횂횑횣_1945" x1="41.8" y1="37.71" x2="41.8" y2=".55" gradientUnits="userSpaceOnUse"><stop offset="0" stop-color="#ffdc95"/><stop offset=".12" stop-color="#ffc780"/><stop offset=".35" stop-color="#ff9751"/><stop offset=".5" stop-color="#eb823e"/><stop offset=".82" stop-color="#b94d0f"/><stop offset=".92" stop-color="#aa3c00"/></linearGradient><linearGradient id="_횂횁_횕_횑횑_횊_횏횂횑횣_1938" x1="45.87" y1="1.66" x2="36.09" y2="18.6" gradientUnits="userSpaceOnUse"><stop offset="0" stop-color="#ff9751"/><stop offset=".02" stop-color="#f4904d"/><stop offset=".17" stop-color="#b46b39"/><stop offset=".32" stop-color="#7d4a27"/><stop offset=".46" stop-color="#502f19"/><stop offset=".59" stop-color="#2d1a0e"/><stop offset=".72" stop-color="#140c06"/><stop offset=".83" stop-color="#050301"/><stop offset=".92" stop-color="#000"/></linearGradient><linearGradient id="_횂횁_횕_횑횑_횊_횏횂횑횣_1938-2" x1="62.69" y1="5.53" x2="61.45" y2="11.14" xlink:href="#_횂횁_횕_횑횑_횊_횏횂횑횣_1938"/><linearGradient id="_횂횁_횕_횑횑_횊_횏횂횑횣_1938-3" x1="74.18" y1="8.89" x2="71.44" y2="11.99" xlink:href="#_횂횁_횕_횑횑_횊_횏횂횑횣_1938"/><linearGradient id="_횂횁_횕_횑횑_횊_횏횂횑횣_1939" x1="62.16" y1="7.05" x2="73.01" y2="17.9" gradientUnits="userSpaceOnUse"><stop offset="0" stop-color="#aa3c00"/><stop offset=".2" stop-color="#b95f2e"/><stop offset=".65" stop-color="#dfb7a1"/><stop offset="1" stop-color="#fff"/></linearGradient><linearGradient id="_횂횁_횕_횑횑_횊_횏횂횑횣_1939-2" x1="53.75" y1="8.3" x2="63.82" y2="18.37" xlink:href="#_횂횁_횕_횑횑_횊_횏횂횑횣_1939"/><linearGradient id="_횂횁_횕_횑횑_횊_횏횂횑횣_1938-4" x1="41.78" y1="37.71" x2="41.78" y2="19.84" xlink:href="#_횂횁_횕_횑횑_횊_횏횂횑횣_1938"/><linearGradient id="_횂횁_횕_횑횑_횊_횏횂횑횣_1960" x1="62.3" y1="1.92" x2="18.77" y2="45.45" gradientUnits="userSpaceOnUse"><stop offset="0" stop-color="#fff"/><stop offset=".31" stop-color="#dfb7a1"/><stop offset=".72" stop-color="#b95f2e"/><stop offset=".89" stop-color="#aa3c00"/></linearGradient><linearGradient id="_횂횁_횕_횑횑_횊_횏횂횑횣_1938-5" x1="92.67" y1="160.25" x2="96.95" y2="172.15" gradientTransform="translate(29 -181.19) rotate(24.51)" xlink:href="#_횂횁_횕_횑횑_횊_횏횂횑횣_1938"/><linearGradient id="_횂횁_횕_횑횑_횊_횏횂횑횣_1938-6" x1="96.02" y1="133.01" x2="97.47" y2="137.03" gradientTransform="translate(16.25 -151.41) rotate(19.4)" xlink:href="#_횂횁_횕_횑횑_횊_횏횂횑횣_1938"/><linearGradient id="_횂횁_횕_횑횑_횊_횏횂횑횣_1970" x1="42.03" y1="6.61" x2="41.39" y2="7.64" gradientUnits="userSpaceOnUse"><stop offset="0" stop-color="#f1f5d0"/><stop offset=".2" stop-color="#efe7bc"/><stop offset=".6" stop-color="#eac589"/><stop offset="1" stop-color="#e59f51"/></linearGradient><linearGradient id="_횂횁_횕_횑횑_횊_횏횂횑횣_1970-2" x1="24.35" y1="17.33" x2="23.71" y2="18.37" xlink:href="#_횂횁_횕_횑횑_횊_횏횂횑횣_1970"/><linearGradient id="_횂횁_횕_횑횑_횊_횏횂횑횣_1970-3" x1="48.67" y1="4.63" x2="48.03" y2="5.67" xlink:href="#_횂횁_횕_횑횑_횊_횏횂횑횣_1970"/><linearGradient id="_횂횁_횕_횑횑_횊_횏횂횑횣_1970-4" x1="47.52" y1="2.39" x2="46.88" y2="3.43" xlink:href="#_횂횁_횕_횑횑_횊_횏횂횑횣_1970"/><linearGradient id="_횂횁_횕_횑횑_횊_횏횂횑횣_1970-5" x1="53.39" y1="11.29" x2="52.75" y2="12.33" xlink:href="#_횂횁_횕_횑횑_횊_횏횂횑횣_1970"/><linearGradient id="_횂횁_횕_횑횑_횊_횏횂횑횣_1970-6" x1="42.65" y1="20.09" x2="42.01" y2="21.13" xlink:href="#_횂횁_횕_횑횑_횊_횏횂횑횣_1970"/><linearGradient id="_횂횁_횕_횑횑_횊_횏횂횑횣_1970-7" x1="64.24" y1="7.75" x2="63.6" y2="8.78" xlink:href="#_횂횁_횕_횑횑_횊_횏횂횑횣_1970"/><linearGradient id="_횂횁_횕_횑횑_횊_횏횂횑횣_1970-8" x1="75.61" y1="12.43" x2="74.97" y2="13.47" xlink:href="#_횂횁_횕_횑횑_횊_횏횂횑횣_1970"/><linearGradient id="_횂횁_횕_횑횑_횊_횏횂횑횣_1970-9" x1="65.46" y1="-103.56" x2="64.82" y2="-102.53" gradientTransform="translate(32.12 135.31) rotate(-22.81)" xlink:href="#_횂횁_횕_횑횑_횊_횏횂횑횣_1970"/><linearGradient id="_횂횁_횕_횑횑_횊_횏횂횑횣_1970-10" x1="59.96" y1="-119.16" x2="59.32" y2="-118.12" gradientTransform="translate(32.12 135.31) rotate(-22.81)" xlink:href="#_횂횁_횕_횑횑_횊_횏횂횑횣_1970"/><linearGradient id="_횂횁_횕_횑횑_횊_횏횂횑횣_1970-11" x1="76.44" y1="-95.2" x2="75.8" y2="-94.16" gradientTransform="translate(32.12 135.31) rotate(-22.81)" xlink:href="#_횂횁_횕_횑횑_횊_횏횂횑횣_1970"/><linearGradient id="_횂횁_횕_횑횑_횊_횏횂횑횣_1970-12" x1="76.98" y1="-109.2" x2="76.34" y2="-108.16" gradientTransform="translate(32.12 135.31) rotate(-22.81)" xlink:href="#_횂횁_횕_횑횑_횊_횏횂횑횣_1970"/><linearGradient id="_횂횁_횕_횑횑_횊_횏횂횑횣_1970-13" x1="599.21" y1="110.45" x2="598.57" y2="111.48" gradientTransform="translate(622.74 135.31) rotate(-157.19) scale(1 -1)" xlink:href="#_횂횁_횕_횑횑_횊_횏횂횑횣_1970"/><linearGradient id="_횂횁_횕_횑횑_횊_횏횂횑횣_1970-14" x1="528.64" y1="216.64" x2="528" y2="217.68" gradientTransform="translate(535.05 247.18) rotate(-133.2) scale(1 -1)" xlink:href="#_횂횁_횕_횑횑_횊_횏횂횑횣_1970"/><linearGradient id="_횂횁_횕_횑횑_횊_횏횂횑횣_1970-15" x1="593.83" y1="105.97" x2="593.19" y2="107.01" gradientTransform="translate(622.74 135.31) rotate(-157.19) scale(1 -1)" xlink:href="#_횂횁_횕_횑횑_횊_횏횂횑횣_1970"/><linearGradient id="_횂횁_횕_횑횑_횊_횏횂횑횣_1970-16" x1="607" y1="114.9" x2="606.36" y2="115.93" gradientTransform="translate(622.74 135.31) rotate(-157.19) scale(1 -1)" xlink:href="#_횂횁_횕_횑횑_횊_횏횂횑횣_1970"/><linearGradient id="_횂횁_횕_횑횑_횊_횏횂횑횣_1970-17" x1="636.08" y1="-28.58" x2="635.44" y2="-27.54" gradientTransform="translate(657.09 -31.97) rotate(173.29) scale(1 -1)" xlink:href="#_횂횁_횕_횑횑_횊_횏횂횑횣_1970"/><linearGradient id="_횂횁_횕_횑횑_횊_횏횂횑횣_1970-18" x1="640.15" y1="-39.83" x2="639.51" y2="-38.79" gradientTransform="translate(657.09 -31.97) rotate(173.29) scale(1 -1)" xlink:href="#_횂횁_횕_횑횑_횊_횏횂횑횣_1970"/><linearGradient id="_횂횁_횕_횑횑_횊_횏횂횑횣_1970-19" x1="607.78" y1="-30.12" x2="607.14" y2="-29.08" gradientTransform="translate(657.09 -31.97) rotate(173.29) scale(1 -1)" xlink:href="#_횂횁_횕_횑횑_횊_횏횂횑횣_1970"/><linearGradient id="_횂횁_횕_횑횑_횊_횏횂횑횣_1970-20" x1="585.69" y1="-26.56" x2="585.05" y2="-25.52" gradientTransform="translate(657.09 -31.97) rotate(173.29) scale(1 -1)" xlink:href="#_횂횁_횕_횑횑_횊_횏횂횑횣_1970"/><linearGradient id="_횂횁_횕_횑횑_횊_횏횂횑횣_1970-21" x1="456.45" y1="245.12" x2="455.81" y2="246.16" gradientTransform="translate(475.01 279.4) rotate(-120.44) scale(1 -1)" xlink:href="#_횂횁_횕_횑횑_횊_횏횂횑횣_1970"/><linearGradient id="_횂횁_횕_횑횑_횊_횏횂횑횣_1970-22" x1="441.66" y1="210.67" x2="441.02" y2="211.71" gradientTransform="translate(475.01 279.4) rotate(-120.44) scale(1 -1)" xlink:href="#_횂횁_횕_횑횑_횊_횏횂횑횣_1970"/><linearGradient id="_횂횁_횕_횑횑_횊_횏횂횑횣_1970-23" x1="610.55" y1="63.8" x2="609.91" y2="64.84" gradientTransform="translate(643.43 84.87) rotate(-167.34) scale(1 -1)" xlink:href="#_횂횁_횕_횑횑_횊_횏횂횑횣_1970"/><linearGradient id="_횂횁_횕_횑횑_횊_횏횂횑횣_1970-24" x1="617.29" y1="51.53" x2="616.65" y2="52.56" gradientTransform="translate(643.43 84.87) rotate(-167.34) scale(1 -1)" xlink:href="#_횂횁_횕_횑횑_횊_횏횂횑횣_1970"/><linearGradient id="_횂횁_횕_횑횑_횊_횏횂횑횣_1970-25" x1="443.53" y1="218.76" x2="442.89" y2="219.8" gradientTransform="translate(475.01 279.4) rotate(-120.44) scale(1 -1)" xlink:href="#_횂횁_횕_횑횑_횊_횏횂횑횣_1970"/><linearGradient id="_횂횁_횕_횑횑_횊_횏횂횑횣_1970-26" x1="570.22" y1="57.63" x2="569.58" y2="58.67" gradientTransform="translate(643.43 84.87) rotate(-167.34) scale(1 -1)" xlink:href="#_횂횁_횕_횑횑_횊_횏횂횑횣_1970"/></defs><g class="cls-15"><g id="Layer_2"><g id="_횓횙횊_2"><path class="cls-39" d="M1.44,28.12c-.72-.74-1.05-1.76-.91-2.78.53-4.11,3.23-15.78,16.98-21.51,16.85-7.02,31.66-1.28,37.4,3.32,0,0,2.38-2.85,8.6-1.06,0,0,.09-3.06,6.98.6,6.5,3.45,11.34,10.01,12.58,18.57.16,1.11-.2,2.21-.99,3-2.98,2.96-12.64,9.45-40.25,9.45S4.26,31.02,1.44,28.12Z"/><path class="cls-20" d="M47,21.92c13.28.43,16.43-8.6,7.91-14.77-.28-.2-.53-.39-.76-.57-5.17-3.73-15.94-7.82-28.73-5.2-10.46,3.31,9.3,20.14,21.57,20.53Z"/><path class="cls-18" d="M56.97,5.92c-3.74,1.28,3.48,5.25,8.07,5.47,4.6.22,4.26-3.61-1.53-5.31-3.04-.88-5.16-.64-6.54-.17Z"/><path class="cls-16" d="M70.49,6.68c-1.24-.66-2.26-1.1-3.1-1.38-4.18-1.32,5.84,8.39,10.08,10.06,1.81.71,2.09.21,1.66-.73-2.22-3.41-5.19-6.12-8.64-7.95Z"/><path class="cls-12" d="M67.38,5.31c-3.81-1.27-3.88.78-3.88.78.98.29,1.79.64,2.46,1.02.03.02.05.03.09.04.02.01.04.03.06.04.06.03.11.07.17.11.12.08.25.16.37.25.54.39.93.79,1.18,1.19,1.75,2.26,2.99,6.48,1.69,12.65,0,0,5.72-6.08,1.49-10.54-3.47-3.07-6.17-6.34-3.63-5.54Z"/><path class="cls-10" d="M56.97,5.92c.17-.06.35-.11.54-.16-1.82.47-2.6,1.39-2.6,1.39,1.82,1.32,3.11,2.77,3.87,4.23,2.05,3.18,1.74,10,1.74,10,3.57-2.04,5.43-8.81-.34-11.18-3.28-1.34-5.74-3.42-3.22-4.28Z"/><path class="cls-21" d="M1.44,28.12c2.82,2.9,12.36,9.59,40.38,9.59s37.28-6.49,40.25-9.45c.55-.55.88-1.26.98-2.01-.6,3.4-9.76,7.07-14.86,6.32-5.19-.77-5.37-.26-8.8,2.04-3.43,2.3-7.29-1.4-11.51.19s-5.23-1.85-13.34-.19C26.45,36.26-.49,26.56,1.88,19.84c-.82,2.28-1.19,4.24-1.35,5.5-.13,1.02.2,2.04.91,2.78Z"/><path class="cls-13" d="M68,25.52c-5.3,6.75-10.39.4-10.39.4C40.19,40.65-1.52,19.63,9.56,8.66,2.62,14.61.93,22.19.53,25.34c-.13,1.02.2,2.04.91,2.78,2.82,2.9,12.36,9.59,40.38,9.59s37.28-6.49,40.25-9.45c.79-.79,1.15-1.9.99-3-.16-1.11-.38-2.18-.66-3.22,2.33,9.62-14.41,3.49-14.41,3.49Z"/><path class="cls-14" d="M3.95,23.11c-.14-1.18,4.71,3.6,3.89,4.3-.82.7-3.31.64-3.89-4.3Z"/><path class="cls-14" d="M75.14,30.47c-.54-.27,4.37-2.51,4.12-1.66s-1.84,2.77-4.12,1.66Z"/><path class="cls-14" d="M17.26,8.48c-.51-.31,3.16-1.03,3.12-.43-.04.6-.99,1.73-3.12.43Z"/><path class="cls-14" d="M8.7,27.12c-.83-.16-.78-1.15.45-.49,1.23.65.61.7-.45.49Z"/><path class="cls-14" d="M65.26,32.03c-.83-.16-.78-1.15.45-.49,1.23.65.61.7-.45.49Z"/><path class="cls-14" d="M20.06,6.47c-.83-.16-.78-1.15.45-.49,1.23.65.61.7-.45.49Z"/><path class="cls-14" d="M22.21,32.22c-2-1.12,1.21-1.88,1.31-.89.1.99.51,1.91-1.31.89Z"/><path class="cls-14" d="M24.61,32.13c.76-.11,1.05-.83.26-.83s-1.53,1.02-.26.83Z"/><path class="cls-14" d="M46.92,34.09c.76-.11,1.05-.83.26-.83s-1.53,1.02-.26.83Z"/><path class="cls-14" d="M15.02,26.15c.76-.11,1.05-.83.26-.83s-1.53,1.02-.26.83Z"/><path class="cls-14" d="M55.27,30.3c1.2-.05.59-1.42,0-1.13s-.69,1.16,0,1.13Z"/><path class="cls-14" d="M44.99,34.86c1.2-.05.59-1.42,0-1.13s-.69,1.16,0,1.13Z"/><path class="cls-14" d="M32.82,16.5c2.02-.09,1-2.39,0-1.9-1,.49-1.15,1.95,0,1.9Z"/><path class="cls-14" d="M75,29.43c1.2-.05.59-1.42,0-1.13-.59.29-.69,1.16,0,1.13Z"/><path class="cls-14" d="M56.64,29.17c.44.05.62-.55.16-.65-.47-.09-.78.58-.16.65Z"/><path class="cls-14" d="M35,16.82c.44.05.62-.55.16-.65-.47-.09-.78.58-.16.65Z"/><path class="cls-19" d="M57.94,14.72c-1.44,3.16-7.81,3.35-14.22.43s-10.45-7.86-9.01-11.02c1.44-3.16,7.81-3.35,14.22-.43s10.45,7.86,9.01,11.02Z"/><path class="cls-17" d="M66.71,9.52c-.39,1.1-2.52,1.36-4.76.57-2.24-.79-3.74-2.32-3.35-3.43.39-1.1,2.52-1.36,4.76-.57,2.24.79,3.74,2.32,3.35,3.43Z"/><g class="cls-9"><path class="cls-11" d="M42.74,7.96c0-1.11-1.56-.91-2.01-.83-.09.02-.12.02-.12.02-.91.1,2.13,1.87,2.13.81Z"/><path class="cls-11" d="M23.06,17.86c-.09.02-.12.02-.12.02-.34.04-.13.31.27.58.13.09.29.18.45.26.65.32,1.4.5,1.41-.03,0-1.11-1.56-.91-2.01-.83Z"/><path class="cls-11" d="M47.38,5.16c-.09.02-.12.02-.12.02-.34.04-.13.31.27.58.13.09.29.18.45.26.65.32,1.4.5,1.41-.03,0-1.11-1.56-.91-2.01-.83Z"/><path class="cls-11" d="M48.23,3.75c0-1.13-1.61-.91-2.03-.83-.07.01-.1.02-.1.02-.17.02-.2.1-.14.2.02.04.05.07.09.12.47.49,2.18,1.29,2.18.49Z"/><path class="cls-11" d="M54.11,12.65c0-.97-1.2-.94-1.79-.86-.07,0-.12.02-.17.03-.02,0-.06,0-.07.01-.06.01-.09.02-.09.02-.17.02-.2.1-.14.2.26.46,2.27,1.47,2.27.61h0Z"/><path class="cls-11" d="M41.35,20.61c-.09.02-.12.02-.12.02-.23.03-.21.15-.05.32.27.28.93.65,1.45.78.03,0,.05.01.08.02.37.07.65.02.65-.31,0-1.11-1.56-.91-2.01-.83Z"/><path class="cls-11" d="M64.49,9.44c.14,0,.25,0,.33-.06.08-.05.13-.14.13-.28,0-1.13-1.61-.91-2.03-.83-.07.01-.1.02-.1.02-.17.02-.2.1-.14.2.06.11.21.24.41.38.4.27.99.54,1.39.56Z"/><path class="cls-11" d="M74.29,12.96c-.07.01-.1.02-.1.02-.17.02-.2.1-.14.2.06.11.21.24.41.38.4.27.99.54,1.39.56.14,0,.25,0,.33-.06.08-.05.13-.14.13-.28,0-1.13-1.61-.91-2.03-.83Z"/><path class="cls-11" d="M51.08,15.55c-.09.05-.12.1-.11.15.06.2.75.35,1.38.35.09,0,.18,0,.26,0,.51-.04.9-.21.75-.57-.5-1.2-2.27.08-2.27.08Z"/><path class="cls-11" d="M40.97,3.8c.18.01.36.01.52,0,.09,0,.17-.02.24-.03.23-.04.41-.12.49-.24.05-.08.06-.18.01-.3-.5-1.2-2.27.08-2.27.08-.06.03-.09.06-.1.09-.07.13.2.26.58.33.08.02.16.03.25.04.09.01.18.02.27.03Z"/><path class="cls-11" d="M66.72,18.92c-.5-1.2-2.27.08-2.27.08-.2.11-.13.22.08.31.05.02.11.04.18.06.13.04.3.07.47.09.09.01.18.02.27.03.09,0,.18,0,.27,0,.54,0,1.03-.12,1.05-.42,0-.05,0-.11-.03-.17Z"/><path class="cls-11" d="M61.04,6.38c.17-.01.33-.04.46-.08.13-.04.23-.11.28-.19.05-.08.06-.18.01-.3-.38-.9-1.47-.4-1.99-.1-.17.1-.29.18-.29.18-.2.11-.13.22.08.31.05.02.11.04.18.06.34.1.84.15,1.27.12Z"/><path class="cls-11" d="M28.79,5.89s-.11-.08-.29-.18c-.52-.3-1.61-.8-1.99.1-.05.12-.04.22.01.3.05.08.15.14.28.19.13.04.29.07.46.08.43.03.93-.02,1.27-.12.07-.02.13-.04.18-.06.21-.09.28-.2.08-.31Z"/><path class="cls-11" d="M14.03,10.61c-.15.14-.15.28-.05.43.03.05.07.09.12.14.15.14.37.27.62.38.08.04.17.07.25.1.25.09.51.16.72.19.14.02.26.02.34,0,.12-.03.15-.11.05-.24,0,0-1.1-1.89-2.05-1Z"/><path class="cls-11" d="M35.49,3.85s-.03-.02-.07-.05c-.35-.23-1.76-1.07-2.2-.03-.02.05-.02.09-.03.13,0,.34.5.45,1.04.45.09,0,.18,0,.27,0,.36-.02.71-.09.92-.18.05-.02.1-.05.13-.07.06-.05.09-.1.05-.16-.02-.03-.05-.06-.1-.08Z"/><path class="cls-11" d="M19.99,7.05s-.05-.06-.1-.08c0,0-1.77-1.28-2.27-.08-.05.12-.04.22.01.3.05.08.15.14.28.19.13.04.29.07.46.08.26.02.54,0,.8-.02.09-.01.17-.02.25-.04.32-.06.56-.16.59-.26,0-.03,0-.05-.01-.08Z"/><path class="cls-11" d="M23.49,14.39s-2.17-.24-2.02,1.05c.02.13.07.21.16.26.26.13.79-.09,1.24-.39.6-.4,1.08-.92.62-.92Z"/><path class="cls-11" d="M18.1,4.15c.05-.05.09-.1.13-.14.14-.18.14-.31-.09-.31,0,0-.14-.01-.34-.02-.6,0-1.8.1-1.68,1.07.05.4.47.35.93.13.39-.18.8-.48,1.05-.73Z"/><path class="cls-11" d="M51.41,9.55s-.14-.01-.34-.02c-.6,0-1.8.1-1.68,1.07.02.13.07.21.16.26.61.3,2.66-1.31,1.86-1.31Z"/><path class="cls-11" d="M73.85,10.81c.14-.18.14-.31-.09-.31,0,0-.14-.01-.34-.02-.6,0-1.8.1-1.68,1.07.05.4.47.35.93.13.39-.18.8-.48,1.05-.73.05-.05.09-.1.13-.14Z"/><path class="cls-11" d="M32.95,11.97s.05-.1,0-.2c0,0-.66-2.08-1.78-1.42-.17.1-.2.24-.14.4.04.11.12.22.23.33.16.17.38.34.6.49.45.29.95.49,1.08.4Z"/><path class="cls-11" d="M70.14,7.06s-.01-.03-.03-.09c-.14-.39-.77-1.91-1.74-1.34-.86.51,1.78,2.05,1.81,1.55,0-.03,0-.08-.03-.13h0Z"/><path class="cls-11" d="M35.06,14.14s-1.97-.94-2.25.32c-.03.13,0,.23.07.3.07.07.18.11.31.13.4.06,1.03-.07,1.48-.25.45-.18.72-.4.39-.51Z"/><path class="cls-11" d="M31.18.68s-.03-.01-.09-.04c-.39-.17-1.92-.75-2.17.36-.12.52.66.51,1.36.34.26-.07.51-.15.7-.25.13-.06.22-.13.28-.19.08-.09.07-.17-.09-.23Z"/><path class="cls-11" d="M60.45,8.13s-.04.04-.06.05c-.04.03-.07.07-.08.1-.03.07-.04.16,0,.24.02.05.05.11.09.16.15.22.44.46.74.66.45.29.95.49,1.08.4.05-.03.05-.1,0-.2,0,0-.66-2.08-1.78-1.42Z"/><path class="cls-11" d="M75.77,16.96s-1.97-.94-2.25.32c-.15.65,1.11.48,1.86.18.45-.18.72-.4.39-.51Z"/></g><path class="cls-40" d="M40.61,6.81s2.13-.49,2.13.81c0,1.06-3.04-.71-2.13-.81Z"/><path class="cls-14" d="M42.74,7.62c.02.53-2.59-.78-1.8-.86-.19.02-.33.06-.33.06-.91.1,2.13,1.87,2.13.81Z"/><path class="cls-3" d="M22.94,17.53s2.13-.49,2.13.81c0,1.06-3.04-.71-2.13-.81Z"/><path class="cls-14" d="M25.06,18.34c.02.53-2.59-.78-1.8-.86-.19.02-.33.06-.33.06-.91.1,2.13,1.87,2.13.81Z"/><path class="cls-5" d="M47.26,4.83s2.13-.49,2.13.81c0,1.06-3.04-.71-2.13-.81Z"/><path class="cls-14" d="M49.38,5.64c.02.53-2.59-.78-1.8-.86-.19.02-.33.06-.33.06-.91.1,2.13,1.87,2.13.81Z"/><path class="cls-7" d="M46.11,2.59s2.13-.49,2.13.81c0,1.06-3.04-.71-2.13-.81Z"/><path class="cls-14" d="M48.23,3.4c.02.53-2.59-.78-1.8-.86-.19.02-.33.06-.33.06-.91.1,2.13,1.87,2.13.81Z"/><path class="cls-2" d="M51.98,11.49s2.13-.49,2.13.81c0,1.06-3.04-.71-2.13-.81Z"/><path class="cls-14" d="M54.11,12.3c.02.53-2.59-.78-1.8-.86-.19.02-.33.06-.33.06-.91.1,2.13,1.87,2.13.81Z"/><path class="cls-1" d="M41.23,20.29s2.13-.49,2.13.81c0,1.06-3.04-.71-2.13-.81Z"/><path class="cls-14" d="M43.36,21.1c.02.53-2.59-.78-1.8-.86-.19.02-.33.06-.33.06-.91.1,2.13,1.87,2.13.81Z"/><path class="cls-6" d="M62.83,7.95s2.13-.49,2.13.81c0,1.06-3.04-.71-2.13-.81Z"/><path class="cls-14" d="M64.95,8.76c.02.53-2.59-.78-1.8-.86-.19.02-.33.06-.33.06-.91.1,2.13,1.87,2.13.81Z"/><path class="cls-4" d="M74.19,12.64s2.13-.49,2.13.81c0,1.06-3.04-.71-2.13-.81Z"/><path class="cls-14" d="M76.32,13.44c.02.53-2.59-.78-1.8-.86-.19.02-.33.06-.33.06-.91.1,2.13,1.87,2.13.81Z"/><path class="cls-8" d="M51.08,15.2s1.77-1.28,2.27-.08c.41.98-3.07.53-2.27.08Z"/><path class="cls-14" d="M53.36,15.12c.23.48-2.68.29-1.99-.1-.17.1-.28.18-.28.18-.8.45,2.69.9,2.27-.08Z"/><path class="cls-35" d="M39.97,2.96s1.77-1.28,2.27-.08c.41.98-3.07.53-2.27.08Z"/><path class="cls-14" d="M42.24,2.88c.23.48-2.68.29-1.99-.1-.17.1-.28.18-.28.18-.8.45,2.69.9,2.27-.08Z"/><path class="cls-34" d="M64.45,18.65s1.77-1.28,2.27-.08c.41.98-3.07.53-2.27.08Z"/><path class="cls-14" d="M66.72,18.57c.23.48-2.68.29-1.99-.1-.17.1-.28.18-.28.18-.8.45,2.69.9,2.27-.08Z"/><path class="cls-33" d="M59.52,5.54s1.77-1.28,2.27-.08c.41.98-3.07.53-2.27.08Z"/><path class="cls-14" d="M61.79,5.46c.23.48-2.68.29-1.99-.1-.17.1-.28.18-.28.18-.8.45,2.69.9,2.27-.08Z"/><path class="cls-32" d="M28.79,5.54s-1.77-1.28-2.27-.08c-.41.98,3.07.53,2.27.08Z"/><path class="cls-14" d="M26.52,5.46c-.23.48,2.68.29,1.99-.1.17.1.28.18.28.18.8.45-2.69.9-2.27-.08Z"/><path class="cls-36" d="M16.08,11.26s-1.1-1.89-2.05-1c-.78.73,2.59,1.73,2.05,1Z"/><path class="cls-14" d="M14.03,10.26c-.4.35,2.34,1.35,1.86.72.11.16.18.28.18.28.55.73-2.82-.27-2.05-1Z"/><path class="cls-27" d="M35.49,3.51s-1.77-1.28-2.27-.08c-.41.98,3.07.53,2.27.08Z"/><path class="cls-14" d="M33.22,3.43c-.23.48,2.68.29,1.99-.1.17.1.28.18.28.18.8.45-2.69.9-2.27-.08Z"/><path class="cls-28" d="M19.89,6.63s-1.77-1.28-2.27-.08c-.41.98,3.07.53,2.27.08Z"/><path class="cls-14" d="M17.62,6.55c-.23.48,2.68.29,1.99-.1.17.1.28.18.28.18.8.45-2.69.9-2.27-.08Z"/><path class="cls-29" d="M23.49,14.04s-2.17-.24-2.02,1.05c.12,1.06,2.93-1.06,2.02-1.05Z"/><path class="cls-14" d="M21.47,15.09c.04.53,2.48-1.07,1.69-1.07.19,0,.33.02.33.02.92,0-1.89,2.11-2.02,1.05Z"/><path class="cls-30" d="M18.13,3.35s-2.17-.24-2.02,1.05c.12,1.06,2.93-1.06,2.02-1.05Z"/><path class="cls-14" d="M16.11,4.4c.04.53,2.48-1.07,1.69-1.07.19,0,.33.02.33.02.92,0-1.89,2.11-2.02,1.05Z"/><path class="cls-31" d="M51.41,9.2s-2.17-.24-2.02,1.05c.12,1.06,2.93-1.06,2.02-1.05Z"/><path class="cls-14" d="M49.39,10.25c.04.53,2.48-1.07,1.69-1.07.19,0,.33.02.33.02.92,0-1.89,2.11-2.02,1.05Z"/><path class="cls-25" d="M73.77,10.16s-2.17-.24-2.02,1.05c.12,1.06,2.93-1.06,2.02-1.05Z"/><path class="cls-14" d="M71.75,11.21c.04.53,2.48-1.07,1.69-1.07.19,0,.33.02.33.02.92,0-1.89,2.11-2.02,1.05Z"/><path class="cls-22" d="M32.95,11.42s-.66-2.08-1.78-1.42c-.92.54,2.15,2.26,1.78,1.42Z"/><path class="cls-14" d="M31.18,10c-.47.25,1.98,1.84,1.66,1.11.08.18.12.31.12.31.37.84-2.69-.88-1.78-1.42Z"/><path class="cls-26" d="M70.15,6.71s-.66-2.08-1.78-1.42c-.92.54,2.15,2.26,1.78,1.42Z"/><path class="cls-14" d="M68.37,5.29c-.47.25,1.98,1.84,1.66,1.11.08.18.12.31.12.31.37.84-2.69-.88-1.78-1.42Z"/><path class="cls-24" d="M35.06,13.79s-1.97-.94-2.25.32c-.23,1.04,3.12-.02,2.25-.32Z"/><path class="cls-14" d="M32.81,14.11c-.14.51,2.69-.19,1.95-.45.18.07.31.13.31.13.87.3-2.49,1.36-2.25.32Z"/><path class="cls-23" d="M31.18.34s-1.97-.94-2.25.32c-.23,1.04,3.12-.02,2.25-.32Z"/><path class="cls-14" d="M28.93.66c-.14.51,2.69-.19,1.95-.45.18.07.31.13.31.13.87.3-2.49,1.36-2.25.32Z"/><path class="cls-37" d="M62.23,9.2s-.66-2.08-1.78-1.42c-.92.54,2.15,2.26,1.78,1.42Z"/><path class="cls-14" d="M60.45,7.78c-.47.25,1.98,1.84,1.66,1.11.08.18.12.31.12.31.37.84-2.69-.88-1.78-1.42Z"/><path class="cls-38" d="M75.77,16.61s-1.97-.94-2.25.32c-.23,1.04,3.12-.02,2.25-.32Z"/><path class="cls-14" d="M73.51,16.93c-.14.51,2.69-.19,1.95-.45.18.07.31.13.31.13.87.3-2.49,1.36-2.25.32Z"/></g></g></g></svg>